<?xml version="1.0" encoding="UTF-8"?>
<!DOCTYPE xmeml>
<xmeml version="5">
    <sequence>
        <name>SecondScene.Park (Resolve)</name>
        <duration>45077</duration>
        <rate>
            <timebase>24</timebase>
            <ntsc>TRUE</ntsc>
        </rate>
        <in>-1</in>
        <out>-1</out>
        <timecode>
            <string>01:00:00:00</string>
            <frame>86400</frame>
            <displayformat>NDF</displayformat>
            <rate>
                <timebase>24</timebase>
                <ntsc>TRUE</ntsc>
            </rate>
        </timecode>
        <media>
            <video>
                <track>
                    <clipitem id="SecondScenePark.Birds.R3D 0">
                        <name>SecondScenePark.Birds.R3D</name>
                        <duration>245</duration>
                        <rate>
                            <timebase>24</timebase>
                            <ntsc>TRUE</ntsc>
                        </rate>
                        <start>0</start>
                        <end>245</end>
                        <enabled>TRUE</enabled>
                        <in>0</in>
                        <out>245</out>
                        <file id="SecondScenePark.Birds.R3D 2">
                            <duration>245</duration>
                            <rate>
                                <timebase>24</timebase>
                                <ntsc>TRUE</ntsc>
                            </rate>
                            <name>B030_C002_0101BH_001.R3D</name>
                            <pathurl>file:///Volumes/Jackson/movies/JacksonTheMovie/Premier/V1-0001_B030_C002_0101BH.mov</pathurl>
                            <timecode>
                                <string>00:44:28:23</string>
                                <displayformat>NDF</displayformat>
                                <rate>
                                    <timebase>24</timebase>
                                    <ntsc>TRUE</ntsc>
                                </rate>
                            </timecode>
                            <media>
                                <video>
                                    <duration>245</duration>
                                    <samplecharacteristics>
                                        <width>1920</width>
                                        <height>1080</height>
                                    </samplecharacteristics>
                                </video>
                                <audio>
                                    <channelcount>2</channelcount>
                                </audio>
                            </media>
                        </file>
                        <compositemode>normal</compositemode>
                        <filter>
                            <enabled>TRUE</enabled>
                            <start>0</start>
                            <end>245</end>
                            <effect>
                                <name>Opacity</name>
                                <effectid>opacity</effectid>
                                <effecttype>motion</effecttype>
                                <mediatype>video</mediatype>
                                <effectcategory>motion</effectcategory>
                                <parameter>
                                    <name>opacity</name>
                                    <parameterid>opacity</parameterid>
                                    <value>100</value>
                                    <valuemin>0</valuemin>
                                    <valuemax>100</valuemax>
                                </parameter>
                            </effect>
                        </filter>
                        <link>
                            <linkclipref>SecondScenePark.Birds.R3D 0</linkclipref>
                        </link>
                        <link>
                            <linkclipref>SecondScenePark.Birds.R3D 3</linkclipref>
                        </link>
                        <comments/>
                    </clipitem>
                    <clipitem id="SecondScenePark.Birds2.R3D 0">
                        <name>SecondScenePark.Birds2.R3D</name>
                        <duration>635</duration>
                        <rate>
                            <timebase>24</timebase>
                            <ntsc>TRUE</ntsc>
                        </rate>
                        <start>245</start>
                        <end>880</end>
                        <enabled>TRUE</enabled>
                        <in>0</in>
                        <out>635</out>
                        <file id="SecondScenePark.Birds2.R3D 2">
                            <duration>635</duration>
                            <rate>
                                <timebase>24</timebase>
                                <ntsc>TRUE</ntsc>
                            </rate>
                            <name>B030_C003_0101VJ_001.R3D</name>
                            <pathurl>file:///Volumes/Jackson/movies/JacksonTheMovie/Premier/V1-0002_B030_C003_0101VJ.mov</pathurl>
                            <timecode>
                                <string>00:45:33:12</string>
                                <displayformat>NDF</displayformat>
                                <rate>
                                    <timebase>24</timebase>
                                    <ntsc>TRUE</ntsc>
                                </rate>
                            </timecode>
                            <media>
                                <video>
                                    <duration>635</duration>
                                    <samplecharacteristics>
                                        <width>1920</width>
                                        <height>1080</height>
                                    </samplecharacteristics>
                                </video>
                                <audio>
                                    <channelcount>2</channelcount>
                                </audio>
                            </media>
                        </file>
                        <compositemode>normal</compositemode>
                        <filter>
                            <enabled>TRUE</enabled>
                            <start>0</start>
                            <end>635</end>
                            <effect>
                                <name>Opacity</name>
                                <effectid>opacity</effectid>
                                <effecttype>motion</effecttype>
                                <mediatype>video</mediatype>
                                <effectcategory>motion</effectcategory>
                                <parameter>
                                    <name>opacity</name>
                                    <parameterid>opacity</parameterid>
                                    <value>100</value>
                                    <valuemin>0</valuemin>
                                    <valuemax>100</valuemax>
                                </parameter>
                            </effect>
                        </filter>
                        <link>
                            <linkclipref>SecondScenePark.Birds2.R3D 0</linkclipref>
                        </link>
                        <link>
                            <linkclipref>SecondScenePark.Birds2.R3D 3</linkclipref>
                        </link>
                        <comments/>
                    </clipitem>
                    <clipitem id="SecondScenePark.Birds3.R3D 0">
                        <name>SecondScenePark.Birds3.R3D</name>
                        <duration>480</duration>
                        <rate>
                            <timebase>24</timebase>
                            <ntsc>TRUE</ntsc>
                        </rate>
                        <start>880</start>
                        <end>1360</end>
                        <enabled>TRUE</enabled>
                        <in>0</in>
                        <out>480</out>
                        <file id="SecondScenePark.Birds3.R3D 2">
                            <duration>480</duration>
                            <rate>
                                <timebase>24</timebase>
                                <ntsc>TRUE</ntsc>
                            </rate>
                            <name>B030_C004_0101F9_001.R3D</name>
                            <pathurl>file:///Volumes/Jackson/movies/JacksonTheMovie/Premier/V1-0003_B030_C004_0101F9.mov</pathurl>
                            <timecode>
                                <string>00:46:29:01</string>
                                <displayformat>NDF</displayformat>
                                <rate>
                                    <timebase>24</timebase>
                                    <ntsc>TRUE</ntsc>
                                </rate>
                            </timecode>
                            <media>
                                <video>
                                    <duration>480</duration>
                                    <samplecharacteristics>
                                        <width>1920</width>
                                        <height>1080</height>
                                    </samplecharacteristics>
                                </video>
                                <audio>
                                    <channelcount>2</channelcount>
                                </audio>
                            </media>
                        </file>
                        <compositemode>normal</compositemode>
                        <filter>
                            <enabled>TRUE</enabled>
                            <start>0</start>
                            <end>480</end>
                            <effect>
                                <name>Opacity</name>
                                <effectid>opacity</effectid>
                                <effecttype>motion</effecttype>
                                <mediatype>video</mediatype>
                                <effectcategory>motion</effectcategory>
                                <parameter>
                                    <name>opacity</name>
                                    <parameterid>opacity</parameterid>
                                    <value>100</value>
                                    <valuemin>0</valuemin>
                                    <valuemax>100</valuemax>
                                </parameter>
                            </effect>
                        </filter>
                        <link>
                            <linkclipref>SecondScenePark.Birds3.R3D 0</linkclipref>
                        </link>
                        <link>
                            <linkclipref>SecondScenePark.Birds3.R3D 3</linkclipref>
                        </link>
                        <comments/>
                    </clipitem>
                    <clipitem id="SecondScenePark.ExtraCart.R3D 0">
                        <name>SecondScenePark.ExtraCart.R3D</name>
                        <duration>780</duration>
                        <rate>
                            <timebase>24</timebase>
                            <ntsc>TRUE</ntsc>
                        </rate>
                        <start>1360</start>
                        <end>2140</end>
                        <enabled>TRUE</enabled>
                        <in>0</in>
                        <out>780</out>
                        <file id="SecondScenePark.ExtraCart.R3D 2">
                            <duration>780</duration>
                            <rate>
                                <timebase>24</timebase>
                                <ntsc>TRUE</ntsc>
                            </rate>
                            <name>B031_C037_0101YC_001.R3D</name>
                            <pathurl>file:///Volumes/Jackson/movies/JacksonTheMovie/Premier/V1-0004_B031_C037_0101YC.mov</pathurl>
                            <timecode>
                                <string>01:41:32:21</string>
                                <displayformat>NDF</displayformat>
                                <rate>
                                    <timebase>24</timebase>
                                    <ntsc>TRUE</ntsc>
                                </rate>
                            </timecode>
                            <media>
                                <video>
                                    <duration>780</duration>
                                    <samplecharacteristics>
                                        <width>1920</width>
                                        <height>1080</height>
                                    </samplecharacteristics>
                                </video>
                                <audio>
                                    <channelcount>2</channelcount>
                                </audio>
                            </media>
                        </file>
                        <compositemode>normal</compositemode>
                        <filter>
                            <enabled>TRUE</enabled>
                            <start>0</start>
                            <end>780</end>
                            <effect>
                                <name>Opacity</name>
                                <effectid>opacity</effectid>
                                <effecttype>motion</effecttype>
                                <mediatype>video</mediatype>
                                <effectcategory>motion</effectcategory>
                                <parameter>
                                    <name>opacity</name>
                                    <parameterid>opacity</parameterid>
                                    <value>100</value>
                                    <valuemin>0</valuemin>
                                    <valuemax>100</valuemax>
                                </parameter>
                            </effect>
                        </filter>
                        <link>
                            <linkclipref>SecondScenePark.ExtraCart.R3D 0</linkclipref>
                        </link>
                        <link>
                            <linkclipref>SecondScenePark.ExtraCart.R3D 3</linkclipref>
                        </link>
                        <comments/>
                    </clipitem>
                    <clipitem id="SecondScenePark.ExtraShots.R3D 0">
                        <name>SecondScenePark.ExtraShots.R3D</name>
                        <duration>550</duration>
                        <rate>
                            <timebase>24</timebase>
                            <ntsc>TRUE</ntsc>
                        </rate>
                        <start>2140</start>
                        <end>2690</end>
                        <enabled>TRUE</enabled>
                        <in>0</in>
                        <out>550</out>
                        <file id="SecondScenePark.ExtraShots.R3D 2">
                            <duration>550</duration>
                            <rate>
                                <timebase>24</timebase>
                                <ntsc>TRUE</ntsc>
                            </rate>
                            <name>B030_C001_0101FT_001.R3D</name>
                            <pathurl>file:///Volumes/Jackson/movies/JacksonTheMovie/Premier/V1-0005_B030_C001_0101FT.mov</pathurl>
                            <timecode>
                                <string>00:41:53:14</string>
                                <displayformat>NDF</displayformat>
                                <rate>
                                    <timebase>24</timebase>
                                    <ntsc>TRUE</ntsc>
                                </rate>
                            </timecode>
                            <media>
                                <video>
                                    <duration>550</duration>
                                    <samplecharacteristics>
                                        <width>1920</width>
                                        <height>1080</height>
                                    </samplecharacteristics>
                                </video>
                                <audio>
                                    <channelcount>2</channelcount>
                                </audio>
                            </media>
                        </file>
                        <compositemode>normal</compositemode>
                        <filter>
                            <enabled>TRUE</enabled>
                            <start>0</start>
                            <end>550</end>
                            <effect>
                                <name>Opacity</name>
                                <effectid>opacity</effectid>
                                <effecttype>motion</effecttype>
                                <mediatype>video</mediatype>
                                <effectcategory>motion</effectcategory>
                                <parameter>
                                    <name>opacity</name>
                                    <parameterid>opacity</parameterid>
                                    <value>100</value>
                                    <valuemin>0</valuemin>
                                    <valuemax>100</valuemax>
                                </parameter>
                            </effect>
                        </filter>
                        <link>
                            <linkclipref>SecondScenePark.ExtraShots.R3D 0</linkclipref>
                        </link>
                        <link>
                            <linkclipref>SecondScenePark.ExtraShots.R3D 3</linkclipref>
                        </link>
                        <comments/>
                    </clipitem>
                    <clipitem id="SecondScenePark.GelateriaChildren.R3D 0">
                        <name>SecondScenePark.GelateriaChildren.R3D</name>
                        <duration>485</duration>
                        <rate>
                            <timebase>24</timebase>
                            <ntsc>TRUE</ntsc>
                        </rate>
                        <start>2690</start>
                        <end>3175</end>
                        <enabled>TRUE</enabled>
                        <in>0</in>
                        <out>485</out>
                        <file id="SecondScenePark.GelateriaChildren.R3D 2">
                            <duration>485</duration>
                            <rate>
                                <timebase>24</timebase>
                                <ntsc>TRUE</ntsc>
                            </rate>
                            <name>B031_C035_0101TB_001.R3D</name>
                            <pathurl>file:///Volumes/Jackson/movies/JacksonTheMovie/Premier/V1-0006_B031_C035_0101TB.mov</pathurl>
                            <timecode>
                                <string>01:40:12:05</string>
                                <displayformat>NDF</displayformat>
                                <rate>
                                    <timebase>24</timebase>
                                    <ntsc>TRUE</ntsc>
                                </rate>
                            </timecode>
                            <media>
                                <video>
                                    <duration>485</duration>
                                    <samplecharacteristics>
                                        <width>1920</width>
                                        <height>1080</height>
                                    </samplecharacteristics>
                                </video>
                                <audio>
                                    <channelcount>2</channelcount>
                                </audio>
                            </media>
                        </file>
                        <compositemode>normal</compositemode>
                        <filter>
                            <enabled>TRUE</enabled>
                            <start>0</start>
                            <end>485</end>
                            <effect>
                                <name>Opacity</name>
                                <effectid>opacity</effectid>
                                <effecttype>motion</effecttype>
                                <mediatype>video</mediatype>
                                <effectcategory>motion</effectcategory>
                                <parameter>
                                    <name>opacity</name>
                                    <parameterid>opacity</parameterid>
                                    <value>100</value>
                                    <valuemin>0</valuemin>
                                    <valuemax>100</valuemax>
                                </parameter>
                            </effect>
                        </filter>
                        <link>
                            <linkclipref>SecondScenePark.GelateriaChildren.R3D 0</linkclipref>
                        </link>
                        <link>
                            <linkclipref>SecondScenePark.GelateriaChildren.R3D 3</linkclipref>
                        </link>
                        <comments/>
                    </clipitem>
                    <clipitem id="SecondScenePark.ParkExtra.R3D 0">
                        <name>SecondScenePark.ParkExtra.R3D</name>
                        <duration>153</duration>
                        <rate>
                            <timebase>24</timebase>
                            <ntsc>TRUE</ntsc>
                        </rate>
                        <start>3175</start>
                        <end>3328</end>
                        <enabled>TRUE</enabled>
                        <in>0</in>
                        <out>153</out>
                        <file id="SecondScenePark.ParkExtra.R3D 2">
                            <duration>153</duration>
                            <rate>
                                <timebase>24</timebase>
                                <ntsc>TRUE</ntsc>
                            </rate>
                            <name>B031_C036_0101H9_001.R3D</name>
                            <pathurl>file:///Volumes/Jackson/movies/JacksonTheMovie/Premier/V1-0007_B031_C036_0101H9.mov</pathurl>
                            <timecode>
                                <string>01:41:18:14</string>
                                <displayformat>NDF</displayformat>
                                <rate>
                                    <timebase>24</timebase>
                                    <ntsc>TRUE</ntsc>
                                </rate>
                            </timecode>
                            <media>
                                <video>
                                    <duration>153</duration>
                                    <samplecharacteristics>
                                        <width>1920</width>
                                        <height>1080</height>
                                    </samplecharacteristics>
                                </video>
                                <audio>
                                    <channelcount>2</channelcount>
                                </audio>
                            </media>
                        </file>
                        <compositemode>normal</compositemode>
                        <filter>
                            <enabled>TRUE</enabled>
                            <start>0</start>
                            <end>153</end>
                            <effect>
                                <name>Opacity</name>
                                <effectid>opacity</effectid>
                                <effecttype>motion</effecttype>
                                <mediatype>video</mediatype>
                                <effectcategory>motion</effectcategory>
                                <parameter>
                                    <name>opacity</name>
                                    <parameterid>opacity</parameterid>
                                    <value>100</value>
                                    <valuemin>0</valuemin>
                                    <valuemax>100</valuemax>
                                </parameter>
                            </effect>
                        </filter>
                        <link>
                            <linkclipref>SecondScenePark.ParkExtra.R3D 0</linkclipref>
                        </link>
                        <link>
                            <linkclipref>SecondScenePark.ParkExtra.R3D 3</linkclipref>
                        </link>
                        <comments/>
                    </clipitem>
                    <clipitem id="SecondScenePark.1.Apple.Take1.R3D 0">
                        <name>SecondScenePark.1.Apple.Take1.R3D</name>
                        <duration>1124</duration>
                        <rate>
                            <timebase>24</timebase>
                            <ntsc>TRUE</ntsc>
                        </rate>
                        <start>3328</start>
                        <end>4452</end>
                        <enabled>TRUE</enabled>
                        <in>0</in>
                        <out>1124</out>
                        <file id="SecondScenePark.1.Apple.Take1.R3D 2">
                            <duration>1124</duration>
                            <rate>
                                <timebase>24</timebase>
                                <ntsc>TRUE</ntsc>
                            </rate>
                            <name>B031_C015_01016J_001.R3D</name>
                            <pathurl>file:///Volumes/Jackson/movies/JacksonTheMovie/Premier/V1-0008_B031_C015_01016J.mov</pathurl>
                            <timecode>
                                <string>00:47:17:14</string>
                                <displayformat>NDF</displayformat>
                                <rate>
                                    <timebase>24</timebase>
                                    <ntsc>TRUE</ntsc>
                                </rate>
                            </timecode>
                            <media>
                                <video>
                                    <duration>1124</duration>
                                    <samplecharacteristics>
                                        <width>1920</width>
                                        <height>1080</height>
                                    </samplecharacteristics>
                                </video>
                                <audio>
                                    <channelcount>2</channelcount>
                                </audio>
                            </media>
                        </file>
                        <compositemode>normal</compositemode>
                        <filter>
                            <enabled>TRUE</enabled>
                            <start>0</start>
                            <end>1124</end>
                            <effect>
                                <name>Opacity</name>
                                <effectid>opacity</effectid>
                                <effecttype>motion</effecttype>
                                <mediatype>video</mediatype>
                                <effectcategory>motion</effectcategory>
                                <parameter>
                                    <name>opacity</name>
                                    <parameterid>opacity</parameterid>
                                    <value>100</value>
                                    <valuemin>0</valuemin>
                                    <valuemax>100</valuemax>
                                </parameter>
                            </effect>
                        </filter>
                        <link>
                            <linkclipref>SecondScenePark.1.Apple.Take1.R3D 0</linkclipref>
                        </link>
                        <link>
                            <linkclipref>SecondScenePark.1.Apple.Take1.R3D 3</linkclipref>
                        </link>
                        <comments/>
                    </clipitem>
                    <clipitem id="SecondScenePark.1.Gelateria.R3D 0">
                        <name>SecondScenePark.1.Gelateria.R3D</name>
                        <duration>69</duration>
                        <rate>
                            <timebase>24</timebase>
                            <ntsc>TRUE</ntsc>
                        </rate>
                        <start>4453</start>
                        <end>4522</end>
                        <enabled>TRUE</enabled>
                        <in>0</in>
                        <out>69</out>
                        <file id="SecondScenePark.1.Gelateria.R3D 2">
                            <duration>69</duration>
                            <rate>
                                <timebase>24</timebase>
                                <ntsc>TRUE</ntsc>
                            </rate>
                            <name>B031_C032_0101BV_001.R3D</name>
                            <pathurl>file:///Volumes/Jackson/movies/JacksonTheMovie/Premier/V1-0009_B031_C032_0101BV.mov</pathurl>
                            <timecode>
                                <string>01:37:29:10</string>
                                <displayformat>NDF</displayformat>
                                <rate>
                                    <timebase>24</timebase>
                                    <ntsc>TRUE</ntsc>
                                </rate>
                            </timecode>
                            <media>
                                <video>
                                    <duration>69</duration>
                                    <samplecharacteristics>
                                        <width>1920</width>
                                        <height>1080</height>
                                    </samplecharacteristics>
                                </video>
                                <audio>
                                    <channelcount>2</channelcount>
                                </audio>
                            </media>
                        </file>
                        <compositemode>normal</compositemode>
                        <filter>
                            <enabled>TRUE</enabled>
                            <start>0</start>
                            <end>69</end>
                            <effect>
                                <name>Opacity</name>
                                <effectid>opacity</effectid>
                                <effecttype>motion</effecttype>
                                <mediatype>video</mediatype>
                                <effectcategory>motion</effectcategory>
                                <parameter>
                                    <name>opacity</name>
                                    <parameterid>opacity</parameterid>
                                    <value>100</value>
                                    <valuemin>0</valuemin>
                                    <valuemax>100</valuemax>
                                </parameter>
                            </effect>
                        </filter>
                        <link>
                            <linkclipref>SecondScenePark.1.Gelateria.R3D 0</linkclipref>
                        </link>
                        <link>
                            <linkclipref>SecondScenePark.1.Gelateria.R3D 3</linkclipref>
                        </link>
                        <comments/>
                    </clipitem>
                    <clipitem id="SecondScenePark.1.Gelateria2.R3D 0">
                        <name>SecondScenePark.1.Gelateria2.R3D</name>
                        <duration>362</duration>
                        <rate>
                            <timebase>24</timebase>
                            <ntsc>TRUE</ntsc>
                        </rate>
                        <start>4522</start>
                        <end>4884</end>
                        <enabled>TRUE</enabled>
                        <in>0</in>
                        <out>362</out>
                        <file id="SecondScenePark.1.Gelateria2.R3D 2">
                            <duration>362</duration>
                            <rate>
                                <timebase>24</timebase>
                                <ntsc>TRUE</ntsc>
                            </rate>
                            <name>B031_C033_01015I_001.R3D</name>
                            <pathurl>file:///Volumes/Jackson/movies/JacksonTheMovie/Premier/V1-0010_B031_C033_01015I.mov</pathurl>
                            <timecode>
                                <string>01:37:59:02</string>
                                <displayformat>NDF</displayformat>
                                <rate>
                                    <timebase>24</timebase>
                                    <ntsc>TRUE</ntsc>
                                </rate>
                            </timecode>
                            <media>
                                <video>
                                    <duration>362</duration>
                                    <samplecharacteristics>
                                        <width>1920</width>
                                        <height>1080</height>
                                    </samplecharacteristics>
                                </video>
                                <audio>
                                    <channelcount>2</channelcount>
                                </audio>
                            </media>
                        </file>
                        <compositemode>normal</compositemode>
                        <filter>
                            <enabled>TRUE</enabled>
                            <start>0</start>
                            <end>362</end>
                            <effect>
                                <name>Opacity</name>
                                <effectid>opacity</effectid>
                                <effecttype>motion</effecttype>
                                <mediatype>video</mediatype>
                                <effectcategory>motion</effectcategory>
                                <parameter>
                                    <name>opacity</name>
                                    <parameterid>opacity</parameterid>
                                    <value>100</value>
                                    <valuemin>0</valuemin>
                                    <valuemax>100</valuemax>
                                </parameter>
                            </effect>
                        </filter>
                        <link>
                            <linkclipref>SecondScenePark.1.Gelateria2.R3D 0</linkclipref>
                        </link>
                        <link>
                            <linkclipref>SecondScenePark.1.Gelateria2.R3D 3</linkclipref>
                        </link>
                        <comments/>
                    </clipitem>
                    <clipitem id="SecondScenePark.1.Gelateria3.R3D 0">
                        <name>SecondScenePark.1.Gelateria3.R3D</name>
                        <duration>232</duration>
                        <rate>
                            <timebase>24</timebase>
                            <ntsc>TRUE</ntsc>
                        </rate>
                        <start>4884</start>
                        <end>5116</end>
                        <enabled>TRUE</enabled>
                        <in>0</in>
                        <out>232</out>
                        <file id="SecondScenePark.1.Gelateria3.R3D 2">
                            <duration>232</duration>
                            <rate>
                                <timebase>24</timebase>
                                <ntsc>TRUE</ntsc>
                            </rate>
                            <name>B031_C034_01010J_001.R3D</name>
                            <pathurl>file:///Volumes/Jackson/movies/JacksonTheMovie/Premier/V1-0011_B031_C034_01010J.mov</pathurl>
                            <timecode>
                                <string>01:38:52:05</string>
                                <displayformat>NDF</displayformat>
                                <rate>
                                    <timebase>24</timebase>
                                    <ntsc>TRUE</ntsc>
                                </rate>
                            </timecode>
                            <media>
                                <video>
                                    <duration>232</duration>
                                    <samplecharacteristics>
                                        <width>1920</width>
                                        <height>1080</height>
                                    </samplecharacteristics>
                                </video>
                                <audio>
                                    <channelcount>2</channelcount>
                                </audio>
                            </media>
                        </file>
                        <compositemode>normal</compositemode>
                        <filter>
                            <enabled>TRUE</enabled>
                            <start>0</start>
                            <end>232</end>
                            <effect>
                                <name>Opacity</name>
                                <effectid>opacity</effectid>
                                <effecttype>motion</effecttype>
                                <mediatype>video</mediatype>
                                <effectcategory>motion</effectcategory>
                                <parameter>
                                    <name>opacity</name>
                                    <parameterid>opacity</parameterid>
                                    <value>100</value>
                                    <valuemin>0</valuemin>
                                    <valuemax>100</valuemax>
                                </parameter>
                            </effect>
                        </filter>
                        <link>
                            <linkclipref>SecondScenePark.1.Gelateria3.R3D 0</linkclipref>
                        </link>
                        <link>
                            <linkclipref>SecondScenePark.1.Gelateria3.R3D 3</linkclipref>
                        </link>
                        <comments/>
                    </clipitem>
                    <clipitem id="SecondScenePark.1.Take1.R3D 0">
                        <name>SecondScenePark.1.Take1.R3D</name>
                        <duration>860</duration>
                        <rate>
                            <timebase>24</timebase>
                            <ntsc>TRUE</ntsc>
                        </rate>
                        <start>5116</start>
                        <end>5976</end>
                        <enabled>TRUE</enabled>
                        <in>0</in>
                        <out>860</out>
                        <file id="SecondScenePark.1.Take1.R3D 2">
                            <duration>860</duration>
                            <rate>
                                <timebase>24</timebase>
                                <ntsc>TRUE</ntsc>
                            </rate>
                            <name>B031_C011_0101DI_001.R3D</name>
                            <pathurl>file:///Volumes/Jackson/movies/JacksonTheMovie/Premier/V1-0012_B031_C011_0101DI.mov</pathurl>
                            <timecode>
                                <string>00:41:47:17</string>
                                <displayformat>NDF</displayformat>
                                <rate>
                                    <timebase>24</timebase>
                                    <ntsc>TRUE</ntsc>
                                </rate>
                            </timecode>
                            <media>
                                <video>
                                    <duration>860</duration>
                                    <samplecharacteristics>
                                        <width>1920</width>
                                        <height>1080</height>
                                    </samplecharacteristics>
                                </video>
                                <audio>
                                    <channelcount>2</channelcount>
                                </audio>
                            </media>
                        </file>
                        <compositemode>normal</compositemode>
                        <filter>
                            <enabled>TRUE</enabled>
                            <start>0</start>
                            <end>860</end>
                            <effect>
                                <name>Opacity</name>
                                <effectid>opacity</effectid>
                                <effecttype>motion</effecttype>
                                <mediatype>video</mediatype>
                                <effectcategory>motion</effectcategory>
                                <parameter>
                                    <name>opacity</name>
                                    <parameterid>opacity</parameterid>
                                    <value>100</value>
                                    <valuemin>0</valuemin>
                                    <valuemax>100</valuemax>
                                </parameter>
                            </effect>
                        </filter>
                        <link>
                            <linkclipref>SecondScenePark.1.Take1.R3D 0</linkclipref>
                        </link>
                        <link>
                            <linkclipref>SecondScenePark.1.Take1.R3D 6</linkclipref>
                        </link>
                        <comments/>
                    </clipitem>
                    <clipitem id="SecondScenePark.1.Take2.R3D 0">
                        <name>SecondScenePark.1.Take2.R3D</name>
                        <duration>1249</duration>
                        <rate>
                            <timebase>24</timebase>
                            <ntsc>TRUE</ntsc>
                        </rate>
                        <start>5976</start>
                        <end>7225</end>
                        <enabled>TRUE</enabled>
                        <in>0</in>
                        <out>1249</out>
                        <file id="SecondScenePark.1.Take2.R3D 2">
                            <duration>1249</duration>
                            <rate>
                                <timebase>24</timebase>
                                <ntsc>TRUE</ntsc>
                            </rate>
                            <name>B031_C014_0101CW_001.R3D</name>
                            <pathurl>file:///Volumes/Jackson/movies/JacksonTheMovie/Premier/V1-0013_B031_C014_0101CW.mov</pathurl>
                            <timecode>
                                <string>00:45:07:20</string>
                                <displayformat>NDF</displayformat>
                                <rate>
                                    <timebase>24</timebase>
                                    <ntsc>TRUE</ntsc>
                                </rate>
                            </timecode>
                            <media>
                                <video>
                                    <duration>1249</duration>
                                    <samplecharacteristics>
                                        <width>1920</width>
                                        <height>1080</height>
                                    </samplecharacteristics>
                                </video>
                                <audio>
                                    <channelcount>2</channelcount>
                                </audio>
                            </media>
                        </file>
                        <compositemode>normal</compositemode>
                        <filter>
                            <enabled>TRUE</enabled>
                            <start>0</start>
                            <end>1249</end>
                            <effect>
                                <name>Opacity</name>
                                <effectid>opacity</effectid>
                                <effecttype>motion</effecttype>
                                <mediatype>video</mediatype>
                                <effectcategory>motion</effectcategory>
                                <parameter>
                                    <name>opacity</name>
                                    <parameterid>opacity</parameterid>
                                    <value>100</value>
                                    <valuemin>0</valuemin>
                                    <valuemax>100</valuemax>
                                </parameter>
                            </effect>
                        </filter>
                        <link>
                            <linkclipref>SecondScenePark.1.Take2.R3D 0</linkclipref>
                        </link>
                        <link>
                            <linkclipref>SecondScenePark.1.Take2.R3D 3</linkclipref>
                        </link>
                        <comments/>
                    </clipitem>
                    <clipitem id="SecondScenePark.1.Take1.R3D 3">
                        <name>SecondScenePark.1.Take1.R3D</name>
                        <duration>1047</duration>
                        <rate>
                            <timebase>24</timebase>
                            <ntsc>TRUE</ntsc>
                        </rate>
                        <start>7225</start>
                        <end>8272</end>
                        <enabled>TRUE</enabled>
                        <in>0</in>
                        <out>1047</out>
                        <file id="SecondScenePark.1.Take1.R3D 5">
                            <duration>1047</duration>
                            <rate>
                                <timebase>24</timebase>
                                <ntsc>TRUE</ntsc>
                            </rate>
                            <name>B031_C013_0101NG_001.R3D</name>
                            <pathurl>file:///Volumes/Jackson/movies/JacksonTheMovie/Premier/V1-0014_B031_C013_0101NG.mov</pathurl>
                            <timecode>
                                <string>00:43:36:22</string>
                                <displayformat>NDF</displayformat>
                                <rate>
                                    <timebase>24</timebase>
                                    <ntsc>TRUE</ntsc>
                                </rate>
                            </timecode>
                            <media>
                                <video>
                                    <duration>1047</duration>
                                    <samplecharacteristics>
                                        <width>1920</width>
                                        <height>1080</height>
                                    </samplecharacteristics>
                                </video>
                                <audio>
                                    <channelcount>2</channelcount>
                                </audio>
                            </media>
                        </file>
                        <compositemode>normal</compositemode>
                        <filter>
                            <enabled>TRUE</enabled>
                            <start>0</start>
                            <end>1047</end>
                            <effect>
                                <name>Opacity</name>
                                <effectid>opacity</effectid>
                                <effecttype>motion</effecttype>
                                <mediatype>video</mediatype>
                                <effectcategory>motion</effectcategory>
                                <parameter>
                                    <name>opacity</name>
                                    <parameterid>opacity</parameterid>
                                    <value>100</value>
                                    <valuemin>0</valuemin>
                                    <valuemax>100</valuemax>
                                </parameter>
                            </effect>
                        </filter>
                        <link>
                            <linkclipref>SecondScenePark.1.Take1.R3D 3</linkclipref>
                        </link>
                        <link>
                            <linkclipref>SecondScenePark.1.Take1.R3D 7</linkclipref>
                        </link>
                        <comments/>
                    </clipitem>
                    <clipitem id="SecondScenePark.2.Take1.R3D 0">
                        <name>SecondScenePark.2.Take1.R3D</name>
                        <duration>665</duration>
                        <rate>
                            <timebase>24</timebase>
                            <ntsc>TRUE</ntsc>
                        </rate>
                        <start>8272</start>
                        <end>8937</end>
                        <enabled>TRUE</enabled>
                        <in>0</in>
                        <out>665</out>
                        <file id="SecondScenePark.2.Take1.R3D 2">
                            <duration>665</duration>
                            <rate>
                                <timebase>24</timebase>
                                <ntsc>TRUE</ntsc>
                            </rate>
                            <name>B030_C040_0101G8_001.R3D</name>
                            <pathurl>file:///Volumes/Jackson/movies/JacksonTheMovie/Premier/V1-0015_B030_C040_0101G8.mov</pathurl>
                            <timecode>
                                <string>00:48:53:16</string>
                                <displayformat>NDF</displayformat>
                                <rate>
                                    <timebase>24</timebase>
                                    <ntsc>TRUE</ntsc>
                                </rate>
                            </timecode>
                            <media>
                                <video>
                                    <duration>665</duration>
                                    <samplecharacteristics>
                                        <width>1920</width>
                                        <height>1080</height>
                                    </samplecharacteristics>
                                </video>
                                <audio>
                                    <channelcount>2</channelcount>
                                </audio>
                            </media>
                        </file>
                        <compositemode>normal</compositemode>
                        <filter>
                            <enabled>TRUE</enabled>
                            <start>0</start>
                            <end>665</end>
                            <effect>
                                <name>Opacity</name>
                                <effectid>opacity</effectid>
                                <effecttype>motion</effecttype>
                                <mediatype>video</mediatype>
                                <effectcategory>motion</effectcategory>
                                <parameter>
                                    <name>opacity</name>
                                    <parameterid>opacity</parameterid>
                                    <value>100</value>
                                    <valuemin>0</valuemin>
                                    <valuemax>100</valuemax>
                                </parameter>
                            </effect>
                        </filter>
                        <link>
                            <linkclipref>SecondScenePark.2.Take1.R3D 0</linkclipref>
                        </link>
                        <link>
                            <linkclipref>SecondScenePark.2.Take1.R3D 3</linkclipref>
                        </link>
                        <comments/>
                    </clipitem>
                    <clipitem id="SecondScenePark.2.Apple.Take1.R3D 0">
                        <name>SecondScenePark.2.Apple.Take1.R3D</name>
                        <duration>1369</duration>
                        <rate>
                            <timebase>24</timebase>
                            <ntsc>TRUE</ntsc>
                        </rate>
                        <start>8937</start>
                        <end>10306</end>
                        <enabled>TRUE</enabled>
                        <in>0</in>
                        <out>1369</out>
                        <file id="SecondScenePark.2.Apple.Take1.R3D 2">
                            <duration>1369</duration>
                            <rate>
                                <timebase>24</timebase>
                                <ntsc>TRUE</ntsc>
                            </rate>
                            <name>B031_C002_0101C0_001.R3D</name>
                            <pathurl>file:///Volumes/Jackson/movies/JacksonTheMovie/Premier/V1-0016_B031_C002_0101C0.mov</pathurl>
                            <timecode>
                                <string>00:53:35:20</string>
                                <displayformat>NDF</displayformat>
                                <rate>
                                    <timebase>24</timebase>
                                    <ntsc>TRUE</ntsc>
                                </rate>
                            </timecode>
                            <media>
                                <video>
                                    <duration>1369</duration>
                                    <samplecharacteristics>
                                        <width>1920</width>
                                        <height>1080</height>
                                    </samplecharacteristics>
                                </video>
                                <audio>
                                    <channelcount>2</channelcount>
                                </audio>
                            </media>
                        </file>
                        <compositemode>normal</compositemode>
                        <filter>
                            <enabled>TRUE</enabled>
                            <start>0</start>
                            <end>1369</end>
                            <effect>
                                <name>Opacity</name>
                                <effectid>opacity</effectid>
                                <effecttype>motion</effecttype>
                                <mediatype>video</mediatype>
                                <effectcategory>motion</effectcategory>
                                <parameter>
                                    <name>opacity</name>
                                    <parameterid>opacity</parameterid>
                                    <value>100</value>
                                    <valuemin>0</valuemin>
                                    <valuemax>100</valuemax>
                                </parameter>
                            </effect>
                        </filter>
                        <link>
                            <linkclipref>SecondScenePark.2.Apple.Take1.R3D 0</linkclipref>
                        </link>
                        <link>
                            <linkclipref>SecondScenePark.2.Apple.Take1.R3D 3</linkclipref>
                        </link>
                        <comments/>
                    </clipitem>
                    <clipitem id="SecondScenePark.2.Take2.R3D 0">
                        <name>SecondScenePark.2.Take2.R3D</name>
                        <duration>375</duration>
                        <rate>
                            <timebase>24</timebase>
                            <ntsc>TRUE</ntsc>
                        </rate>
                        <start>10306</start>
                        <end>10681</end>
                        <enabled>TRUE</enabled>
                        <in>0</in>
                        <out>375</out>
                        <file id="SecondScenePark.2.Take2.R3D 2">
                            <duration>375</duration>
                            <rate>
                                <timebase>24</timebase>
                                <ntsc>TRUE</ntsc>
                            </rate>
                            <name>B030_C041_01018T_001.R3D</name>
                            <pathurl>file:///Volumes/Jackson/movies/JacksonTheMovie/Premier/V1-0017_B030_C041_01018T.mov</pathurl>
                            <timecode>
                                <string>00:49:23:18</string>
                                <displayformat>NDF</displayformat>
                                <rate>
                                    <timebase>24</timebase>
                                    <ntsc>TRUE</ntsc>
                                </rate>
                            </timecode>
                            <media>
                                <video>
                                    <duration>375</duration>
                                    <samplecharacteristics>
                                        <width>1920</width>
                                        <height>1080</height>
                                    </samplecharacteristics>
                                </video>
                                <audio>
                                    <channelcount>2</channelcount>
                                </audio>
                            </media>
                        </file>
                        <compositemode>normal</compositemode>
                        <filter>
                            <enabled>TRUE</enabled>
                            <start>0</start>
                            <end>375</end>
                            <effect>
                                <name>Opacity</name>
                                <effectid>opacity</effectid>
                                <effecttype>motion</effecttype>
                                <mediatype>video</mediatype>
                                <effectcategory>motion</effectcategory>
                                <parameter>
                                    <name>opacity</name>
                                    <parameterid>opacity</parameterid>
                                    <value>100</value>
                                    <valuemin>0</valuemin>
                                    <valuemax>100</valuemax>
                                </parameter>
                            </effect>
                        </filter>
                        <link>
                            <linkclipref>SecondScenePark.2.Take2.R3D 0</linkclipref>
                        </link>
                        <link>
                            <linkclipref>SecondScenePark.2.Take2.R3D 3</linkclipref>
                        </link>
                        <comments/>
                    </clipitem>
                    <clipitem id="SecondScenePark.2.Take3.R3D 0">
                        <name>SecondScenePark.2.Take3.R3D</name>
                        <duration>940</duration>
                        <rate>
                            <timebase>24</timebase>
                            <ntsc>TRUE</ntsc>
                        </rate>
                        <start>10681</start>
                        <end>11621</end>
                        <enabled>TRUE</enabled>
                        <in>0</in>
                        <out>940</out>
                        <file id="SecondScenePark.2.Take3.R3D 2">
                            <duration>940</duration>
                            <rate>
                                <timebase>24</timebase>
                                <ntsc>TRUE</ntsc>
                            </rate>
                            <name>B031_C001_0101W0_001.R3D</name>
                            <pathurl>file:///Volumes/Jackson/movies/JacksonTheMovie/Premier/V1-0018_B031_C001_0101W0.mov</pathurl>
                            <timecode>
                                <string>00:51:16:04</string>
                                <displayformat>NDF</displayformat>
                                <rate>
                                    <timebase>24</timebase>
                                    <ntsc>TRUE</ntsc>
                                </rate>
                            </timecode>
                            <media>
                                <video>
                                    <duration>940</duration>
                                    <samplecharacteristics>
                                        <width>1920</width>
                                        <height>1080</height>
                                    </samplecharacteristics>
                                </video>
                                <audio>
                                    <channelcount>2</channelcount>
                                </audio>
                            </media>
                        </file>
                        <compositemode>normal</compositemode>
                        <filter>
                            <enabled>TRUE</enabled>
                            <start>0</start>
                            <end>940</end>
                            <effect>
                                <name>Opacity</name>
                                <effectid>opacity</effectid>
                                <effecttype>motion</effecttype>
                                <mediatype>video</mediatype>
                                <effectcategory>motion</effectcategory>
                                <parameter>
                                    <name>opacity</name>
                                    <parameterid>opacity</parameterid>
                                    <value>100</value>
                                    <valuemin>0</valuemin>
                                    <valuemax>100</valuemax>
                                </parameter>
                            </effect>
                        </filter>
                        <link>
                            <linkclipref>SecondScenePark.2.Take3.R3D 0</linkclipref>
                        </link>
                        <link>
                            <linkclipref>SecondScenePark.2.Take3.R3D 3</linkclipref>
                        </link>
                        <comments/>
                    </clipitem>
                    <clipitem id="SecondScenePark.2.2.Take1.R3D 0">
                        <name>SecondScenePark.2.2.Take1.R3D</name>
                        <duration>978</duration>
                        <rate>
                            <timebase>24</timebase>
                            <ntsc>TRUE</ntsc>
                        </rate>
                        <start>11621</start>
                        <end>12599</end>
                        <enabled>TRUE</enabled>
                        <in>0</in>
                        <out>978</out>
                        <file id="SecondScenePark.2.2.Take1.R3D 2">
                            <duration>978</duration>
                            <rate>
                                <timebase>24</timebase>
                                <ntsc>TRUE</ntsc>
                            </rate>
                            <name>B031_C009_01015J_001.R3D</name>
                            <pathurl>file:///Volumes/Jackson/movies/JacksonTheMovie/Premier/V1-0019_B031_C009_01015J.mov</pathurl>
                            <timecode>
                                <string>01:17:22:04</string>
                                <displayformat>NDF</displayformat>
                                <rate>
                                    <timebase>24</timebase>
                                    <ntsc>TRUE</ntsc>
                                </rate>
                            </timecode>
                            <media>
                                <video>
                                    <duration>978</duration>
                                    <samplecharacteristics>
                                        <width>1920</width>
                                        <height>1080</height>
                                    </samplecharacteristics>
                                </video>
                                <audio>
                                    <channelcount>2</channelcount>
                                </audio>
                            </media>
                        </file>
                        <compositemode>normal</compositemode>
                        <filter>
                            <enabled>TRUE</enabled>
                            <start>0</start>
                            <end>978</end>
                            <effect>
                                <name>Opacity</name>
                                <effectid>opacity</effectid>
                                <effecttype>motion</effecttype>
                                <mediatype>video</mediatype>
                                <effectcategory>motion</effectcategory>
                                <parameter>
                                    <name>opacity</name>
                                    <parameterid>opacity</parameterid>
                                    <value>100</value>
                                    <valuemin>0</valuemin>
                                    <valuemax>100</valuemax>
                                </parameter>
                            </effect>
                        </filter>
                        <link>
                            <linkclipref>SecondScenePark.2.2.Take1.R3D 0</linkclipref>
                        </link>
                        <link>
                            <linkclipref>SecondScenePark.2.2.Take1.R3D 3</linkclipref>
                        </link>
                        <comments/>
                    </clipitem>
                    <clipitem id="SecondScenePark.2.4.Take1.R3D 0">
                        <name>SecondScenePark.2.4.Take1.R3D</name>
                        <duration>1937</duration>
                        <rate>
                            <timebase>24</timebase>
                            <ntsc>TRUE</ntsc>
                        </rate>
                        <start>12599</start>
                        <end>14536</end>
                        <enabled>TRUE</enabled>
                        <in>0</in>
                        <out>1937</out>
                        <file id="SecondScenePark.2.4.Take1.R3D 2">
                            <duration>1937</duration>
                            <rate>
                                <timebase>24</timebase>
                                <ntsc>TRUE</ntsc>
                            </rate>
                            <name>B031_C003_01012W_001.R3D</name>
                            <pathurl>file:///Volumes/Jackson/movies/JacksonTheMovie/Premier/V1-0020_B031_C003_01012W.mov</pathurl>
                            <timecode>
                                <string>00:58:17:13</string>
                                <displayformat>NDF</displayformat>
                                <rate>
                                    <timebase>24</timebase>
                                    <ntsc>TRUE</ntsc>
                                </rate>
                            </timecode>
                            <media>
                                <video>
                                    <duration>1937</duration>
                                    <samplecharacteristics>
                                        <width>1920</width>
                                        <height>1080</height>
                                    </samplecharacteristics>
                                </video>
                                <audio>
                                    <channelcount>2</channelcount>
                                </audio>
                            </media>
                        </file>
                        <compositemode>normal</compositemode>
                        <filter>
                            <enabled>TRUE</enabled>
                            <start>0</start>
                            <end>1937</end>
                            <effect>
                                <name>Opacity</name>
                                <effectid>opacity</effectid>
                                <effecttype>motion</effecttype>
                                <mediatype>video</mediatype>
                                <effectcategory>motion</effectcategory>
                                <parameter>
                                    <name>opacity</name>
                                    <parameterid>opacity</parameterid>
                                    <value>100</value>
                                    <valuemin>0</valuemin>
                                    <valuemax>100</valuemax>
                                </parameter>
                            </effect>
                        </filter>
                        <link>
                            <linkclipref>SecondScenePark.2.4.Take1.R3D 0</linkclipref>
                        </link>
                        <link>
                            <linkclipref>SecondScenePark.2.4.Take1.R3D 3</linkclipref>
                        </link>
                        <comments/>
                    </clipitem>
                    <clipitem id="SecondScenePark.2.4.Take2.R3D 0">
                        <name>SecondScenePark.2.4.Take2.R3D</name>
                        <duration>1947</duration>
                        <rate>
                            <timebase>24</timebase>
                            <ntsc>TRUE</ntsc>
                        </rate>
                        <start>14536</start>
                        <end>16483</end>
                        <enabled>TRUE</enabled>
                        <in>0</in>
                        <out>1947</out>
                        <file id="SecondScenePark.2.4.Take2.R3D 2">
                            <duration>1947</duration>
                            <rate>
                                <timebase>24</timebase>
                                <ntsc>TRUE</ntsc>
                            </rate>
                            <name>B031_C004_010101_001.R3D</name>
                            <pathurl>file:///Volumes/Jackson/movies/JacksonTheMovie/Premier/V1-0021_B031_C004_010101.mov</pathurl>
                            <timecode>
                                <string>00:59:44:12</string>
                                <displayformat>NDF</displayformat>
                                <rate>
                                    <timebase>24</timebase>
                                    <ntsc>TRUE</ntsc>
                                </rate>
                            </timecode>
                            <media>
                                <video>
                                    <duration>1947</duration>
                                    <samplecharacteristics>
                                        <width>1920</width>
                                        <height>1080</height>
                                    </samplecharacteristics>
                                </video>
                                <audio>
                                    <channelcount>2</channelcount>
                                </audio>
                            </media>
                        </file>
                        <compositemode>normal</compositemode>
                        <filter>
                            <enabled>TRUE</enabled>
                            <start>0</start>
                            <end>1947</end>
                            <effect>
                                <name>Opacity</name>
                                <effectid>opacity</effectid>
                                <effecttype>motion</effecttype>
                                <mediatype>video</mediatype>
                                <effectcategory>motion</effectcategory>
                                <parameter>
                                    <name>opacity</name>
                                    <parameterid>opacity</parameterid>
                                    <value>100</value>
                                    <valuemin>0</valuemin>
                                    <valuemax>100</valuemax>
                                </parameter>
                            </effect>
                        </filter>
                        <link>
                            <linkclipref>SecondScenePark.2.4.Take2.R3D 0</linkclipref>
                        </link>
                        <link>
                            <linkclipref>SecondScenePark.2.4.Take2.R3D 3</linkclipref>
                        </link>
                        <comments/>
                    </clipitem>
                    <clipitem id="SecondScenePark.2.5.Take2.R3D 0">
                        <name>SecondScenePark.2.5.Take2.R3D</name>
                        <duration>869</duration>
                        <rate>
                            <timebase>24</timebase>
                            <ntsc>TRUE</ntsc>
                        </rate>
                        <start>16483</start>
                        <end>17352</end>
                        <enabled>TRUE</enabled>
                        <in>0</in>
                        <out>869</out>
                        <file id="SecondScenePark.2.5.Take2.R3D 2">
                            <duration>869</duration>
                            <rate>
                                <timebase>24</timebase>
                                <ntsc>TRUE</ntsc>
                            </rate>
                            <name>B031_C008_010107_001.R3D</name>
                            <pathurl>file:///Volumes/Jackson/movies/JacksonTheMovie/Premier/V1-0022_B031_C008_010107.mov</pathurl>
                            <timecode>
                                <string>01:13:33:16</string>
                                <displayformat>NDF</displayformat>
                                <rate>
                                    <timebase>24</timebase>
                                    <ntsc>TRUE</ntsc>
                                </rate>
                            </timecode>
                            <media>
                                <video>
                                    <duration>869</duration>
                                    <samplecharacteristics>
                                        <width>1920</width>
                                        <height>1080</height>
                                    </samplecharacteristics>
                                </video>
                                <audio>
                                    <channelcount>2</channelcount>
                                </audio>
                            </media>
                        </file>
                        <compositemode>normal</compositemode>
                        <filter>
                            <enabled>TRUE</enabled>
                            <start>0</start>
                            <end>869</end>
                            <effect>
                                <name>Opacity</name>
                                <effectid>opacity</effectid>
                                <effecttype>motion</effecttype>
                                <mediatype>video</mediatype>
                                <effectcategory>motion</effectcategory>
                                <parameter>
                                    <name>opacity</name>
                                    <parameterid>opacity</parameterid>
                                    <value>100</value>
                                    <valuemin>0</valuemin>
                                    <valuemax>100</valuemax>
                                </parameter>
                            </effect>
                        </filter>
                        <link>
                            <linkclipref>SecondScenePark.2.5.Take2.R3D 0</linkclipref>
                        </link>
                        <link>
                            <linkclipref>SecondScenePark.2.5.Take2.R3D 3</linkclipref>
                        </link>
                        <comments/>
                    </clipitem>
                    <clipitem id="SecondScenePark.2.7.Apple.Take1.R3D 0">
                        <name>SecondScenePark.2.7.Apple.Take1.R3D</name>
                        <duration>726</duration>
                        <rate>
                            <timebase>24</timebase>
                            <ntsc>TRUE</ntsc>
                        </rate>
                        <start>17352</start>
                        <end>18078</end>
                        <enabled>TRUE</enabled>
                        <in>0</in>
                        <out>726</out>
                        <file id="SecondScenePark.2.7.Apple.Take1.R3D 2">
                            <duration>726</duration>
                            <rate>
                                <timebase>24</timebase>
                                <ntsc>TRUE</ntsc>
                            </rate>
                            <name>B031_C005_0101B5_001.R3D</name>
                            <pathurl>file:///Volumes/Jackson/movies/JacksonTheMovie/Premier/V1-0023_B031_C005_0101B5.mov</pathurl>
                            <timecode>
                                <string>01:08:30:11</string>
                                <displayformat>NDF</displayformat>
                                <rate>
                                    <timebase>24</timebase>
                                    <ntsc>TRUE</ntsc>
                                </rate>
                            </timecode>
                            <media>
                                <video>
                                    <duration>726</duration>
                                    <samplecharacteristics>
                                        <width>1920</width>
                                        <height>1080</height>
                                    </samplecharacteristics>
                                </video>
                                <audio>
                                    <channelcount>2</channelcount>
                                </audio>
                            </media>
                        </file>
                        <compositemode>normal</compositemode>
                        <filter>
                            <enabled>TRUE</enabled>
                            <start>0</start>
                            <end>726</end>
                            <effect>
                                <name>Opacity</name>
                                <effectid>opacity</effectid>
                                <effecttype>motion</effecttype>
                                <mediatype>video</mediatype>
                                <effectcategory>motion</effectcategory>
                                <parameter>
                                    <name>opacity</name>
                                    <parameterid>opacity</parameterid>
                                    <value>100</value>
                                    <valuemin>0</valuemin>
                                    <valuemax>100</valuemax>
                                </parameter>
                            </effect>
                        </filter>
                        <link>
                            <linkclipref>SecondScenePark.2.7.Apple.Take1.R3D 0</linkclipref>
                        </link>
                        <link>
                            <linkclipref>SecondScenePark.2.7.Apple.Take1.R3D 3</linkclipref>
                        </link>
                        <comments/>
                    </clipitem>
                    <clipitem id="SecondScenePark.2.7.Take2.R3D 0">
                        <name>SecondScenePark.2.7.Take2.R3D</name>
                        <duration>920</duration>
                        <rate>
                            <timebase>24</timebase>
                            <ntsc>TRUE</ntsc>
                        </rate>
                        <start>18078</start>
                        <end>18998</end>
                        <enabled>TRUE</enabled>
                        <in>0</in>
                        <out>920</out>
                        <file id="SecondScenePark.2.7.Take2.R3D 2">
                            <duration>920</duration>
                            <rate>
                                <timebase>24</timebase>
                                <ntsc>TRUE</ntsc>
                            </rate>
                            <name>B031_C006_0101FN_001.R3D</name>
                            <pathurl>file:///Volumes/Jackson/movies/JacksonTheMovie/Premier/V1-0024_B031_C006_0101FN.mov</pathurl>
                            <timecode>
                                <string>01:10:20:13</string>
                                <displayformat>NDF</displayformat>
                                <rate>
                                    <timebase>24</timebase>
                                    <ntsc>TRUE</ntsc>
                                </rate>
                            </timecode>
                            <media>
                                <video>
                                    <duration>920</duration>
                                    <samplecharacteristics>
                                        <width>1920</width>
                                        <height>1080</height>
                                    </samplecharacteristics>
                                </video>
                                <audio>
                                    <channelcount>2</channelcount>
                                </audio>
                            </media>
                        </file>
                        <compositemode>normal</compositemode>
                        <filter>
                            <enabled>TRUE</enabled>
                            <start>0</start>
                            <end>920</end>
                            <effect>
                                <name>Opacity</name>
                                <effectid>opacity</effectid>
                                <effecttype>motion</effecttype>
                                <mediatype>video</mediatype>
                                <effectcategory>motion</effectcategory>
                                <parameter>
                                    <name>opacity</name>
                                    <parameterid>opacity</parameterid>
                                    <value>100</value>
                                    <valuemin>0</valuemin>
                                    <valuemax>100</valuemax>
                                </parameter>
                            </effect>
                        </filter>
                        <link>
                            <linkclipref>SecondScenePark.2.7.Take2.R3D 0</linkclipref>
                        </link>
                        <link>
                            <linkclipref>SecondScenePark.2.7.Take2.R3D 3</linkclipref>
                        </link>
                        <comments/>
                    </clipitem>
                    <clipitem id="SecondScenePark.2.7.Take3.R3D 0">
                        <name>SecondScenePark.2.7.Take3.R3D</name>
                        <duration>1044</duration>
                        <rate>
                            <timebase>24</timebase>
                            <ntsc>TRUE</ntsc>
                        </rate>
                        <start>18998</start>
                        <end>20042</end>
                        <enabled>TRUE</enabled>
                        <in>0</in>
                        <out>1044</out>
                        <file id="SecondScenePark.2.7.Take3.R3D 2">
                            <duration>1044</duration>
                            <rate>
                                <timebase>24</timebase>
                                <ntsc>TRUE</ntsc>
                            </rate>
                            <name>B031_C007_0101LM_001.R3D</name>
                            <pathurl>file:///Volumes/Jackson/movies/JacksonTheMovie/Premier/V1-0025_B031_C007_0101LM.mov</pathurl>
                            <timecode>
                                <string>01:11:37:03</string>
                                <displayformat>NDF</displayformat>
                                <rate>
                                    <timebase>24</timebase>
                                    <ntsc>TRUE</ntsc>
                                </rate>
                            </timecode>
                            <media>
                                <video>
                                    <duration>1044</duration>
                                    <samplecharacteristics>
                                        <width>1920</width>
                                        <height>1080</height>
                                    </samplecharacteristics>
                                </video>
                                <audio>
                                    <channelcount>2</channelcount>
                                </audio>
                            </media>
                        </file>
                        <compositemode>normal</compositemode>
                        <filter>
                            <enabled>TRUE</enabled>
                            <start>0</start>
                            <end>1044</end>
                            <effect>
                                <name>Opacity</name>
                                <effectid>opacity</effectid>
                                <effecttype>motion</effecttype>
                                <mediatype>video</mediatype>
                                <effectcategory>motion</effectcategory>
                                <parameter>
                                    <name>opacity</name>
                                    <parameterid>opacity</parameterid>
                                    <value>100</value>
                                    <valuemin>0</valuemin>
                                    <valuemax>100</valuemax>
                                </parameter>
                            </effect>
                        </filter>
                        <link>
                            <linkclipref>SecondScenePark.2.7.Take3.R3D 0</linkclipref>
                        </link>
                        <link>
                            <linkclipref>SecondScenePark.2.7.Take3.R3D 3</linkclipref>
                        </link>
                        <comments/>
                    </clipitem>
                    <clipitem id="SecondScenePark.3.1.Take1.R3D 0">
                        <name>SecondScenePark.3.1.Take1.R3D</name>
                        <duration>1136</duration>
                        <rate>
                            <timebase>24</timebase>
                            <ntsc>TRUE</ntsc>
                        </rate>
                        <start>20042</start>
                        <end>21178</end>
                        <enabled>TRUE</enabled>
                        <in>0</in>
                        <out>1136</out>
                        <file id="SecondScenePark.3.1.Take1.R3D 2">
                            <duration>1136</duration>
                            <rate>
                                <timebase>24</timebase>
                                <ntsc>TRUE</ntsc>
                            </rate>
                            <name>B030_C008_0101YM_001.R3D</name>
                            <pathurl>file:///Volumes/Jackson/movies/JacksonTheMovie/Premier/V1-0026_B030_C008_0101YM.mov</pathurl>
                            <timecode>
                                <string>00:49:36:03</string>
                                <displayformat>NDF</displayformat>
                                <rate>
                                    <timebase>24</timebase>
                                    <ntsc>TRUE</ntsc>
                                </rate>
                            </timecode>
                            <media>
                                <video>
                                    <duration>1136</duration>
                                    <samplecharacteristics>
                                        <width>1920</width>
                                        <height>1080</height>
                                    </samplecharacteristics>
                                </video>
                                <audio>
                                    <channelcount>2</channelcount>
                                </audio>
                            </media>
                        </file>
                        <compositemode>normal</compositemode>
                        <filter>
                            <enabled>TRUE</enabled>
                            <start>0</start>
                            <end>1136</end>
                            <effect>
                                <name>Opacity</name>
                                <effectid>opacity</effectid>
                                <effecttype>motion</effecttype>
                                <mediatype>video</mediatype>
                                <effectcategory>motion</effectcategory>
                                <parameter>
                                    <name>opacity</name>
                                    <parameterid>opacity</parameterid>
                                    <value>100</value>
                                    <valuemin>0</valuemin>
                                    <valuemax>100</valuemax>
                                </parameter>
                            </effect>
                        </filter>
                        <link>
                            <linkclipref>SecondScenePark.3.1.Take1.R3D 0</linkclipref>
                        </link>
                        <link>
                            <linkclipref>SecondScenePark.3.1.Take1.R3D 3</linkclipref>
                        </link>
                        <comments/>
                    </clipitem>
                    <clipitem id="SecondScenePark.3.1.Take2.R3D 0">
                        <name>SecondScenePark.3.1.Take2.R3D</name>
                        <duration>1328</duration>
                        <rate>
                            <timebase>24</timebase>
                            <ntsc>TRUE</ntsc>
                        </rate>
                        <start>21178</start>
                        <end>22506</end>
                        <enabled>TRUE</enabled>
                        <in>0</in>
                        <out>1328</out>
                        <file id="SecondScenePark.3.1.Take2.R3D 2">
                            <duration>1328</duration>
                            <rate>
                                <timebase>24</timebase>
                                <ntsc>TRUE</ntsc>
                            </rate>
                            <name>B030_C009_0101F0_001.R3D</name>
                            <pathurl>file:///Volumes/Jackson/movies/JacksonTheMovie/Premier/V1-0027_B030_C009_0101F0.mov</pathurl>
                            <timecode>
                                <string>00:52:28:19</string>
                                <displayformat>NDF</displayformat>
                                <rate>
                                    <timebase>24</timebase>
                                    <ntsc>TRUE</ntsc>
                                </rate>
                            </timecode>
                            <media>
                                <video>
                                    <duration>1328</duration>
                                    <samplecharacteristics>
                                        <width>1920</width>
                                        <height>1080</height>
                                    </samplecharacteristics>
                                </video>
                                <audio>
                                    <channelcount>2</channelcount>
                                </audio>
                            </media>
                        </file>
                        <compositemode>normal</compositemode>
                        <filter>
                            <enabled>TRUE</enabled>
                            <start>0</start>
                            <end>1328</end>
                            <effect>
                                <name>Opacity</name>
                                <effectid>opacity</effectid>
                                <effecttype>motion</effecttype>
                                <mediatype>video</mediatype>
                                <effectcategory>motion</effectcategory>
                                <parameter>
                                    <name>opacity</name>
                                    <parameterid>opacity</parameterid>
                                    <value>100</value>
                                    <valuemin>0</valuemin>
                                    <valuemax>100</valuemax>
                                </parameter>
                            </effect>
                        </filter>
                        <link>
                            <linkclipref>SecondScenePark.3.1.Take2.R3D 0</linkclipref>
                        </link>
                        <link>
                            <linkclipref>SecondScenePark.3.1.Take2.R3D 3</linkclipref>
                        </link>
                        <comments/>
                    </clipitem>
                    <clipitem id="SecondScenePark.3.2.Apple.Take1.R3D 0">
                        <name>SecondScenePark.3.2.Apple.Take1.R3D</name>
                        <duration>1370</duration>
                        <rate>
                            <timebase>24</timebase>
                            <ntsc>TRUE</ntsc>
                        </rate>
                        <start>22506</start>
                        <end>23876</end>
                        <enabled>TRUE</enabled>
                        <in>0</in>
                        <out>1370</out>
                        <file id="SecondScenePark.3.2.Apple.Take1.R3D 2">
                            <duration>1370</duration>
                            <rate>
                                <timebase>24</timebase>
                                <ntsc>TRUE</ntsc>
                            </rate>
                            <name>B030_C014_0101YU_001.R3D</name>
                            <pathurl>file:///Volumes/Jackson/movies/JacksonTheMovie/Premier/V1-0028_B030_C014_0101YU.mov</pathurl>
                            <timecode>
                                <string>01:06:42:18</string>
                                <displayformat>NDF</displayformat>
                                <rate>
                                    <timebase>24</timebase>
                                    <ntsc>TRUE</ntsc>
                                </rate>
                            </timecode>
                            <media>
                                <video>
                                    <duration>1370</duration>
                                    <samplecharacteristics>
                                        <width>1920</width>
                                        <height>1080</height>
                                    </samplecharacteristics>
                                </video>
                                <audio>
                                    <channelcount>2</channelcount>
                                </audio>
                            </media>
                        </file>
                        <compositemode>normal</compositemode>
                        <filter>
                            <enabled>TRUE</enabled>
                            <start>0</start>
                            <end>1370</end>
                            <effect>
                                <name>Opacity</name>
                                <effectid>opacity</effectid>
                                <effecttype>motion</effecttype>
                                <mediatype>video</mediatype>
                                <effectcategory>motion</effectcategory>
                                <parameter>
                                    <name>opacity</name>
                                    <parameterid>opacity</parameterid>
                                    <value>100</value>
                                    <valuemin>0</valuemin>
                                    <valuemax>100</valuemax>
                                </parameter>
                            </effect>
                        </filter>
                        <link>
                            <linkclipref>SecondScenePark.3.2.Apple.Take1.R3D 0</linkclipref>
                        </link>
                        <link>
                            <linkclipref>SecondScenePark.3.2.Apple.Take1.R3D 3</linkclipref>
                        </link>
                        <comments/>
                    </clipitem>
                    <clipitem id="SecondScenePark.3.2.Take1.R3D 0">
                        <name>SecondScenePark.3.2.Take1.R3D</name>
                        <duration>1535</duration>
                        <rate>
                            <timebase>24</timebase>
                            <ntsc>TRUE</ntsc>
                        </rate>
                        <start>23876</start>
                        <end>25411</end>
                        <enabled>TRUE</enabled>
                        <in>0</in>
                        <out>1535</out>
                        <file id="SecondScenePark.3.2.Take1.R3D 2">
                            <duration>1535</duration>
                            <rate>
                                <timebase>24</timebase>
                                <ntsc>TRUE</ntsc>
                            </rate>
                            <name>B030_C010_01016Y_001.R3D</name>
                            <pathurl>file:///Volumes/Jackson/movies/JacksonTheMovie/Premier/V1-0029_B030_C010_01016Y.mov</pathurl>
                            <timecode>
                                <string>00:56:08:18</string>
                                <displayformat>NDF</displayformat>
                                <rate>
                                    <timebase>24</timebase>
                                    <ntsc>TRUE</ntsc>
                                </rate>
                            </timecode>
                            <media>
                                <video>
                                    <duration>1535</duration>
                                    <samplecharacteristics>
                                        <width>1920</width>
                                        <height>1080</height>
                                    </samplecharacteristics>
                                </video>
                                <audio>
                                    <channelcount>2</channelcount>
                                </audio>
                            </media>
                        </file>
                        <compositemode>normal</compositemode>
                        <filter>
                            <enabled>TRUE</enabled>
                            <start>0</start>
                            <end>1535</end>
                            <effect>
                                <name>Opacity</name>
                                <effectid>opacity</effectid>
                                <effecttype>motion</effecttype>
                                <mediatype>video</mediatype>
                                <effectcategory>motion</effectcategory>
                                <parameter>
                                    <name>opacity</name>
                                    <parameterid>opacity</parameterid>
                                    <value>100</value>
                                    <valuemin>0</valuemin>
                                    <valuemax>100</valuemax>
                                </parameter>
                            </effect>
                        </filter>
                        <link>
                            <linkclipref>SecondScenePark.3.2.Take1.R3D 0</linkclipref>
                        </link>
                        <link>
                            <linkclipref>SecondScenePark.3.2.Take1.R3D 3</linkclipref>
                        </link>
                        <comments/>
                    </clipitem>
                    <clipitem id="SecondScenePark.3.2.Take2.R3D 0">
                        <name>SecondScenePark.3.2.Take2.R3D</name>
                        <duration>1269</duration>
                        <rate>
                            <timebase>24</timebase>
                            <ntsc>TRUE</ntsc>
                        </rate>
                        <start>25411</start>
                        <end>26680</end>
                        <enabled>TRUE</enabled>
                        <in>0</in>
                        <out>1269</out>
                        <file id="SecondScenePark.3.2.Take2.R3D 2">
                            <duration>1269</duration>
                            <rate>
                                <timebase>24</timebase>
                                <ntsc>TRUE</ntsc>
                            </rate>
                            <name>B030_C011_010183_001.R3D</name>
                            <pathurl>file:///Volumes/Jackson/movies/JacksonTheMovie/Premier/V1-0030_B030_C011_010183.mov</pathurl>
                            <timecode>
                                <string>00:57:54:13</string>
                                <displayformat>NDF</displayformat>
                                <rate>
                                    <timebase>24</timebase>
                                    <ntsc>TRUE</ntsc>
                                </rate>
                            </timecode>
                            <media>
                                <video>
                                    <duration>1269</duration>
                                    <samplecharacteristics>
                                        <width>1920</width>
                                        <height>1080</height>
                                    </samplecharacteristics>
                                </video>
                                <audio>
                                    <channelcount>2</channelcount>
                                </audio>
                            </media>
                        </file>
                        <compositemode>normal</compositemode>
                        <filter>
                            <enabled>TRUE</enabled>
                            <start>0</start>
                            <end>1269</end>
                            <effect>
                                <name>Opacity</name>
                                <effectid>opacity</effectid>
                                <effecttype>motion</effecttype>
                                <mediatype>video</mediatype>
                                <effectcategory>motion</effectcategory>
                                <parameter>
                                    <name>opacity</name>
                                    <parameterid>opacity</parameterid>
                                    <value>100</value>
                                    <valuemin>0</valuemin>
                                    <valuemax>100</valuemax>
                                </parameter>
                            </effect>
                        </filter>
                        <link>
                            <linkclipref>SecondScenePark.3.2.Take2.R3D 0</linkclipref>
                        </link>
                        <link>
                            <linkclipref>SecondScenePark.3.2.Take2.R3D 3</linkclipref>
                        </link>
                        <comments/>
                    </clipitem>
                    <clipitem id="SecondScenePark.3.2.Take3.R3D 0">
                        <name>SecondScenePark.3.2.Take3.R3D</name>
                        <duration>1576</duration>
                        <rate>
                            <timebase>24</timebase>
                            <ntsc>TRUE</ntsc>
                        </rate>
                        <start>26680</start>
                        <end>28256</end>
                        <enabled>TRUE</enabled>
                        <in>0</in>
                        <out>1576</out>
                        <file id="SecondScenePark.3.2.Take3.R3D 2">
                            <duration>1576</duration>
                            <rate>
                                <timebase>24</timebase>
                                <ntsc>TRUE</ntsc>
                            </rate>
                            <name>B030_C012_0101XM_001.R3D</name>
                            <pathurl>file:///Volumes/Jackson/movies/JacksonTheMovie/Premier/V1-0031_B030_C012_0101XM.mov</pathurl>
                            <timecode>
                                <string>01:01:20:00</string>
                                <displayformat>NDF</displayformat>
                                <rate>
                                    <timebase>24</timebase>
                                    <ntsc>TRUE</ntsc>
                                </rate>
                            </timecode>
                            <media>
                                <video>
                                    <duration>1576</duration>
                                    <samplecharacteristics>
                                        <width>1920</width>
                                        <height>1080</height>
                                    </samplecharacteristics>
                                </video>
                                <audio>
                                    <channelcount>2</channelcount>
                                </audio>
                            </media>
                        </file>
                        <compositemode>normal</compositemode>
                        <filter>
                            <enabled>TRUE</enabled>
                            <start>0</start>
                            <end>1576</end>
                            <effect>
                                <name>Opacity</name>
                                <effectid>opacity</effectid>
                                <effecttype>motion</effecttype>
                                <mediatype>video</mediatype>
                                <effectcategory>motion</effectcategory>
                                <parameter>
                                    <name>opacity</name>
                                    <parameterid>opacity</parameterid>
                                    <value>100</value>
                                    <valuemin>0</valuemin>
                                    <valuemax>100</valuemax>
                                </parameter>
                            </effect>
                        </filter>
                        <link>
                            <linkclipref>SecondScenePark.3.2.Take3.R3D 0</linkclipref>
                        </link>
                        <link>
                            <linkclipref>SecondScenePark.3.2.Take3.R3D 3</linkclipref>
                        </link>
                        <comments/>
                    </clipitem>
                    <clipitem id="SecondScenePark.3.2.Banana.Take1.R3D 0">
                        <name>SecondScenePark.3.2.Banana.Take1.R3D</name>
                        <duration>1174</duration>
                        <rate>
                            <timebase>24</timebase>
                            <ntsc>TRUE</ntsc>
                        </rate>
                        <start>28256</start>
                        <end>29430</end>
                        <enabled>TRUE</enabled>
                        <in>0</in>
                        <out>1174</out>
                        <file id="SecondScenePark.3.2.Banana.Take1.R3D 2">
                            <duration>1174</duration>
                            <rate>
                                <timebase>24</timebase>
                                <ntsc>TRUE</ntsc>
                            </rate>
                            <name>B030_C016_010183_001.R3D</name>
                            <pathurl>file:///Volumes/Jackson/movies/JacksonTheMovie/Premier/V1-0032_B030_C016_010183.mov</pathurl>
                            <timecode>
                                <string>01:10:05:23</string>
                                <displayformat>NDF</displayformat>
                                <rate>
                                    <timebase>24</timebase>
                                    <ntsc>TRUE</ntsc>
                                </rate>
                            </timecode>
                            <media>
                                <video>
                                    <duration>1174</duration>
                                    <samplecharacteristics>
                                        <width>1920</width>
                                        <height>1080</height>
                                    </samplecharacteristics>
                                </video>
                                <audio>
                                    <channelcount>2</channelcount>
                                </audio>
                            </media>
                        </file>
                        <compositemode>normal</compositemode>
                        <filter>
                            <enabled>TRUE</enabled>
                            <start>0</start>
                            <end>1174</end>
                            <effect>
                                <name>Opacity</name>
                                <effectid>opacity</effectid>
                                <effecttype>motion</effecttype>
                                <mediatype>video</mediatype>
                                <effectcategory>motion</effectcategory>
                                <parameter>
                                    <name>opacity</name>
                                    <parameterid>opacity</parameterid>
                                    <value>100</value>
                                    <valuemin>0</valuemin>
                                    <valuemax>100</valuemax>
                                </parameter>
                            </effect>
                        </filter>
                        <link>
                            <linkclipref>SecondScenePark.3.2.Banana.Take1.R3D 0</linkclipref>
                        </link>
                        <link>
                            <linkclipref>SecondScenePark.3.2.Banana.Take1.R3D 3</linkclipref>
                        </link>
                        <comments/>
                    </clipitem>
                    <clipitem id="SecondScenePark.3.2.Banana.Take2.R3D 0">
                        <name>SecondScenePark.3.2.Banana.Take2.R3D</name>
                        <duration>800</duration>
                        <rate>
                            <timebase>24</timebase>
                            <ntsc>TRUE</ntsc>
                        </rate>
                        <start>29430</start>
                        <end>30230</end>
                        <enabled>TRUE</enabled>
                        <in>0</in>
                        <out>800</out>
                        <file id="SecondScenePark.3.2.Banana.Take2.R3D 2">
                            <duration>800</duration>
                            <rate>
                                <timebase>24</timebase>
                                <ntsc>TRUE</ntsc>
                            </rate>
                            <name>B030_C017_0101QC_001.R3D</name>
                            <pathurl>file:///Volumes/Jackson/movies/JacksonTheMovie/Premier/V1-0033_B030_C017_0101QC.mov</pathurl>
                            <timecode>
                                <string>01:11:33:12</string>
                                <displayformat>NDF</displayformat>
                                <rate>
                                    <timebase>24</timebase>
                                    <ntsc>TRUE</ntsc>
                                </rate>
                            </timecode>
                            <media>
                                <video>
                                    <duration>800</duration>
                                    <samplecharacteristics>
                                        <width>1920</width>
                                        <height>1080</height>
                                    </samplecharacteristics>
                                </video>
                                <audio>
                                    <channelcount>2</channelcount>
                                </audio>
                            </media>
                        </file>
                        <compositemode>normal</compositemode>
                        <filter>
                            <enabled>TRUE</enabled>
                            <start>0</start>
                            <end>800</end>
                            <effect>
                                <name>Opacity</name>
                                <effectid>opacity</effectid>
                                <effecttype>motion</effecttype>
                                <mediatype>video</mediatype>
                                <effectcategory>motion</effectcategory>
                                <parameter>
                                    <name>opacity</name>
                                    <parameterid>opacity</parameterid>
                                    <value>100</value>
                                    <valuemin>0</valuemin>
                                    <valuemax>100</valuemax>
                                </parameter>
                            </effect>
                        </filter>
                        <link>
                            <linkclipref>SecondScenePark.3.2.Banana.Take2.R3D 0</linkclipref>
                        </link>
                        <link>
                            <linkclipref>SecondScenePark.3.2.Banana.Take2.R3D 3</linkclipref>
                        </link>
                        <comments/>
                    </clipitem>
                    <clipitem id="SecondScenePark.3.4.Take1.R3D 0">
                        <name>SecondScenePark.3.4.Take1.R3D</name>
                        <duration>1294</duration>
                        <rate>
                            <timebase>24</timebase>
                            <ntsc>TRUE</ntsc>
                        </rate>
                        <start>30230</start>
                        <end>31524</end>
                        <enabled>TRUE</enabled>
                        <in>0</in>
                        <out>1294</out>
                        <file id="SecondScenePark.3.4.Take1.R3D 2">
                            <duration>1294</duration>
                            <rate>
                                <timebase>24</timebase>
                                <ntsc>TRUE</ntsc>
                            </rate>
                            <name>B030_C018_0101VZ_001.R3D</name>
                            <pathurl>file:///Volumes/Jackson/movies/JacksonTheMovie/Premier/V1-0034_B030_C018_0101VZ.mov</pathurl>
                            <timecode>
                                <string>01:13:44:20</string>
                                <displayformat>NDF</displayformat>
                                <rate>
                                    <timebase>24</timebase>
                                    <ntsc>TRUE</ntsc>
                                </rate>
                            </timecode>
                            <media>
                                <video>
                                    <duration>1294</duration>
                                    <samplecharacteristics>
                                        <width>1920</width>
                                        <height>1080</height>
                                    </samplecharacteristics>
                                </video>
                                <audio>
                                    <channelcount>2</channelcount>
                                </audio>
                            </media>
                        </file>
                        <compositemode>normal</compositemode>
                        <filter>
                            <enabled>TRUE</enabled>
                            <start>0</start>
                            <end>1294</end>
                            <effect>
                                <name>Opacity</name>
                                <effectid>opacity</effectid>
                                <effecttype>motion</effecttype>
                                <mediatype>video</mediatype>
                                <effectcategory>motion</effectcategory>
                                <parameter>
                                    <name>opacity</name>
                                    <parameterid>opacity</parameterid>
                                    <value>100</value>
                                    <valuemin>0</valuemin>
                                    <valuemax>100</valuemax>
                                </parameter>
                            </effect>
                        </filter>
                        <link>
                            <linkclipref>SecondScenePark.3.4.Take1.R3D 0</linkclipref>
                        </link>
                        <link>
                            <linkclipref>SecondScenePark.3.4.Take1.R3D 6</linkclipref>
                        </link>
                        <comments/>
                    </clipitem>
                    <clipitem id="SecondScenePark.3.4.Take2.R3D 0">
                        <name>SecondScenePark.3.4.Take2.R3D</name>
                        <duration>1598</duration>
                        <rate>
                            <timebase>24</timebase>
                            <ntsc>TRUE</ntsc>
                        </rate>
                        <start>31524</start>
                        <end>33122</end>
                        <enabled>TRUE</enabled>
                        <in>0</in>
                        <out>1598</out>
                        <file id="SecondScenePark.3.4.Take2.R3D 2">
                            <duration>1598</duration>
                            <rate>
                                <timebase>24</timebase>
                                <ntsc>TRUE</ntsc>
                            </rate>
                            <name>B030_C019_0101SR_001.R3D</name>
                            <pathurl>file:///Volumes/Jackson/movies/JacksonTheMovie/Premier/V1-0035_B030_C019_0101SR.mov</pathurl>
                            <timecode>
                                <string>01:15:03:04</string>
                                <displayformat>NDF</displayformat>
                                <rate>
                                    <timebase>24</timebase>
                                    <ntsc>TRUE</ntsc>
                                </rate>
                            </timecode>
                            <media>
                                <video>
                                    <duration>1598</duration>
                                    <samplecharacteristics>
                                        <width>1920</width>
                                        <height>1080</height>
                                    </samplecharacteristics>
                                </video>
                                <audio>
                                    <channelcount>2</channelcount>
                                </audio>
                            </media>
                        </file>
                        <compositemode>normal</compositemode>
                        <filter>
                            <enabled>TRUE</enabled>
                            <start>0</start>
                            <end>1598</end>
                            <effect>
                                <name>Opacity</name>
                                <effectid>opacity</effectid>
                                <effecttype>motion</effecttype>
                                <mediatype>video</mediatype>
                                <effectcategory>motion</effectcategory>
                                <parameter>
                                    <name>opacity</name>
                                    <parameterid>opacity</parameterid>
                                    <value>100</value>
                                    <valuemin>0</valuemin>
                                    <valuemax>100</valuemax>
                                </parameter>
                            </effect>
                        </filter>
                        <link>
                            <linkclipref>SecondScenePark.3.4.Take2.R3D 0</linkclipref>
                        </link>
                        <link>
                            <linkclipref>SecondScenePark.3.4.Take2.R3D 3</linkclipref>
                        </link>
                        <comments/>
                    </clipitem>
                    <clipitem id="SecondScenePark.3.4.Take1.R3D 3">
                        <name>SecondScenePark.3.4.Take1.R3D</name>
                        <duration>246</duration>
                        <rate>
                            <timebase>24</timebase>
                            <ntsc>TRUE</ntsc>
                        </rate>
                        <start>33122</start>
                        <end>33368</end>
                        <enabled>TRUE</enabled>
                        <in>0</in>
                        <out>246</out>
                        <file id="SecondScenePark.3.4.Take1.R3D 5">
                            <duration>246</duration>
                            <rate>
                                <timebase>24</timebase>
                                <ntsc>TRUE</ntsc>
                            </rate>
                            <name>B030_C020_0101LL_001.R3D</name>
                            <pathurl>file:///Volumes/Jackson/movies/JacksonTheMovie/Premier/V1-0036_B030_C020_0101LL.mov</pathurl>
                            <timecode>
                                <string>01:16:18:23</string>
                                <displayformat>NDF</displayformat>
                                <rate>
                                    <timebase>24</timebase>
                                    <ntsc>TRUE</ntsc>
                                </rate>
                            </timecode>
                            <media>
                                <video>
                                    <duration>246</duration>
                                    <samplecharacteristics>
                                        <width>1920</width>
                                        <height>1080</height>
                                    </samplecharacteristics>
                                </video>
                                <audio>
                                    <channelcount>2</channelcount>
                                </audio>
                            </media>
                        </file>
                        <compositemode>normal</compositemode>
                        <filter>
                            <enabled>TRUE</enabled>
                            <start>0</start>
                            <end>246</end>
                            <effect>
                                <name>Opacity</name>
                                <effectid>opacity</effectid>
                                <effecttype>motion</effecttype>
                                <mediatype>video</mediatype>
                                <effectcategory>motion</effectcategory>
                                <parameter>
                                    <name>opacity</name>
                                    <parameterid>opacity</parameterid>
                                    <value>100</value>
                                    <valuemin>0</valuemin>
                                    <valuemax>100</valuemax>
                                </parameter>
                            </effect>
                        </filter>
                        <link>
                            <linkclipref>SecondScenePark.3.4.Take1.R3D 3</linkclipref>
                        </link>
                        <link>
                            <linkclipref>SecondScenePark.3.4.Take1.R3D 7</linkclipref>
                        </link>
                        <comments/>
                    </clipitem>
                    <clipitem id="SecondScenePark.3.5.Apple.Take1.R3D 0">
                        <name>SecondScenePark.3.5.Apple.Take1.R3D</name>
                        <duration>856</duration>
                        <rate>
                            <timebase>24</timebase>
                            <ntsc>TRUE</ntsc>
                        </rate>
                        <start>33368</start>
                        <end>34224</end>
                        <enabled>TRUE</enabled>
                        <in>0</in>
                        <out>856</out>
                        <file id="SecondScenePark.3.5.Apple.Take1.R3D 2">
                            <duration>856</duration>
                            <rate>
                                <timebase>24</timebase>
                                <ntsc>TRUE</ntsc>
                            </rate>
                            <name>B030_C024_0101V8_001.R3D</name>
                            <pathurl>file:///Volumes/Jackson/movies/JacksonTheMovie/Premier/V1-0037_B030_C024_0101V8.mov</pathurl>
                            <timecode>
                                <string>01:39:03:06</string>
                                <displayformat>NDF</displayformat>
                                <rate>
                                    <timebase>24</timebase>
                                    <ntsc>TRUE</ntsc>
                                </rate>
                            </timecode>
                            <media>
                                <video>
                                    <duration>856</duration>
                                    <samplecharacteristics>
                                        <width>1920</width>
                                        <height>1080</height>
                                    </samplecharacteristics>
                                </video>
                                <audio>
                                    <channelcount>2</channelcount>
                                </audio>
                            </media>
                        </file>
                        <compositemode>normal</compositemode>
                        <filter>
                            <enabled>TRUE</enabled>
                            <start>0</start>
                            <end>856</end>
                            <effect>
                                <name>Opacity</name>
                                <effectid>opacity</effectid>
                                <effecttype>motion</effecttype>
                                <mediatype>video</mediatype>
                                <effectcategory>motion</effectcategory>
                                <parameter>
                                    <name>opacity</name>
                                    <parameterid>opacity</parameterid>
                                    <value>100</value>
                                    <valuemin>0</valuemin>
                                    <valuemax>100</valuemax>
                                </parameter>
                            </effect>
                        </filter>
                        <link>
                            <linkclipref>SecondScenePark.3.5.Apple.Take1.R3D 0</linkclipref>
                        </link>
                        <link>
                            <linkclipref>SecondScenePark.3.5.Apple.Take1.R3D 3</linkclipref>
                        </link>
                        <comments/>
                    </clipitem>
                    <clipitem id="SecondScenePark.3.5.Banana.Take1.R3D 0">
                        <name>SecondScenePark.3.5.Banana.Take1.R3D</name>
                        <duration>834</duration>
                        <rate>
                            <timebase>24</timebase>
                            <ntsc>TRUE</ntsc>
                        </rate>
                        <start>34224</start>
                        <end>35058</end>
                        <enabled>TRUE</enabled>
                        <in>0</in>
                        <out>834</out>
                        <file id="SecondScenePark.3.5.Banana.Take1.R3D 2">
                            <duration>834</duration>
                            <rate>
                                <timebase>24</timebase>
                                <ntsc>TRUE</ntsc>
                            </rate>
                            <name>B030_C025_0101WZ_001.R3D</name>
                            <pathurl>file:///Volumes/Jackson/movies/JacksonTheMovie/Premier/V1-0038_B030_C025_0101WZ.mov</pathurl>
                            <timecode>
                                <string>01:41:45:09</string>
                                <displayformat>NDF</displayformat>
                                <rate>
                                    <timebase>24</timebase>
                                    <ntsc>TRUE</ntsc>
                                </rate>
                            </timecode>
                            <media>
                                <video>
                                    <duration>834</duration>
                                    <samplecharacteristics>
                                        <width>1920</width>
                                        <height>1080</height>
                                    </samplecharacteristics>
                                </video>
                                <audio>
                                    <channelcount>2</channelcount>
                                </audio>
                            </media>
                        </file>
                        <compositemode>normal</compositemode>
                        <filter>
                            <enabled>TRUE</enabled>
                            <start>0</start>
                            <end>834</end>
                            <effect>
                                <name>Opacity</name>
                                <effectid>opacity</effectid>
                                <effecttype>motion</effecttype>
                                <mediatype>video</mediatype>
                                <effectcategory>motion</effectcategory>
                                <parameter>
                                    <name>opacity</name>
                                    <parameterid>opacity</parameterid>
                                    <value>100</value>
                                    <valuemin>0</valuemin>
                                    <valuemax>100</valuemax>
                                </parameter>
                            </effect>
                        </filter>
                        <link>
                            <linkclipref>SecondScenePark.3.5.Banana.Take1.R3D 0</linkclipref>
                        </link>
                        <link>
                            <linkclipref>SecondScenePark.3.5.Banana.Take1.R3D 3</linkclipref>
                        </link>
                        <comments/>
                    </clipitem>
                    <clipitem id="SecondScenePark.3.5.Caw.ExtraEmpty.R3D 0">
                        <name>SecondScenePark.3.5.Caw.ExtraEmpty.R3D</name>
                        <duration>104</duration>
                        <rate>
                            <timebase>24</timebase>
                            <ntsc>TRUE</ntsc>
                        </rate>
                        <start>35058</start>
                        <end>35162</end>
                        <enabled>TRUE</enabled>
                        <in>0</in>
                        <out>104</out>
                        <file id="SecondScenePark.3.5.Caw.ExtraEmpty.R3D 2">
                            <duration>104</duration>
                            <rate>
                                <timebase>24</timebase>
                                <ntsc>TRUE</ntsc>
                            </rate>
                            <name>B030_C030_0101VK_001.R3D</name>
                            <pathurl>file:///Volumes/Jackson/movies/JacksonTheMovie/Premier/V1-0039_B030_C030_0101VK.mov</pathurl>
                            <timecode>
                                <string>02:00:21:04</string>
                                <displayformat>NDF</displayformat>
                                <rate>
                                    <timebase>24</timebase>
                                    <ntsc>TRUE</ntsc>
                                </rate>
                            </timecode>
                            <media>
                                <video>
                                    <duration>104</duration>
                                    <samplecharacteristics>
                                        <width>1920</width>
                                        <height>1080</height>
                                    </samplecharacteristics>
                                </video>
                                <audio>
                                    <channelcount>2</channelcount>
                                </audio>
                            </media>
                        </file>
                        <compositemode>normal</compositemode>
                        <filter>
                            <enabled>TRUE</enabled>
                            <start>0</start>
                            <end>104</end>
                            <effect>
                                <name>Opacity</name>
                                <effectid>opacity</effectid>
                                <effecttype>motion</effecttype>
                                <mediatype>video</mediatype>
                                <effectcategory>motion</effectcategory>
                                <parameter>
                                    <name>opacity</name>
                                    <parameterid>opacity</parameterid>
                                    <value>100</value>
                                    <valuemin>0</valuemin>
                                    <valuemax>100</valuemax>
                                </parameter>
                            </effect>
                        </filter>
                        <link>
                            <linkclipref>SecondScenePark.3.5.Caw.ExtraEmpty.R3D 0</linkclipref>
                        </link>
                        <link>
                            <linkclipref>SecondScenePark.3.5.Caw.ExtraEmpty.R3D 3</linkclipref>
                        </link>
                        <comments/>
                    </clipitem>
                    <clipitem id="SecondScenePark.3.5.OllieFinn.R3D 0">
                        <name>SecondScenePark.3.5.OllieFinn.R3D</name>
                        <duration>79</duration>
                        <rate>
                            <timebase>24</timebase>
                            <ntsc>TRUE</ntsc>
                        </rate>
                        <start>35186</start>
                        <end>35265</end>
                        <enabled>TRUE</enabled>
                        <in>0</in>
                        <out>79</out>
                        <file id="SecondScenePark.3.5.OllieFinn.R3D 2">
                            <duration>79</duration>
                            <rate>
                                <timebase>24</timebase>
                                <ntsc>TRUE</ntsc>
                            </rate>
                            <name>B030_C023_0101Z5_001.R3D</name>
                            <pathurl>file:///Volumes/Jackson/movies/JacksonTheMovie/Premier/V1-0040_B030_C023_0101Z5.mov</pathurl>
                            <timecode>
                                <string>01:34:28:08</string>
                                <displayformat>NDF</displayformat>
                                <rate>
                                    <timebase>24</timebase>
                                    <ntsc>TRUE</ntsc>
                                </rate>
                            </timecode>
                            <media>
                                <video>
                                    <duration>79</duration>
                                    <samplecharacteristics>
                                        <width>1920</width>
                                        <height>1080</height>
                                    </samplecharacteristics>
                                </video>
                                <audio>
                                    <channelcount>2</channelcount>
                                </audio>
                            </media>
                        </file>
                        <compositemode>normal</compositemode>
                        <filter>
                            <enabled>TRUE</enabled>
                            <start>0</start>
                            <end>79</end>
                            <effect>
                                <name>Opacity</name>
                                <effectid>opacity</effectid>
                                <effecttype>motion</effecttype>
                                <mediatype>video</mediatype>
                                <effectcategory>motion</effectcategory>
                                <parameter>
                                    <name>opacity</name>
                                    <parameterid>opacity</parameterid>
                                    <value>100</value>
                                    <valuemin>0</valuemin>
                                    <valuemax>100</valuemax>
                                </parameter>
                            </effect>
                        </filter>
                        <link>
                            <linkclipref>SecondScenePark.3.5.OllieFinn.R3D 0</linkclipref>
                        </link>
                        <link>
                            <linkclipref>SecondScenePark.3.5.OllieFinn.R3D 3</linkclipref>
                        </link>
                        <comments/>
                    </clipitem>
                    <clipitem id="SecondScenePark.3.5.Take1.R3D 0">
                        <name>SecondScenePark.3.5.Take1.R3D</name>
                        <duration>1025</duration>
                        <rate>
                            <timebase>24</timebase>
                            <ntsc>TRUE</ntsc>
                        </rate>
                        <start>35265</start>
                        <end>36290</end>
                        <enabled>TRUE</enabled>
                        <in>0</in>
                        <out>1025</out>
                        <file id="SecondScenePark.3.5.Take1.R3D 2">
                            <duration>1025</duration>
                            <rate>
                                <timebase>24</timebase>
                                <ntsc>TRUE</ntsc>
                            </rate>
                            <name>B030_C021_0101K4_001.R3D</name>
                            <pathurl>file:///Volumes/Jackson/movies/JacksonTheMovie/Premier/V1-0041_B030_C021_0101K4.mov</pathurl>
                            <timecode>
                                <string>01:30:38:07</string>
                                <displayformat>NDF</displayformat>
                                <rate>
                                    <timebase>24</timebase>
                                    <ntsc>TRUE</ntsc>
                                </rate>
                            </timecode>
                            <media>
                                <video>
                                    <duration>1025</duration>
                                    <samplecharacteristics>
                                        <width>1920</width>
                                        <height>1080</height>
                                    </samplecharacteristics>
                                </video>
                                <audio>
                                    <channelcount>2</channelcount>
                                </audio>
                            </media>
                        </file>
                        <compositemode>normal</compositemode>
                        <filter>
                            <enabled>TRUE</enabled>
                            <start>0</start>
                            <end>1025</end>
                            <effect>
                                <name>Opacity</name>
                                <effectid>opacity</effectid>
                                <effecttype>motion</effecttype>
                                <mediatype>video</mediatype>
                                <effectcategory>motion</effectcategory>
                                <parameter>
                                    <name>opacity</name>
                                    <parameterid>opacity</parameterid>
                                    <value>100</value>
                                    <valuemin>0</valuemin>
                                    <valuemax>100</valuemax>
                                </parameter>
                            </effect>
                        </filter>
                        <link>
                            <linkclipref>SecondScenePark.3.5.Take1.R3D 0</linkclipref>
                        </link>
                        <link>
                            <linkclipref>SecondScenePark.3.5.Take1.R3D 3</linkclipref>
                        </link>
                        <comments/>
                    </clipitem>
                    <clipitem id="SecondScenePark.3.5.Take2.R3D 0">
                        <name>SecondScenePark.3.5.Take2.R3D</name>
                        <duration>1055</duration>
                        <rate>
                            <timebase>24</timebase>
                            <ntsc>TRUE</ntsc>
                        </rate>
                        <start>36290</start>
                        <end>37345</end>
                        <enabled>TRUE</enabled>
                        <in>0</in>
                        <out>1055</out>
                        <file id="SecondScenePark.3.5.Take2.R3D 2">
                            <duration>1055</duration>
                            <rate>
                                <timebase>24</timebase>
                                <ntsc>TRUE</ntsc>
                            </rate>
                            <name>B030_C022_01012Q_001.R3D</name>
                            <pathurl>file:///Volumes/Jackson/movies/JacksonTheMovie/Premier/V1-0042_B030_C022_01012Q.mov</pathurl>
                            <timecode>
                                <string>01:33:08:08</string>
                                <displayformat>NDF</displayformat>
                                <rate>
                                    <timebase>24</timebase>
                                    <ntsc>TRUE</ntsc>
                                </rate>
                            </timecode>
                            <media>
                                <video>
                                    <duration>1055</duration>
                                    <samplecharacteristics>
                                        <width>1920</width>
                                        <height>1080</height>
                                    </samplecharacteristics>
                                </video>
                                <audio>
                                    <channelcount>2</channelcount>
                                </audio>
                            </media>
                        </file>
                        <compositemode>normal</compositemode>
                        <filter>
                            <enabled>TRUE</enabled>
                            <start>0</start>
                            <end>1055</end>
                            <effect>
                                <name>Opacity</name>
                                <effectid>opacity</effectid>
                                <effecttype>motion</effecttype>
                                <mediatype>video</mediatype>
                                <effectcategory>motion</effectcategory>
                                <parameter>
                                    <name>opacity</name>
                                    <parameterid>opacity</parameterid>
                                    <value>100</value>
                                    <valuemin>0</valuemin>
                                    <valuemax>100</valuemax>
                                </parameter>
                            </effect>
                        </filter>
                        <link>
                            <linkclipref>SecondScenePark.3.5.Take2.R3D 0</linkclipref>
                        </link>
                        <link>
                            <linkclipref>SecondScenePark.3.5.Take2.R3D 3</linkclipref>
                        </link>
                        <comments/>
                    </clipitem>
                    <clipitem id="SecondScenePark.3.5.Caw.Take1.R3D 0">
                        <name>SecondScenePark.3.5.Caw.Take1.R3D</name>
                        <duration>484</duration>
                        <rate>
                            <timebase>24</timebase>
                            <ntsc>TRUE</ntsc>
                        </rate>
                        <start>37345</start>
                        <end>37829</end>
                        <enabled>TRUE</enabled>
                        <in>0</in>
                        <out>484</out>
                        <file id="SecondScenePark.3.5.Caw.Take1.R3D 2">
                            <duration>484</duration>
                            <rate>
                                <timebase>24</timebase>
                                <ntsc>TRUE</ntsc>
                            </rate>
                            <name>B030_C028_0101CL_001.R3D</name>
                            <pathurl>file:///Volumes/Jackson/movies/JacksonTheMovie/Premier/V1-0043_B030_C028_0101CL.mov</pathurl>
                            <timecode>
                                <string>01:58:35:13</string>
                                <displayformat>NDF</displayformat>
                                <rate>
                                    <timebase>24</timebase>
                                    <ntsc>TRUE</ntsc>
                                </rate>
                            </timecode>
                            <media>
                                <video>
                                    <duration>484</duration>
                                    <samplecharacteristics>
                                        <width>1920</width>
                                        <height>1080</height>
                                    </samplecharacteristics>
                                </video>
                                <audio>
                                    <channelcount>2</channelcount>
                                </audio>
                            </media>
                        </file>
                        <compositemode>normal</compositemode>
                        <filter>
                            <enabled>TRUE</enabled>
                            <start>0</start>
                            <end>484</end>
                            <effect>
                                <name>Opacity</name>
                                <effectid>opacity</effectid>
                                <effecttype>motion</effecttype>
                                <mediatype>video</mediatype>
                                <effectcategory>motion</effectcategory>
                                <parameter>
                                    <name>opacity</name>
                                    <parameterid>opacity</parameterid>
                                    <value>100</value>
                                    <valuemin>0</valuemin>
                                    <valuemax>100</valuemax>
                                </parameter>
                            </effect>
                        </filter>
                        <link>
                            <linkclipref>SecondScenePark.3.5.Caw.Take1.R3D 0</linkclipref>
                        </link>
                        <link>
                            <linkclipref>SecondScenePark.3.5.Caw.Take1.R3D 3</linkclipref>
                        </link>
                        <comments/>
                    </clipitem>
                    <clipitem id="SecondScenePark.3.5.Caw.Take2.R3D 0">
                        <name>SecondScenePark.3.5.Caw.Take2.R3D</name>
                        <duration>625</duration>
                        <rate>
                            <timebase>24</timebase>
                            <ntsc>TRUE</ntsc>
                        </rate>
                        <start>37829</start>
                        <end>38454</end>
                        <enabled>TRUE</enabled>
                        <in>0</in>
                        <out>625</out>
                        <file id="SecondScenePark.3.5.Caw.Take2.R3D 2">
                            <duration>625</duration>
                            <rate>
                                <timebase>24</timebase>
                                <ntsc>TRUE</ntsc>
                            </rate>
                            <name>B030_C029_0101UN_001.R3D</name>
                            <pathurl>file:///Volumes/Jackson/movies/JacksonTheMovie/Premier/V1-0044_B030_C029_0101UN.mov</pathurl>
                            <timecode>
                                <string>01:59:38:16</string>
                                <displayformat>NDF</displayformat>
                                <rate>
                                    <timebase>24</timebase>
                                    <ntsc>TRUE</ntsc>
                                </rate>
                            </timecode>
                            <media>
                                <video>
                                    <duration>625</duration>
                                    <samplecharacteristics>
                                        <width>1920</width>
                                        <height>1080</height>
                                    </samplecharacteristics>
                                </video>
                                <audio>
                                    <channelcount>2</channelcount>
                                </audio>
                            </media>
                        </file>
                        <compositemode>normal</compositemode>
                        <filter>
                            <enabled>TRUE</enabled>
                            <start>0</start>
                            <end>625</end>
                            <effect>
                                <name>Opacity</name>
                                <effectid>opacity</effectid>
                                <effecttype>motion</effecttype>
                                <mediatype>video</mediatype>
                                <effectcategory>motion</effectcategory>
                                <parameter>
                                    <name>opacity</name>
                                    <parameterid>opacity</parameterid>
                                    <value>100</value>
                                    <valuemin>0</valuemin>
                                    <valuemax>100</valuemax>
                                </parameter>
                            </effect>
                        </filter>
                        <link>
                            <linkclipref>SecondScenePark.3.5.Caw.Take2.R3D 0</linkclipref>
                        </link>
                        <link>
                            <linkclipref>SecondScenePark.3.5.Caw.Take2.R3D 3</linkclipref>
                        </link>
                        <comments/>
                    </clipitem>
                    <clipitem id="SecondScenePark.3.5.Date.Take1.R3D 0">
                        <name>SecondScenePark.3.5.Date.Take1.R3D</name>
                        <duration>289</duration>
                        <rate>
                            <timebase>24</timebase>
                            <ntsc>TRUE</ntsc>
                        </rate>
                        <start>38454</start>
                        <end>38743</end>
                        <enabled>TRUE</enabled>
                        <in>0</in>
                        <out>289</out>
                        <file id="SecondScenePark.3.5.Date.Take1.R3D 2">
                            <duration>289</duration>
                            <rate>
                                <timebase>24</timebase>
                                <ntsc>TRUE</ntsc>
                            </rate>
                            <name>B030_C031_010139_001.R3D</name>
                            <pathurl>file:///Volumes/Jackson/movies/JacksonTheMovie/Premier/V1-0045_B030_C031_010139.mov</pathurl>
                            <timecode>
                                <string>02:02:09:20</string>
                                <displayformat>NDF</displayformat>
                                <rate>
                                    <timebase>24</timebase>
                                    <ntsc>TRUE</ntsc>
                                </rate>
                            </timecode>
                            <media>
                                <video>
                                    <duration>289</duration>
                                    <samplecharacteristics>
                                        <width>1920</width>
                                        <height>1080</height>
                                    </samplecharacteristics>
                                </video>
                                <audio>
                                    <channelcount>2</channelcount>
                                </audio>
                            </media>
                        </file>
                        <compositemode>normal</compositemode>
                        <filter>
                            <enabled>TRUE</enabled>
                            <start>0</start>
                            <end>289</end>
                            <effect>
                                <name>Opacity</name>
                                <effectid>opacity</effectid>
                                <effecttype>motion</effecttype>
                                <mediatype>video</mediatype>
                                <effectcategory>motion</effectcategory>
                                <parameter>
                                    <name>opacity</name>
                                    <parameterid>opacity</parameterid>
                                    <value>100</value>
                                    <valuemin>0</valuemin>
                                    <valuemax>100</valuemax>
                                </parameter>
                            </effect>
                        </filter>
                        <link>
                            <linkclipref>SecondScenePark.3.5.Date.Take1.R3D 0</linkclipref>
                        </link>
                        <link>
                            <linkclipref>SecondScenePark.3.5.Date.Take1.R3D 3</linkclipref>
                        </link>
                        <comments/>
                    </clipitem>
                    <clipitem id="SecondScenePark.3.5.Eggplant.Take1.R3D 0">
                        <name>SecondScenePark.3.5.Eggplant.Take1.R3D</name>
                        <duration>289</duration>
                        <rate>
                            <timebase>24</timebase>
                            <ntsc>TRUE</ntsc>
                        </rate>
                        <start>38743</start>
                        <end>39032</end>
                        <enabled>TRUE</enabled>
                        <in>0</in>
                        <out>289</out>
                        <file id="SecondScenePark.3.5.Eggplant.Take1.R3D 2">
                            <duration>289</duration>
                            <rate>
                                <timebase>24</timebase>
                                <ntsc>TRUE</ntsc>
                            </rate>
                            <name>B030_C032_0101FN_001.R3D</name>
                            <pathurl>file:///Volumes/Jackson/movies/JacksonTheMovie/Premier/V1-0046_B030_C032_0101FN.mov</pathurl>
                            <timecode>
                                <string>02:04:13:23</string>
                                <displayformat>NDF</displayformat>
                                <rate>
                                    <timebase>24</timebase>
                                    <ntsc>TRUE</ntsc>
                                </rate>
                            </timecode>
                            <media>
                                <video>
                                    <duration>289</duration>
                                    <samplecharacteristics>
                                        <width>1920</width>
                                        <height>1080</height>
                                    </samplecharacteristics>
                                </video>
                                <audio>
                                    <channelcount>2</channelcount>
                                </audio>
                            </media>
                        </file>
                        <compositemode>normal</compositemode>
                        <filter>
                            <enabled>TRUE</enabled>
                            <start>0</start>
                            <end>289</end>
                            <effect>
                                <name>Opacity</name>
                                <effectid>opacity</effectid>
                                <effecttype>motion</effecttype>
                                <mediatype>video</mediatype>
                                <effectcategory>motion</effectcategory>
                                <parameter>
                                    <name>opacity</name>
                                    <parameterid>opacity</parameterid>
                                    <value>100</value>
                                    <valuemin>0</valuemin>
                                    <valuemax>100</valuemax>
                                </parameter>
                            </effect>
                        </filter>
                        <link>
                            <linkclipref>SecondScenePark.3.5.Eggplant.Take1.R3D 0</linkclipref>
                        </link>
                        <link>
                            <linkclipref>SecondScenePark.3.5.Eggplant.Take1.R3D 3</linkclipref>
                        </link>
                        <comments/>
                    </clipitem>
                    <clipitem id="SecondScenePark.4.Take1.R3D 0">
                        <name>SecondScenePark.4.Take1.R3D</name>
                        <duration>635</duration>
                        <rate>
                            <timebase>24</timebase>
                            <ntsc>TRUE</ntsc>
                        </rate>
                        <start>39032</start>
                        <end>39667</end>
                        <enabled>TRUE</enabled>
                        <in>0</in>
                        <out>635</out>
                        <file id="SecondScenePark.4.Take1.R3D 2">
                            <duration>635</duration>
                            <rate>
                                <timebase>24</timebase>
                                <ntsc>TRUE</ntsc>
                            </rate>
                            <name>B030_C035_0101AK_001.R3D</name>
                            <pathurl>file:///Volumes/Jackson/movies/JacksonTheMovie/Premier/V1-0047_B030_C035_0101AK.mov</pathurl>
                            <timecode>
                                <string>00:42:52:23</string>
                                <displayformat>NDF</displayformat>
                                <rate>
                                    <timebase>24</timebase>
                                    <ntsc>TRUE</ntsc>
                                </rate>
                            </timecode>
                            <media>
                                <video>
                                    <duration>635</duration>
                                    <samplecharacteristics>
                                        <width>1920</width>
                                        <height>1080</height>
                                    </samplecharacteristics>
                                </video>
                                <audio>
                                    <channelcount>2</channelcount>
                                </audio>
                            </media>
                        </file>
                        <compositemode>normal</compositemode>
                        <filter>
                            <enabled>TRUE</enabled>
                            <start>0</start>
                            <end>635</end>
                            <effect>
                                <name>Opacity</name>
                                <effectid>opacity</effectid>
                                <effecttype>motion</effecttype>
                                <mediatype>video</mediatype>
                                <effectcategory>motion</effectcategory>
                                <parameter>
                                    <name>opacity</name>
                                    <parameterid>opacity</parameterid>
                                    <value>100</value>
                                    <valuemin>0</valuemin>
                                    <valuemax>100</valuemax>
                                </parameter>
                            </effect>
                        </filter>
                        <link>
                            <linkclipref>SecondScenePark.4.Take1.R3D 0</linkclipref>
                        </link>
                        <link>
                            <linkclipref>SecondScenePark.4.Take1.R3D 3</linkclipref>
                        </link>
                        <comments/>
                    </clipitem>
                    <clipitem id="SecondScenePark.4.Take2.R3D 0">
                        <name>SecondScenePark.4.Take2.R3D</name>
                        <duration>690</duration>
                        <rate>
                            <timebase>24</timebase>
                            <ntsc>TRUE</ntsc>
                        </rate>
                        <start>39667</start>
                        <end>40357</end>
                        <enabled>TRUE</enabled>
                        <in>0</in>
                        <out>690</out>
                        <file id="SecondScenePark.4.Take2.R3D 2">
                            <duration>690</duration>
                            <rate>
                                <timebase>24</timebase>
                                <ntsc>TRUE</ntsc>
                            </rate>
                            <name>B030_C036_0101ZE_001.R3D</name>
                            <pathurl>file:///Volumes/Jackson/movies/JacksonTheMovie/Premier/V1-0048_B030_C036_0101ZE.mov</pathurl>
                            <timecode>
                                <string>00:44:08:16</string>
                                <displayformat>NDF</displayformat>
                                <rate>
                                    <timebase>24</timebase>
                                    <ntsc>TRUE</ntsc>
                                </rate>
                            </timecode>
                            <media>
                                <video>
                                    <duration>690</duration>
                                    <samplecharacteristics>
                                        <width>1920</width>
                                        <height>1080</height>
                                    </samplecharacteristics>
                                </video>
                                <audio>
                                    <channelcount>2</channelcount>
                                </audio>
                            </media>
                        </file>
                        <compositemode>normal</compositemode>
                        <filter>
                            <enabled>TRUE</enabled>
                            <start>0</start>
                            <end>690</end>
                            <effect>
                                <name>Opacity</name>
                                <effectid>opacity</effectid>
                                <effecttype>motion</effecttype>
                                <mediatype>video</mediatype>
                                <effectcategory>motion</effectcategory>
                                <parameter>
                                    <name>opacity</name>
                                    <parameterid>opacity</parameterid>
                                    <value>100</value>
                                    <valuemin>0</valuemin>
                                    <valuemax>100</valuemax>
                                </parameter>
                            </effect>
                        </filter>
                        <link>
                            <linkclipref>SecondScenePark.4.Take2.R3D 0</linkclipref>
                        </link>
                        <link>
                            <linkclipref>SecondScenePark.4.Take2.R3D 3</linkclipref>
                        </link>
                        <comments/>
                    </clipitem>
                    <clipitem id="SecondScenePark.4.Take3.R3D 0">
                        <name>SecondScenePark.4.Take3.R3D</name>
                        <duration>640</duration>
                        <rate>
                            <timebase>24</timebase>
                            <ntsc>TRUE</ntsc>
                        </rate>
                        <start>40357</start>
                        <end>40997</end>
                        <enabled>TRUE</enabled>
                        <in>0</in>
                        <out>640</out>
                        <file id="SecondScenePark.4.Take3.R3D 2">
                            <duration>640</duration>
                            <rate>
                                <timebase>24</timebase>
                                <ntsc>TRUE</ntsc>
                            </rate>
                            <name>B030_C037_01015J_001.R3D</name>
                            <pathurl>file:///Volumes/Jackson/movies/JacksonTheMovie/Premier/V1-0049_B030_C037_01015J.mov</pathurl>
                            <timecode>
                                <string>00:45:07:23</string>
                                <displayformat>NDF</displayformat>
                                <rate>
                                    <timebase>24</timebase>
                                    <ntsc>TRUE</ntsc>
                                </rate>
                            </timecode>
                            <media>
                                <video>
                                    <duration>640</duration>
                                    <samplecharacteristics>
                                        <width>1920</width>
                                        <height>1080</height>
                                    </samplecharacteristics>
                                </video>
                                <audio>
                                    <channelcount>2</channelcount>
                                </audio>
                            </media>
                        </file>
                        <compositemode>normal</compositemode>
                        <filter>
                            <enabled>TRUE</enabled>
                            <start>0</start>
                            <end>640</end>
                            <effect>
                                <name>Opacity</name>
                                <effectid>opacity</effectid>
                                <effecttype>motion</effecttype>
                                <mediatype>video</mediatype>
                                <effectcategory>motion</effectcategory>
                                <parameter>
                                    <name>opacity</name>
                                    <parameterid>opacity</parameterid>
                                    <value>100</value>
                                    <valuemin>0</valuemin>
                                    <valuemax>100</valuemax>
                                </parameter>
                            </effect>
                        </filter>
                        <link>
                            <linkclipref>SecondScenePark.4.Take3.R3D 0</linkclipref>
                        </link>
                        <link>
                            <linkclipref>SecondScenePark.4.Take3.R3D 3</linkclipref>
                        </link>
                        <comments/>
                    </clipitem>
                    <clipitem id="SecondScenePark.4.Take4.R3D 0">
                        <name>SecondScenePark.4.Take4.R3D</name>
                        <duration>563</duration>
                        <rate>
                            <timebase>24</timebase>
                            <ntsc>TRUE</ntsc>
                        </rate>
                        <start>40997</start>
                        <end>41560</end>
                        <enabled>TRUE</enabled>
                        <in>0</in>
                        <out>563</out>
                        <file id="SecondScenePark.4.Take4.R3D 2">
                            <duration>563</duration>
                            <rate>
                                <timebase>24</timebase>
                                <ntsc>TRUE</ntsc>
                            </rate>
                            <name>B030_C038_0101FW_001.R3D</name>
                            <pathurl>file:///Volumes/Jackson/movies/JacksonTheMovie/Premier/V1-0050_B030_C038_0101FW.mov</pathurl>
                            <timecode>
                                <string>00:46:07:12</string>
                                <displayformat>NDF</displayformat>
                                <rate>
                                    <timebase>24</timebase>
                                    <ntsc>TRUE</ntsc>
                                </rate>
                            </timecode>
                            <media>
                                <video>
                                    <duration>563</duration>
                                    <samplecharacteristics>
                                        <width>1920</width>
                                        <height>1080</height>
                                    </samplecharacteristics>
                                </video>
                                <audio>
                                    <channelcount>2</channelcount>
                                </audio>
                            </media>
                        </file>
                        <compositemode>normal</compositemode>
                        <filter>
                            <enabled>TRUE</enabled>
                            <start>0</start>
                            <end>563</end>
                            <effect>
                                <name>Opacity</name>
                                <effectid>opacity</effectid>
                                <effecttype>motion</effecttype>
                                <mediatype>video</mediatype>
                                <effectcategory>motion</effectcategory>
                                <parameter>
                                    <name>opacity</name>
                                    <parameterid>opacity</parameterid>
                                    <value>100</value>
                                    <valuemin>0</valuemin>
                                    <valuemax>100</valuemax>
                                </parameter>
                            </effect>
                        </filter>
                        <link>
                            <linkclipref>SecondScenePark.4.Take4.R3D 0</linkclipref>
                        </link>
                        <link>
                            <linkclipref>SecondScenePark.4.Take4.R3D 3</linkclipref>
                        </link>
                        <comments/>
                    </clipitem>
                    <clipitem id="SecondScenePark.4.1.Take1.R3D 0">
                        <name>SecondScenePark.4.1.Take1.R3D</name>
                        <duration>750</duration>
                        <rate>
                            <timebase>24</timebase>
                            <ntsc>TRUE</ntsc>
                        </rate>
                        <start>41560</start>
                        <end>42310</end>
                        <enabled>TRUE</enabled>
                        <in>0</in>
                        <out>750</out>
                        <file id="SecondScenePark.4.1.Take1.R3D 2">
                            <duration>750</duration>
                            <rate>
                                <timebase>24</timebase>
                                <ntsc>TRUE</ntsc>
                            </rate>
                            <name>B030_C033_0101LX_001.R3D</name>
                            <pathurl>file:///Volumes/Jackson/movies/JacksonTheMovie/Premier/V1-0051_B030_C033_0101LX.mov</pathurl>
                            <timecode>
                                <string>02:13:28:19</string>
                                <displayformat>NDF</displayformat>
                                <rate>
                                    <timebase>24</timebase>
                                    <ntsc>TRUE</ntsc>
                                </rate>
                            </timecode>
                            <media>
                                <video>
                                    <duration>750</duration>
                                    <samplecharacteristics>
                                        <width>1920</width>
                                        <height>1080</height>
                                    </samplecharacteristics>
                                </video>
                                <audio>
                                    <channelcount>2</channelcount>
                                </audio>
                            </media>
                        </file>
                        <compositemode>normal</compositemode>
                        <filter>
                            <enabled>TRUE</enabled>
                            <start>0</start>
                            <end>750</end>
                            <effect>
                                <name>Opacity</name>
                                <effectid>opacity</effectid>
                                <effecttype>motion</effecttype>
                                <mediatype>video</mediatype>
                                <effectcategory>motion</effectcategory>
                                <parameter>
                                    <name>opacity</name>
                                    <parameterid>opacity</parameterid>
                                    <value>100</value>
                                    <valuemin>0</valuemin>
                                    <valuemax>100</valuemax>
                                </parameter>
                            </effect>
                        </filter>
                        <link>
                            <linkclipref>SecondScenePark.4.1.Take1.R3D 0</linkclipref>
                        </link>
                        <link>
                            <linkclipref>SecondScenePark.4.1.Take1.R3D 3</linkclipref>
                        </link>
                        <comments/>
                    </clipitem>
                    <clipitem id="SecondScenePark.4.1.Take2.R3D 0">
                        <name>SecondScenePark.4.1.Take2.R3D</name>
                        <duration>564</duration>
                        <rate>
                            <timebase>24</timebase>
                            <ntsc>TRUE</ntsc>
                        </rate>
                        <start>42310</start>
                        <end>42874</end>
                        <enabled>TRUE</enabled>
                        <in>0</in>
                        <out>564</out>
                        <file id="SecondScenePark.4.1.Take2.R3D 2">
                            <duration>564</duration>
                            <rate>
                                <timebase>24</timebase>
                                <ntsc>TRUE</ntsc>
                            </rate>
                            <name>B030_C034_0101JF_001.R3D</name>
                            <pathurl>file:///Volumes/Jackson/movies/JacksonTheMovie/Premier/V1-0052_B030_C034_0101JF.mov</pathurl>
                            <timecode>
                                <string>02:14:27:05</string>
                                <displayformat>NDF</displayformat>
                                <rate>
                                    <timebase>24</timebase>
                                    <ntsc>TRUE</ntsc>
                                </rate>
                            </timecode>
                            <media>
                                <video>
                                    <duration>564</duration>
                                    <samplecharacteristics>
                                        <width>1920</width>
                                        <height>1080</height>
                                    </samplecharacteristics>
                                </video>
                                <audio>
                                    <channelcount>2</channelcount>
                                </audio>
                            </media>
                        </file>
                        <compositemode>normal</compositemode>
                        <filter>
                            <enabled>TRUE</enabled>
                            <start>0</start>
                            <end>564</end>
                            <effect>
                                <name>Opacity</name>
                                <effectid>opacity</effectid>
                                <effecttype>motion</effecttype>
                                <mediatype>video</mediatype>
                                <effectcategory>motion</effectcategory>
                                <parameter>
                                    <name>opacity</name>
                                    <parameterid>opacity</parameterid>
                                    <value>100</value>
                                    <valuemin>0</valuemin>
                                    <valuemax>100</valuemax>
                                </parameter>
                            </effect>
                        </filter>
                        <link>
                            <linkclipref>SecondScenePark.4.1.Take2.R3D 0</linkclipref>
                        </link>
                        <link>
                            <linkclipref>SecondScenePark.4.1.Take2.R3D 3</linkclipref>
                        </link>
                        <comments/>
                    </clipitem>
                    <clipitem id="SecondScenePark.5.Take1.R3D 0">
                        <name>SecondScenePark.5.Take1.R3D</name>
                        <duration>1015</duration>
                        <rate>
                            <timebase>24</timebase>
                            <ntsc>TRUE</ntsc>
                        </rate>
                        <start>42874</start>
                        <end>43889</end>
                        <enabled>TRUE</enabled>
                        <in>0</in>
                        <out>1015</out>
                        <file id="SecondScenePark.5.Take1.R3D 2">
                            <duration>1015</duration>
                            <rate>
                                <timebase>24</timebase>
                                <ntsc>TRUE</ntsc>
                            </rate>
                            <name>B030_C039_01018C_001.R3D</name>
                            <pathurl>file:///Volumes/Jackson/movies/JacksonTheMovie/Premier/V1-0053_B030_C039_01018C.mov</pathurl>
                            <timecode>
                                <string>00:55:28:03</string>
                                <displayformat>NDF</displayformat>
                                <rate>
                                    <timebase>24</timebase>
                                    <ntsc>TRUE</ntsc>
                                </rate>
                            </timecode>
                            <media>
                                <video>
                                    <duration>1015</duration>
                                    <samplecharacteristics>
                                        <width>1920</width>
                                        <height>1080</height>
                                    </samplecharacteristics>
                                </video>
                                <audio>
                                    <channelcount>2</channelcount>
                                </audio>
                            </media>
                        </file>
                        <compositemode>normal</compositemode>
                        <filter>
                            <enabled>TRUE</enabled>
                            <start>0</start>
                            <end>1015</end>
                            <effect>
                                <name>Opacity</name>
                                <effectid>opacity</effectid>
                                <effecttype>motion</effecttype>
                                <mediatype>video</mediatype>
                                <effectcategory>motion</effectcategory>
                                <parameter>
                                    <name>opacity</name>
                                    <parameterid>opacity</parameterid>
                                    <value>100</value>
                                    <valuemin>0</valuemin>
                                    <valuemax>100</valuemax>
                                </parameter>
                            </effect>
                        </filter>
                        <link>
                            <linkclipref>SecondScenePark.5.Take1.R3D 0</linkclipref>
                        </link>
                        <link>
                            <linkclipref>SecondScenePark.5.Take1.R3D 3</linkclipref>
                        </link>
                        <comments/>
                    </clipitem>
                    <clipitem id="DSC06079 (1).JPG 0">
                        <name>DSC06079 (1).JPG</name>
                        <duration>1438562</duration>
                        <rate>
                            <timebase>24</timebase>
                            <ntsc>TRUE</ntsc>
                        </rate>
                        <start>44007</start>
                        <end>44126</end>
                        <enabled>TRUE</enabled>
                        <in>86313</in>
                        <out>86432</out>
                        <file id="DSC06079 (1).JPG 2">
                            <duration>1</duration>
                            <rate>
                                <timebase>24</timebase>
                                <ntsc>TRUE</ntsc>
                            </rate>
                            <name>DSC06079 (1).JPG</name>
                            <pathurl>file:///Volumes/Jackson/movies/JacksonTheMovie/Premier/V1-0054_DSC06079%20(1).00000000.mov</pathurl>
                            <timecode>
                                <string>00:00:00:00</string>
                                <displayformat>NDF</displayformat>
                                <rate>
                                    <timebase>24</timebase>
                                    <ntsc>TRUE</ntsc>
                                </rate>
                            </timecode>
                            <media>
                                <video>
                                    <duration>1</duration>
                                    <samplecharacteristics>
                                        <width>1920</width>
                                        <height>1080</height>
                                    </samplecharacteristics>
                                </video>
                            </media>
                        </file>
                        <compositemode>normal</compositemode>
                        <filter>
                            <enabled>TRUE</enabled>
                            <start>0</start>
                            <end>1438562</end>
                            <effect>
                                <name>Opacity</name>
                                <effectid>opacity</effectid>
                                <effecttype>motion</effecttype>
                                <mediatype>video</mediatype>
                                <effectcategory>motion</effectcategory>
                                <parameter>
                                    <name>opacity</name>
                                    <parameterid>opacity</parameterid>
                                    <value>100</value>
                                    <valuemin>0</valuemin>
                                    <valuemax>100</valuemax>
                                </parameter>
                            </effect>
                        </filter>
                        <filter>
                            <enabled>TRUE</enabled>
                            <start>-1</start>
                            <end>-1</end>
                            <effect>
                                <name>Time Remap</name>
                                <effectid>timeremap</effectid>
                                <effecttype>motion</effecttype>
                                <mediatype>video</mediatype>
                                <effectcategory>motion</effectcategory>
                                <parameter>
                                    <name>speed</name>
                                    <parameterid>speed</parameterid>
                                    <value>0</value>
                                    <valuemin>-10000</valuemin>
                                    <valuemax>10000</valuemax>
                                </parameter>
                                <parameter>
                                    <name>reverse</name>
                                    <parameterid>reverse</parameterid>
                                    <value>FALSE</value>
                                </parameter>
                                <parameter>
                                    <name>frameblending</name>
                                    <parameterid>frameblending</parameterid>
                                    <value>FALSE</value>
                                </parameter>
                                <parameter>
                                    <name>variablespeed</name>
                                    <parameterid>variablespeed</parameterid>
                                    <value>0</value>
                                    <valuemin>0</valuemin>
                                    <valuemax>1</valuemax>
                                </parameter>
                                <parameter>
                                    <name>graphdict</name>
                                    <parameterid>graphdict</parameterid>
                                    <keyframe>
                                        <when>0</when>
                                        <value>0</value>
                                        <speedvirtualkf>TRUE</speedvirtualkf>
                                        <speedkfstart>TRUE</speedkfstart>
                                    </keyframe>
                                    <keyframe>
                                        <when>86313</when>
                                        <value>0</value>
                                        <speedvirtualkf>TRUE</speedvirtualkf>
                                        <speedkfin>TRUE</speedkfin>
                                    </keyframe>
                                    <keyframe>
                                        <when>86432</when>
                                        <value>0</value>
                                        <speedvirtualkf>TRUE</speedvirtualkf>
                                        <speedkfout>TRUE</speedkfout>
                                    </keyframe>
                                    <keyframe>
                                        <when>1438562</when>
                                        <value>1</value>
                                        <speedvirtualkf>TRUE</speedvirtualkf>
                                        <speedkfend>TRUE</speedkfend>
                                    </keyframe>
                                    <valuemin>0</valuemin>
                                    <valuemax>0</valuemax>
                                    <interpolation>
                                        <name>FCPCurve</name>
                                    </interpolation>
                                </parameter>
                            </effect>
                        </filter>
                        <comments/>
                    </clipitem>
                    <clipitem id="DSC06083 (1).JPG 0">
                        <name>DSC06083 (1).JPG</name>
                        <duration>1438562</duration>
                        <rate>
                            <timebase>24</timebase>
                            <ntsc>TRUE</ntsc>
                        </rate>
                        <start>44126</start>
                        <end>44245</end>
                        <enabled>TRUE</enabled>
                        <in>86313</in>
                        <out>86432</out>
                        <file id="DSC06083 (1).JPG 2">
                            <duration>1</duration>
                            <rate>
                                <timebase>24</timebase>
                                <ntsc>TRUE</ntsc>
                            </rate>
                            <name>DSC06083 (1).JPG</name>
                            <pathurl>file:///Volumes/Jackson/movies/JacksonTheMovie/Premier/V1-0055_DSC06083%20(1).00000000.mov</pathurl>
                            <timecode>
                                <string>00:00:00:00</string>
                                <displayformat>NDF</displayformat>
                                <rate>
                                    <timebase>24</timebase>
                                    <ntsc>TRUE</ntsc>
                                </rate>
                            </timecode>
                            <media>
                                <video>
                                    <duration>1</duration>
                                    <samplecharacteristics>
                                        <width>1920</width>
                                        <height>1080</height>
                                    </samplecharacteristics>
                                </video>
                            </media>
                        </file>
                        <compositemode>normal</compositemode>
                        <filter>
                            <enabled>TRUE</enabled>
                            <start>0</start>
                            <end>1438562</end>
                            <effect>
                                <name>Opacity</name>
                                <effectid>opacity</effectid>
                                <effecttype>motion</effecttype>
                                <mediatype>video</mediatype>
                                <effectcategory>motion</effectcategory>
                                <parameter>
                                    <name>opacity</name>
                                    <parameterid>opacity</parameterid>
                                    <value>100</value>
                                    <valuemin>0</valuemin>
                                    <valuemax>100</valuemax>
                                </parameter>
                            </effect>
                        </filter>
                        <filter>
                            <enabled>TRUE</enabled>
                            <start>-1</start>
                            <end>-1</end>
                            <effect>
                                <name>Time Remap</name>
                                <effectid>timeremap</effectid>
                                <effecttype>motion</effecttype>
                                <mediatype>video</mediatype>
                                <effectcategory>motion</effectcategory>
                                <parameter>
                                    <name>speed</name>
                                    <parameterid>speed</parameterid>
                                    <value>0</value>
                                    <valuemin>-10000</valuemin>
                                    <valuemax>10000</valuemax>
                                </parameter>
                                <parameter>
                                    <name>reverse</name>
                                    <parameterid>reverse</parameterid>
                                    <value>FALSE</value>
                                </parameter>
                                <parameter>
                                    <name>frameblending</name>
                                    <parameterid>frameblending</parameterid>
                                    <value>FALSE</value>
                                </parameter>
                                <parameter>
                                    <name>variablespeed</name>
                                    <parameterid>variablespeed</parameterid>
                                    <value>0</value>
                                    <valuemin>0</valuemin>
                                    <valuemax>1</valuemax>
                                </parameter>
                                <parameter>
                                    <name>graphdict</name>
                                    <parameterid>graphdict</parameterid>
                                    <keyframe>
                                        <when>0</when>
                                        <value>0</value>
                                        <speedvirtualkf>TRUE</speedvirtualkf>
                                        <speedkfstart>TRUE</speedkfstart>
                                    </keyframe>
                                    <keyframe>
                                        <when>86313</when>
                                        <value>0</value>
                                        <speedvirtualkf>TRUE</speedvirtualkf>
                                        <speedkfin>TRUE</speedkfin>
                                    </keyframe>
                                    <keyframe>
                                        <when>86432</when>
                                        <value>0</value>
                                        <speedvirtualkf>TRUE</speedvirtualkf>
                                        <speedkfout>TRUE</speedkfout>
                                    </keyframe>
                                    <keyframe>
                                        <when>1438562</when>
                                        <value>1</value>
                                        <speedvirtualkf>TRUE</speedvirtualkf>
                                        <speedkfend>TRUE</speedkfend>
                                    </keyframe>
                                    <valuemin>0</valuemin>
                                    <valuemax>0</valuemax>
                                    <interpolation>
                                        <name>FCPCurve</name>
                                    </interpolation>
                                </parameter>
                            </effect>
                        </filter>
                        <comments/>
                    </clipitem>
                    <clipitem id="DSC06082 (1).JPG 0">
                        <name>DSC06082 (1).JPG</name>
                        <duration>1438562</duration>
                        <rate>
                            <timebase>24</timebase>
                            <ntsc>TRUE</ntsc>
                        </rate>
                        <start>44245</start>
                        <end>44364</end>
                        <enabled>TRUE</enabled>
                        <in>86313</in>
                        <out>86432</out>
                        <file id="DSC06082 (1).JPG 2">
                            <duration>1</duration>
                            <rate>
                                <timebase>24</timebase>
                                <ntsc>TRUE</ntsc>
                            </rate>
                            <name>DSC06082 (1).JPG</name>
                            <pathurl>file:///Volumes/Jackson/movies/JacksonTheMovie/Premier/V1-0056_DSC06082%20(1).00000000.mov</pathurl>
                            <timecode>
                                <string>00:00:00:00</string>
                                <displayformat>NDF</displayformat>
                                <rate>
                                    <timebase>24</timebase>
                                    <ntsc>TRUE</ntsc>
                                </rate>
                            </timecode>
                            <media>
                                <video>
                                    <duration>1</duration>
                                    <samplecharacteristics>
                                        <width>1920</width>
                                        <height>1080</height>
                                    </samplecharacteristics>
                                </video>
                            </media>
                        </file>
                        <compositemode>normal</compositemode>
                        <filter>
                            <enabled>TRUE</enabled>
                            <start>0</start>
                            <end>1438562</end>
                            <effect>
                                <name>Opacity</name>
                                <effectid>opacity</effectid>
                                <effecttype>motion</effecttype>
                                <mediatype>video</mediatype>
                                <effectcategory>motion</effectcategory>
                                <parameter>
                                    <name>opacity</name>
                                    <parameterid>opacity</parameterid>
                                    <value>100</value>
                                    <valuemin>0</valuemin>
                                    <valuemax>100</valuemax>
                                </parameter>
                            </effect>
                        </filter>
                        <filter>
                            <enabled>TRUE</enabled>
                            <start>-1</start>
                            <end>-1</end>
                            <effect>
                                <name>Time Remap</name>
                                <effectid>timeremap</effectid>
                                <effecttype>motion</effecttype>
                                <mediatype>video</mediatype>
                                <effectcategory>motion</effectcategory>
                                <parameter>
                                    <name>speed</name>
                                    <parameterid>speed</parameterid>
                                    <value>0</value>
                                    <valuemin>-10000</valuemin>
                                    <valuemax>10000</valuemax>
                                </parameter>
                                <parameter>
                                    <name>reverse</name>
                                    <parameterid>reverse</parameterid>
                                    <value>FALSE</value>
                                </parameter>
                                <parameter>
                                    <name>frameblending</name>
                                    <parameterid>frameblending</parameterid>
                                    <value>FALSE</value>
                                </parameter>
                                <parameter>
                                    <name>variablespeed</name>
                                    <parameterid>variablespeed</parameterid>
                                    <value>0</value>
                                    <valuemin>0</valuemin>
                                    <valuemax>1</valuemax>
                                </parameter>
                                <parameter>
                                    <name>graphdict</name>
                                    <parameterid>graphdict</parameterid>
                                    <keyframe>
                                        <when>0</when>
                                        <value>0</value>
                                        <speedvirtualkf>TRUE</speedvirtualkf>
                                        <speedkfstart>TRUE</speedkfstart>
                                    </keyframe>
                                    <keyframe>
                                        <when>86313</when>
                                        <value>0</value>
                                        <speedvirtualkf>TRUE</speedvirtualkf>
                                        <speedkfin>TRUE</speedkfin>
                                    </keyframe>
                                    <keyframe>
                                        <when>86432</when>
                                        <value>0</value>
                                        <speedvirtualkf>TRUE</speedvirtualkf>
                                        <speedkfout>TRUE</speedkfout>
                                    </keyframe>
                                    <keyframe>
                                        <when>1438562</when>
                                        <value>1</value>
                                        <speedvirtualkf>TRUE</speedvirtualkf>
                                        <speedkfend>TRUE</speedkfend>
                                    </keyframe>
                                    <valuemin>0</valuemin>
                                    <valuemax>0</valuemax>
                                    <interpolation>
                                        <name>FCPCurve</name>
                                    </interpolation>
                                </parameter>
                            </effect>
                        </filter>
                        <comments/>
                    </clipitem>
                    <clipitem id="DSC06080 (1).JPG 0">
                        <name>DSC06080 (1).JPG</name>
                        <duration>1438562</duration>
                        <rate>
                            <timebase>24</timebase>
                            <ntsc>TRUE</ntsc>
                        </rate>
                        <start>44364</start>
                        <end>44483</end>
                        <enabled>TRUE</enabled>
                        <in>86313</in>
                        <out>86432</out>
                        <file id="DSC06080 (1).JPG 2">
                            <duration>1</duration>
                            <rate>
                                <timebase>24</timebase>
                                <ntsc>TRUE</ntsc>
                            </rate>
                            <name>DSC06080 (1).JPG</name>
                            <pathurl>file:///Volumes/Jackson/movies/JacksonTheMovie/Premier/V1-0057_DSC06080%20(1).00000000.mov</pathurl>
                            <timecode>
                                <string>00:00:00:00</string>
                                <displayformat>NDF</displayformat>
                                <rate>
                                    <timebase>24</timebase>
                                    <ntsc>TRUE</ntsc>
                                </rate>
                            </timecode>
                            <media>
                                <video>
                                    <duration>1</duration>
                                    <samplecharacteristics>
                                        <width>1920</width>
                                        <height>1080</height>
                                    </samplecharacteristics>
                                </video>
                            </media>
                        </file>
                        <compositemode>normal</compositemode>
                        <filter>
                            <enabled>TRUE</enabled>
                            <start>0</start>
                            <end>1438562</end>
                            <effect>
                                <name>Opacity</name>
                                <effectid>opacity</effectid>
                                <effecttype>motion</effecttype>
                                <mediatype>video</mediatype>
                                <effectcategory>motion</effectcategory>
                                <parameter>
                                    <name>opacity</name>
                                    <parameterid>opacity</parameterid>
                                    <value>100</value>
                                    <valuemin>0</valuemin>
                                    <valuemax>100</valuemax>
                                </parameter>
                            </effect>
                        </filter>
                        <filter>
                            <enabled>TRUE</enabled>
                            <start>-1</start>
                            <end>-1</end>
                            <effect>
                                <name>Time Remap</name>
                                <effectid>timeremap</effectid>
                                <effecttype>motion</effecttype>
                                <mediatype>video</mediatype>
                                <effectcategory>motion</effectcategory>
                                <parameter>
                                    <name>speed</name>
                                    <parameterid>speed</parameterid>
                                    <value>0</value>
                                    <valuemin>-10000</valuemin>
                                    <valuemax>10000</valuemax>
                                </parameter>
                                <parameter>
                                    <name>reverse</name>
                                    <parameterid>reverse</parameterid>
                                    <value>FALSE</value>
                                </parameter>
                                <parameter>
                                    <name>frameblending</name>
                                    <parameterid>frameblending</parameterid>
                                    <value>FALSE</value>
                                </parameter>
                                <parameter>
                                    <name>variablespeed</name>
                                    <parameterid>variablespeed</parameterid>
                                    <value>0</value>
                                    <valuemin>0</valuemin>
                                    <valuemax>1</valuemax>
                                </parameter>
                                <parameter>
                                    <name>graphdict</name>
                                    <parameterid>graphdict</parameterid>
                                    <keyframe>
                                        <when>0</when>
                                        <value>0</value>
                                        <speedvirtualkf>TRUE</speedvirtualkf>
                                        <speedkfstart>TRUE</speedkfstart>
                                    </keyframe>
                                    <keyframe>
                                        <when>86313</when>
                                        <value>0</value>
                                        <speedvirtualkf>TRUE</speedvirtualkf>
                                        <speedkfin>TRUE</speedkfin>
                                    </keyframe>
                                    <keyframe>
                                        <when>86432</when>
                                        <value>0</value>
                                        <speedvirtualkf>TRUE</speedvirtualkf>
                                        <speedkfout>TRUE</speedkfout>
                                    </keyframe>
                                    <keyframe>
                                        <when>1438562</when>
                                        <value>1</value>
                                        <speedvirtualkf>TRUE</speedvirtualkf>
                                        <speedkfend>TRUE</speedkfend>
                                    </keyframe>
                                    <valuemin>0</valuemin>
                                    <valuemax>0</valuemax>
                                    <interpolation>
                                        <name>FCPCurve</name>
                                    </interpolation>
                                </parameter>
                            </effect>
                        </filter>
                        <comments/>
                    </clipitem>
                    <clipitem id="DSC06085 (1).JPG 0">
                        <name>DSC06085 (1).JPG</name>
                        <duration>1438562</duration>
                        <rate>
                            <timebase>24</timebase>
                            <ntsc>TRUE</ntsc>
                        </rate>
                        <start>44483</start>
                        <end>44602</end>
                        <enabled>TRUE</enabled>
                        <in>86313</in>
                        <out>86432</out>
                        <file id="DSC06085 (1).JPG 2">
                            <duration>1</duration>
                            <rate>
                                <timebase>24</timebase>
                                <ntsc>TRUE</ntsc>
                            </rate>
                            <name>DSC06085 (1).JPG</name>
                            <pathurl>file:///Volumes/Jackson/movies/JacksonTheMovie/Premier/V1-0058_DSC06085%20(1).00000000.mov</pathurl>
                            <timecode>
                                <string>00:00:00:00</string>
                                <displayformat>NDF</displayformat>
                                <rate>
                                    <timebase>24</timebase>
                                    <ntsc>TRUE</ntsc>
                                </rate>
                            </timecode>
                            <media>
                                <video>
                                    <duration>1</duration>
                                    <samplecharacteristics>
                                        <width>1920</width>
                                        <height>1080</height>
                                    </samplecharacteristics>
                                </video>
                            </media>
                        </file>
                        <compositemode>normal</compositemode>
                        <filter>
                            <enabled>TRUE</enabled>
                            <start>0</start>
                            <end>1438562</end>
                            <effect>
                                <name>Opacity</name>
                                <effectid>opacity</effectid>
                                <effecttype>motion</effecttype>
                                <mediatype>video</mediatype>
                                <effectcategory>motion</effectcategory>
                                <parameter>
                                    <name>opacity</name>
                                    <parameterid>opacity</parameterid>
                                    <value>100</value>
                                    <valuemin>0</valuemin>
                                    <valuemax>100</valuemax>
                                </parameter>
                            </effect>
                        </filter>
                        <filter>
                            <enabled>TRUE</enabled>
                            <start>-1</start>
                            <end>-1</end>
                            <effect>
                                <name>Time Remap</name>
                                <effectid>timeremap</effectid>
                                <effecttype>motion</effecttype>
                                <mediatype>video</mediatype>
                                <effectcategory>motion</effectcategory>
                                <parameter>
                                    <name>speed</name>
                                    <parameterid>speed</parameterid>
                                    <value>0</value>
                                    <valuemin>-10000</valuemin>
                                    <valuemax>10000</valuemax>
                                </parameter>
                                <parameter>
                                    <name>reverse</name>
                                    <parameterid>reverse</parameterid>
                                    <value>FALSE</value>
                                </parameter>
                                <parameter>
                                    <name>frameblending</name>
                                    <parameterid>frameblending</parameterid>
                                    <value>FALSE</value>
                                </parameter>
                                <parameter>
                                    <name>variablespeed</name>
                                    <parameterid>variablespeed</parameterid>
                                    <value>0</value>
                                    <valuemin>0</valuemin>
                                    <valuemax>1</valuemax>
                                </parameter>
                                <parameter>
                                    <name>graphdict</name>
                                    <parameterid>graphdict</parameterid>
                                    <keyframe>
                                        <when>0</when>
                                        <value>0</value>
                                        <speedvirtualkf>TRUE</speedvirtualkf>
                                        <speedkfstart>TRUE</speedkfstart>
                                    </keyframe>
                                    <keyframe>
                                        <when>86313</when>
                                        <value>0</value>
                                        <speedvirtualkf>TRUE</speedvirtualkf>
                                        <speedkfin>TRUE</speedkfin>
                                    </keyframe>
                                    <keyframe>
                                        <when>86432</when>
                                        <value>0</value>
                                        <speedvirtualkf>TRUE</speedvirtualkf>
                                        <speedkfout>TRUE</speedkfout>
                                    </keyframe>
                                    <keyframe>
                                        <when>1438562</when>
                                        <value>1</value>
                                        <speedvirtualkf>TRUE</speedvirtualkf>
                                        <speedkfend>TRUE</speedkfend>
                                    </keyframe>
                                    <valuemin>0</valuemin>
                                    <valuemax>0</valuemax>
                                    <interpolation>
                                        <name>FCPCurve</name>
                                    </interpolation>
                                </parameter>
                            </effect>
                        </filter>
                        <comments/>
                    </clipitem>
                    <clipitem id="DSC06086 (1).JPG 0">
                        <name>DSC06086 (1).JPG</name>
                        <duration>1438562</duration>
                        <rate>
                            <timebase>24</timebase>
                            <ntsc>TRUE</ntsc>
                        </rate>
                        <start>44602</start>
                        <end>44721</end>
                        <enabled>TRUE</enabled>
                        <in>86313</in>
                        <out>86432</out>
                        <file id="DSC06086 (1).JPG 2">
                            <duration>1</duration>
                            <rate>
                                <timebase>24</timebase>
                                <ntsc>TRUE</ntsc>
                            </rate>
                            <name>DSC06086 (1).JPG</name>
                            <pathurl>file:///Volumes/Jackson/movies/JacksonTheMovie/Premier/V1-0059_DSC06086%20(1).00000000.mov</pathurl>
                            <timecode>
                                <string>00:00:00:00</string>
                                <displayformat>NDF</displayformat>
                                <rate>
                                    <timebase>24</timebase>
                                    <ntsc>TRUE</ntsc>
                                </rate>
                            </timecode>
                            <media>
                                <video>
                                    <duration>1</duration>
                                    <samplecharacteristics>
                                        <width>1920</width>
                                        <height>1080</height>
                                    </samplecharacteristics>
                                </video>
                            </media>
                        </file>
                        <compositemode>normal</compositemode>
                        <filter>
                            <enabled>TRUE</enabled>
                            <start>0</start>
                            <end>1438562</end>
                            <effect>
                                <name>Opacity</name>
                                <effectid>opacity</effectid>
                                <effecttype>motion</effecttype>
                                <mediatype>video</mediatype>
                                <effectcategory>motion</effectcategory>
                                <parameter>
                                    <name>opacity</name>
                                    <parameterid>opacity</parameterid>
                                    <value>100</value>
                                    <valuemin>0</valuemin>
                                    <valuemax>100</valuemax>
                                </parameter>
                            </effect>
                        </filter>
                        <filter>
                            <enabled>TRUE</enabled>
                            <start>-1</start>
                            <end>-1</end>
                            <effect>
                                <name>Time Remap</name>
                                <effectid>timeremap</effectid>
                                <effecttype>motion</effecttype>
                                <mediatype>video</mediatype>
                                <effectcategory>motion</effectcategory>
                                <parameter>
                                    <name>speed</name>
                                    <parameterid>speed</parameterid>
                                    <value>0</value>
                                    <valuemin>-10000</valuemin>
                                    <valuemax>10000</valuemax>
                                </parameter>
                                <parameter>
                                    <name>reverse</name>
                                    <parameterid>reverse</parameterid>
                                    <value>FALSE</value>
                                </parameter>
                                <parameter>
                                    <name>frameblending</name>
                                    <parameterid>frameblending</parameterid>
                                    <value>FALSE</value>
                                </parameter>
                                <parameter>
                                    <name>variablespeed</name>
                                    <parameterid>variablespeed</parameterid>
                                    <value>0</value>
                                    <valuemin>0</valuemin>
                                    <valuemax>1</valuemax>
                                </parameter>
                                <parameter>
                                    <name>graphdict</name>
                                    <parameterid>graphdict</parameterid>
                                    <keyframe>
                                        <when>0</when>
                                        <value>0</value>
                                        <speedvirtualkf>TRUE</speedvirtualkf>
                                        <speedkfstart>TRUE</speedkfstart>
                                    </keyframe>
                                    <keyframe>
                                        <when>86313</when>
                                        <value>0</value>
                                        <speedvirtualkf>TRUE</speedvirtualkf>
                                        <speedkfin>TRUE</speedkfin>
                                    </keyframe>
                                    <keyframe>
                                        <when>86432</when>
                                        <value>0</value>
                                        <speedvirtualkf>TRUE</speedvirtualkf>
                                        <speedkfout>TRUE</speedkfout>
                                    </keyframe>
                                    <keyframe>
                                        <when>1438562</when>
                                        <value>1</value>
                                        <speedvirtualkf>TRUE</speedvirtualkf>
                                        <speedkfend>TRUE</speedkfend>
                                    </keyframe>
                                    <valuemin>0</valuemin>
                                    <valuemax>0</valuemax>
                                    <interpolation>
                                        <name>FCPCurve</name>
                                    </interpolation>
                                </parameter>
                            </effect>
                        </filter>
                        <comments/>
                    </clipitem>
                    <clipitem id="DSC06084 (1).JPG 0">
                        <name>DSC06084 (1).JPG</name>
                        <duration>1438562</duration>
                        <rate>
                            <timebase>24</timebase>
                            <ntsc>TRUE</ntsc>
                        </rate>
                        <start>44721</start>
                        <end>44840</end>
                        <enabled>TRUE</enabled>
                        <in>86313</in>
                        <out>86432</out>
                        <file id="DSC06084 (1).JPG 2">
                            <duration>1</duration>
                            <rate>
                                <timebase>24</timebase>
                                <ntsc>TRUE</ntsc>
                            </rate>
                            <name>DSC06084 (1).JPG</name>
                            <pathurl>file:///Volumes/Jackson/movies/JacksonTheMovie/Premier/V1-0060_DSC06084%20(1).00000000.mov</pathurl>
                            <timecode>
                                <string>00:00:00:00</string>
                                <displayformat>NDF</displayformat>
                                <rate>
                                    <timebase>24</timebase>
                                    <ntsc>TRUE</ntsc>
                                </rate>
                            </timecode>
                            <media>
                                <video>
                                    <duration>1</duration>
                                    <samplecharacteristics>
                                        <width>1920</width>
                                        <height>1080</height>
                                    </samplecharacteristics>
                                </video>
                            </media>
                        </file>
                        <compositemode>normal</compositemode>
                        <filter>
                            <enabled>TRUE</enabled>
                            <start>0</start>
                            <end>1438562</end>
                            <effect>
                                <name>Opacity</name>
                                <effectid>opacity</effectid>
                                <effecttype>motion</effecttype>
                                <mediatype>video</mediatype>
                                <effectcategory>motion</effectcategory>
                                <parameter>
                                    <name>opacity</name>
                                    <parameterid>opacity</parameterid>
                                    <value>100</value>
                                    <valuemin>0</valuemin>
                                    <valuemax>100</valuemax>
                                </parameter>
                            </effect>
                        </filter>
                        <filter>
                            <enabled>TRUE</enabled>
                            <start>-1</start>
                            <end>-1</end>
                            <effect>
                                <name>Time Remap</name>
                                <effectid>timeremap</effectid>
                                <effecttype>motion</effecttype>
                                <mediatype>video</mediatype>
                                <effectcategory>motion</effectcategory>
                                <parameter>
                                    <name>speed</name>
                                    <parameterid>speed</parameterid>
                                    <value>0</value>
                                    <valuemin>-10000</valuemin>
                                    <valuemax>10000</valuemax>
                                </parameter>
                                <parameter>
                                    <name>reverse</name>
                                    <parameterid>reverse</parameterid>
                                    <value>FALSE</value>
                                </parameter>
                                <parameter>
                                    <name>frameblending</name>
                                    <parameterid>frameblending</parameterid>
                                    <value>FALSE</value>
                                </parameter>
                                <parameter>
                                    <name>variablespeed</name>
                                    <parameterid>variablespeed</parameterid>
                                    <value>0</value>
                                    <valuemin>0</valuemin>
                                    <valuemax>1</valuemax>
                                </parameter>
                                <parameter>
                                    <name>graphdict</name>
                                    <parameterid>graphdict</parameterid>
                                    <keyframe>
                                        <when>0</when>
                                        <value>0</value>
                                        <speedvirtualkf>TRUE</speedvirtualkf>
                                        <speedkfstart>TRUE</speedkfstart>
                                    </keyframe>
                                    <keyframe>
                                        <when>86313</when>
                                        <value>0</value>
                                        <speedvirtualkf>TRUE</speedvirtualkf>
                                        <speedkfin>TRUE</speedkfin>
                                    </keyframe>
                                    <keyframe>
                                        <when>86432</when>
                                        <value>0</value>
                                        <speedvirtualkf>TRUE</speedvirtualkf>
                                        <speedkfout>TRUE</speedkfout>
                                    </keyframe>
                                    <keyframe>
                                        <when>1438562</when>
                                        <value>1</value>
                                        <speedvirtualkf>TRUE</speedvirtualkf>
                                        <speedkfend>TRUE</speedkfend>
                                    </keyframe>
                                    <valuemin>0</valuemin>
                                    <valuemax>0</valuemax>
                                    <interpolation>
                                        <name>FCPCurve</name>
                                    </interpolation>
                                </parameter>
                            </effect>
                        </filter>
                        <comments/>
                    </clipitem>
                    <clipitem id="DSC06081 (1).JPG 0">
                        <name>DSC06081 (1).JPG</name>
                        <duration>1438562</duration>
                        <rate>
                            <timebase>24</timebase>
                            <ntsc>TRUE</ntsc>
                        </rate>
                        <start>44840</start>
                        <end>44959</end>
                        <enabled>TRUE</enabled>
                        <in>86313</in>
                        <out>86432</out>
                        <file id="DSC06081 (1).JPG 2">
                            <duration>1</duration>
                            <rate>
                                <timebase>24</timebase>
                                <ntsc>TRUE</ntsc>
                            </rate>
                            <name>DSC06081 (1).JPG</name>
                            <pathurl>file:///Volumes/Jackson/movies/JacksonTheMovie/Premier/V1-0061_DSC06081%20(1).00000000.mov</pathurl>
                            <timecode>
                                <string>00:00:00:00</string>
                                <displayformat>NDF</displayformat>
                                <rate>
                                    <timebase>24</timebase>
                                    <ntsc>TRUE</ntsc>
                                </rate>
                            </timecode>
                            <media>
                                <video>
                                    <duration>1</duration>
                                    <samplecharacteristics>
                                        <width>1920</width>
                                        <height>1080</height>
                                    </samplecharacteristics>
                                </video>
                            </media>
                        </file>
                        <compositemode>normal</compositemode>
                        <filter>
                            <enabled>TRUE</enabled>
                            <start>0</start>
                            <end>1438562</end>
                            <effect>
                                <name>Opacity</name>
                                <effectid>opacity</effectid>
                                <effecttype>motion</effecttype>
                                <mediatype>video</mediatype>
                                <effectcategory>motion</effectcategory>
                                <parameter>
                                    <name>opacity</name>
                                    <parameterid>opacity</parameterid>
                                    <value>100</value>
                                    <valuemin>0</valuemin>
                                    <valuemax>100</valuemax>
                                </parameter>
                            </effect>
                        </filter>
                        <filter>
                            <enabled>TRUE</enabled>
                            <start>-1</start>
                            <end>-1</end>
                            <effect>
                                <name>Time Remap</name>
                                <effectid>timeremap</effectid>
                                <effecttype>motion</effecttype>
                                <mediatype>video</mediatype>
                                <effectcategory>motion</effectcategory>
                                <parameter>
                                    <name>speed</name>
                                    <parameterid>speed</parameterid>
                                    <value>0</value>
                                    <valuemin>-10000</valuemin>
                                    <valuemax>10000</valuemax>
                                </parameter>
                                <parameter>
                                    <name>reverse</name>
                                    <parameterid>reverse</parameterid>
                                    <value>FALSE</value>
                                </parameter>
                                <parameter>
                                    <name>frameblending</name>
                                    <parameterid>frameblending</parameterid>
                                    <value>FALSE</value>
                                </parameter>
                                <parameter>
                                    <name>variablespeed</name>
                                    <parameterid>variablespeed</parameterid>
                                    <value>0</value>
                                    <valuemin>0</valuemin>
                                    <valuemax>1</valuemax>
                                </parameter>
                                <parameter>
                                    <name>graphdict</name>
                                    <parameterid>graphdict</parameterid>
                                    <keyframe>
                                        <when>0</when>
                                        <value>0</value>
                                        <speedvirtualkf>TRUE</speedvirtualkf>
                                        <speedkfstart>TRUE</speedkfstart>
                                    </keyframe>
                                    <keyframe>
                                        <when>86313</when>
                                        <value>0</value>
                                        <speedvirtualkf>TRUE</speedvirtualkf>
                                        <speedkfin>TRUE</speedkfin>
                                    </keyframe>
                                    <keyframe>
                                        <when>86432</when>
                                        <value>0</value>
                                        <speedvirtualkf>TRUE</speedvirtualkf>
                                        <speedkfout>TRUE</speedkfout>
                                    </keyframe>
                                    <keyframe>
                                        <when>1438562</when>
                                        <value>1</value>
                                        <speedvirtualkf>TRUE</speedvirtualkf>
                                        <speedkfend>TRUE</speedkfend>
                                    </keyframe>
                                    <valuemin>0</valuemin>
                                    <valuemax>0</valuemax>
                                    <interpolation>
                                        <name>FCPCurve</name>
                                    </interpolation>
                                </parameter>
                            </effect>
                        </filter>
                        <comments/>
                    </clipitem>
                    <clipitem id="DSC06087 (1).JPG 0">
                        <name>DSC06087 (1).JPG</name>
                        <duration>1438562</duration>
                        <rate>
                            <timebase>24</timebase>
                            <ntsc>TRUE</ntsc>
                        </rate>
                        <start>44959</start>
                        <end>45078</end>
                        <enabled>TRUE</enabled>
                        <in>86313</in>
                        <out>86432</out>
                        <file id="DSC06087 (1).JPG 2">
                            <duration>1</duration>
                            <rate>
                                <timebase>24</timebase>
                                <ntsc>TRUE</ntsc>
                            </rate>
                            <name>DSC06087 (1).JPG</name>
                            <pathurl>file:///Volumes/Jackson/movies/JacksonTheMovie/Premier/V1-0062_DSC06087%20(1).00000000.mov</pathurl>
                            <timecode>
                                <string>00:00:00:00</string>
                                <displayformat>NDF</displayformat>
                                <rate>
                                    <timebase>24</timebase>
                                    <ntsc>TRUE</ntsc>
                                </rate>
                            </timecode>
                            <media>
                                <video>
                                    <duration>1</duration>
                                    <samplecharacteristics>
                                        <width>1920</width>
                                        <height>1080</height>
                                    </samplecharacteristics>
                                </video>
                            </media>
                        </file>
                        <compositemode>normal</compositemode>
                        <filter>
                            <enabled>TRUE</enabled>
                            <start>0</start>
                            <end>1438562</end>
                            <effect>
                                <name>Opacity</name>
                                <effectid>opacity</effectid>
                                <effecttype>motion</effecttype>
                                <mediatype>video</mediatype>
                                <effectcategory>motion</effectcategory>
                                <parameter>
                                    <name>opacity</name>
                                    <parameterid>opacity</parameterid>
                                    <value>100</value>
                                    <valuemin>0</valuemin>
                                    <valuemax>100</valuemax>
                                </parameter>
                            </effect>
                        </filter>
                        <filter>
                            <enabled>TRUE</enabled>
                            <start>-1</start>
                            <end>-1</end>
                            <effect>
                                <name>Time Remap</name>
                                <effectid>timeremap</effectid>
                                <effecttype>motion</effecttype>
                                <mediatype>video</mediatype>
                                <effectcategory>motion</effectcategory>
                                <parameter>
                                    <name>speed</name>
                                    <parameterid>speed</parameterid>
                                    <value>0</value>
                                    <valuemin>-10000</valuemin>
                                    <valuemax>10000</valuemax>
                                </parameter>
                                <parameter>
                                    <name>reverse</name>
                                    <parameterid>reverse</parameterid>
                                    <value>FALSE</value>
                                </parameter>
                                <parameter>
                                    <name>frameblending</name>
                                    <parameterid>frameblending</parameterid>
                                    <value>FALSE</value>
                                </parameter>
                                <parameter>
                                    <name>variablespeed</name>
                                    <parameterid>variablespeed</parameterid>
                                    <value>0</value>
                                    <valuemin>0</valuemin>
                                    <valuemax>1</valuemax>
                                </parameter>
                                <parameter>
                                    <name>graphdict</name>
                                    <parameterid>graphdict</parameterid>
                                    <keyframe>
                                        <when>0</when>
                                        <value>0</value>
                                        <speedvirtualkf>TRUE</speedvirtualkf>
                                        <speedkfstart>TRUE</speedkfstart>
                                    </keyframe>
                                    <keyframe>
                                        <when>86313</when>
                                        <value>0</value>
                                        <speedvirtualkf>TRUE</speedvirtualkf>
                                        <speedkfin>TRUE</speedkfin>
                                    </keyframe>
                                    <keyframe>
                                        <when>86432</when>
                                        <value>0</value>
                                        <speedvirtualkf>TRUE</speedvirtualkf>
                                        <speedkfout>TRUE</speedkfout>
                                    </keyframe>
                                    <keyframe>
                                        <when>1438562</when>
                                        <value>1</value>
                                        <speedvirtualkf>TRUE</speedvirtualkf>
                                        <speedkfend>TRUE</speedkfend>
                                    </keyframe>
                                    <valuemin>0</valuemin>
                                    <valuemax>0</valuemax>
                                    <interpolation>
                                        <name>FCPCurve</name>
                                    </interpolation>
                                </parameter>
                            </effect>
                        </filter>
                        <comments/>
                    </clipitem>
                    <enabled>TRUE</enabled>
                    <locked>FALSE</locked>
                </track>
                <format>
                    <samplecharacteristics>
                        <width>1920</width>
                        <height>1080</height>
                        <pixelaspectratio>square</pixelaspectratio>
                        <rate>
                            <timebase>24</timebase>
                            <ntsc>TRUE</ntsc>
                        </rate>
                        <codec>
                            <appspecificdata>
                                <appname>Final Cut Pro</appname>
                                <appmanufacturer>Apple Inc.</appmanufacturer>
                                <data>
                                    <qtcodec/>
                                </data>
                            </appspecificdata>
                        </codec>
                    </samplecharacteristics>
                </format>
            </video>
            <audio>
                <track>
                    <clipitem id="SecondScenePark.Birds.R3D 3">
                        <name>SecondScenePark.Birds.R3D</name>
                        <duration>245</duration>
                        <rate>
                            <timebase>24</timebase>
                            <ntsc>TRUE</ntsc>
                        </rate>
                        <start>0</start>
                        <end>245</end>
                        <enabled>TRUE</enabled>
                        <in>0</in>
                        <out>245</out>
                        <file id="SecondScenePark.Birds.R3D 2"/>
                        <sourcetrack>
                            <mediatype>audio</mediatype>
                            <trackindex>1</trackindex>
                        </sourcetrack>
                        <filter>
                            <enabled>TRUE</enabled>
                            <start>0</start>
                            <end>245</end>
                            <effect>
                                <name>Audio Levels</name>
                                <effectid>audiolevels</effectid>
                                <effecttype>audiolevels</effecttype>
                                <mediatype>audio</mediatype>
                                <effectcategory>audiolevels</effectcategory>
                                <parameter>
                                    <name>Level</name>
                                    <parameterid>level</parameterid>
                                    <value>1</value>
                                    <valuemin>1e-05</valuemin>
                                    <valuemax>31.6228</valuemax>
                                </parameter>
                            </effect>
                        </filter>
                        <filter>
                            <enabled>TRUE</enabled>
                            <start>0</start>
                            <end>245</end>
                            <effect>
                                <name>Audio Pan</name>
                                <effectid>audiopan</effectid>
                                <effecttype>audiopan</effecttype>
                                <mediatype>audio</mediatype>
                                <effectcategory>audiopan</effectcategory>
                                <parameter>
                                    <name>Pan</name>
                                    <parameterid>pan</parameterid>
                                    <value>0</value>
                                    <valuemin>-1</valuemin>
                                    <valuemax>1</valuemax>
                                </parameter>
                            </effect>
                        </filter>
                        <link>
                            <linkclipref>SecondScenePark.Birds.R3D 0</linkclipref>
                            <mediatype>video</mediatype>
                        </link>
                        <link>
                            <linkclipref>SecondScenePark.Birds.R3D 3</linkclipref>
                        </link>
                        <comments/>
                    </clipitem>
                    <clipitem id="SecondScenePark.Birds2.R3D 3">
                        <name>SecondScenePark.Birds2.R3D</name>
                        <duration>635</duration>
                        <rate>
                            <timebase>24</timebase>
                            <ntsc>TRUE</ntsc>
                        </rate>
                        <start>245</start>
                        <end>880</end>
                        <enabled>TRUE</enabled>
                        <in>0</in>
                        <out>635</out>
                        <file id="SecondScenePark.Birds2.R3D 2"/>
                        <sourcetrack>
                            <mediatype>audio</mediatype>
                            <trackindex>1</trackindex>
                        </sourcetrack>
                        <filter>
                            <enabled>TRUE</enabled>
                            <start>0</start>
                            <end>635</end>
                            <effect>
                                <name>Audio Levels</name>
                                <effectid>audiolevels</effectid>
                                <effecttype>audiolevels</effecttype>
                                <mediatype>audio</mediatype>
                                <effectcategory>audiolevels</effectcategory>
                                <parameter>
                                    <name>Level</name>
                                    <parameterid>level</parameterid>
                                    <value>1</value>
                                    <valuemin>1e-05</valuemin>
                                    <valuemax>31.6228</valuemax>
                                </parameter>
                            </effect>
                        </filter>
                        <filter>
                            <enabled>TRUE</enabled>
                            <start>0</start>
                            <end>635</end>
                            <effect>
                                <name>Audio Pan</name>
                                <effectid>audiopan</effectid>
                                <effecttype>audiopan</effecttype>
                                <mediatype>audio</mediatype>
                                <effectcategory>audiopan</effectcategory>
                                <parameter>
                                    <name>Pan</name>
                                    <parameterid>pan</parameterid>
                                    <value>0</value>
                                    <valuemin>-1</valuemin>
                                    <valuemax>1</valuemax>
                                </parameter>
                            </effect>
                        </filter>
                        <link>
                            <linkclipref>SecondScenePark.Birds2.R3D 0</linkclipref>
                            <mediatype>video</mediatype>
                        </link>
                        <link>
                            <linkclipref>SecondScenePark.Birds2.R3D 3</linkclipref>
                        </link>
                        <comments/>
                    </clipitem>
                    <clipitem id="SecondScenePark.Birds3.R3D 3">
                        <name>SecondScenePark.Birds3.R3D</name>
                        <duration>480</duration>
                        <rate>
                            <timebase>24</timebase>
                            <ntsc>TRUE</ntsc>
                        </rate>
                        <start>880</start>
                        <end>1360</end>
                        <enabled>TRUE</enabled>
                        <in>0</in>
                        <out>480</out>
                        <file id="SecondScenePark.Birds3.R3D 2"/>
                        <sourcetrack>
                            <mediatype>audio</mediatype>
                            <trackindex>1</trackindex>
                        </sourcetrack>
                        <filter>
                            <enabled>TRUE</enabled>
                            <start>0</start>
                            <end>480</end>
                            <effect>
                                <name>Audio Levels</name>
                                <effectid>audiolevels</effectid>
                                <effecttype>audiolevels</effecttype>
                                <mediatype>audio</mediatype>
                                <effectcategory>audiolevels</effectcategory>
                                <parameter>
                                    <name>Level</name>
                                    <parameterid>level</parameterid>
                                    <value>1</value>
                                    <valuemin>1e-05</valuemin>
                                    <valuemax>31.6228</valuemax>
                                </parameter>
                            </effect>
                        </filter>
                        <filter>
                            <enabled>TRUE</enabled>
                            <start>0</start>
                            <end>480</end>
                            <effect>
                                <name>Audio Pan</name>
                                <effectid>audiopan</effectid>
                                <effecttype>audiopan</effecttype>
                                <mediatype>audio</mediatype>
                                <effectcategory>audiopan</effectcategory>
                                <parameter>
                                    <name>Pan</name>
                                    <parameterid>pan</parameterid>
                                    <value>0</value>
                                    <valuemin>-1</valuemin>
                                    <valuemax>1</valuemax>
                                </parameter>
                            </effect>
                        </filter>
                        <link>
                            <linkclipref>SecondScenePark.Birds3.R3D 0</linkclipref>
                            <mediatype>video</mediatype>
                        </link>
                        <link>
                            <linkclipref>SecondScenePark.Birds3.R3D 3</linkclipref>
                        </link>
                        <comments/>
                    </clipitem>
                    <clipitem id="SecondScenePark.ExtraCart.R3D 3">
                        <name>SecondScenePark.ExtraCart.R3D</name>
                        <duration>780</duration>
                        <rate>
                            <timebase>24</timebase>
                            <ntsc>TRUE</ntsc>
                        </rate>
                        <start>1360</start>
                        <end>2140</end>
                        <enabled>TRUE</enabled>
                        <in>0</in>
                        <out>780</out>
                        <file id="SecondScenePark.ExtraCart.R3D 2"/>
                        <sourcetrack>
                            <mediatype>audio</mediatype>
                            <trackindex>1</trackindex>
                        </sourcetrack>
                        <filter>
                            <enabled>TRUE</enabled>
                            <start>0</start>
                            <end>780</end>
                            <effect>
                                <name>Audio Levels</name>
                                <effectid>audiolevels</effectid>
                                <effecttype>audiolevels</effecttype>
                                <mediatype>audio</mediatype>
                                <effectcategory>audiolevels</effectcategory>
                                <parameter>
                                    <name>Level</name>
                                    <parameterid>level</parameterid>
                                    <value>1</value>
                                    <valuemin>1e-05</valuemin>
                                    <valuemax>31.6228</valuemax>
                                </parameter>
                            </effect>
                        </filter>
                        <filter>
                            <enabled>TRUE</enabled>
                            <start>0</start>
                            <end>780</end>
                            <effect>
                                <name>Audio Pan</name>
                                <effectid>audiopan</effectid>
                                <effecttype>audiopan</effecttype>
                                <mediatype>audio</mediatype>
                                <effectcategory>audiopan</effectcategory>
                                <parameter>
                                    <name>Pan</name>
                                    <parameterid>pan</parameterid>
                                    <value>0</value>
                                    <valuemin>-1</valuemin>
                                    <valuemax>1</valuemax>
                                </parameter>
                            </effect>
                        </filter>
                        <link>
                            <linkclipref>SecondScenePark.ExtraCart.R3D 0</linkclipref>
                            <mediatype>video</mediatype>
                        </link>
                        <link>
                            <linkclipref>SecondScenePark.ExtraCart.R3D 3</linkclipref>
                        </link>
                        <comments/>
                    </clipitem>
                    <clipitem id="SecondScenePark.ExtraShots.R3D 3">
                        <name>SecondScenePark.ExtraShots.R3D</name>
                        <duration>550</duration>
                        <rate>
                            <timebase>24</timebase>
                            <ntsc>TRUE</ntsc>
                        </rate>
                        <start>2140</start>
                        <end>2690</end>
                        <enabled>TRUE</enabled>
                        <in>0</in>
                        <out>550</out>
                        <file id="SecondScenePark.ExtraShots.R3D 2"/>
                        <sourcetrack>
                            <mediatype>audio</mediatype>
                            <trackindex>1</trackindex>
                        </sourcetrack>
                        <filter>
                            <enabled>TRUE</enabled>
                            <start>0</start>
                            <end>550</end>
                            <effect>
                                <name>Audio Levels</name>
                                <effectid>audiolevels</effectid>
                                <effecttype>audiolevels</effecttype>
                                <mediatype>audio</mediatype>
                                <effectcategory>audiolevels</effectcategory>
                                <parameter>
                                    <name>Level</name>
                                    <parameterid>level</parameterid>
                                    <value>1</value>
                                    <valuemin>1e-05</valuemin>
                                    <valuemax>31.6228</valuemax>
                                </parameter>
                            </effect>
                        </filter>
                        <filter>
                            <enabled>TRUE</enabled>
                            <start>0</start>
                            <end>550</end>
                            <effect>
                                <name>Audio Pan</name>
                                <effectid>audiopan</effectid>
                                <effecttype>audiopan</effecttype>
                                <mediatype>audio</mediatype>
                                <effectcategory>audiopan</effectcategory>
                                <parameter>
                                    <name>Pan</name>
                                    <parameterid>pan</parameterid>
                                    <value>0</value>
                                    <valuemin>-1</valuemin>
                                    <valuemax>1</valuemax>
                                </parameter>
                            </effect>
                        </filter>
                        <link>
                            <linkclipref>SecondScenePark.ExtraShots.R3D 0</linkclipref>
                            <mediatype>video</mediatype>
                        </link>
                        <link>
                            <linkclipref>SecondScenePark.ExtraShots.R3D 3</linkclipref>
                        </link>
                        <comments/>
                    </clipitem>
                    <clipitem id="SecondScenePark.GelateriaChildren.R3D 3">
                        <name>SecondScenePark.GelateriaChildren.R3D</name>
                        <duration>485</duration>
                        <rate>
                            <timebase>24</timebase>
                            <ntsc>TRUE</ntsc>
                        </rate>
                        <start>2690</start>
                        <end>3175</end>
                        <enabled>TRUE</enabled>
                        <in>0</in>
                        <out>485</out>
                        <file id="SecondScenePark.GelateriaChildren.R3D 2"/>
                        <sourcetrack>
                            <mediatype>audio</mediatype>
                            <trackindex>1</trackindex>
                        </sourcetrack>
                        <filter>
                            <enabled>TRUE</enabled>
                            <start>0</start>
                            <end>485</end>
                            <effect>
                                <name>Audio Levels</name>
                                <effectid>audiolevels</effectid>
                                <effecttype>audiolevels</effecttype>
                                <mediatype>audio</mediatype>
                                <effectcategory>audiolevels</effectcategory>
                                <parameter>
                                    <name>Level</name>
                                    <parameterid>level</parameterid>
                                    <value>1</value>
                                    <valuemin>1e-05</valuemin>
                                    <valuemax>31.6228</valuemax>
                                </parameter>
                            </effect>
                        </filter>
                        <filter>
                            <enabled>TRUE</enabled>
                            <start>0</start>
                            <end>485</end>
                            <effect>
                                <name>Audio Pan</name>
                                <effectid>audiopan</effectid>
                                <effecttype>audiopan</effecttype>
                                <mediatype>audio</mediatype>
                                <effectcategory>audiopan</effectcategory>
                                <parameter>
                                    <name>Pan</name>
                                    <parameterid>pan</parameterid>
                                    <value>0</value>
                                    <valuemin>-1</valuemin>
                                    <valuemax>1</valuemax>
                                </parameter>
                            </effect>
                        </filter>
                        <link>
                            <linkclipref>SecondScenePark.GelateriaChildren.R3D 0</linkclipref>
                            <mediatype>video</mediatype>
                        </link>
                        <link>
                            <linkclipref>SecondScenePark.GelateriaChildren.R3D 3</linkclipref>
                        </link>
                        <comments/>
                    </clipitem>
                    <clipitem id="SecondScenePark.ParkExtra.R3D 3">
                        <name>SecondScenePark.ParkExtra.R3D</name>
                        <duration>153</duration>
                        <rate>
                            <timebase>24</timebase>
                            <ntsc>TRUE</ntsc>
                        </rate>
                        <start>3175</start>
                        <end>3256</end>
                        <enabled>TRUE</enabled>
                        <in>0</in>
                        <out>81</out>
                        <file id="SecondScenePark.ParkExtra.R3D 2"/>
                        <sourcetrack>
                            <mediatype>audio</mediatype>
                            <trackindex>1</trackindex>
                        </sourcetrack>
                        <filter>
                            <enabled>TRUE</enabled>
                            <start>0</start>
                            <end>153</end>
                            <effect>
                                <name>Audio Levels</name>
                                <effectid>audiolevels</effectid>
                                <effecttype>audiolevels</effecttype>
                                <mediatype>audio</mediatype>
                                <effectcategory>audiolevels</effectcategory>
                                <parameter>
                                    <name>Level</name>
                                    <parameterid>level</parameterid>
                                    <value>1</value>
                                    <valuemin>1e-05</valuemin>
                                    <valuemax>31.6228</valuemax>
                                </parameter>
                            </effect>
                        </filter>
                        <filter>
                            <enabled>TRUE</enabled>
                            <start>0</start>
                            <end>153</end>
                            <effect>
                                <name>Audio Pan</name>
                                <effectid>audiopan</effectid>
                                <effecttype>audiopan</effecttype>
                                <mediatype>audio</mediatype>
                                <effectcategory>audiopan</effectcategory>
                                <parameter>
                                    <name>Pan</name>
                                    <parameterid>pan</parameterid>
                                    <value>0</value>
                                    <valuemin>-1</valuemin>
                                    <valuemax>1</valuemax>
                                </parameter>
                            </effect>
                        </filter>
                        <link>
                            <linkclipref>SecondScenePark.ParkExtra.R3D 0</linkclipref>
                            <mediatype>video</mediatype>
                        </link>
                        <link>
                            <linkclipref>SecondScenePark.ParkExtra.R3D 3</linkclipref>
                        </link>
                        <comments/>
                    </clipitem>
                    <clipitem id="SecondScenePark.1.Apple.Take1.WAV 0">
                        <name>SecondScenePark.1.Apple.Take1.WAV</name>
                        <duration>970</duration>
                        <rate>
                            <timebase>24</timebase>
                            <ntsc>TRUE</ntsc>
                        </rate>
                        <start>3321</start>
                        <end>3892</end>
                        <enabled>TRUE</enabled>
                        <in>0</in>
                        <out>570</out>
                        <file id="SecondScenePark.1.Apple.Take1.WAV 1">
                            <duration>970</duration>
                            <rate>
                                <timebase>24</timebase>
                                <ntsc>TRUE</ntsc>
                            </rate>
                            <name>1A-1255.WAV</name>
                            <pathurl>file:///Volumes/Jackson/footage/sound/day%202/11-22-22/1A-1255.WAV</pathurl>
                            <media>
                                <audio>
                                    <channelcount>5</channelcount>
                                </audio>
                            </media>
                        </file>
                        <sourcetrack>
                            <mediatype>audio</mediatype>
                            <trackindex>1</trackindex>
                        </sourcetrack>
                        <filter>
                            <enabled>TRUE</enabled>
                            <start>0</start>
                            <end>970</end>
                            <effect>
                                <name>Audio Levels</name>
                                <effectid>audiolevels</effectid>
                                <effecttype>audiolevels</effecttype>
                                <mediatype>audio</mediatype>
                                <effectcategory>audiolevels</effectcategory>
                                <parameter>
                                    <name>Level</name>
                                    <parameterid>level</parameterid>
                                    <value>1</value>
                                    <valuemin>1e-05</valuemin>
                                    <valuemax>31.6228</valuemax>
                                </parameter>
                            </effect>
                        </filter>
                        <filter>
                            <enabled>TRUE</enabled>
                            <start>0</start>
                            <end>970</end>
                            <effect>
                                <name>Audio Pan</name>
                                <effectid>audiopan</effectid>
                                <effecttype>audiopan</effecttype>
                                <mediatype>audio</mediatype>
                                <effectcategory>audiopan</effectcategory>
                                <parameter>
                                    <name>Pan</name>
                                    <parameterid>pan</parameterid>
                                    <value>0</value>
                                    <valuemin>-1</valuemin>
                                    <valuemax>1</valuemax>
                                </parameter>
                            </effect>
                        </filter>
                        <link>
                            <linkclipref>SecondScenePark.1.Apple.Take1.WAV 0</linkclipref>
                        </link>
                        <link>
                            <linkclipref>SecondScenePark.1.Apple.Take1.WAV 3</linkclipref>
                        </link>
                        <link>
                            <linkclipref>SecondScenePark.1.Apple.Take1.WAV 5</linkclipref>
                        </link>
                        <link>
                            <linkclipref>SecondScenePark.1.Apple.Take1.WAV 7</linkclipref>
                        </link>
                        <link>
                            <linkclipref>SecondScenePark.1.Apple.Take1.WAV 9</linkclipref>
                        </link>
                        <comments/>
                    </clipitem>
                    <clipitem id="SecondScenePark.1.Apple.Take1.WAV 2">
                        <name>SecondScenePark.1.Apple.Take1.WAV</name>
                        <duration>970</duration>
                        <rate>
                            <timebase>24</timebase>
                            <ntsc>TRUE</ntsc>
                        </rate>
                        <start>3892</start>
                        <end>4292</end>
                        <enabled>TRUE</enabled>
                        <in>570</in>
                        <out>970</out>
                        <file id="SecondScenePark.1.Apple.Take1.WAV 1"/>
                        <sourcetrack>
                            <mediatype>audio</mediatype>
                            <trackindex>1</trackindex>
                        </sourcetrack>
                        <filter>
                            <enabled>TRUE</enabled>
                            <start>0</start>
                            <end>970</end>
                            <effect>
                                <name>Audio Levels</name>
                                <effectid>audiolevels</effectid>
                                <effecttype>audiolevels</effecttype>
                                <mediatype>audio</mediatype>
                                <effectcategory>audiolevels</effectcategory>
                                <parameter>
                                    <name>Level</name>
                                    <parameterid>level</parameterid>
                                    <value>1</value>
                                    <valuemin>1e-05</valuemin>
                                    <valuemax>31.6228</valuemax>
                                </parameter>
                            </effect>
                        </filter>
                        <filter>
                            <enabled>TRUE</enabled>
                            <start>0</start>
                            <end>970</end>
                            <effect>
                                <name>Audio Pan</name>
                                <effectid>audiopan</effectid>
                                <effecttype>audiopan</effecttype>
                                <mediatype>audio</mediatype>
                                <effectcategory>audiopan</effectcategory>
                                <parameter>
                                    <name>Pan</name>
                                    <parameterid>pan</parameterid>
                                    <value>0</value>
                                    <valuemin>-1</valuemin>
                                    <valuemax>1</valuemax>
                                </parameter>
                            </effect>
                        </filter>
                        <link>
                            <linkclipref>SecondScenePark.1.Apple.Take1.WAV 2</linkclipref>
                        </link>
                        <link>
                            <linkclipref>SecondScenePark.1.Apple.Take1.WAV 4</linkclipref>
                        </link>
                        <link>
                            <linkclipref>SecondScenePark.1.Apple.Take1.WAV 6</linkclipref>
                        </link>
                        <link>
                            <linkclipref>SecondScenePark.1.Apple.Take1.WAV 8</linkclipref>
                        </link>
                        <link>
                            <linkclipref>SecondScenePark.1.Apple.Take1.WAV 10</linkclipref>
                        </link>
                        <comments/>
                    </clipitem>
                    <clipitem id="SecondScenePark.1.Apple.Take1.R3D 3">
                        <name>SecondScenePark.1.Apple.Take1.R3D</name>
                        <duration>1124</duration>
                        <rate>
                            <timebase>24</timebase>
                            <ntsc>TRUE</ntsc>
                        </rate>
                        <start>4292</start>
                        <end>4453</end>
                        <enabled>TRUE</enabled>
                        <in>964</in>
                        <out>1125</out>
                        <file id="SecondScenePark.1.Apple.Take1.R3D 2"/>
                        <sourcetrack>
                            <mediatype>audio</mediatype>
                            <trackindex>1</trackindex>
                        </sourcetrack>
                        <filter>
                            <enabled>TRUE</enabled>
                            <start>0</start>
                            <end>1124</end>
                            <effect>
                                <name>Audio Levels</name>
                                <effectid>audiolevels</effectid>
                                <effecttype>audiolevels</effecttype>
                                <mediatype>audio</mediatype>
                                <effectcategory>audiolevels</effectcategory>
                                <parameter>
                                    <name>Level</name>
                                    <parameterid>level</parameterid>
                                    <value>1</value>
                                    <valuemin>1e-05</valuemin>
                                    <valuemax>31.6228</valuemax>
                                </parameter>
                            </effect>
                        </filter>
                        <filter>
                            <enabled>TRUE</enabled>
                            <start>0</start>
                            <end>1124</end>
                            <effect>
                                <name>Audio Pan</name>
                                <effectid>audiopan</effectid>
                                <effecttype>audiopan</effecttype>
                                <mediatype>audio</mediatype>
                                <effectcategory>audiopan</effectcategory>
                                <parameter>
                                    <name>Pan</name>
                                    <parameterid>pan</parameterid>
                                    <value>0</value>
                                    <valuemin>-1</valuemin>
                                    <valuemax>1</valuemax>
                                </parameter>
                            </effect>
                        </filter>
                        <link>
                            <linkclipref>SecondScenePark.1.Apple.Take1.R3D 0</linkclipref>
                            <mediatype>video</mediatype>
                        </link>
                        <link>
                            <linkclipref>SecondScenePark.1.Apple.Take1.R3D 3</linkclipref>
                        </link>
                        <comments/>
                    </clipitem>
                    <clipitem id="SecondScenePark.1.Gelateria.R3D 3">
                        <name>SecondScenePark.1.Gelateria.R3D</name>
                        <duration>69</duration>
                        <rate>
                            <timebase>24</timebase>
                            <ntsc>TRUE</ntsc>
                        </rate>
                        <start>4453</start>
                        <end>4522</end>
                        <enabled>TRUE</enabled>
                        <in>0</in>
                        <out>69</out>
                        <file id="SecondScenePark.1.Gelateria.R3D 2"/>
                        <sourcetrack>
                            <mediatype>audio</mediatype>
                            <trackindex>1</trackindex>
                        </sourcetrack>
                        <filter>
                            <enabled>TRUE</enabled>
                            <start>0</start>
                            <end>69</end>
                            <effect>
                                <name>Audio Levels</name>
                                <effectid>audiolevels</effectid>
                                <effecttype>audiolevels</effecttype>
                                <mediatype>audio</mediatype>
                                <effectcategory>audiolevels</effectcategory>
                                <parameter>
                                    <name>Level</name>
                                    <parameterid>level</parameterid>
                                    <value>1</value>
                                    <valuemin>1e-05</valuemin>
                                    <valuemax>31.6228</valuemax>
                                </parameter>
                            </effect>
                        </filter>
                        <filter>
                            <enabled>TRUE</enabled>
                            <start>0</start>
                            <end>69</end>
                            <effect>
                                <name>Audio Pan</name>
                                <effectid>audiopan</effectid>
                                <effecttype>audiopan</effecttype>
                                <mediatype>audio</mediatype>
                                <effectcategory>audiopan</effectcategory>
                                <parameter>
                                    <name>Pan</name>
                                    <parameterid>pan</parameterid>
                                    <value>0</value>
                                    <valuemin>-1</valuemin>
                                    <valuemax>1</valuemax>
                                </parameter>
                            </effect>
                        </filter>
                        <link>
                            <linkclipref>SecondScenePark.1.Gelateria.R3D 0</linkclipref>
                            <mediatype>video</mediatype>
                        </link>
                        <link>
                            <linkclipref>SecondScenePark.1.Gelateria.R3D 3</linkclipref>
                        </link>
                        <comments/>
                    </clipitem>
                    <clipitem id="SecondScenePark.1.Gelateria2.R3D 3">
                        <name>SecondScenePark.1.Gelateria2.R3D</name>
                        <duration>362</duration>
                        <rate>
                            <timebase>24</timebase>
                            <ntsc>TRUE</ntsc>
                        </rate>
                        <start>4522</start>
                        <end>4884</end>
                        <enabled>TRUE</enabled>
                        <in>0</in>
                        <out>362</out>
                        <file id="SecondScenePark.1.Gelateria2.R3D 2"/>
                        <sourcetrack>
                            <mediatype>audio</mediatype>
                            <trackindex>1</trackindex>
                        </sourcetrack>
                        <filter>
                            <enabled>TRUE</enabled>
                            <start>0</start>
                            <end>362</end>
                            <effect>
                                <name>Audio Levels</name>
                                <effectid>audiolevels</effectid>
                                <effecttype>audiolevels</effecttype>
                                <mediatype>audio</mediatype>
                                <effectcategory>audiolevels</effectcategory>
                                <parameter>
                                    <name>Level</name>
                                    <parameterid>level</parameterid>
                                    <value>1</value>
                                    <valuemin>1e-05</valuemin>
                                    <valuemax>31.6228</valuemax>
                                </parameter>
                            </effect>
                        </filter>
                        <filter>
                            <enabled>TRUE</enabled>
                            <start>0</start>
                            <end>362</end>
                            <effect>
                                <name>Audio Pan</name>
                                <effectid>audiopan</effectid>
                                <effecttype>audiopan</effecttype>
                                <mediatype>audio</mediatype>
                                <effectcategory>audiopan</effectcategory>
                                <parameter>
                                    <name>Pan</name>
                                    <parameterid>pan</parameterid>
                                    <value>0</value>
                                    <valuemin>-1</valuemin>
                                    <valuemax>1</valuemax>
                                </parameter>
                            </effect>
                        </filter>
                        <link>
                            <linkclipref>SecondScenePark.1.Gelateria2.R3D 0</linkclipref>
                            <mediatype>video</mediatype>
                        </link>
                        <link>
                            <linkclipref>SecondScenePark.1.Gelateria2.R3D 3</linkclipref>
                        </link>
                        <comments/>
                    </clipitem>
                    <clipitem id="SecondScenePark.1.Gelateria3.R3D 3">
                        <name>SecondScenePark.1.Gelateria3.R3D</name>
                        <duration>232</duration>
                        <rate>
                            <timebase>24</timebase>
                            <ntsc>TRUE</ntsc>
                        </rate>
                        <start>4884</start>
                        <end>5116</end>
                        <enabled>TRUE</enabled>
                        <in>0</in>
                        <out>232</out>
                        <file id="SecondScenePark.1.Gelateria3.R3D 2"/>
                        <sourcetrack>
                            <mediatype>audio</mediatype>
                            <trackindex>1</trackindex>
                        </sourcetrack>
                        <filter>
                            <enabled>TRUE</enabled>
                            <start>0</start>
                            <end>232</end>
                            <effect>
                                <name>Audio Levels</name>
                                <effectid>audiolevels</effectid>
                                <effecttype>audiolevels</effecttype>
                                <mediatype>audio</mediatype>
                                <effectcategory>audiolevels</effectcategory>
                                <parameter>
                                    <name>Level</name>
                                    <parameterid>level</parameterid>
                                    <value>1</value>
                                    <valuemin>1e-05</valuemin>
                                    <valuemax>31.6228</valuemax>
                                </parameter>
                            </effect>
                        </filter>
                        <filter>
                            <enabled>TRUE</enabled>
                            <start>0</start>
                            <end>232</end>
                            <effect>
                                <name>Audio Pan</name>
                                <effectid>audiopan</effectid>
                                <effecttype>audiopan</effecttype>
                                <mediatype>audio</mediatype>
                                <effectcategory>audiopan</effectcategory>
                                <parameter>
                                    <name>Pan</name>
                                    <parameterid>pan</parameterid>
                                    <value>0</value>
                                    <valuemin>-1</valuemin>
                                    <valuemax>1</valuemax>
                                </parameter>
                            </effect>
                        </filter>
                        <link>
                            <linkclipref>SecondScenePark.1.Gelateria3.R3D 0</linkclipref>
                            <mediatype>video</mediatype>
                        </link>
                        <link>
                            <linkclipref>SecondScenePark.1.Gelateria3.R3D 3</linkclipref>
                        </link>
                        <comments/>
                    </clipitem>
                    <clipitem id="SecondScenePark.1.Take1.R3D 6">
                        <name>SecondScenePark.1.Take1.R3D</name>
                        <duration>860</duration>
                        <rate>
                            <timebase>24</timebase>
                            <ntsc>TRUE</ntsc>
                        </rate>
                        <start>5116</start>
                        <end>5976</end>
                        <enabled>TRUE</enabled>
                        <in>0</in>
                        <out>860</out>
                        <file id="SecondScenePark.1.Take1.R3D 2"/>
                        <sourcetrack>
                            <mediatype>audio</mediatype>
                            <trackindex>1</trackindex>
                        </sourcetrack>
                        <filter>
                            <enabled>TRUE</enabled>
                            <start>0</start>
                            <end>860</end>
                            <effect>
                                <name>Audio Levels</name>
                                <effectid>audiolevels</effectid>
                                <effecttype>audiolevels</effecttype>
                                <mediatype>audio</mediatype>
                                <effectcategory>audiolevels</effectcategory>
                                <parameter>
                                    <name>Level</name>
                                    <parameterid>level</parameterid>
                                    <value>1</value>
                                    <valuemin>1e-05</valuemin>
                                    <valuemax>31.6228</valuemax>
                                </parameter>
                            </effect>
                        </filter>
                        <filter>
                            <enabled>TRUE</enabled>
                            <start>0</start>
                            <end>860</end>
                            <effect>
                                <name>Audio Pan</name>
                                <effectid>audiopan</effectid>
                                <effecttype>audiopan</effecttype>
                                <mediatype>audio</mediatype>
                                <effectcategory>audiopan</effectcategory>
                                <parameter>
                                    <name>Pan</name>
                                    <parameterid>pan</parameterid>
                                    <value>0</value>
                                    <valuemin>-1</valuemin>
                                    <valuemax>1</valuemax>
                                </parameter>
                            </effect>
                        </filter>
                        <link>
                            <linkclipref>SecondScenePark.1.Take1.R3D 0</linkclipref>
                            <mediatype>video</mediatype>
                        </link>
                        <link>
                            <linkclipref>SecondScenePark.1.Take1.R3D 6</linkclipref>
                        </link>
                        <comments/>
                    </clipitem>
                    <clipitem id="SecondScenePark.1.Take2.R3D 3">
                        <name>SecondScenePark.1.Take2.R3D</name>
                        <duration>1249</duration>
                        <rate>
                            <timebase>24</timebase>
                            <ntsc>TRUE</ntsc>
                        </rate>
                        <start>5976</start>
                        <end>7225</end>
                        <enabled>TRUE</enabled>
                        <in>0</in>
                        <out>1249</out>
                        <file id="SecondScenePark.1.Take2.R3D 2"/>
                        <sourcetrack>
                            <mediatype>audio</mediatype>
                            <trackindex>1</trackindex>
                        </sourcetrack>
                        <filter>
                            <enabled>TRUE</enabled>
                            <start>0</start>
                            <end>1249</end>
                            <effect>
                                <name>Audio Levels</name>
                                <effectid>audiolevels</effectid>
                                <effecttype>audiolevels</effecttype>
                                <mediatype>audio</mediatype>
                                <effectcategory>audiolevels</effectcategory>
                                <parameter>
                                    <name>Level</name>
                                    <parameterid>level</parameterid>
                                    <value>1</value>
                                    <valuemin>1e-05</valuemin>
                                    <valuemax>31.6228</valuemax>
                                </parameter>
                            </effect>
                        </filter>
                        <filter>
                            <enabled>TRUE</enabled>
                            <start>0</start>
                            <end>1249</end>
                            <effect>
                                <name>Audio Pan</name>
                                <effectid>audiopan</effectid>
                                <effecttype>audiopan</effecttype>
                                <mediatype>audio</mediatype>
                                <effectcategory>audiopan</effectcategory>
                                <parameter>
                                    <name>Pan</name>
                                    <parameterid>pan</parameterid>
                                    <value>0</value>
                                    <valuemin>-1</valuemin>
                                    <valuemax>1</valuemax>
                                </parameter>
                            </effect>
                        </filter>
                        <link>
                            <linkclipref>SecondScenePark.1.Take2.R3D 0</linkclipref>
                            <mediatype>video</mediatype>
                        </link>
                        <link>
                            <linkclipref>SecondScenePark.1.Take2.R3D 3</linkclipref>
                        </link>
                        <comments/>
                    </clipitem>
                    <clipitem id="SecondScenePark.1.Take1.R3D 7">
                        <name>SecondScenePark.1.Take1.R3D</name>
                        <duration>1047</duration>
                        <rate>
                            <timebase>24</timebase>
                            <ntsc>TRUE</ntsc>
                        </rate>
                        <start>7225</start>
                        <end>8272</end>
                        <enabled>TRUE</enabled>
                        <in>0</in>
                        <out>1047</out>
                        <file id="SecondScenePark.1.Take1.R3D 5"/>
                        <sourcetrack>
                            <mediatype>audio</mediatype>
                            <trackindex>1</trackindex>
                        </sourcetrack>
                        <filter>
                            <enabled>TRUE</enabled>
                            <start>0</start>
                            <end>1047</end>
                            <effect>
                                <name>Audio Levels</name>
                                <effectid>audiolevels</effectid>
                                <effecttype>audiolevels</effecttype>
                                <mediatype>audio</mediatype>
                                <effectcategory>audiolevels</effectcategory>
                                <parameter>
                                    <name>Level</name>
                                    <parameterid>level</parameterid>
                                    <value>1</value>
                                    <valuemin>1e-05</valuemin>
                                    <valuemax>31.6228</valuemax>
                                </parameter>
                            </effect>
                        </filter>
                        <filter>
                            <enabled>TRUE</enabled>
                            <start>0</start>
                            <end>1047</end>
                            <effect>
                                <name>Audio Pan</name>
                                <effectid>audiopan</effectid>
                                <effecttype>audiopan</effecttype>
                                <mediatype>audio</mediatype>
                                <effectcategory>audiopan</effectcategory>
                                <parameter>
                                    <name>Pan</name>
                                    <parameterid>pan</parameterid>
                                    <value>0</value>
                                    <valuemin>-1</valuemin>
                                    <valuemax>1</valuemax>
                                </parameter>
                            </effect>
                        </filter>
                        <link>
                            <linkclipref>SecondScenePark.1.Take1.R3D 3</linkclipref>
                            <mediatype>video</mediatype>
                        </link>
                        <link>
                            <linkclipref>SecondScenePark.1.Take1.R3D 7</linkclipref>
                        </link>
                        <comments/>
                    </clipitem>
                    <clipitem id="SecondScenePark.2.Take1.R3D 3">
                        <name>SecondScenePark.2.Take1.R3D</name>
                        <duration>665</duration>
                        <rate>
                            <timebase>24</timebase>
                            <ntsc>TRUE</ntsc>
                        </rate>
                        <start>8272</start>
                        <end>8937</end>
                        <enabled>TRUE</enabled>
                        <in>0</in>
                        <out>665</out>
                        <file id="SecondScenePark.2.Take1.R3D 2"/>
                        <sourcetrack>
                            <mediatype>audio</mediatype>
                            <trackindex>1</trackindex>
                        </sourcetrack>
                        <filter>
                            <enabled>TRUE</enabled>
                            <start>0</start>
                            <end>665</end>
                            <effect>
                                <name>Audio Levels</name>
                                <effectid>audiolevels</effectid>
                                <effecttype>audiolevels</effecttype>
                                <mediatype>audio</mediatype>
                                <effectcategory>audiolevels</effectcategory>
                                <parameter>
                                    <name>Level</name>
                                    <parameterid>level</parameterid>
                                    <value>1</value>
                                    <valuemin>1e-05</valuemin>
                                    <valuemax>31.6228</valuemax>
                                </parameter>
                            </effect>
                        </filter>
                        <filter>
                            <enabled>TRUE</enabled>
                            <start>0</start>
                            <end>665</end>
                            <effect>
                                <name>Audio Pan</name>
                                <effectid>audiopan</effectid>
                                <effecttype>audiopan</effecttype>
                                <mediatype>audio</mediatype>
                                <effectcategory>audiopan</effectcategory>
                                <parameter>
                                    <name>Pan</name>
                                    <parameterid>pan</parameterid>
                                    <value>0</value>
                                    <valuemin>-1</valuemin>
                                    <valuemax>1</valuemax>
                                </parameter>
                            </effect>
                        </filter>
                        <link>
                            <linkclipref>SecondScenePark.2.Take1.R3D 0</linkclipref>
                            <mediatype>video</mediatype>
                        </link>
                        <link>
                            <linkclipref>SecondScenePark.2.Take1.R3D 3</linkclipref>
                        </link>
                        <comments/>
                    </clipitem>
                    <clipitem id="SecondScenePark.2.Apple.Take1.R3D 3">
                        <name>SecondScenePark.2.Apple.Take1.R3D</name>
                        <duration>1369</duration>
                        <rate>
                            <timebase>24</timebase>
                            <ntsc>TRUE</ntsc>
                        </rate>
                        <start>8937</start>
                        <end>10306</end>
                        <enabled>TRUE</enabled>
                        <in>0</in>
                        <out>1369</out>
                        <file id="SecondScenePark.2.Apple.Take1.R3D 2"/>
                        <sourcetrack>
                            <mediatype>audio</mediatype>
                            <trackindex>1</trackindex>
                        </sourcetrack>
                        <filter>
                            <enabled>TRUE</enabled>
                            <start>0</start>
                            <end>1369</end>
                            <effect>
                                <name>Audio Levels</name>
                                <effectid>audiolevels</effectid>
                                <effecttype>audiolevels</effecttype>
                                <mediatype>audio</mediatype>
                                <effectcategory>audiolevels</effectcategory>
                                <parameter>
                                    <name>Level</name>
                                    <parameterid>level</parameterid>
                                    <value>1</value>
                                    <valuemin>1e-05</valuemin>
                                    <valuemax>31.6228</valuemax>
                                </parameter>
                            </effect>
                        </filter>
                        <filter>
                            <enabled>TRUE</enabled>
                            <start>0</start>
                            <end>1369</end>
                            <effect>
                                <name>Audio Pan</name>
                                <effectid>audiopan</effectid>
                                <effecttype>audiopan</effecttype>
                                <mediatype>audio</mediatype>
                                <effectcategory>audiopan</effectcategory>
                                <parameter>
                                    <name>Pan</name>
                                    <parameterid>pan</parameterid>
                                    <value>0</value>
                                    <valuemin>-1</valuemin>
                                    <valuemax>1</valuemax>
                                </parameter>
                            </effect>
                        </filter>
                        <link>
                            <linkclipref>SecondScenePark.2.Apple.Take1.R3D 0</linkclipref>
                            <mediatype>video</mediatype>
                        </link>
                        <link>
                            <linkclipref>SecondScenePark.2.Apple.Take1.R3D 3</linkclipref>
                        </link>
                        <comments/>
                    </clipitem>
                    <clipitem id="SecondScenePark.2.Take2.R3D 3">
                        <name>SecondScenePark.2.Take2.R3D</name>
                        <duration>375</duration>
                        <rate>
                            <timebase>24</timebase>
                            <ntsc>TRUE</ntsc>
                        </rate>
                        <start>10306</start>
                        <end>10681</end>
                        <enabled>TRUE</enabled>
                        <in>0</in>
                        <out>375</out>
                        <file id="SecondScenePark.2.Take2.R3D 2"/>
                        <sourcetrack>
                            <mediatype>audio</mediatype>
                            <trackindex>1</trackindex>
                        </sourcetrack>
                        <filter>
                            <enabled>TRUE</enabled>
                            <start>0</start>
                            <end>375</end>
                            <effect>
                                <name>Audio Levels</name>
                                <effectid>audiolevels</effectid>
                                <effecttype>audiolevels</effecttype>
                                <mediatype>audio</mediatype>
                                <effectcategory>audiolevels</effectcategory>
                                <parameter>
                                    <name>Level</name>
                                    <parameterid>level</parameterid>
                                    <value>1</value>
                                    <valuemin>1e-05</valuemin>
                                    <valuemax>31.6228</valuemax>
                                </parameter>
                            </effect>
                        </filter>
                        <filter>
                            <enabled>TRUE</enabled>
                            <start>0</start>
                            <end>375</end>
                            <effect>
                                <name>Audio Pan</name>
                                <effectid>audiopan</effectid>
                                <effecttype>audiopan</effecttype>
                                <mediatype>audio</mediatype>
                                <effectcategory>audiopan</effectcategory>
                                <parameter>
                                    <name>Pan</name>
                                    <parameterid>pan</parameterid>
                                    <value>0</value>
                                    <valuemin>-1</valuemin>
                                    <valuemax>1</valuemax>
                                </parameter>
                            </effect>
                        </filter>
                        <link>
                            <linkclipref>SecondScenePark.2.Take2.R3D 0</linkclipref>
                            <mediatype>video</mediatype>
                        </link>
                        <link>
                            <linkclipref>SecondScenePark.2.Take2.R3D 3</linkclipref>
                        </link>
                        <comments/>
                    </clipitem>
                    <clipitem id="SecondScenePark.2.Take3.R3D 3">
                        <name>SecondScenePark.2.Take3.R3D</name>
                        <duration>940</duration>
                        <rate>
                            <timebase>24</timebase>
                            <ntsc>TRUE</ntsc>
                        </rate>
                        <start>10681</start>
                        <end>11621</end>
                        <enabled>TRUE</enabled>
                        <in>0</in>
                        <out>940</out>
                        <file id="SecondScenePark.2.Take3.R3D 2"/>
                        <sourcetrack>
                            <mediatype>audio</mediatype>
                            <trackindex>1</trackindex>
                        </sourcetrack>
                        <filter>
                            <enabled>TRUE</enabled>
                            <start>0</start>
                            <end>940</end>
                            <effect>
                                <name>Audio Levels</name>
                                <effectid>audiolevels</effectid>
                                <effecttype>audiolevels</effecttype>
                                <mediatype>audio</mediatype>
                                <effectcategory>audiolevels</effectcategory>
                                <parameter>
                                    <name>Level</name>
                                    <parameterid>level</parameterid>
                                    <value>1</value>
                                    <valuemin>1e-05</valuemin>
                                    <valuemax>31.6228</valuemax>
                                </parameter>
                            </effect>
                        </filter>
                        <filter>
                            <enabled>TRUE</enabled>
                            <start>0</start>
                            <end>940</end>
                            <effect>
                                <name>Audio Pan</name>
                                <effectid>audiopan</effectid>
                                <effecttype>audiopan</effecttype>
                                <mediatype>audio</mediatype>
                                <effectcategory>audiopan</effectcategory>
                                <parameter>
                                    <name>Pan</name>
                                    <parameterid>pan</parameterid>
                                    <value>0</value>
                                    <valuemin>-1</valuemin>
                                    <valuemax>1</valuemax>
                                </parameter>
                            </effect>
                        </filter>
                        <link>
                            <linkclipref>SecondScenePark.2.Take3.R3D 0</linkclipref>
                            <mediatype>video</mediatype>
                        </link>
                        <link>
                            <linkclipref>SecondScenePark.2.Take3.R3D 3</linkclipref>
                        </link>
                        <comments/>
                    </clipitem>
                    <clipitem id="SecondScenePark.2.2.Take1.R3D 3">
                        <name>SecondScenePark.2.2.Take1.R3D</name>
                        <duration>978</duration>
                        <rate>
                            <timebase>24</timebase>
                            <ntsc>TRUE</ntsc>
                        </rate>
                        <start>11621</start>
                        <end>12599</end>
                        <enabled>TRUE</enabled>
                        <in>0</in>
                        <out>978</out>
                        <file id="SecondScenePark.2.2.Take1.R3D 2"/>
                        <sourcetrack>
                            <mediatype>audio</mediatype>
                            <trackindex>1</trackindex>
                        </sourcetrack>
                        <filter>
                            <enabled>TRUE</enabled>
                            <start>0</start>
                            <end>978</end>
                            <effect>
                                <name>Audio Levels</name>
                                <effectid>audiolevels</effectid>
                                <effecttype>audiolevels</effecttype>
                                <mediatype>audio</mediatype>
                                <effectcategory>audiolevels</effectcategory>
                                <parameter>
                                    <name>Level</name>
                                    <parameterid>level</parameterid>
                                    <value>1</value>
                                    <valuemin>1e-05</valuemin>
                                    <valuemax>31.6228</valuemax>
                                </parameter>
                            </effect>
                        </filter>
                        <filter>
                            <enabled>TRUE</enabled>
                            <start>0</start>
                            <end>978</end>
                            <effect>
                                <name>Audio Pan</name>
                                <effectid>audiopan</effectid>
                                <effecttype>audiopan</effecttype>
                                <mediatype>audio</mediatype>
                                <effectcategory>audiopan</effectcategory>
                                <parameter>
                                    <name>Pan</name>
                                    <parameterid>pan</parameterid>
                                    <value>0</value>
                                    <valuemin>-1</valuemin>
                                    <valuemax>1</valuemax>
                                </parameter>
                            </effect>
                        </filter>
                        <link>
                            <linkclipref>SecondScenePark.2.2.Take1.R3D 0</linkclipref>
                            <mediatype>video</mediatype>
                        </link>
                        <link>
                            <linkclipref>SecondScenePark.2.2.Take1.R3D 3</linkclipref>
                        </link>
                        <comments/>
                    </clipitem>
                    <clipitem id="SecondScenePark.2.4.Take1.R3D 3">
                        <name>SecondScenePark.2.4.Take1.R3D</name>
                        <duration>1937</duration>
                        <rate>
                            <timebase>24</timebase>
                            <ntsc>TRUE</ntsc>
                        </rate>
                        <start>12599</start>
                        <end>14536</end>
                        <enabled>TRUE</enabled>
                        <in>0</in>
                        <out>1937</out>
                        <file id="SecondScenePark.2.4.Take1.R3D 2"/>
                        <sourcetrack>
                            <mediatype>audio</mediatype>
                            <trackindex>1</trackindex>
                        </sourcetrack>
                        <filter>
                            <enabled>TRUE</enabled>
                            <start>0</start>
                            <end>1937</end>
                            <effect>
                                <name>Audio Levels</name>
                                <effectid>audiolevels</effectid>
                                <effecttype>audiolevels</effecttype>
                                <mediatype>audio</mediatype>
                                <effectcategory>audiolevels</effectcategory>
                                <parameter>
                                    <name>Level</name>
                                    <parameterid>level</parameterid>
                                    <value>1</value>
                                    <valuemin>1e-05</valuemin>
                                    <valuemax>31.6228</valuemax>
                                </parameter>
                            </effect>
                        </filter>
                        <filter>
                            <enabled>TRUE</enabled>
                            <start>0</start>
                            <end>1937</end>
                            <effect>
                                <name>Audio Pan</name>
                                <effectid>audiopan</effectid>
                                <effecttype>audiopan</effecttype>
                                <mediatype>audio</mediatype>
                                <effectcategory>audiopan</effectcategory>
                                <parameter>
                                    <name>Pan</name>
                                    <parameterid>pan</parameterid>
                                    <value>0</value>
                                    <valuemin>-1</valuemin>
                                    <valuemax>1</valuemax>
                                </parameter>
                            </effect>
                        </filter>
                        <link>
                            <linkclipref>SecondScenePark.2.4.Take1.R3D 0</linkclipref>
                            <mediatype>video</mediatype>
                        </link>
                        <link>
                            <linkclipref>SecondScenePark.2.4.Take1.R3D 3</linkclipref>
                        </link>
                        <comments/>
                    </clipitem>
                    <clipitem id="SecondScenePark.2.4.Take2.R3D 3">
                        <name>SecondScenePark.2.4.Take2.R3D</name>
                        <duration>1947</duration>
                        <rate>
                            <timebase>24</timebase>
                            <ntsc>TRUE</ntsc>
                        </rate>
                        <start>14536</start>
                        <end>16483</end>
                        <enabled>TRUE</enabled>
                        <in>0</in>
                        <out>1947</out>
                        <file id="SecondScenePark.2.4.Take2.R3D 2"/>
                        <sourcetrack>
                            <mediatype>audio</mediatype>
                            <trackindex>1</trackindex>
                        </sourcetrack>
                        <filter>
                            <enabled>TRUE</enabled>
                            <start>0</start>
                            <end>1947</end>
                            <effect>
                                <name>Audio Levels</name>
                                <effectid>audiolevels</effectid>
                                <effecttype>audiolevels</effecttype>
                                <mediatype>audio</mediatype>
                                <effectcategory>audiolevels</effectcategory>
                                <parameter>
                                    <name>Level</name>
                                    <parameterid>level</parameterid>
                                    <value>1</value>
                                    <valuemin>1e-05</valuemin>
                                    <valuemax>31.6228</valuemax>
                                </parameter>
                            </effect>
                        </filter>
                        <filter>
                            <enabled>TRUE</enabled>
                            <start>0</start>
                            <end>1947</end>
                            <effect>
                                <name>Audio Pan</name>
                                <effectid>audiopan</effectid>
                                <effecttype>audiopan</effecttype>
                                <mediatype>audio</mediatype>
                                <effectcategory>audiopan</effectcategory>
                                <parameter>
                                    <name>Pan</name>
                                    <parameterid>pan</parameterid>
                                    <value>0</value>
                                    <valuemin>-1</valuemin>
                                    <valuemax>1</valuemax>
                                </parameter>
                            </effect>
                        </filter>
                        <link>
                            <linkclipref>SecondScenePark.2.4.Take2.R3D 0</linkclipref>
                            <mediatype>video</mediatype>
                        </link>
                        <link>
                            <linkclipref>SecondScenePark.2.4.Take2.R3D 3</linkclipref>
                        </link>
                        <comments/>
                    </clipitem>
                    <clipitem id="SecondScenePark.2.5.Take2.R3D 3">
                        <name>SecondScenePark.2.5.Take2.R3D</name>
                        <duration>869</duration>
                        <rate>
                            <timebase>24</timebase>
                            <ntsc>TRUE</ntsc>
                        </rate>
                        <start>16483</start>
                        <end>17352</end>
                        <enabled>TRUE</enabled>
                        <in>0</in>
                        <out>869</out>
                        <file id="SecondScenePark.2.5.Take2.R3D 2"/>
                        <sourcetrack>
                            <mediatype>audio</mediatype>
                            <trackindex>1</trackindex>
                        </sourcetrack>
                        <filter>
                            <enabled>TRUE</enabled>
                            <start>0</start>
                            <end>869</end>
                            <effect>
                                <name>Audio Levels</name>
                                <effectid>audiolevels</effectid>
                                <effecttype>audiolevels</effecttype>
                                <mediatype>audio</mediatype>
                                <effectcategory>audiolevels</effectcategory>
                                <parameter>
                                    <name>Level</name>
                                    <parameterid>level</parameterid>
                                    <value>1</value>
                                    <valuemin>1e-05</valuemin>
                                    <valuemax>31.6228</valuemax>
                                </parameter>
                            </effect>
                        </filter>
                        <filter>
                            <enabled>TRUE</enabled>
                            <start>0</start>
                            <end>869</end>
                            <effect>
                                <name>Audio Pan</name>
                                <effectid>audiopan</effectid>
                                <effecttype>audiopan</effecttype>
                                <mediatype>audio</mediatype>
                                <effectcategory>audiopan</effectcategory>
                                <parameter>
                                    <name>Pan</name>
                                    <parameterid>pan</parameterid>
                                    <value>0</value>
                                    <valuemin>-1</valuemin>
                                    <valuemax>1</valuemax>
                                </parameter>
                            </effect>
                        </filter>
                        <link>
                            <linkclipref>SecondScenePark.2.5.Take2.R3D 0</linkclipref>
                            <mediatype>video</mediatype>
                        </link>
                        <link>
                            <linkclipref>SecondScenePark.2.5.Take2.R3D 3</linkclipref>
                        </link>
                        <comments/>
                    </clipitem>
                    <clipitem id="SecondScenePark.2.7.Apple.Take1.R3D 3">
                        <name>SecondScenePark.2.7.Apple.Take1.R3D</name>
                        <duration>726</duration>
                        <rate>
                            <timebase>24</timebase>
                            <ntsc>TRUE</ntsc>
                        </rate>
                        <start>17352</start>
                        <end>18078</end>
                        <enabled>TRUE</enabled>
                        <in>0</in>
                        <out>726</out>
                        <file id="SecondScenePark.2.7.Apple.Take1.R3D 2"/>
                        <sourcetrack>
                            <mediatype>audio</mediatype>
                            <trackindex>1</trackindex>
                        </sourcetrack>
                        <filter>
                            <enabled>TRUE</enabled>
                            <start>0</start>
                            <end>726</end>
                            <effect>
                                <name>Audio Levels</name>
                                <effectid>audiolevels</effectid>
                                <effecttype>audiolevels</effecttype>
                                <mediatype>audio</mediatype>
                                <effectcategory>audiolevels</effectcategory>
                                <parameter>
                                    <name>Level</name>
                                    <parameterid>level</parameterid>
                                    <value>1</value>
                                    <valuemin>1e-05</valuemin>
                                    <valuemax>31.6228</valuemax>
                                </parameter>
                            </effect>
                        </filter>
                        <filter>
                            <enabled>TRUE</enabled>
                            <start>0</start>
                            <end>726</end>
                            <effect>
                                <name>Audio Pan</name>
                                <effectid>audiopan</effectid>
                                <effecttype>audiopan</effecttype>
                                <mediatype>audio</mediatype>
                                <effectcategory>audiopan</effectcategory>
                                <parameter>
                                    <name>Pan</name>
                                    <parameterid>pan</parameterid>
                                    <value>0</value>
                                    <valuemin>-1</valuemin>
                                    <valuemax>1</valuemax>
                                </parameter>
                            </effect>
                        </filter>
                        <link>
                            <linkclipref>SecondScenePark.2.7.Apple.Take1.R3D 0</linkclipref>
                            <mediatype>video</mediatype>
                        </link>
                        <link>
                            <linkclipref>SecondScenePark.2.7.Apple.Take1.R3D 3</linkclipref>
                        </link>
                        <comments/>
                    </clipitem>
                    <clipitem id="SecondScenePark.2.7.Take2.R3D 3">
                        <name>SecondScenePark.2.7.Take2.R3D</name>
                        <duration>920</duration>
                        <rate>
                            <timebase>24</timebase>
                            <ntsc>TRUE</ntsc>
                        </rate>
                        <start>18078</start>
                        <end>18998</end>
                        <enabled>TRUE</enabled>
                        <in>0</in>
                        <out>920</out>
                        <file id="SecondScenePark.2.7.Take2.R3D 2"/>
                        <sourcetrack>
                            <mediatype>audio</mediatype>
                            <trackindex>1</trackindex>
                        </sourcetrack>
                        <filter>
                            <enabled>TRUE</enabled>
                            <start>0</start>
                            <end>920</end>
                            <effect>
                                <name>Audio Levels</name>
                                <effectid>audiolevels</effectid>
                                <effecttype>audiolevels</effecttype>
                                <mediatype>audio</mediatype>
                                <effectcategory>audiolevels</effectcategory>
                                <parameter>
                                    <name>Level</name>
                                    <parameterid>level</parameterid>
                                    <value>1</value>
                                    <valuemin>1e-05</valuemin>
                                    <valuemax>31.6228</valuemax>
                                </parameter>
                            </effect>
                        </filter>
                        <filter>
                            <enabled>TRUE</enabled>
                            <start>0</start>
                            <end>920</end>
                            <effect>
                                <name>Audio Pan</name>
                                <effectid>audiopan</effectid>
                                <effecttype>audiopan</effecttype>
                                <mediatype>audio</mediatype>
                                <effectcategory>audiopan</effectcategory>
                                <parameter>
                                    <name>Pan</name>
                                    <parameterid>pan</parameterid>
                                    <value>0</value>
                                    <valuemin>-1</valuemin>
                                    <valuemax>1</valuemax>
                                </parameter>
                            </effect>
                        </filter>
                        <link>
                            <linkclipref>SecondScenePark.2.7.Take2.R3D 0</linkclipref>
                            <mediatype>video</mediatype>
                        </link>
                        <link>
                            <linkclipref>SecondScenePark.2.7.Take2.R3D 3</linkclipref>
                        </link>
                        <comments/>
                    </clipitem>
                    <clipitem id="SecondScenePark.2.7.Take3.R3D 3">
                        <name>SecondScenePark.2.7.Take3.R3D</name>
                        <duration>1044</duration>
                        <rate>
                            <timebase>24</timebase>
                            <ntsc>TRUE</ntsc>
                        </rate>
                        <start>18998</start>
                        <end>20042</end>
                        <enabled>TRUE</enabled>
                        <in>0</in>
                        <out>1044</out>
                        <file id="SecondScenePark.2.7.Take3.R3D 2"/>
                        <sourcetrack>
                            <mediatype>audio</mediatype>
                            <trackindex>1</trackindex>
                        </sourcetrack>
                        <filter>
                            <enabled>TRUE</enabled>
                            <start>0</start>
                            <end>1044</end>
                            <effect>
                                <name>Audio Levels</name>
                                <effectid>audiolevels</effectid>
                                <effecttype>audiolevels</effecttype>
                                <mediatype>audio</mediatype>
                                <effectcategory>audiolevels</effectcategory>
                                <parameter>
                                    <name>Level</name>
                                    <parameterid>level</parameterid>
                                    <value>1</value>
                                    <valuemin>1e-05</valuemin>
                                    <valuemax>31.6228</valuemax>
                                </parameter>
                            </effect>
                        </filter>
                        <filter>
                            <enabled>TRUE</enabled>
                            <start>0</start>
                            <end>1044</end>
                            <effect>
                                <name>Audio Pan</name>
                                <effectid>audiopan</effectid>
                                <effecttype>audiopan</effecttype>
                                <mediatype>audio</mediatype>
                                <effectcategory>audiopan</effectcategory>
                                <parameter>
                                    <name>Pan</name>
                                    <parameterid>pan</parameterid>
                                    <value>0</value>
                                    <valuemin>-1</valuemin>
                                    <valuemax>1</valuemax>
                                </parameter>
                            </effect>
                        </filter>
                        <link>
                            <linkclipref>SecondScenePark.2.7.Take3.R3D 0</linkclipref>
                            <mediatype>video</mediatype>
                        </link>
                        <link>
                            <linkclipref>SecondScenePark.2.7.Take3.R3D 3</linkclipref>
                        </link>
                        <comments/>
                    </clipitem>
                    <clipitem id="SecondScenePark.3.1.Take1.R3D 3">
                        <name>SecondScenePark.3.1.Take1.R3D</name>
                        <duration>1136</duration>
                        <rate>
                            <timebase>24</timebase>
                            <ntsc>TRUE</ntsc>
                        </rate>
                        <start>20042</start>
                        <end>21178</end>
                        <enabled>TRUE</enabled>
                        <in>0</in>
                        <out>1136</out>
                        <file id="SecondScenePark.3.1.Take1.R3D 2"/>
                        <sourcetrack>
                            <mediatype>audio</mediatype>
                            <trackindex>1</trackindex>
                        </sourcetrack>
                        <filter>
                            <enabled>TRUE</enabled>
                            <start>0</start>
                            <end>1136</end>
                            <effect>
                                <name>Audio Levels</name>
                                <effectid>audiolevels</effectid>
                                <effecttype>audiolevels</effecttype>
                                <mediatype>audio</mediatype>
                                <effectcategory>audiolevels</effectcategory>
                                <parameter>
                                    <name>Level</name>
                                    <parameterid>level</parameterid>
                                    <value>1</value>
                                    <valuemin>1e-05</valuemin>
                                    <valuemax>31.6228</valuemax>
                                </parameter>
                            </effect>
                        </filter>
                        <filter>
                            <enabled>TRUE</enabled>
                            <start>0</start>
                            <end>1136</end>
                            <effect>
                                <name>Audio Pan</name>
                                <effectid>audiopan</effectid>
                                <effecttype>audiopan</effecttype>
                                <mediatype>audio</mediatype>
                                <effectcategory>audiopan</effectcategory>
                                <parameter>
                                    <name>Pan</name>
                                    <parameterid>pan</parameterid>
                                    <value>0</value>
                                    <valuemin>-1</valuemin>
                                    <valuemax>1</valuemax>
                                </parameter>
                            </effect>
                        </filter>
                        <link>
                            <linkclipref>SecondScenePark.3.1.Take1.R3D 0</linkclipref>
                            <mediatype>video</mediatype>
                        </link>
                        <link>
                            <linkclipref>SecondScenePark.3.1.Take1.R3D 3</linkclipref>
                        </link>
                        <comments/>
                    </clipitem>
                    <clipitem id="SecondScenePark.3.1.Take2.R3D 3">
                        <name>SecondScenePark.3.1.Take2.R3D</name>
                        <duration>1328</duration>
                        <rate>
                            <timebase>24</timebase>
                            <ntsc>TRUE</ntsc>
                        </rate>
                        <start>21178</start>
                        <end>22506</end>
                        <enabled>TRUE</enabled>
                        <in>0</in>
                        <out>1328</out>
                        <file id="SecondScenePark.3.1.Take2.R3D 2"/>
                        <sourcetrack>
                            <mediatype>audio</mediatype>
                            <trackindex>1</trackindex>
                        </sourcetrack>
                        <filter>
                            <enabled>TRUE</enabled>
                            <start>0</start>
                            <end>1328</end>
                            <effect>
                                <name>Audio Levels</name>
                                <effectid>audiolevels</effectid>
                                <effecttype>audiolevels</effecttype>
                                <mediatype>audio</mediatype>
                                <effectcategory>audiolevels</effectcategory>
                                <parameter>
                                    <name>Level</name>
                                    <parameterid>level</parameterid>
                                    <value>1</value>
                                    <valuemin>1e-05</valuemin>
                                    <valuemax>31.6228</valuemax>
                                </parameter>
                            </effect>
                        </filter>
                        <filter>
                            <enabled>TRUE</enabled>
                            <start>0</start>
                            <end>1328</end>
                            <effect>
                                <name>Audio Pan</name>
                                <effectid>audiopan</effectid>
                                <effecttype>audiopan</effecttype>
                                <mediatype>audio</mediatype>
                                <effectcategory>audiopan</effectcategory>
                                <parameter>
                                    <name>Pan</name>
                                    <parameterid>pan</parameterid>
                                    <value>0</value>
                                    <valuemin>-1</valuemin>
                                    <valuemax>1</valuemax>
                                </parameter>
                            </effect>
                        </filter>
                        <link>
                            <linkclipref>SecondScenePark.3.1.Take2.R3D 0</linkclipref>
                            <mediatype>video</mediatype>
                        </link>
                        <link>
                            <linkclipref>SecondScenePark.3.1.Take2.R3D 3</linkclipref>
                        </link>
                        <comments/>
                    </clipitem>
                    <clipitem id="SecondScenePark.3.2.Apple.Take1.R3D 3">
                        <name>SecondScenePark.3.2.Apple.Take1.R3D</name>
                        <duration>1370</duration>
                        <rate>
                            <timebase>24</timebase>
                            <ntsc>TRUE</ntsc>
                        </rate>
                        <start>22506</start>
                        <end>23876</end>
                        <enabled>TRUE</enabled>
                        <in>0</in>
                        <out>1370</out>
                        <file id="SecondScenePark.3.2.Apple.Take1.R3D 2"/>
                        <sourcetrack>
                            <mediatype>audio</mediatype>
                            <trackindex>1</trackindex>
                        </sourcetrack>
                        <filter>
                            <enabled>TRUE</enabled>
                            <start>0</start>
                            <end>1370</end>
                            <effect>
                                <name>Audio Levels</name>
                                <effectid>audiolevels</effectid>
                                <effecttype>audiolevels</effecttype>
                                <mediatype>audio</mediatype>
                                <effectcategory>audiolevels</effectcategory>
                                <parameter>
                                    <name>Level</name>
                                    <parameterid>level</parameterid>
                                    <value>1</value>
                                    <valuemin>1e-05</valuemin>
                                    <valuemax>31.6228</valuemax>
                                </parameter>
                            </effect>
                        </filter>
                        <filter>
                            <enabled>TRUE</enabled>
                            <start>0</start>
                            <end>1370</end>
                            <effect>
                                <name>Audio Pan</name>
                                <effectid>audiopan</effectid>
                                <effecttype>audiopan</effecttype>
                                <mediatype>audio</mediatype>
                                <effectcategory>audiopan</effectcategory>
                                <parameter>
                                    <name>Pan</name>
                                    <parameterid>pan</parameterid>
                                    <value>0</value>
                                    <valuemin>-1</valuemin>
                                    <valuemax>1</valuemax>
                                </parameter>
                            </effect>
                        </filter>
                        <link>
                            <linkclipref>SecondScenePark.3.2.Apple.Take1.R3D 0</linkclipref>
                            <mediatype>video</mediatype>
                        </link>
                        <link>
                            <linkclipref>SecondScenePark.3.2.Apple.Take1.R3D 3</linkclipref>
                        </link>
                        <comments/>
                    </clipitem>
                    <clipitem id="SecondScenePark.3.2.Take1.R3D 3">
                        <name>SecondScenePark.3.2.Take1.R3D</name>
                        <duration>1535</duration>
                        <rate>
                            <timebase>24</timebase>
                            <ntsc>TRUE</ntsc>
                        </rate>
                        <start>23876</start>
                        <end>25411</end>
                        <enabled>TRUE</enabled>
                        <in>0</in>
                        <out>1535</out>
                        <file id="SecondScenePark.3.2.Take1.R3D 2"/>
                        <sourcetrack>
                            <mediatype>audio</mediatype>
                            <trackindex>1</trackindex>
                        </sourcetrack>
                        <filter>
                            <enabled>TRUE</enabled>
                            <start>0</start>
                            <end>1535</end>
                            <effect>
                                <name>Audio Levels</name>
                                <effectid>audiolevels</effectid>
                                <effecttype>audiolevels</effecttype>
                                <mediatype>audio</mediatype>
                                <effectcategory>audiolevels</effectcategory>
                                <parameter>
                                    <name>Level</name>
                                    <parameterid>level</parameterid>
                                    <value>1</value>
                                    <valuemin>1e-05</valuemin>
                                    <valuemax>31.6228</valuemax>
                                </parameter>
                            </effect>
                        </filter>
                        <filter>
                            <enabled>TRUE</enabled>
                            <start>0</start>
                            <end>1535</end>
                            <effect>
                                <name>Audio Pan</name>
                                <effectid>audiopan</effectid>
                                <effecttype>audiopan</effecttype>
                                <mediatype>audio</mediatype>
                                <effectcategory>audiopan</effectcategory>
                                <parameter>
                                    <name>Pan</name>
                                    <parameterid>pan</parameterid>
                                    <value>0</value>
                                    <valuemin>-1</valuemin>
                                    <valuemax>1</valuemax>
                                </parameter>
                            </effect>
                        </filter>
                        <link>
                            <linkclipref>SecondScenePark.3.2.Take1.R3D 0</linkclipref>
                            <mediatype>video</mediatype>
                        </link>
                        <link>
                            <linkclipref>SecondScenePark.3.2.Take1.R3D 3</linkclipref>
                        </link>
                        <comments/>
                    </clipitem>
                    <clipitem id="SecondScenePark.3.2.Take2.R3D 3">
                        <name>SecondScenePark.3.2.Take2.R3D</name>
                        <duration>1269</duration>
                        <rate>
                            <timebase>24</timebase>
                            <ntsc>TRUE</ntsc>
                        </rate>
                        <start>25411</start>
                        <end>26680</end>
                        <enabled>TRUE</enabled>
                        <in>0</in>
                        <out>1269</out>
                        <file id="SecondScenePark.3.2.Take2.R3D 2"/>
                        <sourcetrack>
                            <mediatype>audio</mediatype>
                            <trackindex>1</trackindex>
                        </sourcetrack>
                        <filter>
                            <enabled>TRUE</enabled>
                            <start>0</start>
                            <end>1269</end>
                            <effect>
                                <name>Audio Levels</name>
                                <effectid>audiolevels</effectid>
                                <effecttype>audiolevels</effecttype>
                                <mediatype>audio</mediatype>
                                <effectcategory>audiolevels</effectcategory>
                                <parameter>
                                    <name>Level</name>
                                    <parameterid>level</parameterid>
                                    <value>1</value>
                                    <valuemin>1e-05</valuemin>
                                    <valuemax>31.6228</valuemax>
                                </parameter>
                            </effect>
                        </filter>
                        <filter>
                            <enabled>TRUE</enabled>
                            <start>0</start>
                            <end>1269</end>
                            <effect>
                                <name>Audio Pan</name>
                                <effectid>audiopan</effectid>
                                <effecttype>audiopan</effecttype>
                                <mediatype>audio</mediatype>
                                <effectcategory>audiopan</effectcategory>
                                <parameter>
                                    <name>Pan</name>
                                    <parameterid>pan</parameterid>
                                    <value>0</value>
                                    <valuemin>-1</valuemin>
                                    <valuemax>1</valuemax>
                                </parameter>
                            </effect>
                        </filter>
                        <link>
                            <linkclipref>SecondScenePark.3.2.Take2.R3D 0</linkclipref>
                            <mediatype>video</mediatype>
                        </link>
                        <link>
                            <linkclipref>SecondScenePark.3.2.Take2.R3D 3</linkclipref>
                        </link>
                        <comments/>
                    </clipitem>
                    <clipitem id="SecondScenePark.3.2.Take3.R3D 3">
                        <name>SecondScenePark.3.2.Take3.R3D</name>
                        <duration>1576</duration>
                        <rate>
                            <timebase>24</timebase>
                            <ntsc>TRUE</ntsc>
                        </rate>
                        <start>26680</start>
                        <end>28256</end>
                        <enabled>TRUE</enabled>
                        <in>0</in>
                        <out>1576</out>
                        <file id="SecondScenePark.3.2.Take3.R3D 2"/>
                        <sourcetrack>
                            <mediatype>audio</mediatype>
                            <trackindex>1</trackindex>
                        </sourcetrack>
                        <filter>
                            <enabled>TRUE</enabled>
                            <start>0</start>
                            <end>1576</end>
                            <effect>
                                <name>Audio Levels</name>
                                <effectid>audiolevels</effectid>
                                <effecttype>audiolevels</effecttype>
                                <mediatype>audio</mediatype>
                                <effectcategory>audiolevels</effectcategory>
                                <parameter>
                                    <name>Level</name>
                                    <parameterid>level</parameterid>
                                    <value>1</value>
                                    <valuemin>1e-05</valuemin>
                                    <valuemax>31.6228</valuemax>
                                </parameter>
                            </effect>
                        </filter>
                        <filter>
                            <enabled>TRUE</enabled>
                            <start>0</start>
                            <end>1576</end>
                            <effect>
                                <name>Audio Pan</name>
                                <effectid>audiopan</effectid>
                                <effecttype>audiopan</effecttype>
                                <mediatype>audio</mediatype>
                                <effectcategory>audiopan</effectcategory>
                                <parameter>
                                    <name>Pan</name>
                                    <parameterid>pan</parameterid>
                                    <value>0</value>
                                    <valuemin>-1</valuemin>
                                    <valuemax>1</valuemax>
                                </parameter>
                            </effect>
                        </filter>
                        <link>
                            <linkclipref>SecondScenePark.3.2.Take3.R3D 0</linkclipref>
                            <mediatype>video</mediatype>
                        </link>
                        <link>
                            <linkclipref>SecondScenePark.3.2.Take3.R3D 3</linkclipref>
                        </link>
                        <comments/>
                    </clipitem>
                    <clipitem id="SecondScenePark.3.2.Banana.Take1.R3D 3">
                        <name>SecondScenePark.3.2.Banana.Take1.R3D</name>
                        <duration>1174</duration>
                        <rate>
                            <timebase>24</timebase>
                            <ntsc>TRUE</ntsc>
                        </rate>
                        <start>28256</start>
                        <end>29430</end>
                        <enabled>TRUE</enabled>
                        <in>0</in>
                        <out>1174</out>
                        <file id="SecondScenePark.3.2.Banana.Take1.R3D 2"/>
                        <sourcetrack>
                            <mediatype>audio</mediatype>
                            <trackindex>1</trackindex>
                        </sourcetrack>
                        <filter>
                            <enabled>TRUE</enabled>
                            <start>0</start>
                            <end>1174</end>
                            <effect>
                                <name>Audio Levels</name>
                                <effectid>audiolevels</effectid>
                                <effecttype>audiolevels</effecttype>
                                <mediatype>audio</mediatype>
                                <effectcategory>audiolevels</effectcategory>
                                <parameter>
                                    <name>Level</name>
                                    <parameterid>level</parameterid>
                                    <value>1</value>
                                    <valuemin>1e-05</valuemin>
                                    <valuemax>31.6228</valuemax>
                                </parameter>
                            </effect>
                        </filter>
                        <filter>
                            <enabled>TRUE</enabled>
                            <start>0</start>
                            <end>1174</end>
                            <effect>
                                <name>Audio Pan</name>
                                <effectid>audiopan</effectid>
                                <effecttype>audiopan</effecttype>
                                <mediatype>audio</mediatype>
                                <effectcategory>audiopan</effectcategory>
                                <parameter>
                                    <name>Pan</name>
                                    <parameterid>pan</parameterid>
                                    <value>0</value>
                                    <valuemin>-1</valuemin>
                                    <valuemax>1</valuemax>
                                </parameter>
                            </effect>
                        </filter>
                        <link>
                            <linkclipref>SecondScenePark.3.2.Banana.Take1.R3D 0</linkclipref>
                            <mediatype>video</mediatype>
                        </link>
                        <link>
                            <linkclipref>SecondScenePark.3.2.Banana.Take1.R3D 3</linkclipref>
                        </link>
                        <comments/>
                    </clipitem>
                    <clipitem id="SecondScenePark.3.2.Banana.Take2.R3D 3">
                        <name>SecondScenePark.3.2.Banana.Take2.R3D</name>
                        <duration>800</duration>
                        <rate>
                            <timebase>24</timebase>
                            <ntsc>TRUE</ntsc>
                        </rate>
                        <start>29430</start>
                        <end>30230</end>
                        <enabled>TRUE</enabled>
                        <in>0</in>
                        <out>800</out>
                        <file id="SecondScenePark.3.2.Banana.Take2.R3D 2"/>
                        <sourcetrack>
                            <mediatype>audio</mediatype>
                            <trackindex>1</trackindex>
                        </sourcetrack>
                        <filter>
                            <enabled>TRUE</enabled>
                            <start>0</start>
                            <end>800</end>
                            <effect>
                                <name>Audio Levels</name>
                                <effectid>audiolevels</effectid>
                                <effecttype>audiolevels</effecttype>
                                <mediatype>audio</mediatype>
                                <effectcategory>audiolevels</effectcategory>
                                <parameter>
                                    <name>Level</name>
                                    <parameterid>level</parameterid>
                                    <value>1</value>
                                    <valuemin>1e-05</valuemin>
                                    <valuemax>31.6228</valuemax>
                                </parameter>
                            </effect>
                        </filter>
                        <filter>
                            <enabled>TRUE</enabled>
                            <start>0</start>
                            <end>800</end>
                            <effect>
                                <name>Audio Pan</name>
                                <effectid>audiopan</effectid>
                                <effecttype>audiopan</effecttype>
                                <mediatype>audio</mediatype>
                                <effectcategory>audiopan</effectcategory>
                                <parameter>
                                    <name>Pan</name>
                                    <parameterid>pan</parameterid>
                                    <value>0</value>
                                    <valuemin>-1</valuemin>
                                    <valuemax>1</valuemax>
                                </parameter>
                            </effect>
                        </filter>
                        <link>
                            <linkclipref>SecondScenePark.3.2.Banana.Take2.R3D 0</linkclipref>
                            <mediatype>video</mediatype>
                        </link>
                        <link>
                            <linkclipref>SecondScenePark.3.2.Banana.Take2.R3D 3</linkclipref>
                        </link>
                        <comments/>
                    </clipitem>
                    <clipitem id="SecondScenePark.3.4.Take1.R3D 6">
                        <name>SecondScenePark.3.4.Take1.R3D</name>
                        <duration>1294</duration>
                        <rate>
                            <timebase>24</timebase>
                            <ntsc>TRUE</ntsc>
                        </rate>
                        <start>30230</start>
                        <end>31524</end>
                        <enabled>TRUE</enabled>
                        <in>0</in>
                        <out>1294</out>
                        <file id="SecondScenePark.3.4.Take1.R3D 2"/>
                        <sourcetrack>
                            <mediatype>audio</mediatype>
                            <trackindex>1</trackindex>
                        </sourcetrack>
                        <filter>
                            <enabled>TRUE</enabled>
                            <start>0</start>
                            <end>1294</end>
                            <effect>
                                <name>Audio Levels</name>
                                <effectid>audiolevels</effectid>
                                <effecttype>audiolevels</effecttype>
                                <mediatype>audio</mediatype>
                                <effectcategory>audiolevels</effectcategory>
                                <parameter>
                                    <name>Level</name>
                                    <parameterid>level</parameterid>
                                    <value>1</value>
                                    <valuemin>1e-05</valuemin>
                                    <valuemax>31.6228</valuemax>
                                </parameter>
                            </effect>
                        </filter>
                        <filter>
                            <enabled>TRUE</enabled>
                            <start>0</start>
                            <end>1294</end>
                            <effect>
                                <name>Audio Pan</name>
                                <effectid>audiopan</effectid>
                                <effecttype>audiopan</effecttype>
                                <mediatype>audio</mediatype>
                                <effectcategory>audiopan</effectcategory>
                                <parameter>
                                    <name>Pan</name>
                                    <parameterid>pan</parameterid>
                                    <value>0</value>
                                    <valuemin>-1</valuemin>
                                    <valuemax>1</valuemax>
                                </parameter>
                            </effect>
                        </filter>
                        <link>
                            <linkclipref>SecondScenePark.3.4.Take1.R3D 0</linkclipref>
                            <mediatype>video</mediatype>
                        </link>
                        <link>
                            <linkclipref>SecondScenePark.3.4.Take1.R3D 6</linkclipref>
                        </link>
                        <comments/>
                    </clipitem>
                    <clipitem id="SecondScenePark.3.4.Take2.R3D 3">
                        <name>SecondScenePark.3.4.Take2.R3D</name>
                        <duration>1598</duration>
                        <rate>
                            <timebase>24</timebase>
                            <ntsc>TRUE</ntsc>
                        </rate>
                        <start>31524</start>
                        <end>33122</end>
                        <enabled>TRUE</enabled>
                        <in>0</in>
                        <out>1598</out>
                        <file id="SecondScenePark.3.4.Take2.R3D 2"/>
                        <sourcetrack>
                            <mediatype>audio</mediatype>
                            <trackindex>1</trackindex>
                        </sourcetrack>
                        <filter>
                            <enabled>TRUE</enabled>
                            <start>0</start>
                            <end>1598</end>
                            <effect>
                                <name>Audio Levels</name>
                                <effectid>audiolevels</effectid>
                                <effecttype>audiolevels</effecttype>
                                <mediatype>audio</mediatype>
                                <effectcategory>audiolevels</effectcategory>
                                <parameter>
                                    <name>Level</name>
                                    <parameterid>level</parameterid>
                                    <value>1</value>
                                    <valuemin>1e-05</valuemin>
                                    <valuemax>31.6228</valuemax>
                                </parameter>
                            </effect>
                        </filter>
                        <filter>
                            <enabled>TRUE</enabled>
                            <start>0</start>
                            <end>1598</end>
                            <effect>
                                <name>Audio Pan</name>
                                <effectid>audiopan</effectid>
                                <effecttype>audiopan</effecttype>
                                <mediatype>audio</mediatype>
                                <effectcategory>audiopan</effectcategory>
                                <parameter>
                                    <name>Pan</name>
                                    <parameterid>pan</parameterid>
                                    <value>0</value>
                                    <valuemin>-1</valuemin>
                                    <valuemax>1</valuemax>
                                </parameter>
                            </effect>
                        </filter>
                        <link>
                            <linkclipref>SecondScenePark.3.4.Take2.R3D 0</linkclipref>
                            <mediatype>video</mediatype>
                        </link>
                        <link>
                            <linkclipref>SecondScenePark.3.4.Take2.R3D 3</linkclipref>
                        </link>
                        <comments/>
                    </clipitem>
                    <clipitem id="SecondScenePark.3.4.Take1.R3D 7">
                        <name>SecondScenePark.3.4.Take1.R3D</name>
                        <duration>246</duration>
                        <rate>
                            <timebase>24</timebase>
                            <ntsc>TRUE</ntsc>
                        </rate>
                        <start>33122</start>
                        <end>33368</end>
                        <enabled>TRUE</enabled>
                        <in>0</in>
                        <out>246</out>
                        <file id="SecondScenePark.3.4.Take1.R3D 5"/>
                        <sourcetrack>
                            <mediatype>audio</mediatype>
                            <trackindex>1</trackindex>
                        </sourcetrack>
                        <filter>
                            <enabled>TRUE</enabled>
                            <start>0</start>
                            <end>246</end>
                            <effect>
                                <name>Audio Levels</name>
                                <effectid>audiolevels</effectid>
                                <effecttype>audiolevels</effecttype>
                                <mediatype>audio</mediatype>
                                <effectcategory>audiolevels</effectcategory>
                                <parameter>
                                    <name>Level</name>
                                    <parameterid>level</parameterid>
                                    <value>1</value>
                                    <valuemin>1e-05</valuemin>
                                    <valuemax>31.6228</valuemax>
                                </parameter>
                            </effect>
                        </filter>
                        <filter>
                            <enabled>TRUE</enabled>
                            <start>0</start>
                            <end>246</end>
                            <effect>
                                <name>Audio Pan</name>
                                <effectid>audiopan</effectid>
                                <effecttype>audiopan</effecttype>
                                <mediatype>audio</mediatype>
                                <effectcategory>audiopan</effectcategory>
                                <parameter>
                                    <name>Pan</name>
                                    <parameterid>pan</parameterid>
                                    <value>0</value>
                                    <valuemin>-1</valuemin>
                                    <valuemax>1</valuemax>
                                </parameter>
                            </effect>
                        </filter>
                        <link>
                            <linkclipref>SecondScenePark.3.4.Take1.R3D 3</linkclipref>
                            <mediatype>video</mediatype>
                        </link>
                        <link>
                            <linkclipref>SecondScenePark.3.4.Take1.R3D 7</linkclipref>
                        </link>
                        <comments/>
                    </clipitem>
                    <clipitem id="SecondScenePark.3.5.Apple.Take1.R3D 3">
                        <name>SecondScenePark.3.5.Apple.Take1.R3D</name>
                        <duration>856</duration>
                        <rate>
                            <timebase>24</timebase>
                            <ntsc>TRUE</ntsc>
                        </rate>
                        <start>33368</start>
                        <end>34224</end>
                        <enabled>TRUE</enabled>
                        <in>0</in>
                        <out>856</out>
                        <file id="SecondScenePark.3.5.Apple.Take1.R3D 2"/>
                        <sourcetrack>
                            <mediatype>audio</mediatype>
                            <trackindex>1</trackindex>
                        </sourcetrack>
                        <filter>
                            <enabled>TRUE</enabled>
                            <start>0</start>
                            <end>856</end>
                            <effect>
                                <name>Audio Levels</name>
                                <effectid>audiolevels</effectid>
                                <effecttype>audiolevels</effecttype>
                                <mediatype>audio</mediatype>
                                <effectcategory>audiolevels</effectcategory>
                                <parameter>
                                    <name>Level</name>
                                    <parameterid>level</parameterid>
                                    <value>1</value>
                                    <valuemin>1e-05</valuemin>
                                    <valuemax>31.6228</valuemax>
                                </parameter>
                            </effect>
                        </filter>
                        <filter>
                            <enabled>TRUE</enabled>
                            <start>0</start>
                            <end>856</end>
                            <effect>
                                <name>Audio Pan</name>
                                <effectid>audiopan</effectid>
                                <effecttype>audiopan</effecttype>
                                <mediatype>audio</mediatype>
                                <effectcategory>audiopan</effectcategory>
                                <parameter>
                                    <name>Pan</name>
                                    <parameterid>pan</parameterid>
                                    <value>0</value>
                                    <valuemin>-1</valuemin>
                                    <valuemax>1</valuemax>
                                </parameter>
                            </effect>
                        </filter>
                        <link>
                            <linkclipref>SecondScenePark.3.5.Apple.Take1.R3D 0</linkclipref>
                            <mediatype>video</mediatype>
                        </link>
                        <link>
                            <linkclipref>SecondScenePark.3.5.Apple.Take1.R3D 3</linkclipref>
                        </link>
                        <comments/>
                    </clipitem>
                    <clipitem id="SecondScenePark.3.5.Banana.Take1.R3D 3">
                        <name>SecondScenePark.3.5.Banana.Take1.R3D</name>
                        <duration>834</duration>
                        <rate>
                            <timebase>24</timebase>
                            <ntsc>TRUE</ntsc>
                        </rate>
                        <start>34224</start>
                        <end>35058</end>
                        <enabled>TRUE</enabled>
                        <in>0</in>
                        <out>834</out>
                        <file id="SecondScenePark.3.5.Banana.Take1.R3D 2"/>
                        <sourcetrack>
                            <mediatype>audio</mediatype>
                            <trackindex>1</trackindex>
                        </sourcetrack>
                        <filter>
                            <enabled>TRUE</enabled>
                            <start>0</start>
                            <end>834</end>
                            <effect>
                                <name>Audio Levels</name>
                                <effectid>audiolevels</effectid>
                                <effecttype>audiolevels</effecttype>
                                <mediatype>audio</mediatype>
                                <effectcategory>audiolevels</effectcategory>
                                <parameter>
                                    <name>Level</name>
                                    <parameterid>level</parameterid>
                                    <value>1</value>
                                    <valuemin>1e-05</valuemin>
                                    <valuemax>31.6228</valuemax>
                                </parameter>
                            </effect>
                        </filter>
                        <filter>
                            <enabled>TRUE</enabled>
                            <start>0</start>
                            <end>834</end>
                            <effect>
                                <name>Audio Pan</name>
                                <effectid>audiopan</effectid>
                                <effecttype>audiopan</effecttype>
                                <mediatype>audio</mediatype>
                                <effectcategory>audiopan</effectcategory>
                                <parameter>
                                    <name>Pan</name>
                                    <parameterid>pan</parameterid>
                                    <value>0</value>
                                    <valuemin>-1</valuemin>
                                    <valuemax>1</valuemax>
                                </parameter>
                            </effect>
                        </filter>
                        <link>
                            <linkclipref>SecondScenePark.3.5.Banana.Take1.R3D 0</linkclipref>
                            <mediatype>video</mediatype>
                        </link>
                        <link>
                            <linkclipref>SecondScenePark.3.5.Banana.Take1.R3D 3</linkclipref>
                        </link>
                        <comments/>
                    </clipitem>
                    <clipitem id="SecondScenePark.3.5.Caw.ExtraEmpty.R3D 3">
                        <name>SecondScenePark.3.5.Caw.ExtraEmpty.R3D</name>
                        <duration>104</duration>
                        <rate>
                            <timebase>24</timebase>
                            <ntsc>TRUE</ntsc>
                        </rate>
                        <start>35058</start>
                        <end>35162</end>
                        <enabled>TRUE</enabled>
                        <in>0</in>
                        <out>104</out>
                        <file id="SecondScenePark.3.5.Caw.ExtraEmpty.R3D 2"/>
                        <sourcetrack>
                            <mediatype>audio</mediatype>
                            <trackindex>1</trackindex>
                        </sourcetrack>
                        <filter>
                            <enabled>TRUE</enabled>
                            <start>0</start>
                            <end>104</end>
                            <effect>
                                <name>Audio Levels</name>
                                <effectid>audiolevels</effectid>
                                <effecttype>audiolevels</effecttype>
                                <mediatype>audio</mediatype>
                                <effectcategory>audiolevels</effectcategory>
                                <parameter>
                                    <name>Level</name>
                                    <parameterid>level</parameterid>
                                    <value>1</value>
                                    <valuemin>1e-05</valuemin>
                                    <valuemax>31.6228</valuemax>
                                </parameter>
                            </effect>
                        </filter>
                        <filter>
                            <enabled>TRUE</enabled>
                            <start>0</start>
                            <end>104</end>
                            <effect>
                                <name>Audio Pan</name>
                                <effectid>audiopan</effectid>
                                <effecttype>audiopan</effecttype>
                                <mediatype>audio</mediatype>
                                <effectcategory>audiopan</effectcategory>
                                <parameter>
                                    <name>Pan</name>
                                    <parameterid>pan</parameterid>
                                    <value>0</value>
                                    <valuemin>-1</valuemin>
                                    <valuemax>1</valuemax>
                                </parameter>
                            </effect>
                        </filter>
                        <link>
                            <linkclipref>SecondScenePark.3.5.Caw.ExtraEmpty.R3D 0</linkclipref>
                            <mediatype>video</mediatype>
                        </link>
                        <link>
                            <linkclipref>SecondScenePark.3.5.Caw.ExtraEmpty.R3D 3</linkclipref>
                        </link>
                        <comments/>
                    </clipitem>
                    <clipitem id="SecondScenePark.3.5.OllieFinn.R3D 3">
                        <name>SecondScenePark.3.5.OllieFinn.R3D</name>
                        <duration>79</duration>
                        <rate>
                            <timebase>24</timebase>
                            <ntsc>TRUE</ntsc>
                        </rate>
                        <start>35186</start>
                        <end>35265</end>
                        <enabled>TRUE</enabled>
                        <in>0</in>
                        <out>79</out>
                        <file id="SecondScenePark.3.5.OllieFinn.R3D 2"/>
                        <sourcetrack>
                            <mediatype>audio</mediatype>
                            <trackindex>1</trackindex>
                        </sourcetrack>
                        <filter>
                            <enabled>TRUE</enabled>
                            <start>0</start>
                            <end>79</end>
                            <effect>
                                <name>Audio Levels</name>
                                <effectid>audiolevels</effectid>
                                <effecttype>audiolevels</effecttype>
                                <mediatype>audio</mediatype>
                                <effectcategory>audiolevels</effectcategory>
                                <parameter>
                                    <name>Level</name>
                                    <parameterid>level</parameterid>
                                    <value>1</value>
                                    <valuemin>1e-05</valuemin>
                                    <valuemax>31.6228</valuemax>
                                </parameter>
                            </effect>
                        </filter>
                        <filter>
                            <enabled>TRUE</enabled>
                            <start>0</start>
                            <end>79</end>
                            <effect>
                                <name>Audio Pan</name>
                                <effectid>audiopan</effectid>
                                <effecttype>audiopan</effecttype>
                                <mediatype>audio</mediatype>
                                <effectcategory>audiopan</effectcategory>
                                <parameter>
                                    <name>Pan</name>
                                    <parameterid>pan</parameterid>
                                    <value>0</value>
                                    <valuemin>-1</valuemin>
                                    <valuemax>1</valuemax>
                                </parameter>
                            </effect>
                        </filter>
                        <link>
                            <linkclipref>SecondScenePark.3.5.OllieFinn.R3D 0</linkclipref>
                            <mediatype>video</mediatype>
                        </link>
                        <link>
                            <linkclipref>SecondScenePark.3.5.OllieFinn.R3D 3</linkclipref>
                        </link>
                        <comments/>
                    </clipitem>
                    <clipitem id="SecondScenePark.3.5.Take1.R3D 3">
                        <name>SecondScenePark.3.5.Take1.R3D</name>
                        <duration>1025</duration>
                        <rate>
                            <timebase>24</timebase>
                            <ntsc>TRUE</ntsc>
                        </rate>
                        <start>35265</start>
                        <end>36290</end>
                        <enabled>TRUE</enabled>
                        <in>0</in>
                        <out>1025</out>
                        <file id="SecondScenePark.3.5.Take1.R3D 2"/>
                        <sourcetrack>
                            <mediatype>audio</mediatype>
                            <trackindex>1</trackindex>
                        </sourcetrack>
                        <filter>
                            <enabled>TRUE</enabled>
                            <start>0</start>
                            <end>1025</end>
                            <effect>
                                <name>Audio Levels</name>
                                <effectid>audiolevels</effectid>
                                <effecttype>audiolevels</effecttype>
                                <mediatype>audio</mediatype>
                                <effectcategory>audiolevels</effectcategory>
                                <parameter>
                                    <name>Level</name>
                                    <parameterid>level</parameterid>
                                    <value>1</value>
                                    <valuemin>1e-05</valuemin>
                                    <valuemax>31.6228</valuemax>
                                </parameter>
                            </effect>
                        </filter>
                        <filter>
                            <enabled>TRUE</enabled>
                            <start>0</start>
                            <end>1025</end>
                            <effect>
                                <name>Audio Pan</name>
                                <effectid>audiopan</effectid>
                                <effecttype>audiopan</effecttype>
                                <mediatype>audio</mediatype>
                                <effectcategory>audiopan</effectcategory>
                                <parameter>
                                    <name>Pan</name>
                                    <parameterid>pan</parameterid>
                                    <value>0</value>
                                    <valuemin>-1</valuemin>
                                    <valuemax>1</valuemax>
                                </parameter>
                            </effect>
                        </filter>
                        <link>
                            <linkclipref>SecondScenePark.3.5.Take1.R3D 0</linkclipref>
                            <mediatype>video</mediatype>
                        </link>
                        <link>
                            <linkclipref>SecondScenePark.3.5.Take1.R3D 3</linkclipref>
                        </link>
                        <comments/>
                    </clipitem>
                    <clipitem id="SecondScenePark.3.5.Take2.R3D 3">
                        <name>SecondScenePark.3.5.Take2.R3D</name>
                        <duration>1055</duration>
                        <rate>
                            <timebase>24</timebase>
                            <ntsc>TRUE</ntsc>
                        </rate>
                        <start>36290</start>
                        <end>37345</end>
                        <enabled>TRUE</enabled>
                        <in>0</in>
                        <out>1055</out>
                        <file id="SecondScenePark.3.5.Take2.R3D 2"/>
                        <sourcetrack>
                            <mediatype>audio</mediatype>
                            <trackindex>1</trackindex>
                        </sourcetrack>
                        <filter>
                            <enabled>TRUE</enabled>
                            <start>0</start>
                            <end>1055</end>
                            <effect>
                                <name>Audio Levels</name>
                                <effectid>audiolevels</effectid>
                                <effecttype>audiolevels</effecttype>
                                <mediatype>audio</mediatype>
                                <effectcategory>audiolevels</effectcategory>
                                <parameter>
                                    <name>Level</name>
                                    <parameterid>level</parameterid>
                                    <value>1</value>
                                    <valuemin>1e-05</valuemin>
                                    <valuemax>31.6228</valuemax>
                                </parameter>
                            </effect>
                        </filter>
                        <filter>
                            <enabled>TRUE</enabled>
                            <start>0</start>
                            <end>1055</end>
                            <effect>
                                <name>Audio Pan</name>
                                <effectid>audiopan</effectid>
                                <effecttype>audiopan</effecttype>
                                <mediatype>audio</mediatype>
                                <effectcategory>audiopan</effectcategory>
                                <parameter>
                                    <name>Pan</name>
                                    <parameterid>pan</parameterid>
                                    <value>0</value>
                                    <valuemin>-1</valuemin>
                                    <valuemax>1</valuemax>
                                </parameter>
                            </effect>
                        </filter>
                        <link>
                            <linkclipref>SecondScenePark.3.5.Take2.R3D 0</linkclipref>
                            <mediatype>video</mediatype>
                        </link>
                        <link>
                            <linkclipref>SecondScenePark.3.5.Take2.R3D 3</linkclipref>
                        </link>
                        <comments/>
                    </clipitem>
                    <clipitem id="SecondScenePark.3.5.Caw.Take1.R3D 3">
                        <name>SecondScenePark.3.5.Caw.Take1.R3D</name>
                        <duration>484</duration>
                        <rate>
                            <timebase>24</timebase>
                            <ntsc>TRUE</ntsc>
                        </rate>
                        <start>37345</start>
                        <end>37829</end>
                        <enabled>TRUE</enabled>
                        <in>0</in>
                        <out>484</out>
                        <file id="SecondScenePark.3.5.Caw.Take1.R3D 2"/>
                        <sourcetrack>
                            <mediatype>audio</mediatype>
                            <trackindex>1</trackindex>
                        </sourcetrack>
                        <filter>
                            <enabled>TRUE</enabled>
                            <start>0</start>
                            <end>484</end>
                            <effect>
                                <name>Audio Levels</name>
                                <effectid>audiolevels</effectid>
                                <effecttype>audiolevels</effecttype>
                                <mediatype>audio</mediatype>
                                <effectcategory>audiolevels</effectcategory>
                                <parameter>
                                    <name>Level</name>
                                    <parameterid>level</parameterid>
                                    <value>1</value>
                                    <valuemin>1e-05</valuemin>
                                    <valuemax>31.6228</valuemax>
                                </parameter>
                            </effect>
                        </filter>
                        <filter>
                            <enabled>TRUE</enabled>
                            <start>0</start>
                            <end>484</end>
                            <effect>
                                <name>Audio Pan</name>
                                <effectid>audiopan</effectid>
                                <effecttype>audiopan</effecttype>
                                <mediatype>audio</mediatype>
                                <effectcategory>audiopan</effectcategory>
                                <parameter>
                                    <name>Pan</name>
                                    <parameterid>pan</parameterid>
                                    <value>0</value>
                                    <valuemin>-1</valuemin>
                                    <valuemax>1</valuemax>
                                </parameter>
                            </effect>
                        </filter>
                        <link>
                            <linkclipref>SecondScenePark.3.5.Caw.Take1.R3D 0</linkclipref>
                            <mediatype>video</mediatype>
                        </link>
                        <link>
                            <linkclipref>SecondScenePark.3.5.Caw.Take1.R3D 3</linkclipref>
                        </link>
                        <comments/>
                    </clipitem>
                    <clipitem id="SecondScenePark.3.5.Caw.Take2.R3D 3">
                        <name>SecondScenePark.3.5.Caw.Take2.R3D</name>
                        <duration>625</duration>
                        <rate>
                            <timebase>24</timebase>
                            <ntsc>TRUE</ntsc>
                        </rate>
                        <start>37829</start>
                        <end>38454</end>
                        <enabled>TRUE</enabled>
                        <in>0</in>
                        <out>625</out>
                        <file id="SecondScenePark.3.5.Caw.Take2.R3D 2"/>
                        <sourcetrack>
                            <mediatype>audio</mediatype>
                            <trackindex>1</trackindex>
                        </sourcetrack>
                        <filter>
                            <enabled>TRUE</enabled>
                            <start>0</start>
                            <end>625</end>
                            <effect>
                                <name>Audio Levels</name>
                                <effectid>audiolevels</effectid>
                                <effecttype>audiolevels</effecttype>
                                <mediatype>audio</mediatype>
                                <effectcategory>audiolevels</effectcategory>
                                <parameter>
                                    <name>Level</name>
                                    <parameterid>level</parameterid>
                                    <value>1</value>
                                    <valuemin>1e-05</valuemin>
                                    <valuemax>31.6228</valuemax>
                                </parameter>
                            </effect>
                        </filter>
                        <filter>
                            <enabled>TRUE</enabled>
                            <start>0</start>
                            <end>625</end>
                            <effect>
                                <name>Audio Pan</name>
                                <effectid>audiopan</effectid>
                                <effecttype>audiopan</effecttype>
                                <mediatype>audio</mediatype>
                                <effectcategory>audiopan</effectcategory>
                                <parameter>
                                    <name>Pan</name>
                                    <parameterid>pan</parameterid>
                                    <value>0</value>
                                    <valuemin>-1</valuemin>
                                    <valuemax>1</valuemax>
                                </parameter>
                            </effect>
                        </filter>
                        <link>
                            <linkclipref>SecondScenePark.3.5.Caw.Take2.R3D 0</linkclipref>
                            <mediatype>video</mediatype>
                        </link>
                        <link>
                            <linkclipref>SecondScenePark.3.5.Caw.Take2.R3D 3</linkclipref>
                        </link>
                        <comments/>
                    </clipitem>
                    <clipitem id="SecondScenePark.3.5.Date.Take1.R3D 3">
                        <name>SecondScenePark.3.5.Date.Take1.R3D</name>
                        <duration>289</duration>
                        <rate>
                            <timebase>24</timebase>
                            <ntsc>TRUE</ntsc>
                        </rate>
                        <start>38454</start>
                        <end>38743</end>
                        <enabled>TRUE</enabled>
                        <in>0</in>
                        <out>289</out>
                        <file id="SecondScenePark.3.5.Date.Take1.R3D 2"/>
                        <sourcetrack>
                            <mediatype>audio</mediatype>
                            <trackindex>1</trackindex>
                        </sourcetrack>
                        <filter>
                            <enabled>TRUE</enabled>
                            <start>0</start>
                            <end>289</end>
                            <effect>
                                <name>Audio Levels</name>
                                <effectid>audiolevels</effectid>
                                <effecttype>audiolevels</effecttype>
                                <mediatype>audio</mediatype>
                                <effectcategory>audiolevels</effectcategory>
                                <parameter>
                                    <name>Level</name>
                                    <parameterid>level</parameterid>
                                    <value>1</value>
                                    <valuemin>1e-05</valuemin>
                                    <valuemax>31.6228</valuemax>
                                </parameter>
                            </effect>
                        </filter>
                        <filter>
                            <enabled>TRUE</enabled>
                            <start>0</start>
                            <end>289</end>
                            <effect>
                                <name>Audio Pan</name>
                                <effectid>audiopan</effectid>
                                <effecttype>audiopan</effecttype>
                                <mediatype>audio</mediatype>
                                <effectcategory>audiopan</effectcategory>
                                <parameter>
                                    <name>Pan</name>
                                    <parameterid>pan</parameterid>
                                    <value>0</value>
                                    <valuemin>-1</valuemin>
                                    <valuemax>1</valuemax>
                                </parameter>
                            </effect>
                        </filter>
                        <link>
                            <linkclipref>SecondScenePark.3.5.Date.Take1.R3D 0</linkclipref>
                            <mediatype>video</mediatype>
                        </link>
                        <link>
                            <linkclipref>SecondScenePark.3.5.Date.Take1.R3D 3</linkclipref>
                        </link>
                        <comments/>
                    </clipitem>
                    <clipitem id="SecondScenePark.3.5.Eggplant.Take1.R3D 3">
                        <name>SecondScenePark.3.5.Eggplant.Take1.R3D</name>
                        <duration>289</duration>
                        <rate>
                            <timebase>24</timebase>
                            <ntsc>TRUE</ntsc>
                        </rate>
                        <start>38743</start>
                        <end>39032</end>
                        <enabled>TRUE</enabled>
                        <in>0</in>
                        <out>289</out>
                        <file id="SecondScenePark.3.5.Eggplant.Take1.R3D 2"/>
                        <sourcetrack>
                            <mediatype>audio</mediatype>
                            <trackindex>1</trackindex>
                        </sourcetrack>
                        <filter>
                            <enabled>TRUE</enabled>
                            <start>0</start>
                            <end>289</end>
                            <effect>
                                <name>Audio Levels</name>
                                <effectid>audiolevels</effectid>
                                <effecttype>audiolevels</effecttype>
                                <mediatype>audio</mediatype>
                                <effectcategory>audiolevels</effectcategory>
                                <parameter>
                                    <name>Level</name>
                                    <parameterid>level</parameterid>
                                    <value>1</value>
                                    <valuemin>1e-05</valuemin>
                                    <valuemax>31.6228</valuemax>
                                </parameter>
                            </effect>
                        </filter>
                        <filter>
                            <enabled>TRUE</enabled>
                            <start>0</start>
                            <end>289</end>
                            <effect>
                                <name>Audio Pan</name>
                                <effectid>audiopan</effectid>
                                <effecttype>audiopan</effecttype>
                                <mediatype>audio</mediatype>
                                <effectcategory>audiopan</effectcategory>
                                <parameter>
                                    <name>Pan</name>
                                    <parameterid>pan</parameterid>
                                    <value>0</value>
                                    <valuemin>-1</valuemin>
                                    <valuemax>1</valuemax>
                                </parameter>
                            </effect>
                        </filter>
                        <link>
                            <linkclipref>SecondScenePark.3.5.Eggplant.Take1.R3D 0</linkclipref>
                            <mediatype>video</mediatype>
                        </link>
                        <link>
                            <linkclipref>SecondScenePark.3.5.Eggplant.Take1.R3D 3</linkclipref>
                        </link>
                        <comments/>
                    </clipitem>
                    <clipitem id="SecondScenePark.4.Take1.R3D 3">
                        <name>SecondScenePark.4.Take1.R3D</name>
                        <duration>635</duration>
                        <rate>
                            <timebase>24</timebase>
                            <ntsc>TRUE</ntsc>
                        </rate>
                        <start>39032</start>
                        <end>39667</end>
                        <enabled>TRUE</enabled>
                        <in>0</in>
                        <out>635</out>
                        <file id="SecondScenePark.4.Take1.R3D 2"/>
                        <sourcetrack>
                            <mediatype>audio</mediatype>
                            <trackindex>1</trackindex>
                        </sourcetrack>
                        <filter>
                            <enabled>TRUE</enabled>
                            <start>0</start>
                            <end>635</end>
                            <effect>
                                <name>Audio Levels</name>
                                <effectid>audiolevels</effectid>
                                <effecttype>audiolevels</effecttype>
                                <mediatype>audio</mediatype>
                                <effectcategory>audiolevels</effectcategory>
                                <parameter>
                                    <name>Level</name>
                                    <parameterid>level</parameterid>
                                    <value>1</value>
                                    <valuemin>1e-05</valuemin>
                                    <valuemax>31.6228</valuemax>
                                </parameter>
                            </effect>
                        </filter>
                        <filter>
                            <enabled>TRUE</enabled>
                            <start>0</start>
                            <end>635</end>
                            <effect>
                                <name>Audio Pan</name>
                                <effectid>audiopan</effectid>
                                <effecttype>audiopan</effecttype>
                                <mediatype>audio</mediatype>
                                <effectcategory>audiopan</effectcategory>
                                <parameter>
                                    <name>Pan</name>
                                    <parameterid>pan</parameterid>
                                    <value>0</value>
                                    <valuemin>-1</valuemin>
                                    <valuemax>1</valuemax>
                                </parameter>
                            </effect>
                        </filter>
                        <link>
                            <linkclipref>SecondScenePark.4.Take1.R3D 0</linkclipref>
                            <mediatype>video</mediatype>
                        </link>
                        <link>
                            <linkclipref>SecondScenePark.4.Take1.R3D 3</linkclipref>
                        </link>
                        <comments/>
                    </clipitem>
                    <clipitem id="SecondScenePark.4.Take2.R3D 3">
                        <name>SecondScenePark.4.Take2.R3D</name>
                        <duration>690</duration>
                        <rate>
                            <timebase>24</timebase>
                            <ntsc>TRUE</ntsc>
                        </rate>
                        <start>39667</start>
                        <end>40357</end>
                        <enabled>TRUE</enabled>
                        <in>0</in>
                        <out>690</out>
                        <file id="SecondScenePark.4.Take2.R3D 2"/>
                        <sourcetrack>
                            <mediatype>audio</mediatype>
                            <trackindex>1</trackindex>
                        </sourcetrack>
                        <filter>
                            <enabled>TRUE</enabled>
                            <start>0</start>
                            <end>690</end>
                            <effect>
                                <name>Audio Levels</name>
                                <effectid>audiolevels</effectid>
                                <effecttype>audiolevels</effecttype>
                                <mediatype>audio</mediatype>
                                <effectcategory>audiolevels</effectcategory>
                                <parameter>
                                    <name>Level</name>
                                    <parameterid>level</parameterid>
                                    <value>1</value>
                                    <valuemin>1e-05</valuemin>
                                    <valuemax>31.6228</valuemax>
                                </parameter>
                            </effect>
                        </filter>
                        <filter>
                            <enabled>TRUE</enabled>
                            <start>0</start>
                            <end>690</end>
                            <effect>
                                <name>Audio Pan</name>
                                <effectid>audiopan</effectid>
                                <effecttype>audiopan</effecttype>
                                <mediatype>audio</mediatype>
                                <effectcategory>audiopan</effectcategory>
                                <parameter>
                                    <name>Pan</name>
                                    <parameterid>pan</parameterid>
                                    <value>0</value>
                                    <valuemin>-1</valuemin>
                                    <valuemax>1</valuemax>
                                </parameter>
                            </effect>
                        </filter>
                        <link>
                            <linkclipref>SecondScenePark.4.Take2.R3D 0</linkclipref>
                            <mediatype>video</mediatype>
                        </link>
                        <link>
                            <linkclipref>SecondScenePark.4.Take2.R3D 3</linkclipref>
                        </link>
                        <comments/>
                    </clipitem>
                    <clipitem id="SecondScenePark.4.Take3.R3D 3">
                        <name>SecondScenePark.4.Take3.R3D</name>
                        <duration>640</duration>
                        <rate>
                            <timebase>24</timebase>
                            <ntsc>TRUE</ntsc>
                        </rate>
                        <start>40357</start>
                        <end>40997</end>
                        <enabled>TRUE</enabled>
                        <in>0</in>
                        <out>640</out>
                        <file id="SecondScenePark.4.Take3.R3D 2"/>
                        <sourcetrack>
                            <mediatype>audio</mediatype>
                            <trackindex>1</trackindex>
                        </sourcetrack>
                        <filter>
                            <enabled>TRUE</enabled>
                            <start>0</start>
                            <end>640</end>
                            <effect>
                                <name>Audio Levels</name>
                                <effectid>audiolevels</effectid>
                                <effecttype>audiolevels</effecttype>
                                <mediatype>audio</mediatype>
                                <effectcategory>audiolevels</effectcategory>
                                <parameter>
                                    <name>Level</name>
                                    <parameterid>level</parameterid>
                                    <value>1</value>
                                    <valuemin>1e-05</valuemin>
                                    <valuemax>31.6228</valuemax>
                                </parameter>
                            </effect>
                        </filter>
                        <filter>
                            <enabled>TRUE</enabled>
                            <start>0</start>
                            <end>640</end>
                            <effect>
                                <name>Audio Pan</name>
                                <effectid>audiopan</effectid>
                                <effecttype>audiopan</effecttype>
                                <mediatype>audio</mediatype>
                                <effectcategory>audiopan</effectcategory>
                                <parameter>
                                    <name>Pan</name>
                                    <parameterid>pan</parameterid>
                                    <value>0</value>
                                    <valuemin>-1</valuemin>
                                    <valuemax>1</valuemax>
                                </parameter>
                            </effect>
                        </filter>
                        <link>
                            <linkclipref>SecondScenePark.4.Take3.R3D 0</linkclipref>
                            <mediatype>video</mediatype>
                        </link>
                        <link>
                            <linkclipref>SecondScenePark.4.Take3.R3D 3</linkclipref>
                        </link>
                        <comments/>
                    </clipitem>
                    <clipitem id="SecondScenePark.4.Take4.R3D 3">
                        <name>SecondScenePark.4.Take4.R3D</name>
                        <duration>563</duration>
                        <rate>
                            <timebase>24</timebase>
                            <ntsc>TRUE</ntsc>
                        </rate>
                        <start>40997</start>
                        <end>41560</end>
                        <enabled>TRUE</enabled>
                        <in>0</in>
                        <out>563</out>
                        <file id="SecondScenePark.4.Take4.R3D 2"/>
                        <sourcetrack>
                            <mediatype>audio</mediatype>
                            <trackindex>1</trackindex>
                        </sourcetrack>
                        <filter>
                            <enabled>TRUE</enabled>
                            <start>0</start>
                            <end>563</end>
                            <effect>
                                <name>Audio Levels</name>
                                <effectid>audiolevels</effectid>
                                <effecttype>audiolevels</effecttype>
                                <mediatype>audio</mediatype>
                                <effectcategory>audiolevels</effectcategory>
                                <parameter>
                                    <name>Level</name>
                                    <parameterid>level</parameterid>
                                    <value>1</value>
                                    <valuemin>1e-05</valuemin>
                                    <valuemax>31.6228</valuemax>
                                </parameter>
                            </effect>
                        </filter>
                        <filter>
                            <enabled>TRUE</enabled>
                            <start>0</start>
                            <end>563</end>
                            <effect>
                                <name>Audio Pan</name>
                                <effectid>audiopan</effectid>
                                <effecttype>audiopan</effecttype>
                                <mediatype>audio</mediatype>
                                <effectcategory>audiopan</effectcategory>
                                <parameter>
                                    <name>Pan</name>
                                    <parameterid>pan</parameterid>
                                    <value>0</value>
                                    <valuemin>-1</valuemin>
                                    <valuemax>1</valuemax>
                                </parameter>
                            </effect>
                        </filter>
                        <link>
                            <linkclipref>SecondScenePark.4.Take4.R3D 0</linkclipref>
                            <mediatype>video</mediatype>
                        </link>
                        <link>
                            <linkclipref>SecondScenePark.4.Take4.R3D 3</linkclipref>
                        </link>
                        <comments/>
                    </clipitem>
                    <clipitem id="SecondScenePark.4.1.Take1.R3D 3">
                        <name>SecondScenePark.4.1.Take1.R3D</name>
                        <duration>750</duration>
                        <rate>
                            <timebase>24</timebase>
                            <ntsc>TRUE</ntsc>
                        </rate>
                        <start>41560</start>
                        <end>42310</end>
                        <enabled>TRUE</enabled>
                        <in>0</in>
                        <out>750</out>
                        <file id="SecondScenePark.4.1.Take1.R3D 2"/>
                        <sourcetrack>
                            <mediatype>audio</mediatype>
                            <trackindex>1</trackindex>
                        </sourcetrack>
                        <filter>
                            <enabled>TRUE</enabled>
                            <start>0</start>
                            <end>750</end>
                            <effect>
                                <name>Audio Levels</name>
                                <effectid>audiolevels</effectid>
                                <effecttype>audiolevels</effecttype>
                                <mediatype>audio</mediatype>
                                <effectcategory>audiolevels</effectcategory>
                                <parameter>
                                    <name>Level</name>
                                    <parameterid>level</parameterid>
                                    <value>1</value>
                                    <valuemin>1e-05</valuemin>
                                    <valuemax>31.6228</valuemax>
                                </parameter>
                            </effect>
                        </filter>
                        <filter>
                            <enabled>TRUE</enabled>
                            <start>0</start>
                            <end>750</end>
                            <effect>
                                <name>Audio Pan</name>
                                <effectid>audiopan</effectid>
                                <effecttype>audiopan</effecttype>
                                <mediatype>audio</mediatype>
                                <effectcategory>audiopan</effectcategory>
                                <parameter>
                                    <name>Pan</name>
                                    <parameterid>pan</parameterid>
                                    <value>0</value>
                                    <valuemin>-1</valuemin>
                                    <valuemax>1</valuemax>
                                </parameter>
                            </effect>
                        </filter>
                        <link>
                            <linkclipref>SecondScenePark.4.1.Take1.R3D 0</linkclipref>
                            <mediatype>video</mediatype>
                        </link>
                        <link>
                            <linkclipref>SecondScenePark.4.1.Take1.R3D 3</linkclipref>
                        </link>
                        <comments/>
                    </clipitem>
                    <clipitem id="SecondScenePark.4.1.Take2.R3D 3">
                        <name>SecondScenePark.4.1.Take2.R3D</name>
                        <duration>564</duration>
                        <rate>
                            <timebase>24</timebase>
                            <ntsc>TRUE</ntsc>
                        </rate>
                        <start>42310</start>
                        <end>42874</end>
                        <enabled>TRUE</enabled>
                        <in>0</in>
                        <out>564</out>
                        <file id="SecondScenePark.4.1.Take2.R3D 2"/>
                        <sourcetrack>
                            <mediatype>audio</mediatype>
                            <trackindex>1</trackindex>
                        </sourcetrack>
                        <filter>
                            <enabled>TRUE</enabled>
                            <start>0</start>
                            <end>564</end>
                            <effect>
                                <name>Audio Levels</name>
                                <effectid>audiolevels</effectid>
                                <effecttype>audiolevels</effecttype>
                                <mediatype>audio</mediatype>
                                <effectcategory>audiolevels</effectcategory>
                                <parameter>
                                    <name>Level</name>
                                    <parameterid>level</parameterid>
                                    <value>1</value>
                                    <valuemin>1e-05</valuemin>
                                    <valuemax>31.6228</valuemax>
                                </parameter>
                            </effect>
                        </filter>
                        <filter>
                            <enabled>TRUE</enabled>
                            <start>0</start>
                            <end>564</end>
                            <effect>
                                <name>Audio Pan</name>
                                <effectid>audiopan</effectid>
                                <effecttype>audiopan</effecttype>
                                <mediatype>audio</mediatype>
                                <effectcategory>audiopan</effectcategory>
                                <parameter>
                                    <name>Pan</name>
                                    <parameterid>pan</parameterid>
                                    <value>0</value>
                                    <valuemin>-1</valuemin>
                                    <valuemax>1</valuemax>
                                </parameter>
                            </effect>
                        </filter>
                        <link>
                            <linkclipref>SecondScenePark.4.1.Take2.R3D 0</linkclipref>
                            <mediatype>video</mediatype>
                        </link>
                        <link>
                            <linkclipref>SecondScenePark.4.1.Take2.R3D 3</linkclipref>
                        </link>
                        <comments/>
                    </clipitem>
                    <clipitem id="SecondScenePark.5.Take1.R3D 3">
                        <name>SecondScenePark.5.Take1.R3D</name>
                        <duration>1015</duration>
                        <rate>
                            <timebase>24</timebase>
                            <ntsc>TRUE</ntsc>
                        </rate>
                        <start>42874</start>
                        <end>43889</end>
                        <enabled>TRUE</enabled>
                        <in>0</in>
                        <out>1015</out>
                        <file id="SecondScenePark.5.Take1.R3D 2"/>
                        <sourcetrack>
                            <mediatype>audio</mediatype>
                            <trackindex>1</trackindex>
                        </sourcetrack>
                        <filter>
                            <enabled>TRUE</enabled>
                            <start>0</start>
                            <end>1015</end>
                            <effect>
                                <name>Audio Levels</name>
                                <effectid>audiolevels</effectid>
                                <effecttype>audiolevels</effecttype>
                                <mediatype>audio</mediatype>
                                <effectcategory>audiolevels</effectcategory>
                                <parameter>
                                    <name>Level</name>
                                    <parameterid>level</parameterid>
                                    <value>1</value>
                                    <valuemin>1e-05</valuemin>
                                    <valuemax>31.6228</valuemax>
                                </parameter>
                            </effect>
                        </filter>
                        <filter>
                            <enabled>TRUE</enabled>
                            <start>0</start>
                            <end>1015</end>
                            <effect>
                                <name>Audio Pan</name>
                                <effectid>audiopan</effectid>
                                <effecttype>audiopan</effecttype>
                                <mediatype>audio</mediatype>
                                <effectcategory>audiopan</effectcategory>
                                <parameter>
                                    <name>Pan</name>
                                    <parameterid>pan</parameterid>
                                    <value>0</value>
                                    <valuemin>-1</valuemin>
                                    <valuemax>1</valuemax>
                                </parameter>
                            </effect>
                        </filter>
                        <link>
                            <linkclipref>SecondScenePark.5.Take1.R3D 0</linkclipref>
                            <mediatype>video</mediatype>
                        </link>
                        <link>
                            <linkclipref>SecondScenePark.5.Take1.R3D 3</linkclipref>
                        </link>
                        <comments/>
                    </clipitem>
                    <enabled>TRUE</enabled>
                    <locked>FALSE</locked>
                </track>
                <track>
                    <clipitem id="SecondScenePark.1.Apple.Take1.WAV 3">
                        <name>SecondScenePark.1.Apple.Take1.WAV</name>
                        <duration>970</duration>
                        <rate>
                            <timebase>24</timebase>
                            <ntsc>TRUE</ntsc>
                        </rate>
                        <start>3321</start>
                        <end>3892</end>
                        <enabled>TRUE</enabled>
                        <in>0</in>
                        <out>570</out>
                        <file id="SecondScenePark.1.Apple.Take1.WAV 1"/>
                        <sourcetrack>
                            <mediatype>audio</mediatype>
                            <trackindex>2</trackindex>
                        </sourcetrack>
                        <filter>
                            <enabled>TRUE</enabled>
                            <start>0</start>
                            <end>970</end>
                            <effect>
                                <name>Audio Levels</name>
                                <effectid>audiolevels</effectid>
                                <effecttype>audiolevels</effecttype>
                                <mediatype>audio</mediatype>
                                <effectcategory>audiolevels</effectcategory>
                                <parameter>
                                    <name>Level</name>
                                    <parameterid>level</parameterid>
                                    <value>1</value>
                                    <valuemin>1e-05</valuemin>
                                    <valuemax>31.6228</valuemax>
                                </parameter>
                            </effect>
                        </filter>
                        <filter>
                            <enabled>TRUE</enabled>
                            <start>0</start>
                            <end>970</end>
                            <effect>
                                <name>Audio Pan</name>
                                <effectid>audiopan</effectid>
                                <effecttype>audiopan</effecttype>
                                <mediatype>audio</mediatype>
                                <effectcategory>audiopan</effectcategory>
                                <parameter>
                                    <name>Pan</name>
                                    <parameterid>pan</parameterid>
                                    <value>0</value>
                                    <valuemin>-1</valuemin>
                                    <valuemax>1</valuemax>
                                </parameter>
                            </effect>
                        </filter>
                        <link>
                            <linkclipref>SecondScenePark.1.Apple.Take1.WAV 0</linkclipref>
                            <mediatype>audio</mediatype>
                        </link>
                        <link>
                            <linkclipref>SecondScenePark.1.Apple.Take1.WAV 3</linkclipref>
                        </link>
                        <link>
                            <linkclipref>SecondScenePark.1.Apple.Take1.WAV 5</linkclipref>
                        </link>
                        <link>
                            <linkclipref>SecondScenePark.1.Apple.Take1.WAV 7</linkclipref>
                        </link>
                        <link>
                            <linkclipref>SecondScenePark.1.Apple.Take1.WAV 9</linkclipref>
                        </link>
                        <comments/>
                    </clipitem>
                    <clipitem id="SecondScenePark.1.Apple.Take1.WAV 4">
                        <name>SecondScenePark.1.Apple.Take1.WAV</name>
                        <duration>970</duration>
                        <rate>
                            <timebase>24</timebase>
                            <ntsc>TRUE</ntsc>
                        </rate>
                        <start>3892</start>
                        <end>4292</end>
                        <enabled>TRUE</enabled>
                        <in>570</in>
                        <out>970</out>
                        <file id="SecondScenePark.1.Apple.Take1.WAV 1"/>
                        <sourcetrack>
                            <mediatype>audio</mediatype>
                            <trackindex>2</trackindex>
                        </sourcetrack>
                        <filter>
                            <enabled>TRUE</enabled>
                            <start>0</start>
                            <end>970</end>
                            <effect>
                                <name>Audio Levels</name>
                                <effectid>audiolevels</effectid>
                                <effecttype>audiolevels</effecttype>
                                <mediatype>audio</mediatype>
                                <effectcategory>audiolevels</effectcategory>
                                <parameter>
                                    <name>Level</name>
                                    <parameterid>level</parameterid>
                                    <value>1</value>
                                    <valuemin>1e-05</valuemin>
                                    <valuemax>31.6228</valuemax>
                                </parameter>
                            </effect>
                        </filter>
                        <filter>
                            <enabled>TRUE</enabled>
                            <start>0</start>
                            <end>970</end>
                            <effect>
                                <name>Audio Pan</name>
                                <effectid>audiopan</effectid>
                                <effecttype>audiopan</effecttype>
                                <mediatype>audio</mediatype>
                                <effectcategory>audiopan</effectcategory>
                                <parameter>
                                    <name>Pan</name>
                                    <parameterid>pan</parameterid>
                                    <value>0</value>
                                    <valuemin>-1</valuemin>
                                    <valuemax>1</valuemax>
                                </parameter>
                            </effect>
                        </filter>
                        <link>
                            <linkclipref>SecondScenePark.1.Apple.Take1.WAV 2</linkclipref>
                            <mediatype>audio</mediatype>
                        </link>
                        <link>
                            <linkclipref>SecondScenePark.1.Apple.Take1.WAV 4</linkclipref>
                        </link>
                        <link>
                            <linkclipref>SecondScenePark.1.Apple.Take1.WAV 6</linkclipref>
                        </link>
                        <link>
                            <linkclipref>SecondScenePark.1.Apple.Take1.WAV 8</linkclipref>
                        </link>
                        <link>
                            <linkclipref>SecondScenePark.1.Apple.Take1.WAV 10</linkclipref>
                        </link>
                        <comments/>
                    </clipitem>
                    <clipitem id="SecondScenePark.1.Take1.WAV 0">
                        <name>SecondScenePark.1.Take1.WAV</name>
                        <duration>1008</duration>
                        <rate>
                            <timebase>24</timebase>
                            <ntsc>TRUE</ntsc>
                        </rate>
                        <start>5040</start>
                        <end>5998</end>
                        <enabled>TRUE</enabled>
                        <in>0</in>
                        <out>957</out>
                        <file id="SecondScenePark.1.Take1.WAV 1">
                            <duration>1008</duration>
                            <rate>
                                <timebase>24</timebase>
                                <ntsc>TRUE</ntsc>
                            </rate>
                            <name>1A-1252.WAV</name>
                            <pathurl>file:///Volumes/Jackson/footage/sound/day%202/11-22-22/1A-1252.WAV</pathurl>
                            <media>
                                <audio>
                                    <channelcount>5</channelcount>
                                </audio>
                            </media>
                        </file>
                        <sourcetrack>
                            <mediatype>audio</mediatype>
                            <trackindex>1</trackindex>
                        </sourcetrack>
                        <filter>
                            <enabled>TRUE</enabled>
                            <start>0</start>
                            <end>1008</end>
                            <effect>
                                <name>Audio Levels</name>
                                <effectid>audiolevels</effectid>
                                <effecttype>audiolevels</effecttype>
                                <mediatype>audio</mediatype>
                                <effectcategory>audiolevels</effectcategory>
                                <parameter>
                                    <name>Level</name>
                                    <parameterid>level</parameterid>
                                    <value>1</value>
                                    <valuemin>1e-05</valuemin>
                                    <valuemax>31.6228</valuemax>
                                </parameter>
                            </effect>
                        </filter>
                        <filter>
                            <enabled>TRUE</enabled>
                            <start>0</start>
                            <end>1008</end>
                            <effect>
                                <name>Audio Pan</name>
                                <effectid>audiopan</effectid>
                                <effecttype>audiopan</effecttype>
                                <mediatype>audio</mediatype>
                                <effectcategory>audiopan</effectcategory>
                                <parameter>
                                    <name>Pan</name>
                                    <parameterid>pan</parameterid>
                                    <value>0</value>
                                    <valuemin>-1</valuemin>
                                    <valuemax>1</valuemax>
                                </parameter>
                            </effect>
                        </filter>
                        <link>
                            <linkclipref>SecondScenePark.1.Take1.WAV 0</linkclipref>
                        </link>
                        <link>
                            <linkclipref>SecondScenePark.1.Take1.WAV 2</linkclipref>
                        </link>
                        <link>
                            <linkclipref>SecondScenePark.1.Take1.WAV 3</linkclipref>
                        </link>
                        <link>
                            <linkclipref>SecondScenePark.1.Take1.WAV 4</linkclipref>
                        </link>
                        <link>
                            <linkclipref>SecondScenePark.1.Take1.WAV 5</linkclipref>
                        </link>
                        <comments/>
                    </clipitem>
                    <clipitem id="SecondScenePark.1.Take3.WAV 0">
                        <name>SecondScenePark.1.Take3.WAV</name>
                        <duration>1089</duration>
                        <rate>
                            <timebase>24</timebase>
                            <ntsc>TRUE</ntsc>
                        </rate>
                        <start>5998</start>
                        <end>7087</end>
                        <enabled>TRUE</enabled>
                        <in>0</in>
                        <out>1088</out>
                        <file id="SecondScenePark.1.Take3.WAV 1">
                            <duration>1089</duration>
                            <rate>
                                <timebase>24</timebase>
                                <ntsc>TRUE</ntsc>
                            </rate>
                            <name>1A-1254.WAV</name>
                            <pathurl>file:///Volumes/Jackson/footage/sound/day%202/11-22-22/1A-1254.WAV</pathurl>
                            <media>
                                <audio>
                                    <channelcount>5</channelcount>
                                </audio>
                            </media>
                        </file>
                        <sourcetrack>
                            <mediatype>audio</mediatype>
                            <trackindex>1</trackindex>
                        </sourcetrack>
                        <filter>
                            <enabled>TRUE</enabled>
                            <start>0</start>
                            <end>1089</end>
                            <effect>
                                <name>Audio Levels</name>
                                <effectid>audiolevels</effectid>
                                <effecttype>audiolevels</effecttype>
                                <mediatype>audio</mediatype>
                                <effectcategory>audiolevels</effectcategory>
                                <parameter>
                                    <name>Level</name>
                                    <parameterid>level</parameterid>
                                    <value>1</value>
                                    <valuemin>1e-05</valuemin>
                                    <valuemax>31.6228</valuemax>
                                </parameter>
                            </effect>
                        </filter>
                        <filter>
                            <enabled>TRUE</enabled>
                            <start>0</start>
                            <end>1089</end>
                            <effect>
                                <name>Audio Pan</name>
                                <effectid>audiopan</effectid>
                                <effecttype>audiopan</effecttype>
                                <mediatype>audio</mediatype>
                                <effectcategory>audiopan</effectcategory>
                                <parameter>
                                    <name>Pan</name>
                                    <parameterid>pan</parameterid>
                                    <value>0</value>
                                    <valuemin>-1</valuemin>
                                    <valuemax>1</valuemax>
                                </parameter>
                            </effect>
                        </filter>
                        <link>
                            <linkclipref>SecondScenePark.1.Take3.WAV 0</linkclipref>
                        </link>
                        <link>
                            <linkclipref>SecondScenePark.1.Take3.WAV 2</linkclipref>
                        </link>
                        <link>
                            <linkclipref>SecondScenePark.1.Take3.WAV 3</linkclipref>
                        </link>
                        <link>
                            <linkclipref>SecondScenePark.1.Take3.WAV 4</linkclipref>
                        </link>
                        <link>
                            <linkclipref>SecondScenePark.1.Take3.WAV 5</linkclipref>
                        </link>
                        <comments/>
                    </clipitem>
                    <clipitem id="SecondScenePark.1.Take2.WAV 0">
                        <name>SecondScenePark.1.Take2.WAV</name>
                        <duration>1118</duration>
                        <rate>
                            <timebase>24</timebase>
                            <ntsc>TRUE</ntsc>
                        </rate>
                        <start>7128</start>
                        <end>8246</end>
                        <enabled>TRUE</enabled>
                        <in>0</in>
                        <out>1117</out>
                        <file id="SecondScenePark.1.Take2.WAV 1">
                            <duration>1118</duration>
                            <rate>
                                <timebase>24</timebase>
                                <ntsc>TRUE</ntsc>
                            </rate>
                            <name>1A-1253.WAV</name>
                            <pathurl>file:///Volumes/Jackson/footage/sound/day%202/11-22-22/1A-1253.WAV</pathurl>
                            <media>
                                <audio>
                                    <channelcount>5</channelcount>
                                </audio>
                            </media>
                        </file>
                        <sourcetrack>
                            <mediatype>audio</mediatype>
                            <trackindex>1</trackindex>
                        </sourcetrack>
                        <filter>
                            <enabled>TRUE</enabled>
                            <start>0</start>
                            <end>1118</end>
                            <effect>
                                <name>Audio Levels</name>
                                <effectid>audiolevels</effectid>
                                <effecttype>audiolevels</effecttype>
                                <mediatype>audio</mediatype>
                                <effectcategory>audiolevels</effectcategory>
                                <parameter>
                                    <name>Level</name>
                                    <parameterid>level</parameterid>
                                    <value>1</value>
                                    <valuemin>1e-05</valuemin>
                                    <valuemax>31.6228</valuemax>
                                </parameter>
                            </effect>
                        </filter>
                        <filter>
                            <enabled>TRUE</enabled>
                            <start>0</start>
                            <end>1118</end>
                            <effect>
                                <name>Audio Pan</name>
                                <effectid>audiopan</effectid>
                                <effecttype>audiopan</effecttype>
                                <mediatype>audio</mediatype>
                                <effectcategory>audiopan</effectcategory>
                                <parameter>
                                    <name>Pan</name>
                                    <parameterid>pan</parameterid>
                                    <value>0</value>
                                    <valuemin>-1</valuemin>
                                    <valuemax>1</valuemax>
                                </parameter>
                            </effect>
                        </filter>
                        <link>
                            <linkclipref>SecondScenePark.1.Take2.WAV 0</linkclipref>
                        </link>
                        <link>
                            <linkclipref>SecondScenePark.1.Take2.WAV 2</linkclipref>
                        </link>
                        <link>
                            <linkclipref>SecondScenePark.1.Take2.WAV 3</linkclipref>
                        </link>
                        <link>
                            <linkclipref>SecondScenePark.1.Take2.WAV 4</linkclipref>
                        </link>
                        <link>
                            <linkclipref>SecondScenePark.1.Take2.WAV 5</linkclipref>
                        </link>
                        <comments/>
                    </clipitem>
                    <clipitem id="SecondScenePark.2.Take2.WAV 0">
                        <name>SecondScenePark.2.Take2.WAV</name>
                        <duration>472</duration>
                        <rate>
                            <timebase>24</timebase>
                            <ntsc>TRUE</ntsc>
                        </rate>
                        <start>8275</start>
                        <end>8595</end>
                        <enabled>TRUE</enabled>
                        <in>150</in>
                        <out>470</out>
                        <file id="SecondScenePark.2.Take2.WAV 1">
                            <duration>472</duration>
                            <rate>
                                <timebase>24</timebase>
                                <ntsc>TRUE</ntsc>
                            </rate>
                            <name>1A-1240.WAV</name>
                            <pathurl>file:///Volumes/Jackson/footage/sound/day%202/11-22-22/1A-1240.WAV</pathurl>
                            <media>
                                <audio>
                                    <channelcount>4</channelcount>
                                </audio>
                            </media>
                        </file>
                        <sourcetrack>
                            <mediatype>audio</mediatype>
                            <trackindex>1</trackindex>
                        </sourcetrack>
                        <filter>
                            <enabled>TRUE</enabled>
                            <start>0</start>
                            <end>472</end>
                            <effect>
                                <name>Audio Levels</name>
                                <effectid>audiolevels</effectid>
                                <effecttype>audiolevels</effecttype>
                                <mediatype>audio</mediatype>
                                <effectcategory>audiolevels</effectcategory>
                                <parameter>
                                    <name>Level</name>
                                    <parameterid>level</parameterid>
                                    <value>1</value>
                                    <valuemin>1e-05</valuemin>
                                    <valuemax>31.6228</valuemax>
                                </parameter>
                            </effect>
                        </filter>
                        <filter>
                            <enabled>TRUE</enabled>
                            <start>0</start>
                            <end>472</end>
                            <effect>
                                <name>Audio Pan</name>
                                <effectid>audiopan</effectid>
                                <effecttype>audiopan</effecttype>
                                <mediatype>audio</mediatype>
                                <effectcategory>audiopan</effectcategory>
                                <parameter>
                                    <name>Pan</name>
                                    <parameterid>pan</parameterid>
                                    <value>0</value>
                                    <valuemin>-1</valuemin>
                                    <valuemax>1</valuemax>
                                </parameter>
                            </effect>
                        </filter>
                        <link>
                            <linkclipref>SecondScenePark.2.Take2.WAV 0</linkclipref>
                        </link>
                        <link>
                            <linkclipref>SecondScenePark.2.Take2.WAV 2</linkclipref>
                        </link>
                        <link>
                            <linkclipref>SecondScenePark.2.Take2.WAV 3</linkclipref>
                        </link>
                        <link>
                            <linkclipref>SecondScenePark.2.Take2.WAV 4</linkclipref>
                        </link>
                        <comments/>
                    </clipitem>
                    <clipitem id="SecondScenePark.2.Apple.Take1.WAV 0">
                        <name>SecondScenePark.2.Apple.Take1.WAV</name>
                        <duration>1796</duration>
                        <rate>
                            <timebase>24</timebase>
                            <ntsc>TRUE</ntsc>
                        </rate>
                        <start>8595</start>
                        <end>10293</end>
                        <enabled>TRUE</enabled>
                        <in>46</in>
                        <out>1743</out>
                        <file id="SecondScenePark.2.Apple.Take1.WAV 1">
                            <duration>1796</duration>
                            <rate>
                                <timebase>24</timebase>
                                <ntsc>TRUE</ntsc>
                            </rate>
                            <name>1A-1243.WAV</name>
                            <pathurl>file:///Volumes/Jackson/footage/sound/day%202/11-22-22/1A-1243.WAV</pathurl>
                            <media>
                                <audio>
                                    <channelcount>4</channelcount>
                                </audio>
                            </media>
                        </file>
                        <sourcetrack>
                            <mediatype>audio</mediatype>
                            <trackindex>1</trackindex>
                        </sourcetrack>
                        <filter>
                            <enabled>TRUE</enabled>
                            <start>0</start>
                            <end>1796</end>
                            <effect>
                                <name>Audio Levels</name>
                                <effectid>audiolevels</effectid>
                                <effecttype>audiolevels</effecttype>
                                <mediatype>audio</mediatype>
                                <effectcategory>audiolevels</effectcategory>
                                <parameter>
                                    <name>Level</name>
                                    <parameterid>level</parameterid>
                                    <value>1</value>
                                    <valuemin>1e-05</valuemin>
                                    <valuemax>31.6228</valuemax>
                                </parameter>
                            </effect>
                        </filter>
                        <filter>
                            <enabled>TRUE</enabled>
                            <start>0</start>
                            <end>1796</end>
                            <effect>
                                <name>Audio Pan</name>
                                <effectid>audiopan</effectid>
                                <effecttype>audiopan</effecttype>
                                <mediatype>audio</mediatype>
                                <effectcategory>audiopan</effectcategory>
                                <parameter>
                                    <name>Pan</name>
                                    <parameterid>pan</parameterid>
                                    <value>0</value>
                                    <valuemin>-1</valuemin>
                                    <valuemax>1</valuemax>
                                </parameter>
                            </effect>
                        </filter>
                        <link>
                            <linkclipref>SecondScenePark.2.Apple.Take1.WAV 0</linkclipref>
                        </link>
                        <link>
                            <linkclipref>SecondScenePark.2.Apple.Take1.WAV 2</linkclipref>
                        </link>
                        <link>
                            <linkclipref>SecondScenePark.2.Apple.Take1.WAV 3</linkclipref>
                        </link>
                        <link>
                            <linkclipref>SecondScenePark.2.Apple.Take1.WAV 4</linkclipref>
                        </link>
                        <comments/>
                    </clipitem>
                    <clipitem id="SecondScenePark.2.Take1.WAV 0">
                        <name>SecondScenePark.2.Take1.WAV</name>
                        <duration>1029</duration>
                        <rate>
                            <timebase>24</timebase>
                            <ntsc>TRUE</ntsc>
                        </rate>
                        <start>10293</start>
                        <end>10749</end>
                        <enabled>TRUE</enabled>
                        <in>33</in>
                        <out>488</out>
                        <file id="SecondScenePark.2.Take1.WAV 1">
                            <duration>1029</duration>
                            <rate>
                                <timebase>24</timebase>
                                <ntsc>TRUE</ntsc>
                            </rate>
                            <name>1A-1241.WAV</name>
                            <pathurl>file:///Volumes/Jackson/footage/sound/day%202/11-22-22/1A-1241.WAV</pathurl>
                            <media>
                                <audio>
                                    <channelcount>4</channelcount>
                                </audio>
                            </media>
                        </file>
                        <sourcetrack>
                            <mediatype>audio</mediatype>
                            <trackindex>1</trackindex>
                        </sourcetrack>
                        <filter>
                            <enabled>TRUE</enabled>
                            <start>0</start>
                            <end>1029</end>
                            <effect>
                                <name>Audio Levels</name>
                                <effectid>audiolevels</effectid>
                                <effecttype>audiolevels</effecttype>
                                <mediatype>audio</mediatype>
                                <effectcategory>audiolevels</effectcategory>
                                <parameter>
                                    <name>Level</name>
                                    <parameterid>level</parameterid>
                                    <value>1</value>
                                    <valuemin>1e-05</valuemin>
                                    <valuemax>31.6228</valuemax>
                                </parameter>
                            </effect>
                        </filter>
                        <filter>
                            <enabled>TRUE</enabled>
                            <start>0</start>
                            <end>1029</end>
                            <effect>
                                <name>Audio Pan</name>
                                <effectid>audiopan</effectid>
                                <effecttype>audiopan</effecttype>
                                <mediatype>audio</mediatype>
                                <effectcategory>audiopan</effectcategory>
                                <parameter>
                                    <name>Pan</name>
                                    <parameterid>pan</parameterid>
                                    <value>0</value>
                                    <valuemin>-1</valuemin>
                                    <valuemax>1</valuemax>
                                </parameter>
                            </effect>
                        </filter>
                        <link>
                            <linkclipref>SecondScenePark.2.Take1.WAV 0</linkclipref>
                        </link>
                        <link>
                            <linkclipref>SecondScenePark.2.Take1.WAV 2</linkclipref>
                        </link>
                        <link>
                            <linkclipref>SecondScenePark.2.Take1.WAV 3</linkclipref>
                        </link>
                        <link>
                            <linkclipref>SecondScenePark.2.Take1.WAV 4</linkclipref>
                        </link>
                        <comments/>
                    </clipitem>
                    <clipitem id="SecondScenePark.2.Take3.WAV 0">
                        <name>SecondScenePark.2.Take3.WAV</name>
                        <duration>892</duration>
                        <rate>
                            <timebase>24</timebase>
                            <ntsc>TRUE</ntsc>
                        </rate>
                        <start>10749</start>
                        <end>11590</end>
                        <enabled>TRUE</enabled>
                        <in>5</in>
                        <out>846</out>
                        <file id="SecondScenePark.2.Take3.WAV 1">
                            <duration>892</duration>
                            <rate>
                                <timebase>24</timebase>
                                <ntsc>TRUE</ntsc>
                            </rate>
                            <name>1A-1242.WAV</name>
                            <pathurl>file:///Volumes/Jackson/footage/sound/day%202/11-22-22/1A-1242.WAV</pathurl>
                            <media>
                                <audio>
                                    <channelcount>4</channelcount>
                                </audio>
                            </media>
                        </file>
                        <sourcetrack>
                            <mediatype>audio</mediatype>
                            <trackindex>1</trackindex>
                        </sourcetrack>
                        <filter>
                            <enabled>TRUE</enabled>
                            <start>0</start>
                            <end>892</end>
                            <effect>
                                <name>Audio Levels</name>
                                <effectid>audiolevels</effectid>
                                <effecttype>audiolevels</effecttype>
                                <mediatype>audio</mediatype>
                                <effectcategory>audiolevels</effectcategory>
                                <parameter>
                                    <name>Level</name>
                                    <parameterid>level</parameterid>
                                    <value>1</value>
                                    <valuemin>1e-05</valuemin>
                                    <valuemax>31.6228</valuemax>
                                </parameter>
                            </effect>
                        </filter>
                        <filter>
                            <enabled>TRUE</enabled>
                            <start>0</start>
                            <end>892</end>
                            <effect>
                                <name>Audio Pan</name>
                                <effectid>audiopan</effectid>
                                <effecttype>audiopan</effecttype>
                                <mediatype>audio</mediatype>
                                <effectcategory>audiopan</effectcategory>
                                <parameter>
                                    <name>Pan</name>
                                    <parameterid>pan</parameterid>
                                    <value>0</value>
                                    <valuemin>-1</valuemin>
                                    <valuemax>1</valuemax>
                                </parameter>
                            </effect>
                        </filter>
                        <link>
                            <linkclipref>SecondScenePark.2.Take3.WAV 0</linkclipref>
                        </link>
                        <link>
                            <linkclipref>SecondScenePark.2.Take3.WAV 2</linkclipref>
                        </link>
                        <link>
                            <linkclipref>SecondScenePark.2.Take3.WAV 3</linkclipref>
                        </link>
                        <link>
                            <linkclipref>SecondScenePark.2.Take3.WAV 4</linkclipref>
                        </link>
                        <comments/>
                    </clipitem>
                    <clipitem id="SecondScenePark.2.5.Take1.WAV 0">
                        <name>SecondScenePark.2.5.Take1.WAV</name>
                        <duration>1055</duration>
                        <rate>
                            <timebase>24</timebase>
                            <ntsc>TRUE</ntsc>
                        </rate>
                        <start>11590</start>
                        <end>12645</end>
                        <enabled>TRUE</enabled>
                        <in>0</in>
                        <out>1055</out>
                        <file id="SecondScenePark.2.5.Take1.WAV 1">
                            <duration>1055</duration>
                            <rate>
                                <timebase>24</timebase>
                                <ntsc>TRUE</ntsc>
                            </rate>
                            <name>1A-1251.WAV</name>
                            <pathurl>file:///Volumes/Jackson/footage/sound/day%202/11-22-22/1A-1251.WAV</pathurl>
                            <media>
                                <audio>
                                    <channelcount>4</channelcount>
                                </audio>
                            </media>
                        </file>
                        <sourcetrack>
                            <mediatype>audio</mediatype>
                            <trackindex>1</trackindex>
                        </sourcetrack>
                        <filter>
                            <enabled>TRUE</enabled>
                            <start>0</start>
                            <end>1055</end>
                            <effect>
                                <name>Audio Levels</name>
                                <effectid>audiolevels</effectid>
                                <effecttype>audiolevels</effecttype>
                                <mediatype>audio</mediatype>
                                <effectcategory>audiolevels</effectcategory>
                                <parameter>
                                    <name>Level</name>
                                    <parameterid>level</parameterid>
                                    <value>1</value>
                                    <valuemin>1e-05</valuemin>
                                    <valuemax>31.6228</valuemax>
                                </parameter>
                            </effect>
                        </filter>
                        <filter>
                            <enabled>TRUE</enabled>
                            <start>0</start>
                            <end>1055</end>
                            <effect>
                                <name>Audio Pan</name>
                                <effectid>audiopan</effectid>
                                <effecttype>audiopan</effecttype>
                                <mediatype>audio</mediatype>
                                <effectcategory>audiopan</effectcategory>
                                <parameter>
                                    <name>Pan</name>
                                    <parameterid>pan</parameterid>
                                    <value>0</value>
                                    <valuemin>-1</valuemin>
                                    <valuemax>1</valuemax>
                                </parameter>
                            </effect>
                        </filter>
                        <link>
                            <linkclipref>SecondScenePark.2.5.Take1.WAV 0</linkclipref>
                        </link>
                        <link>
                            <linkclipref>SecondScenePark.2.5.Take1.WAV 2</linkclipref>
                        </link>
                        <link>
                            <linkclipref>SecondScenePark.2.5.Take1.WAV 3</linkclipref>
                        </link>
                        <link>
                            <linkclipref>SecondScenePark.2.5.Take1.WAV 4</linkclipref>
                        </link>
                        <comments/>
                    </clipitem>
                    <clipitem id="SecondScenePark.2.4.Take1.WAV 0">
                        <name>SecondScenePark.2.4.Take1.WAV</name>
                        <duration>2298</duration>
                        <rate>
                            <timebase>24</timebase>
                            <ntsc>TRUE</ntsc>
                        </rate>
                        <start>12645</start>
                        <end>14702</end>
                        <enabled>TRUE</enabled>
                        <in>106</in>
                        <out>2163</out>
                        <file id="SecondScenePark.2.4.Take1.WAV 1">
                            <duration>2298</duration>
                            <rate>
                                <timebase>24</timebase>
                                <ntsc>TRUE</ntsc>
                            </rate>
                            <name>1A-1244.WAV</name>
                            <pathurl>file:///Volumes/Jackson/footage/sound/day%202/11-22-22/1A-1244.WAV</pathurl>
                            <media>
                                <audio>
                                    <channelcount>4</channelcount>
                                </audio>
                            </media>
                        </file>
                        <sourcetrack>
                            <mediatype>audio</mediatype>
                            <trackindex>1</trackindex>
                        </sourcetrack>
                        <filter>
                            <enabled>TRUE</enabled>
                            <start>0</start>
                            <end>2298</end>
                            <effect>
                                <name>Audio Levels</name>
                                <effectid>audiolevels</effectid>
                                <effecttype>audiolevels</effecttype>
                                <mediatype>audio</mediatype>
                                <effectcategory>audiolevels</effectcategory>
                                <parameter>
                                    <name>Level</name>
                                    <parameterid>level</parameterid>
                                    <value>1</value>
                                    <valuemin>1e-05</valuemin>
                                    <valuemax>31.6228</valuemax>
                                </parameter>
                            </effect>
                        </filter>
                        <filter>
                            <enabled>TRUE</enabled>
                            <start>0</start>
                            <end>2298</end>
                            <effect>
                                <name>Audio Pan</name>
                                <effectid>audiopan</effectid>
                                <effecttype>audiopan</effecttype>
                                <mediatype>audio</mediatype>
                                <effectcategory>audiopan</effectcategory>
                                <parameter>
                                    <name>Pan</name>
                                    <parameterid>pan</parameterid>
                                    <value>0</value>
                                    <valuemin>-1</valuemin>
                                    <valuemax>1</valuemax>
                                </parameter>
                            </effect>
                        </filter>
                        <link>
                            <linkclipref>SecondScenePark.2.4.Take1.WAV 0</linkclipref>
                        </link>
                        <link>
                            <linkclipref>SecondScenePark.2.4.Take1.WAV 2</linkclipref>
                        </link>
                        <link>
                            <linkclipref>SecondScenePark.2.4.Take1.WAV 3</linkclipref>
                        </link>
                        <link>
                            <linkclipref>SecondScenePark.2.4.Take1.WAV 4</linkclipref>
                        </link>
                        <comments/>
                    </clipitem>
                    <clipitem id="SecondScenePark.2.4.Take2.WAV 0">
                        <name>SecondScenePark.2.4.Take2.WAV</name>
                        <duration>1820</duration>
                        <rate>
                            <timebase>24</timebase>
                            <ntsc>TRUE</ntsc>
                        </rate>
                        <start>14702</start>
                        <end>16523</end>
                        <enabled>TRUE</enabled>
                        <in>0</in>
                        <out>1820</out>
                        <file id="SecondScenePark.2.4.Take2.WAV 1">
                            <duration>1820</duration>
                            <rate>
                                <timebase>24</timebase>
                                <ntsc>TRUE</ntsc>
                            </rate>
                            <name>1A-1245.WAV</name>
                            <pathurl>file:///Volumes/Jackson/footage/sound/day%202/11-22-22/1A-1245.WAV</pathurl>
                            <media>
                                <audio>
                                    <channelcount>4</channelcount>
                                </audio>
                            </media>
                        </file>
                        <sourcetrack>
                            <mediatype>audio</mediatype>
                            <trackindex>1</trackindex>
                        </sourcetrack>
                        <filter>
                            <enabled>TRUE</enabled>
                            <start>0</start>
                            <end>1820</end>
                            <effect>
                                <name>Audio Levels</name>
                                <effectid>audiolevels</effectid>
                                <effecttype>audiolevels</effecttype>
                                <mediatype>audio</mediatype>
                                <effectcategory>audiolevels</effectcategory>
                                <parameter>
                                    <name>Level</name>
                                    <parameterid>level</parameterid>
                                    <value>1</value>
                                    <valuemin>1e-05</valuemin>
                                    <valuemax>31.6228</valuemax>
                                </parameter>
                            </effect>
                        </filter>
                        <filter>
                            <enabled>TRUE</enabled>
                            <start>0</start>
                            <end>1820</end>
                            <effect>
                                <name>Audio Pan</name>
                                <effectid>audiopan</effectid>
                                <effecttype>audiopan</effecttype>
                                <mediatype>audio</mediatype>
                                <effectcategory>audiopan</effectcategory>
                                <parameter>
                                    <name>Pan</name>
                                    <parameterid>pan</parameterid>
                                    <value>0</value>
                                    <valuemin>-1</valuemin>
                                    <valuemax>1</valuemax>
                                </parameter>
                            </effect>
                        </filter>
                        <link>
                            <linkclipref>SecondScenePark.2.4.Take2.WAV 0</linkclipref>
                        </link>
                        <link>
                            <linkclipref>SecondScenePark.2.4.Take2.WAV 2</linkclipref>
                        </link>
                        <link>
                            <linkclipref>SecondScenePark.2.4.Take2.WAV 3</linkclipref>
                        </link>
                        <link>
                            <linkclipref>SecondScenePark.2.4.Take2.WAV 4</linkclipref>
                        </link>
                        <comments/>
                    </clipitem>
                    <clipitem id="SecondScenePark.2.7.Take4.WAV 0">
                        <name>SecondScenePark.2.7.Take4.WAV</name>
                        <duration>891</duration>
                        <rate>
                            <timebase>24</timebase>
                            <ntsc>TRUE</ntsc>
                        </rate>
                        <start>16523</start>
                        <end>17386</end>
                        <enabled>TRUE</enabled>
                        <in>28</in>
                        <out>891</out>
                        <file id="SecondScenePark.2.7.Take4.WAV 1">
                            <duration>891</duration>
                            <rate>
                                <timebase>24</timebase>
                                <ntsc>TRUE</ntsc>
                            </rate>
                            <name>1A-1250.WAV</name>
                            <pathurl>file:///Volumes/Jackson/footage/sound/day%202/11-22-22/1A-1250.WAV</pathurl>
                            <media>
                                <audio>
                                    <channelcount>4</channelcount>
                                </audio>
                            </media>
                        </file>
                        <sourcetrack>
                            <mediatype>audio</mediatype>
                            <trackindex>1</trackindex>
                        </sourcetrack>
                        <filter>
                            <enabled>TRUE</enabled>
                            <start>0</start>
                            <end>891</end>
                            <effect>
                                <name>Audio Levels</name>
                                <effectid>audiolevels</effectid>
                                <effecttype>audiolevels</effecttype>
                                <mediatype>audio</mediatype>
                                <effectcategory>audiolevels</effectcategory>
                                <parameter>
                                    <name>Level</name>
                                    <parameterid>level</parameterid>
                                    <value>1</value>
                                    <valuemin>1e-05</valuemin>
                                    <valuemax>31.6228</valuemax>
                                </parameter>
                            </effect>
                        </filter>
                        <filter>
                            <enabled>TRUE</enabled>
                            <start>0</start>
                            <end>891</end>
                            <effect>
                                <name>Audio Pan</name>
                                <effectid>audiopan</effectid>
                                <effecttype>audiopan</effecttype>
                                <mediatype>audio</mediatype>
                                <effectcategory>audiopan</effectcategory>
                                <parameter>
                                    <name>Pan</name>
                                    <parameterid>pan</parameterid>
                                    <value>0</value>
                                    <valuemin>-1</valuemin>
                                    <valuemax>1</valuemax>
                                </parameter>
                            </effect>
                        </filter>
                        <link>
                            <linkclipref>SecondScenePark.2.7.Take4.WAV 0</linkclipref>
                        </link>
                        <link>
                            <linkclipref>SecondScenePark.2.7.Take4.WAV 2</linkclipref>
                        </link>
                        <link>
                            <linkclipref>SecondScenePark.2.7.Take4.WAV 3</linkclipref>
                        </link>
                        <link>
                            <linkclipref>SecondScenePark.2.7.Take4.WAV 4</linkclipref>
                        </link>
                        <comments/>
                    </clipitem>
                    <clipitem id="SecondScenePark.2.7.Take1.WAV 0">
                        <name>SecondScenePark.2.7.Take1.WAV</name>
                        <duration>935</duration>
                        <rate>
                            <timebase>24</timebase>
                            <ntsc>TRUE</ntsc>
                        </rate>
                        <start>17386</start>
                        <end>18157</end>
                        <enabled>TRUE</enabled>
                        <in>33</in>
                        <out>804</out>
                        <file id="SecondScenePark.2.7.Take1.WAV 1">
                            <duration>935</duration>
                            <rate>
                                <timebase>24</timebase>
                                <ntsc>TRUE</ntsc>
                            </rate>
                            <name>1A-1247.WAV</name>
                            <pathurl>file:///Volumes/Jackson/footage/sound/day%202/11-22-22/1A-1247.WAV</pathurl>
                            <media>
                                <audio>
                                    <channelcount>4</channelcount>
                                </audio>
                            </media>
                        </file>
                        <sourcetrack>
                            <mediatype>audio</mediatype>
                            <trackindex>1</trackindex>
                        </sourcetrack>
                        <filter>
                            <enabled>TRUE</enabled>
                            <start>0</start>
                            <end>935</end>
                            <effect>
                                <name>Audio Levels</name>
                                <effectid>audiolevels</effectid>
                                <effecttype>audiolevels</effecttype>
                                <mediatype>audio</mediatype>
                                <effectcategory>audiolevels</effectcategory>
                                <parameter>
                                    <name>Level</name>
                                    <parameterid>level</parameterid>
                                    <value>1</value>
                                    <valuemin>1e-05</valuemin>
                                    <valuemax>31.6228</valuemax>
                                </parameter>
                            </effect>
                        </filter>
                        <filter>
                            <enabled>TRUE</enabled>
                            <start>0</start>
                            <end>935</end>
                            <effect>
                                <name>Audio Pan</name>
                                <effectid>audiopan</effectid>
                                <effecttype>audiopan</effecttype>
                                <mediatype>audio</mediatype>
                                <effectcategory>audiopan</effectcategory>
                                <parameter>
                                    <name>Pan</name>
                                    <parameterid>pan</parameterid>
                                    <value>0</value>
                                    <valuemin>-1</valuemin>
                                    <valuemax>1</valuemax>
                                </parameter>
                            </effect>
                        </filter>
                        <link>
                            <linkclipref>SecondScenePark.2.7.Take1.WAV 0</linkclipref>
                        </link>
                        <link>
                            <linkclipref>SecondScenePark.2.7.Take1.WAV 2</linkclipref>
                        </link>
                        <link>
                            <linkclipref>SecondScenePark.2.7.Take1.WAV 3</linkclipref>
                        </link>
                        <link>
                            <linkclipref>SecondScenePark.2.7.Take1.WAV 4</linkclipref>
                        </link>
                        <comments/>
                    </clipitem>
                    <clipitem id="SecondScenePark.2.7.Take2.WAV 0">
                        <name>SecondScenePark.2.7.Take2.WAV</name>
                        <duration>1536</duration>
                        <rate>
                            <timebase>24</timebase>
                            <ntsc>TRUE</ntsc>
                        </rate>
                        <start>18157</start>
                        <end>18994</end>
                        <enabled>TRUE</enabled>
                        <in>627</in>
                        <out>1464</out>
                        <file id="SecondScenePark.2.7.Take2.WAV 1">
                            <duration>1536</duration>
                            <rate>
                                <timebase>24</timebase>
                                <ntsc>TRUE</ntsc>
                            </rate>
                            <name>1A-1248.WAV</name>
                            <pathurl>file:///Volumes/Jackson/footage/sound/day%202/11-22-22/1A-1248.WAV</pathurl>
                            <media>
                                <audio>
                                    <channelcount>4</channelcount>
                                </audio>
                            </media>
                        </file>
                        <sourcetrack>
                            <mediatype>audio</mediatype>
                            <trackindex>1</trackindex>
                        </sourcetrack>
                        <filter>
                            <enabled>TRUE</enabled>
                            <start>0</start>
                            <end>1536</end>
                            <effect>
                                <name>Audio Levels</name>
                                <effectid>audiolevels</effectid>
                                <effecttype>audiolevels</effecttype>
                                <mediatype>audio</mediatype>
                                <effectcategory>audiolevels</effectcategory>
                                <parameter>
                                    <name>Level</name>
                                    <parameterid>level</parameterid>
                                    <value>1</value>
                                    <valuemin>1e-05</valuemin>
                                    <valuemax>31.6228</valuemax>
                                </parameter>
                            </effect>
                        </filter>
                        <filter>
                            <enabled>TRUE</enabled>
                            <start>0</start>
                            <end>1536</end>
                            <effect>
                                <name>Audio Pan</name>
                                <effectid>audiopan</effectid>
                                <effecttype>audiopan</effecttype>
                                <mediatype>audio</mediatype>
                                <effectcategory>audiopan</effectcategory>
                                <parameter>
                                    <name>Pan</name>
                                    <parameterid>pan</parameterid>
                                    <value>0</value>
                                    <valuemin>-1</valuemin>
                                    <valuemax>1</valuemax>
                                </parameter>
                            </effect>
                        </filter>
                        <link>
                            <linkclipref>SecondScenePark.2.7.Take2.WAV 0</linkclipref>
                        </link>
                        <link>
                            <linkclipref>SecondScenePark.2.7.Take2.WAV 2</linkclipref>
                        </link>
                        <link>
                            <linkclipref>SecondScenePark.2.7.Take2.WAV 3</linkclipref>
                        </link>
                        <link>
                            <linkclipref>SecondScenePark.2.7.Take2.WAV 4</linkclipref>
                        </link>
                        <comments/>
                    </clipitem>
                    <clipitem id="SecondScenePark.2.7.Take3.WAV 0">
                        <name>SecondScenePark.2.7.Take3.WAV</name>
                        <duration>1109</duration>
                        <rate>
                            <timebase>24</timebase>
                            <ntsc>TRUE</ntsc>
                        </rate>
                        <start>18994</start>
                        <end>20046</end>
                        <enabled>TRUE</enabled>
                        <in>44</in>
                        <out>1095</out>
                        <file id="SecondScenePark.2.7.Take3.WAV 1">
                            <duration>1109</duration>
                            <rate>
                                <timebase>24</timebase>
                                <ntsc>TRUE</ntsc>
                            </rate>
                            <name>1A-1249.WAV</name>
                            <pathurl>file:///Volumes/Jackson/footage/sound/day%202/11-22-22/1A-1249.WAV</pathurl>
                            <media>
                                <audio>
                                    <channelcount>4</channelcount>
                                </audio>
                            </media>
                        </file>
                        <sourcetrack>
                            <mediatype>audio</mediatype>
                            <trackindex>1</trackindex>
                        </sourcetrack>
                        <filter>
                            <enabled>TRUE</enabled>
                            <start>0</start>
                            <end>1109</end>
                            <effect>
                                <name>Audio Levels</name>
                                <effectid>audiolevels</effectid>
                                <effecttype>audiolevels</effecttype>
                                <mediatype>audio</mediatype>
                                <effectcategory>audiolevels</effectcategory>
                                <parameter>
                                    <name>Level</name>
                                    <parameterid>level</parameterid>
                                    <value>1</value>
                                    <valuemin>1e-05</valuemin>
                                    <valuemax>31.6228</valuemax>
                                </parameter>
                            </effect>
                        </filter>
                        <filter>
                            <enabled>TRUE</enabled>
                            <start>0</start>
                            <end>1109</end>
                            <effect>
                                <name>Audio Pan</name>
                                <effectid>audiopan</effectid>
                                <effecttype>audiopan</effecttype>
                                <mediatype>audio</mediatype>
                                <effectcategory>audiopan</effectcategory>
                                <parameter>
                                    <name>Pan</name>
                                    <parameterid>pan</parameterid>
                                    <value>0</value>
                                    <valuemin>-1</valuemin>
                                    <valuemax>1</valuemax>
                                </parameter>
                            </effect>
                        </filter>
                        <link>
                            <linkclipref>SecondScenePark.2.7.Take3.WAV 0</linkclipref>
                        </link>
                        <link>
                            <linkclipref>SecondScenePark.2.7.Take3.WAV 2</linkclipref>
                        </link>
                        <link>
                            <linkclipref>SecondScenePark.2.7.Take3.WAV 3</linkclipref>
                        </link>
                        <link>
                            <linkclipref>SecondScenePark.2.7.Take3.WAV 4</linkclipref>
                        </link>
                        <comments/>
                    </clipitem>
                    <clipitem id="SecondScenePark.3.1.Take1.WAV 0">
                        <name>SecondScenePark.3.1.Take1.WAV</name>
                        <duration>1378</duration>
                        <rate>
                            <timebase>24</timebase>
                            <ntsc>TRUE</ntsc>
                        </rate>
                        <start>20046</start>
                        <end>21202</end>
                        <enabled>TRUE</enabled>
                        <in>73</in>
                        <out>1229</out>
                        <file id="SecondScenePark.3.1.Take1.WAV 1">
                            <duration>1378</duration>
                            <rate>
                                <timebase>24</timebase>
                                <ntsc>TRUE</ntsc>
                            </rate>
                            <name>1A-1210.WAV</name>
                            <pathurl>file:///Volumes/Jackson/footage/sound/day%202/11-22-22/1A-1210.WAV</pathurl>
                            <media>
                                <audio>
                                    <channelcount>5</channelcount>
                                </audio>
                            </media>
                        </file>
                        <sourcetrack>
                            <mediatype>audio</mediatype>
                            <trackindex>1</trackindex>
                        </sourcetrack>
                        <filter>
                            <enabled>TRUE</enabled>
                            <start>0</start>
                            <end>1378</end>
                            <effect>
                                <name>Audio Levels</name>
                                <effectid>audiolevels</effectid>
                                <effecttype>audiolevels</effecttype>
                                <mediatype>audio</mediatype>
                                <effectcategory>audiolevels</effectcategory>
                                <parameter>
                                    <name>Level</name>
                                    <parameterid>level</parameterid>
                                    <value>1</value>
                                    <valuemin>1e-05</valuemin>
                                    <valuemax>31.6228</valuemax>
                                </parameter>
                            </effect>
                        </filter>
                        <filter>
                            <enabled>TRUE</enabled>
                            <start>0</start>
                            <end>1378</end>
                            <effect>
                                <name>Audio Pan</name>
                                <effectid>audiopan</effectid>
                                <effecttype>audiopan</effecttype>
                                <mediatype>audio</mediatype>
                                <effectcategory>audiopan</effectcategory>
                                <parameter>
                                    <name>Pan</name>
                                    <parameterid>pan</parameterid>
                                    <value>0</value>
                                    <valuemin>-1</valuemin>
                                    <valuemax>1</valuemax>
                                </parameter>
                            </effect>
                        </filter>
                        <link>
                            <linkclipref>SecondScenePark.3.1.Take1.WAV 0</linkclipref>
                        </link>
                        <link>
                            <linkclipref>SecondScenePark.3.1.Take1.WAV 2</linkclipref>
                        </link>
                        <link>
                            <linkclipref>SecondScenePark.3.1.Take1.WAV 3</linkclipref>
                        </link>
                        <link>
                            <linkclipref>SecondScenePark.3.1.Take1.WAV 4</linkclipref>
                        </link>
                        <link>
                            <linkclipref>SecondScenePark.3.1.Take1.WAV 5</linkclipref>
                        </link>
                        <comments/>
                    </clipitem>
                    <clipitem id="SecondScenePark.3.1.Take2.WAV 0">
                        <name>SecondScenePark.3.1.Take2.WAV</name>
                        <duration>1355</duration>
                        <rate>
                            <timebase>24</timebase>
                            <ntsc>TRUE</ntsc>
                        </rate>
                        <start>21202</start>
                        <end>22507</end>
                        <enabled>TRUE</enabled>
                        <in>0</in>
                        <out>1305</out>
                        <file id="SecondScenePark.3.1.Take2.WAV 1">
                            <duration>1355</duration>
                            <rate>
                                <timebase>24</timebase>
                                <ntsc>TRUE</ntsc>
                            </rate>
                            <name>1A-1212.WAV</name>
                            <pathurl>file:///Volumes/Jackson/footage/sound/day%202/11-22-22/1A-1212.WAV</pathurl>
                            <media>
                                <audio>
                                    <channelcount>5</channelcount>
                                </audio>
                            </media>
                        </file>
                        <sourcetrack>
                            <mediatype>audio</mediatype>
                            <trackindex>1</trackindex>
                        </sourcetrack>
                        <filter>
                            <enabled>TRUE</enabled>
                            <start>0</start>
                            <end>1355</end>
                            <effect>
                                <name>Audio Levels</name>
                                <effectid>audiolevels</effectid>
                                <effecttype>audiolevels</effecttype>
                                <mediatype>audio</mediatype>
                                <effectcategory>audiolevels</effectcategory>
                                <parameter>
                                    <name>Level</name>
                                    <parameterid>level</parameterid>
                                    <value>1</value>
                                    <valuemin>1e-05</valuemin>
                                    <valuemax>31.6228</valuemax>
                                </parameter>
                            </effect>
                        </filter>
                        <filter>
                            <enabled>TRUE</enabled>
                            <start>0</start>
                            <end>1355</end>
                            <effect>
                                <name>Audio Pan</name>
                                <effectid>audiopan</effectid>
                                <effecttype>audiopan</effecttype>
                                <mediatype>audio</mediatype>
                                <effectcategory>audiopan</effectcategory>
                                <parameter>
                                    <name>Pan</name>
                                    <parameterid>pan</parameterid>
                                    <value>0</value>
                                    <valuemin>-1</valuemin>
                                    <valuemax>1</valuemax>
                                </parameter>
                            </effect>
                        </filter>
                        <link>
                            <linkclipref>SecondScenePark.3.1.Take2.WAV 0</linkclipref>
                        </link>
                        <link>
                            <linkclipref>SecondScenePark.3.1.Take2.WAV 2</linkclipref>
                        </link>
                        <link>
                            <linkclipref>SecondScenePark.3.1.Take2.WAV 3</linkclipref>
                        </link>
                        <link>
                            <linkclipref>SecondScenePark.3.1.Take2.WAV 4</linkclipref>
                        </link>
                        <link>
                            <linkclipref>SecondScenePark.3.1.Take2.WAV 5</linkclipref>
                        </link>
                        <comments/>
                    </clipitem>
                    <clipitem id="SecondScenePark.3.2.Banana.Take2.WAV 0">
                        <name>SecondScenePark.3.2.Banana.Take2.WAV</name>
                        <duration>2277</duration>
                        <rate>
                            <timebase>24</timebase>
                            <ntsc>TRUE</ntsc>
                        </rate>
                        <start>22507</start>
                        <end>23927</end>
                        <enabled>TRUE</enabled>
                        <in>856</in>
                        <out>2277</out>
                        <file id="SecondScenePark.3.2.Banana.Take2.WAV 1">
                            <duration>2277</duration>
                            <rate>
                                <timebase>24</timebase>
                                <ntsc>TRUE</ntsc>
                            </rate>
                            <name>1A-1216.WAV</name>
                            <pathurl>file:///Volumes/Jackson/footage/sound/day%202/11-22-22/1A-1216.WAV</pathurl>
                            <media>
                                <audio>
                                    <channelcount>5</channelcount>
                                </audio>
                            </media>
                        </file>
                        <sourcetrack>
                            <mediatype>audio</mediatype>
                            <trackindex>1</trackindex>
                        </sourcetrack>
                        <filter>
                            <enabled>TRUE</enabled>
                            <start>0</start>
                            <end>2277</end>
                            <effect>
                                <name>Audio Levels</name>
                                <effectid>audiolevels</effectid>
                                <effecttype>audiolevels</effecttype>
                                <mediatype>audio</mediatype>
                                <effectcategory>audiolevels</effectcategory>
                                <parameter>
                                    <name>Level</name>
                                    <parameterid>level</parameterid>
                                    <value>1</value>
                                    <valuemin>1e-05</valuemin>
                                    <valuemax>31.6228</valuemax>
                                </parameter>
                            </effect>
                        </filter>
                        <filter>
                            <enabled>TRUE</enabled>
                            <start>0</start>
                            <end>2277</end>
                            <effect>
                                <name>Audio Pan</name>
                                <effectid>audiopan</effectid>
                                <effecttype>audiopan</effecttype>
                                <mediatype>audio</mediatype>
                                <effectcategory>audiopan</effectcategory>
                                <parameter>
                                    <name>Pan</name>
                                    <parameterid>pan</parameterid>
                                    <value>0</value>
                                    <valuemin>-1</valuemin>
                                    <valuemax>1</valuemax>
                                </parameter>
                            </effect>
                        </filter>
                        <link>
                            <linkclipref>SecondScenePark.3.2.Banana.Take2.WAV 0</linkclipref>
                        </link>
                        <link>
                            <linkclipref>SecondScenePark.3.2.Banana.Take2.WAV 2</linkclipref>
                        </link>
                        <link>
                            <linkclipref>SecondScenePark.3.2.Banana.Take2.WAV 3</linkclipref>
                        </link>
                        <link>
                            <linkclipref>SecondScenePark.3.2.Banana.Take2.WAV 4</linkclipref>
                        </link>
                        <link>
                            <linkclipref>SecondScenePark.3.2.Banana.Take2.WAV 5</linkclipref>
                        </link>
                        <comments/>
                    </clipitem>
                    <clipitem id="SecondScenePark.3.2.Take1.WAV 0">
                        <name>SecondScenePark.3.2.Take1.WAV</name>
                        <duration>1533</duration>
                        <rate>
                            <timebase>24</timebase>
                            <ntsc>TRUE</ntsc>
                        </rate>
                        <start>23979</start>
                        <end>25406</end>
                        <enabled>TRUE</enabled>
                        <in>0</in>
                        <out>1426</out>
                        <file id="SecondScenePark.3.2.Take1.WAV 1">
                            <duration>1533</duration>
                            <rate>
                                <timebase>24</timebase>
                                <ntsc>TRUE</ntsc>
                            </rate>
                            <name>1A-1213.WAV</name>
                            <pathurl>file:///Volumes/Jackson/footage/sound/day%202/11-22-22/1A-1213.WAV</pathurl>
                            <media>
                                <audio>
                                    <channelcount>5</channelcount>
                                </audio>
                            </media>
                        </file>
                        <sourcetrack>
                            <mediatype>audio</mediatype>
                            <trackindex>1</trackindex>
                        </sourcetrack>
                        <filter>
                            <enabled>TRUE</enabled>
                            <start>0</start>
                            <end>1533</end>
                            <effect>
                                <name>Audio Levels</name>
                                <effectid>audiolevels</effectid>
                                <effecttype>audiolevels</effecttype>
                                <mediatype>audio</mediatype>
                                <effectcategory>audiolevels</effectcategory>
                                <parameter>
                                    <name>Level</name>
                                    <parameterid>level</parameterid>
                                    <value>1</value>
                                    <valuemin>1e-05</valuemin>
                                    <valuemax>31.6228</valuemax>
                                </parameter>
                            </effect>
                        </filter>
                        <filter>
                            <enabled>TRUE</enabled>
                            <start>0</start>
                            <end>1533</end>
                            <effect>
                                <name>Audio Pan</name>
                                <effectid>audiopan</effectid>
                                <effecttype>audiopan</effecttype>
                                <mediatype>audio</mediatype>
                                <effectcategory>audiopan</effectcategory>
                                <parameter>
                                    <name>Pan</name>
                                    <parameterid>pan</parameterid>
                                    <value>0</value>
                                    <valuemin>-1</valuemin>
                                    <valuemax>1</valuemax>
                                </parameter>
                            </effect>
                        </filter>
                        <link>
                            <linkclipref>SecondScenePark.3.2.Take1.WAV 0</linkclipref>
                        </link>
                        <link>
                            <linkclipref>SecondScenePark.3.2.Take1.WAV 2</linkclipref>
                        </link>
                        <link>
                            <linkclipref>SecondScenePark.3.2.Take1.WAV 3</linkclipref>
                        </link>
                        <link>
                            <linkclipref>SecondScenePark.3.2.Take1.WAV 4</linkclipref>
                        </link>
                        <link>
                            <linkclipref>SecondScenePark.3.2.Take1.WAV 5</linkclipref>
                        </link>
                        <comments/>
                    </clipitem>
                    <clipitem id="SecondScenePark.3.2.Take2.WAV 0">
                        <name>SecondScenePark.3.2.Take2.WAV</name>
                        <duration>1544</duration>
                        <rate>
                            <timebase>24</timebase>
                            <ntsc>TRUE</ntsc>
                        </rate>
                        <start>25406</start>
                        <end>26688</end>
                        <enabled>TRUE</enabled>
                        <in>204</in>
                        <out>1486</out>
                        <file id="SecondScenePark.3.2.Take2.WAV 1">
                            <duration>1544</duration>
                            <rate>
                                <timebase>24</timebase>
                                <ntsc>TRUE</ntsc>
                            </rate>
                            <name>1A-1214.WAV</name>
                            <pathurl>file:///Volumes/Jackson/footage/sound/day%202/11-22-22/1A-1214.WAV</pathurl>
                            <media>
                                <audio>
                                    <channelcount>5</channelcount>
                                </audio>
                            </media>
                        </file>
                        <sourcetrack>
                            <mediatype>audio</mediatype>
                            <trackindex>1</trackindex>
                        </sourcetrack>
                        <filter>
                            <enabled>TRUE</enabled>
                            <start>0</start>
                            <end>1544</end>
                            <effect>
                                <name>Audio Levels</name>
                                <effectid>audiolevels</effectid>
                                <effecttype>audiolevels</effecttype>
                                <mediatype>audio</mediatype>
                                <effectcategory>audiolevels</effectcategory>
                                <parameter>
                                    <name>Level</name>
                                    <parameterid>level</parameterid>
                                    <value>1</value>
                                    <valuemin>1e-05</valuemin>
                                    <valuemax>31.6228</valuemax>
                                </parameter>
                            </effect>
                        </filter>
                        <filter>
                            <enabled>TRUE</enabled>
                            <start>0</start>
                            <end>1544</end>
                            <effect>
                                <name>Audio Pan</name>
                                <effectid>audiopan</effectid>
                                <effecttype>audiopan</effecttype>
                                <mediatype>audio</mediatype>
                                <effectcategory>audiopan</effectcategory>
                                <parameter>
                                    <name>Pan</name>
                                    <parameterid>pan</parameterid>
                                    <value>0</value>
                                    <valuemin>-1</valuemin>
                                    <valuemax>1</valuemax>
                                </parameter>
                            </effect>
                        </filter>
                        <link>
                            <linkclipref>SecondScenePark.3.2.Take2.WAV 0</linkclipref>
                        </link>
                        <link>
                            <linkclipref>SecondScenePark.3.2.Take2.WAV 2</linkclipref>
                        </link>
                        <link>
                            <linkclipref>SecondScenePark.3.2.Take2.WAV 3</linkclipref>
                        </link>
                        <link>
                            <linkclipref>SecondScenePark.3.2.Take2.WAV 4</linkclipref>
                        </link>
                        <link>
                            <linkclipref>SecondScenePark.3.2.Take2.WAV 5</linkclipref>
                        </link>
                        <comments/>
                    </clipitem>
                    <clipitem id="SecondScenePark.3.2.Take3.WAV 0">
                        <name>SecondScenePark.3.2.Take3.WAV</name>
                        <duration>1661</duration>
                        <rate>
                            <timebase>24</timebase>
                            <ntsc>TRUE</ntsc>
                        </rate>
                        <start>26688</start>
                        <end>28258</end>
                        <enabled>TRUE</enabled>
                        <in>0</in>
                        <out>1569</out>
                        <file id="SecondScenePark.3.2.Take3.WAV 1">
                            <duration>1661</duration>
                            <rate>
                                <timebase>24</timebase>
                                <ntsc>TRUE</ntsc>
                            </rate>
                            <name>1A-1215.WAV</name>
                            <pathurl>file:///Volumes/Jackson/footage/sound/day%202/11-22-22/1A-1215.WAV</pathurl>
                            <media>
                                <audio>
                                    <channelcount>5</channelcount>
                                </audio>
                            </media>
                        </file>
                        <sourcetrack>
                            <mediatype>audio</mediatype>
                            <trackindex>1</trackindex>
                        </sourcetrack>
                        <filter>
                            <enabled>TRUE</enabled>
                            <start>0</start>
                            <end>1661</end>
                            <effect>
                                <name>Audio Levels</name>
                                <effectid>audiolevels</effectid>
                                <effecttype>audiolevels</effecttype>
                                <mediatype>audio</mediatype>
                                <effectcategory>audiolevels</effectcategory>
                                <parameter>
                                    <name>Level</name>
                                    <parameterid>level</parameterid>
                                    <value>1</value>
                                    <valuemin>1e-05</valuemin>
                                    <valuemax>31.6228</valuemax>
                                </parameter>
                            </effect>
                        </filter>
                        <filter>
                            <enabled>TRUE</enabled>
                            <start>0</start>
                            <end>1661</end>
                            <effect>
                                <name>Audio Pan</name>
                                <effectid>audiopan</effectid>
                                <effecttype>audiopan</effecttype>
                                <mediatype>audio</mediatype>
                                <effectcategory>audiopan</effectcategory>
                                <parameter>
                                    <name>Pan</name>
                                    <parameterid>pan</parameterid>
                                    <value>0</value>
                                    <valuemin>-1</valuemin>
                                    <valuemax>1</valuemax>
                                </parameter>
                            </effect>
                        </filter>
                        <link>
                            <linkclipref>SecondScenePark.3.2.Take3.WAV 0</linkclipref>
                        </link>
                        <link>
                            <linkclipref>SecondScenePark.3.2.Take3.WAV 4</linkclipref>
                        </link>
                        <link>
                            <linkclipref>SecondScenePark.3.2.Take3.WAV 6</linkclipref>
                        </link>
                        <link>
                            <linkclipref>SecondScenePark.3.2.Take3.WAV 8</linkclipref>
                        </link>
                        <link>
                            <linkclipref>SecondScenePark.3.2.Take3.WAV 10</linkclipref>
                        </link>
                        <comments/>
                    </clipitem>
                    <clipitem id="SecondScenePark.3.2.Banana.Take1.WAV 0">
                        <name>SecondScenePark.3.2.Banana.Take1.WAV</name>
                        <duration>1376</duration>
                        <rate>
                            <timebase>24</timebase>
                            <ntsc>TRUE</ntsc>
                        </rate>
                        <start>28258</start>
                        <end>29427</end>
                        <enabled>TRUE</enabled>
                        <in>102</in>
                        <out>1271</out>
                        <file id="SecondScenePark.3.2.Banana.Take1.WAV 1">
                            <duration>1376</duration>
                            <rate>
                                <timebase>24</timebase>
                                <ntsc>TRUE</ntsc>
                            </rate>
                            <name>1A-1217.WAV</name>
                            <pathurl>file:///Volumes/Jackson/footage/sound/day%202/11-22-22/1A-1217.WAV</pathurl>
                            <media>
                                <audio>
                                    <channelcount>5</channelcount>
                                </audio>
                            </media>
                        </file>
                        <sourcetrack>
                            <mediatype>audio</mediatype>
                            <trackindex>1</trackindex>
                        </sourcetrack>
                        <filter>
                            <enabled>TRUE</enabled>
                            <start>0</start>
                            <end>1376</end>
                            <effect>
                                <name>Audio Levels</name>
                                <effectid>audiolevels</effectid>
                                <effecttype>audiolevels</effecttype>
                                <mediatype>audio</mediatype>
                                <effectcategory>audiolevels</effectcategory>
                                <parameter>
                                    <name>Level</name>
                                    <parameterid>level</parameterid>
                                    <value>1</value>
                                    <valuemin>1e-05</valuemin>
                                    <valuemax>31.6228</valuemax>
                                </parameter>
                            </effect>
                        </filter>
                        <filter>
                            <enabled>TRUE</enabled>
                            <start>0</start>
                            <end>1376</end>
                            <effect>
                                <name>Audio Pan</name>
                                <effectid>audiopan</effectid>
                                <effecttype>audiopan</effecttype>
                                <mediatype>audio</mediatype>
                                <effectcategory>audiopan</effectcategory>
                                <parameter>
                                    <name>Pan</name>
                                    <parameterid>pan</parameterid>
                                    <value>0</value>
                                    <valuemin>-1</valuemin>
                                    <valuemax>1</valuemax>
                                </parameter>
                            </effect>
                        </filter>
                        <link>
                            <linkclipref>SecondScenePark.3.2.Banana.Take1.WAV 0</linkclipref>
                        </link>
                        <link>
                            <linkclipref>SecondScenePark.3.2.Banana.Take1.WAV 2</linkclipref>
                        </link>
                        <link>
                            <linkclipref>SecondScenePark.3.2.Banana.Take1.WAV 3</linkclipref>
                        </link>
                        <link>
                            <linkclipref>SecondScenePark.3.2.Banana.Take1.WAV 4</linkclipref>
                        </link>
                        <link>
                            <linkclipref>SecondScenePark.3.2.Banana.Take1.WAV 5</linkclipref>
                        </link>
                        <comments/>
                    </clipitem>
                    <clipitem id="SecondScenePark.3.2.Take3.WAV 2">
                        <name>SecondScenePark.3.2.Take3.WAV</name>
                        <duration>900</duration>
                        <rate>
                            <timebase>24</timebase>
                            <ntsc>TRUE</ntsc>
                        </rate>
                        <start>29432</start>
                        <end>30227</end>
                        <enabled>TRUE</enabled>
                        <in>0</in>
                        <out>795</out>
                        <file id="SecondScenePark.3.2.Take3.WAV 3">
                            <duration>900</duration>
                            <rate>
                                <timebase>24</timebase>
                                <ntsc>TRUE</ntsc>
                            </rate>
                            <name>1A-1218.WAV</name>
                            <pathurl>file:///Volumes/Jackson/footage/sound/day%202/11-22-22/1A-1218.WAV</pathurl>
                            <media>
                                <audio>
                                    <channelcount>5</channelcount>
                                </audio>
                            </media>
                        </file>
                        <sourcetrack>
                            <mediatype>audio</mediatype>
                            <trackindex>1</trackindex>
                        </sourcetrack>
                        <filter>
                            <enabled>TRUE</enabled>
                            <start>0</start>
                            <end>900</end>
                            <effect>
                                <name>Audio Levels</name>
                                <effectid>audiolevels</effectid>
                                <effecttype>audiolevels</effecttype>
                                <mediatype>audio</mediatype>
                                <effectcategory>audiolevels</effectcategory>
                                <parameter>
                                    <name>Level</name>
                                    <parameterid>level</parameterid>
                                    <value>1</value>
                                    <valuemin>1e-05</valuemin>
                                    <valuemax>31.6228</valuemax>
                                </parameter>
                            </effect>
                        </filter>
                        <filter>
                            <enabled>TRUE</enabled>
                            <start>0</start>
                            <end>900</end>
                            <effect>
                                <name>Audio Pan</name>
                                <effectid>audiopan</effectid>
                                <effecttype>audiopan</effecttype>
                                <mediatype>audio</mediatype>
                                <effectcategory>audiopan</effectcategory>
                                <parameter>
                                    <name>Pan</name>
                                    <parameterid>pan</parameterid>
                                    <value>0</value>
                                    <valuemin>-1</valuemin>
                                    <valuemax>1</valuemax>
                                </parameter>
                            </effect>
                        </filter>
                        <link>
                            <linkclipref>SecondScenePark.3.2.Take3.WAV 2</linkclipref>
                        </link>
                        <link>
                            <linkclipref>SecondScenePark.3.2.Take3.WAV 5</linkclipref>
                        </link>
                        <link>
                            <linkclipref>SecondScenePark.3.2.Take3.WAV 7</linkclipref>
                        </link>
                        <link>
                            <linkclipref>SecondScenePark.3.2.Take3.WAV 9</linkclipref>
                        </link>
                        <link>
                            <linkclipref>SecondScenePark.3.2.Take3.WAV 11</linkclipref>
                        </link>
                        <comments/>
                    </clipitem>
                    <clipitem id="SecondScenePark.3.4.Take1.WAV 0">
                        <name>SecondScenePark.3.4.Take1.WAV</name>
                        <duration>1922</duration>
                        <rate>
                            <timebase>24</timebase>
                            <ntsc>TRUE</ntsc>
                        </rate>
                        <start>30227</start>
                        <end>31522</end>
                        <enabled>TRUE</enabled>
                        <in>205</in>
                        <out>1499</out>
                        <file id="SecondScenePark.3.4.Take1.WAV 1">
                            <duration>1922</duration>
                            <rate>
                                <timebase>24</timebase>
                                <ntsc>TRUE</ntsc>
                            </rate>
                            <name>1A-1219.WAV</name>
                            <pathurl>file:///Volumes/Jackson/footage/sound/day%202/11-22-22/1A-1219.WAV</pathurl>
                            <media>
                                <audio>
                                    <channelcount>5</channelcount>
                                </audio>
                            </media>
                        </file>
                        <sourcetrack>
                            <mediatype>audio</mediatype>
                            <trackindex>1</trackindex>
                        </sourcetrack>
                        <filter>
                            <enabled>TRUE</enabled>
                            <start>0</start>
                            <end>1922</end>
                            <effect>
                                <name>Audio Levels</name>
                                <effectid>audiolevels</effectid>
                                <effecttype>audiolevels</effecttype>
                                <mediatype>audio</mediatype>
                                <effectcategory>audiolevels</effectcategory>
                                <parameter>
                                    <name>Level</name>
                                    <parameterid>level</parameterid>
                                    <value>1</value>
                                    <valuemin>1e-05</valuemin>
                                    <valuemax>31.6228</valuemax>
                                </parameter>
                            </effect>
                        </filter>
                        <filter>
                            <enabled>TRUE</enabled>
                            <start>0</start>
                            <end>1922</end>
                            <effect>
                                <name>Audio Pan</name>
                                <effectid>audiopan</effectid>
                                <effecttype>audiopan</effecttype>
                                <mediatype>audio</mediatype>
                                <effectcategory>audiopan</effectcategory>
                                <parameter>
                                    <name>Pan</name>
                                    <parameterid>pan</parameterid>
                                    <value>0</value>
                                    <valuemin>-1</valuemin>
                                    <valuemax>1</valuemax>
                                </parameter>
                            </effect>
                        </filter>
                        <link>
                            <linkclipref>SecondScenePark.3.4.Take1.WAV 0</linkclipref>
                        </link>
                        <link>
                            <linkclipref>SecondScenePark.3.4.Take1.WAV 2</linkclipref>
                        </link>
                        <link>
                            <linkclipref>SecondScenePark.3.4.Take1.WAV 3</linkclipref>
                        </link>
                        <link>
                            <linkclipref>SecondScenePark.3.4.Take1.WAV 4</linkclipref>
                        </link>
                        <link>
                            <linkclipref>SecondScenePark.3.4.Take1.WAV 5</linkclipref>
                        </link>
                        <comments/>
                    </clipitem>
                    <clipitem id="SecondScenePark.3.4.Take2.WAV 0">
                        <name>SecondScenePark.3.4.Take2.WAV</name>
                        <duration>2334</duration>
                        <rate>
                            <timebase>24</timebase>
                            <ntsc>TRUE</ntsc>
                        </rate>
                        <start>31522</start>
                        <end>33370</end>
                        <enabled>TRUE</enabled>
                        <in>142</in>
                        <out>1989</out>
                        <file id="SecondScenePark.3.4.Take2.WAV 1">
                            <duration>2334</duration>
                            <rate>
                                <timebase>24</timebase>
                                <ntsc>TRUE</ntsc>
                            </rate>
                            <name>1A-1220.WAV</name>
                            <pathurl>file:///Volumes/Jackson/footage/sound/day%202/11-22-22/1A-1220.WAV</pathurl>
                            <media>
                                <audio>
                                    <channelcount>5</channelcount>
                                </audio>
                            </media>
                        </file>
                        <sourcetrack>
                            <mediatype>audio</mediatype>
                            <trackindex>1</trackindex>
                        </sourcetrack>
                        <filter>
                            <enabled>TRUE</enabled>
                            <start>0</start>
                            <end>2334</end>
                            <effect>
                                <name>Audio Levels</name>
                                <effectid>audiolevels</effectid>
                                <effecttype>audiolevels</effecttype>
                                <mediatype>audio</mediatype>
                                <effectcategory>audiolevels</effectcategory>
                                <parameter>
                                    <name>Level</name>
                                    <parameterid>level</parameterid>
                                    <value>1</value>
                                    <valuemin>1e-05</valuemin>
                                    <valuemax>31.6228</valuemax>
                                </parameter>
                            </effect>
                        </filter>
                        <filter>
                            <enabled>TRUE</enabled>
                            <start>0</start>
                            <end>2334</end>
                            <effect>
                                <name>Audio Pan</name>
                                <effectid>audiopan</effectid>
                                <effecttype>audiopan</effecttype>
                                <mediatype>audio</mediatype>
                                <effectcategory>audiopan</effectcategory>
                                <parameter>
                                    <name>Pan</name>
                                    <parameterid>pan</parameterid>
                                    <value>0</value>
                                    <valuemin>-1</valuemin>
                                    <valuemax>1</valuemax>
                                </parameter>
                            </effect>
                        </filter>
                        <link>
                            <linkclipref>SecondScenePark.3.4.Take2.WAV 0</linkclipref>
                        </link>
                        <link>
                            <linkclipref>SecondScenePark.3.4.Take2.WAV 2</linkclipref>
                        </link>
                        <link>
                            <linkclipref>SecondScenePark.3.4.Take2.WAV 3</linkclipref>
                        </link>
                        <link>
                            <linkclipref>SecondScenePark.3.4.Take2.WAV 4</linkclipref>
                        </link>
                        <link>
                            <linkclipref>SecondScenePark.3.4.Take2.WAV 5</linkclipref>
                        </link>
                        <comments/>
                    </clipitem>
                    <clipitem id="SecondScenePark.3.5.Apple.Take1.WAV 0">
                        <name>SecondScenePark.3.5.Apple.Take1.WAV</name>
                        <duration>885</duration>
                        <rate>
                            <timebase>24</timebase>
                            <ntsc>TRUE</ntsc>
                        </rate>
                        <start>33446</start>
                        <end>34224</end>
                        <enabled>TRUE</enabled>
                        <in>0</in>
                        <out>778</out>
                        <file id="SecondScenePark.3.5.Apple.Take1.WAV 1">
                            <duration>885</duration>
                            <rate>
                                <timebase>24</timebase>
                                <ntsc>TRUE</ntsc>
                            </rate>
                            <name>1A-1224.WAV</name>
                            <pathurl>file:///Volumes/Jackson/footage/sound/day%202/11-22-22/1A-1224.WAV</pathurl>
                            <media>
                                <audio>
                                    <channelcount>5</channelcount>
                                </audio>
                            </media>
                        </file>
                        <sourcetrack>
                            <mediatype>audio</mediatype>
                            <trackindex>1</trackindex>
                        </sourcetrack>
                        <filter>
                            <enabled>TRUE</enabled>
                            <start>0</start>
                            <end>885</end>
                            <effect>
                                <name>Audio Levels</name>
                                <effectid>audiolevels</effectid>
                                <effecttype>audiolevels</effecttype>
                                <mediatype>audio</mediatype>
                                <effectcategory>audiolevels</effectcategory>
                                <parameter>
                                    <name>Level</name>
                                    <parameterid>level</parameterid>
                                    <value>1</value>
                                    <valuemin>1e-05</valuemin>
                                    <valuemax>31.6228</valuemax>
                                </parameter>
                            </effect>
                        </filter>
                        <filter>
                            <enabled>TRUE</enabled>
                            <start>0</start>
                            <end>885</end>
                            <effect>
                                <name>Audio Pan</name>
                                <effectid>audiopan</effectid>
                                <effecttype>audiopan</effecttype>
                                <mediatype>audio</mediatype>
                                <effectcategory>audiopan</effectcategory>
                                <parameter>
                                    <name>Pan</name>
                                    <parameterid>pan</parameterid>
                                    <value>0</value>
                                    <valuemin>-1</valuemin>
                                    <valuemax>1</valuemax>
                                </parameter>
                            </effect>
                        </filter>
                        <link>
                            <linkclipref>SecondScenePark.3.5.Apple.Take1.WAV 0</linkclipref>
                        </link>
                        <link>
                            <linkclipref>SecondScenePark.3.5.Apple.Take1.WAV 2</linkclipref>
                        </link>
                        <link>
                            <linkclipref>SecondScenePark.3.5.Apple.Take1.WAV 3</linkclipref>
                        </link>
                        <link>
                            <linkclipref>SecondScenePark.3.5.Apple.Take1.WAV 4</linkclipref>
                        </link>
                        <link>
                            <linkclipref>SecondScenePark.3.5.Apple.Take1.WAV 5</linkclipref>
                        </link>
                        <comments/>
                    </clipitem>
                    <clipitem id="SecondScenePark.3.5.Banana.Take1.WAV 0">
                        <name>SecondScenePark.3.5.Banana.Take1.WAV</name>
                        <duration>1340</duration>
                        <rate>
                            <timebase>24</timebase>
                            <ntsc>TRUE</ntsc>
                        </rate>
                        <start>34224</start>
                        <end>35150</end>
                        <enabled>TRUE</enabled>
                        <in>414</in>
                        <out>1340</out>
                        <file id="SecondScenePark.3.5.Banana.Take1.WAV 1">
                            <duration>1340</duration>
                            <rate>
                                <timebase>24</timebase>
                                <ntsc>TRUE</ntsc>
                            </rate>
                            <name>1A-1225.WAV</name>
                            <pathurl>file:///Volumes/Jackson/footage/sound/day%202/11-22-22/1A-1225.WAV</pathurl>
                            <media>
                                <audio>
                                    <channelcount>5</channelcount>
                                </audio>
                            </media>
                        </file>
                        <sourcetrack>
                            <mediatype>audio</mediatype>
                            <trackindex>1</trackindex>
                        </sourcetrack>
                        <filter>
                            <enabled>TRUE</enabled>
                            <start>0</start>
                            <end>1340</end>
                            <effect>
                                <name>Audio Levels</name>
                                <effectid>audiolevels</effectid>
                                <effecttype>audiolevels</effecttype>
                                <mediatype>audio</mediatype>
                                <effectcategory>audiolevels</effectcategory>
                                <parameter>
                                    <name>Level</name>
                                    <parameterid>level</parameterid>
                                    <value>1</value>
                                    <valuemin>1e-05</valuemin>
                                    <valuemax>31.6228</valuemax>
                                </parameter>
                            </effect>
                        </filter>
                        <filter>
                            <enabled>TRUE</enabled>
                            <start>0</start>
                            <end>1340</end>
                            <effect>
                                <name>Audio Pan</name>
                                <effectid>audiopan</effectid>
                                <effecttype>audiopan</effecttype>
                                <mediatype>audio</mediatype>
                                <effectcategory>audiopan</effectcategory>
                                <parameter>
                                    <name>Pan</name>
                                    <parameterid>pan</parameterid>
                                    <value>0</value>
                                    <valuemin>-1</valuemin>
                                    <valuemax>1</valuemax>
                                </parameter>
                            </effect>
                        </filter>
                        <link>
                            <linkclipref>SecondScenePark.3.5.Banana.Take1.WAV 0</linkclipref>
                        </link>
                        <link>
                            <linkclipref>SecondScenePark.3.5.Banana.Take1.WAV 2</linkclipref>
                        </link>
                        <link>
                            <linkclipref>SecondScenePark.3.5.Banana.Take1.WAV 3</linkclipref>
                        </link>
                        <link>
                            <linkclipref>SecondScenePark.3.5.Banana.Take1.WAV 4</linkclipref>
                        </link>
                        <link>
                            <linkclipref>SecondScenePark.3.5.Banana.Take1.WAV 5</linkclipref>
                        </link>
                        <comments/>
                    </clipitem>
                    <clipitem id="SecondScenePark.3.5.Take1.WAV 0">
                        <name>SecondScenePark.3.5.Take1.WAV</name>
                        <duration>1038</duration>
                        <rate>
                            <timebase>24</timebase>
                            <ntsc>TRUE</ntsc>
                        </rate>
                        <start>35158</start>
                        <end>36196</end>
                        <enabled>TRUE</enabled>
                        <in>0</in>
                        <out>1038</out>
                        <file id="SecondScenePark.3.5.Take1.WAV 1">
                            <duration>1038</duration>
                            <rate>
                                <timebase>24</timebase>
                                <ntsc>TRUE</ntsc>
                            </rate>
                            <name>1A-1222.WAV</name>
                            <pathurl>file:///Volumes/Jackson/footage/sound/day%202/11-22-22/1A-1222.WAV</pathurl>
                            <media>
                                <audio>
                                    <channelcount>5</channelcount>
                                </audio>
                            </media>
                        </file>
                        <sourcetrack>
                            <mediatype>audio</mediatype>
                            <trackindex>1</trackindex>
                        </sourcetrack>
                        <filter>
                            <enabled>TRUE</enabled>
                            <start>0</start>
                            <end>1038</end>
                            <effect>
                                <name>Audio Levels</name>
                                <effectid>audiolevels</effectid>
                                <effecttype>audiolevels</effecttype>
                                <mediatype>audio</mediatype>
                                <effectcategory>audiolevels</effectcategory>
                                <parameter>
                                    <name>Level</name>
                                    <parameterid>level</parameterid>
                                    <value>1</value>
                                    <valuemin>1e-05</valuemin>
                                    <valuemax>31.6228</valuemax>
                                </parameter>
                            </effect>
                        </filter>
                        <filter>
                            <enabled>TRUE</enabled>
                            <start>0</start>
                            <end>1038</end>
                            <effect>
                                <name>Audio Pan</name>
                                <effectid>audiopan</effectid>
                                <effecttype>audiopan</effecttype>
                                <mediatype>audio</mediatype>
                                <effectcategory>audiopan</effectcategory>
                                <parameter>
                                    <name>Pan</name>
                                    <parameterid>pan</parameterid>
                                    <value>0</value>
                                    <valuemin>-1</valuemin>
                                    <valuemax>1</valuemax>
                                </parameter>
                            </effect>
                        </filter>
                        <link>
                            <linkclipref>SecondScenePark.3.5.Take1.WAV 0</linkclipref>
                        </link>
                        <link>
                            <linkclipref>SecondScenePark.3.5.Take1.WAV 2</linkclipref>
                        </link>
                        <link>
                            <linkclipref>SecondScenePark.3.5.Take1.WAV 3</linkclipref>
                        </link>
                        <link>
                            <linkclipref>SecondScenePark.3.5.Take1.WAV 4</linkclipref>
                        </link>
                        <link>
                            <linkclipref>SecondScenePark.3.5.Take1.WAV 5</linkclipref>
                        </link>
                        <comments/>
                    </clipitem>
                    <clipitem id="SecondScenePark.3.5.Take2.WAV 0">
                        <name>SecondScenePark.3.5.Take2.WAV</name>
                        <duration>781</duration>
                        <rate>
                            <timebase>24</timebase>
                            <ntsc>TRUE</ntsc>
                        </rate>
                        <start>36341</start>
                        <end>37122</end>
                        <enabled>TRUE</enabled>
                        <in>0</in>
                        <out>781</out>
                        <file id="SecondScenePark.3.5.Take2.WAV 1">
                            <duration>781</duration>
                            <rate>
                                <timebase>24</timebase>
                                <ntsc>TRUE</ntsc>
                            </rate>
                            <name>1A-1223.WAV</name>
                            <pathurl>file:///Volumes/Jackson/footage/sound/day%202/11-22-22/1A-1223.WAV</pathurl>
                            <media>
                                <audio>
                                    <channelcount>5</channelcount>
                                </audio>
                            </media>
                        </file>
                        <sourcetrack>
                            <mediatype>audio</mediatype>
                            <trackindex>1</trackindex>
                        </sourcetrack>
                        <filter>
                            <enabled>TRUE</enabled>
                            <start>0</start>
                            <end>781</end>
                            <effect>
                                <name>Audio Levels</name>
                                <effectid>audiolevels</effectid>
                                <effecttype>audiolevels</effecttype>
                                <mediatype>audio</mediatype>
                                <effectcategory>audiolevels</effectcategory>
                                <parameter>
                                    <name>Level</name>
                                    <parameterid>level</parameterid>
                                    <value>1</value>
                                    <valuemin>1e-05</valuemin>
                                    <valuemax>31.6228</valuemax>
                                </parameter>
                            </effect>
                        </filter>
                        <filter>
                            <enabled>TRUE</enabled>
                            <start>0</start>
                            <end>781</end>
                            <effect>
                                <name>Audio Pan</name>
                                <effectid>audiopan</effectid>
                                <effecttype>audiopan</effecttype>
                                <mediatype>audio</mediatype>
                                <effectcategory>audiopan</effectcategory>
                                <parameter>
                                    <name>Pan</name>
                                    <parameterid>pan</parameterid>
                                    <value>0</value>
                                    <valuemin>-1</valuemin>
                                    <valuemax>1</valuemax>
                                </parameter>
                            </effect>
                        </filter>
                        <link>
                            <linkclipref>SecondScenePark.3.5.Take2.WAV 0</linkclipref>
                        </link>
                        <link>
                            <linkclipref>SecondScenePark.3.5.Take2.WAV 2</linkclipref>
                        </link>
                        <link>
                            <linkclipref>SecondScenePark.3.5.Take2.WAV 3</linkclipref>
                        </link>
                        <link>
                            <linkclipref>SecondScenePark.3.5.Take2.WAV 4</linkclipref>
                        </link>
                        <link>
                            <linkclipref>SecondScenePark.3.5.Take2.WAV 5</linkclipref>
                        </link>
                        <comments/>
                    </clipitem>
                    <clipitem id="SecondScenePark.3.5.Caw.Take1.WAV 0">
                        <name>SecondScenePark.3.5.Caw.Take1.WAV</name>
                        <duration>717</duration>
                        <rate>
                            <timebase>24</timebase>
                            <ntsc>TRUE</ntsc>
                        </rate>
                        <start>37442</start>
                        <end>37840</end>
                        <enabled>TRUE</enabled>
                        <in>0</in>
                        <out>397</out>
                        <file id="SecondScenePark.3.5.Caw.Take1.WAV 1">
                            <duration>717</duration>
                            <rate>
                                <timebase>24</timebase>
                                <ntsc>TRUE</ntsc>
                            </rate>
                            <name>1A-1227.WAV</name>
                            <pathurl>file:///Volumes/Jackson/footage/sound/day%202/11-22-22/1A-1227.WAV</pathurl>
                            <media>
                                <audio>
                                    <channelcount>4</channelcount>
                                </audio>
                            </media>
                        </file>
                        <sourcetrack>
                            <mediatype>audio</mediatype>
                            <trackindex>1</trackindex>
                        </sourcetrack>
                        <filter>
                            <enabled>TRUE</enabled>
                            <start>0</start>
                            <end>717</end>
                            <effect>
                                <name>Audio Levels</name>
                                <effectid>audiolevels</effectid>
                                <effecttype>audiolevels</effecttype>
                                <mediatype>audio</mediatype>
                                <effectcategory>audiolevels</effectcategory>
                                <parameter>
                                    <name>Level</name>
                                    <parameterid>level</parameterid>
                                    <value>1</value>
                                    <valuemin>1e-05</valuemin>
                                    <valuemax>31.6228</valuemax>
                                </parameter>
                            </effect>
                        </filter>
                        <filter>
                            <enabled>TRUE</enabled>
                            <start>0</start>
                            <end>717</end>
                            <effect>
                                <name>Audio Pan</name>
                                <effectid>audiopan</effectid>
                                <effecttype>audiopan</effecttype>
                                <mediatype>audio</mediatype>
                                <effectcategory>audiopan</effectcategory>
                                <parameter>
                                    <name>Pan</name>
                                    <parameterid>pan</parameterid>
                                    <value>0</value>
                                    <valuemin>-1</valuemin>
                                    <valuemax>1</valuemax>
                                </parameter>
                            </effect>
                        </filter>
                        <link>
                            <linkclipref>SecondScenePark.3.5.Caw.Take1.WAV 0</linkclipref>
                        </link>
                        <link>
                            <linkclipref>SecondScenePark.3.5.Caw.Take1.WAV 2</linkclipref>
                        </link>
                        <link>
                            <linkclipref>SecondScenePark.3.5.Caw.Take1.WAV 3</linkclipref>
                        </link>
                        <link>
                            <linkclipref>SecondScenePark.3.5.Caw.Take1.WAV 4</linkclipref>
                        </link>
                        <comments/>
                    </clipitem>
                    <clipitem id="SecondScenePark.3.5.Caw.Take2.WAV 0">
                        <name>SecondScenePark.3.5.Caw.Take2.WAV</name>
                        <duration>582</duration>
                        <rate>
                            <timebase>24</timebase>
                            <ntsc>TRUE</ntsc>
                        </rate>
                        <start>37840</start>
                        <end>38422</end>
                        <enabled>TRUE</enabled>
                        <in>0</in>
                        <out>582</out>
                        <file id="SecondScenePark.3.5.Caw.Take2.WAV 1">
                            <duration>582</duration>
                            <rate>
                                <timebase>24</timebase>
                                <ntsc>TRUE</ntsc>
                            </rate>
                            <name>1A-1228.WAV</name>
                            <pathurl>file:///Volumes/Jackson/footage/sound/day%202/11-22-22/1A-1228.WAV</pathurl>
                            <media>
                                <audio>
                                    <channelcount>4</channelcount>
                                </audio>
                            </media>
                        </file>
                        <sourcetrack>
                            <mediatype>audio</mediatype>
                            <trackindex>1</trackindex>
                        </sourcetrack>
                        <filter>
                            <enabled>TRUE</enabled>
                            <start>0</start>
                            <end>582</end>
                            <effect>
                                <name>Audio Levels</name>
                                <effectid>audiolevels</effectid>
                                <effecttype>audiolevels</effecttype>
                                <mediatype>audio</mediatype>
                                <effectcategory>audiolevels</effectcategory>
                                <parameter>
                                    <name>Level</name>
                                    <parameterid>level</parameterid>
                                    <value>1</value>
                                    <valuemin>1e-05</valuemin>
                                    <valuemax>31.6228</valuemax>
                                </parameter>
                            </effect>
                        </filter>
                        <filter>
                            <enabled>TRUE</enabled>
                            <start>0</start>
                            <end>582</end>
                            <effect>
                                <name>Audio Pan</name>
                                <effectid>audiopan</effectid>
                                <effecttype>audiopan</effecttype>
                                <mediatype>audio</mediatype>
                                <effectcategory>audiopan</effectcategory>
                                <parameter>
                                    <name>Pan</name>
                                    <parameterid>pan</parameterid>
                                    <value>0</value>
                                    <valuemin>-1</valuemin>
                                    <valuemax>1</valuemax>
                                </parameter>
                            </effect>
                        </filter>
                        <link>
                            <linkclipref>SecondScenePark.3.5.Caw.Take2.WAV 0</linkclipref>
                        </link>
                        <link>
                            <linkclipref>SecondScenePark.3.5.Caw.Take2.WAV 2</linkclipref>
                        </link>
                        <link>
                            <linkclipref>SecondScenePark.3.5.Caw.Take2.WAV 3</linkclipref>
                        </link>
                        <link>
                            <linkclipref>SecondScenePark.3.5.Caw.Take2.WAV 4</linkclipref>
                        </link>
                        <comments/>
                    </clipitem>
                    <clipitem id="SecondScenePark.4.1.Take3.WAV 0">
                        <name>SecondScenePark.4.1.Take3.WAV</name>
                        <duration>371</duration>
                        <rate>
                            <timebase>24</timebase>
                            <ntsc>TRUE</ntsc>
                        </rate>
                        <start>38714</start>
                        <end>39085</end>
                        <enabled>TRUE</enabled>
                        <in>0</in>
                        <out>371</out>
                        <file id="SecondScenePark.4.1.Take3.WAV 1">
                            <duration>371</duration>
                            <rate>
                                <timebase>24</timebase>
                                <ntsc>TRUE</ntsc>
                            </rate>
                            <name>1A-1230.WAV</name>
                            <pathurl>file:///Volumes/Jackson/footage/sound/day%202/11-22-22/1A-1230.WAV</pathurl>
                            <media>
                                <audio>
                                    <channelcount>4</channelcount>
                                </audio>
                            </media>
                        </file>
                        <sourcetrack>
                            <mediatype>audio</mediatype>
                            <trackindex>1</trackindex>
                        </sourcetrack>
                        <filter>
                            <enabled>TRUE</enabled>
                            <start>0</start>
                            <end>371</end>
                            <effect>
                                <name>Audio Levels</name>
                                <effectid>audiolevels</effectid>
                                <effecttype>audiolevels</effecttype>
                                <mediatype>audio</mediatype>
                                <effectcategory>audiolevels</effectcategory>
                                <parameter>
                                    <name>Level</name>
                                    <parameterid>level</parameterid>
                                    <value>1</value>
                                    <valuemin>1e-05</valuemin>
                                    <valuemax>31.6228</valuemax>
                                </parameter>
                            </effect>
                        </filter>
                        <filter>
                            <enabled>TRUE</enabled>
                            <start>0</start>
                            <end>371</end>
                            <effect>
                                <name>Audio Pan</name>
                                <effectid>audiopan</effectid>
                                <effecttype>audiopan</effecttype>
                                <mediatype>audio</mediatype>
                                <effectcategory>audiopan</effectcategory>
                                <parameter>
                                    <name>Pan</name>
                                    <parameterid>pan</parameterid>
                                    <value>0</value>
                                    <valuemin>-1</valuemin>
                                    <valuemax>1</valuemax>
                                </parameter>
                            </effect>
                        </filter>
                        <link>
                            <linkclipref>SecondScenePark.4.1.Take3.WAV 0</linkclipref>
                        </link>
                        <link>
                            <linkclipref>SecondScenePark.4.1.Take3.WAV 2</linkclipref>
                        </link>
                        <link>
                            <linkclipref>SecondScenePark.4.1.Take3.WAV 3</linkclipref>
                        </link>
                        <link>
                            <linkclipref>SecondScenePark.4.1.Take3.WAV 4</linkclipref>
                        </link>
                        <comments/>
                    </clipitem>
                    <clipitem id="SecondScenePark.4.Take1.WAV 0">
                        <name>SecondScenePark.4.Take1.WAV</name>
                        <duration>1349</duration>
                        <rate>
                            <timebase>24</timebase>
                            <ntsc>TRUE</ntsc>
                        </rate>
                        <start>39101</start>
                        <end>39667</end>
                        <enabled>TRUE</enabled>
                        <in>0</in>
                        <out>566</out>
                        <file id="SecondScenePark.4.Take1.WAV 1">
                            <duration>1349</duration>
                            <rate>
                                <timebase>24</timebase>
                                <ntsc>TRUE</ntsc>
                            </rate>
                            <name>1A-1233.WAV</name>
                            <pathurl>file:///Volumes/Jackson/footage/sound/day%202/11-22-22/1A-1233.WAV</pathurl>
                            <media>
                                <audio>
                                    <channelcount>4</channelcount>
                                </audio>
                            </media>
                        </file>
                        <sourcetrack>
                            <mediatype>audio</mediatype>
                            <trackindex>1</trackindex>
                        </sourcetrack>
                        <filter>
                            <enabled>TRUE</enabled>
                            <start>0</start>
                            <end>1349</end>
                            <effect>
                                <name>Audio Levels</name>
                                <effectid>audiolevels</effectid>
                                <effecttype>audiolevels</effecttype>
                                <mediatype>audio</mediatype>
                                <effectcategory>audiolevels</effectcategory>
                                <parameter>
                                    <name>Level</name>
                                    <parameterid>level</parameterid>
                                    <value>1</value>
                                    <valuemin>1e-05</valuemin>
                                    <valuemax>31.6228</valuemax>
                                </parameter>
                            </effect>
                        </filter>
                        <filter>
                            <enabled>TRUE</enabled>
                            <start>0</start>
                            <end>1349</end>
                            <effect>
                                <name>Audio Pan</name>
                                <effectid>audiopan</effectid>
                                <effecttype>audiopan</effecttype>
                                <mediatype>audio</mediatype>
                                <effectcategory>audiopan</effectcategory>
                                <parameter>
                                    <name>Pan</name>
                                    <parameterid>pan</parameterid>
                                    <value>0</value>
                                    <valuemin>-1</valuemin>
                                    <valuemax>1</valuemax>
                                </parameter>
                            </effect>
                        </filter>
                        <link>
                            <linkclipref>SecondScenePark.4.Take1.WAV 0</linkclipref>
                        </link>
                        <link>
                            <linkclipref>SecondScenePark.4.Take1.WAV 2</linkclipref>
                        </link>
                        <link>
                            <linkclipref>SecondScenePark.4.Take1.WAV 3</linkclipref>
                        </link>
                        <link>
                            <linkclipref>SecondScenePark.4.Take1.WAV 4</linkclipref>
                        </link>
                        <comments/>
                    </clipitem>
                    <clipitem id="SecondScenePark.4.Take2.WAV 0">
                        <name>SecondScenePark.4.Take2.WAV</name>
                        <duration>838</duration>
                        <rate>
                            <timebase>24</timebase>
                            <ntsc>TRUE</ntsc>
                        </rate>
                        <start>39667</start>
                        <end>40417</end>
                        <enabled>TRUE</enabled>
                        <in>63</in>
                        <out>812</out>
                        <file id="SecondScenePark.4.Take2.WAV 1">
                            <duration>838</duration>
                            <rate>
                                <timebase>24</timebase>
                                <ntsc>TRUE</ntsc>
                            </rate>
                            <name>1A-1235.WAV</name>
                            <pathurl>file:///Volumes/Jackson/footage/sound/day%202/11-22-22/1A-1235.WAV</pathurl>
                            <media>
                                <audio>
                                    <channelcount>4</channelcount>
                                </audio>
                            </media>
                        </file>
                        <sourcetrack>
                            <mediatype>audio</mediatype>
                            <trackindex>1</trackindex>
                        </sourcetrack>
                        <filter>
                            <enabled>TRUE</enabled>
                            <start>0</start>
                            <end>838</end>
                            <effect>
                                <name>Audio Levels</name>
                                <effectid>audiolevels</effectid>
                                <effecttype>audiolevels</effecttype>
                                <mediatype>audio</mediatype>
                                <effectcategory>audiolevels</effectcategory>
                                <parameter>
                                    <name>Level</name>
                                    <parameterid>level</parameterid>
                                    <value>1</value>
                                    <valuemin>1e-05</valuemin>
                                    <valuemax>31.6228</valuemax>
                                </parameter>
                            </effect>
                        </filter>
                        <filter>
                            <enabled>TRUE</enabled>
                            <start>0</start>
                            <end>838</end>
                            <effect>
                                <name>Audio Pan</name>
                                <effectid>audiopan</effectid>
                                <effecttype>audiopan</effecttype>
                                <mediatype>audio</mediatype>
                                <effectcategory>audiopan</effectcategory>
                                <parameter>
                                    <name>Pan</name>
                                    <parameterid>pan</parameterid>
                                    <value>0</value>
                                    <valuemin>-1</valuemin>
                                    <valuemax>1</valuemax>
                                </parameter>
                            </effect>
                        </filter>
                        <link>
                            <linkclipref>SecondScenePark.4.Take2.WAV 0</linkclipref>
                        </link>
                        <link>
                            <linkclipref>SecondScenePark.4.Take2.WAV 2</linkclipref>
                        </link>
                        <link>
                            <linkclipref>SecondScenePark.4.Take2.WAV 3</linkclipref>
                        </link>
                        <link>
                            <linkclipref>SecondScenePark.4.Take2.WAV 4</linkclipref>
                        </link>
                        <comments/>
                    </clipitem>
                    <clipitem id="SecondScenePark.4.Take3.WAV 0">
                        <name>SecondScenePark.4.Take3.WAV</name>
                        <duration>607</duration>
                        <rate>
                            <timebase>24</timebase>
                            <ntsc>TRUE</ntsc>
                        </rate>
                        <start>40417</start>
                        <end>41021</end>
                        <enabled>TRUE</enabled>
                        <in>1</in>
                        <out>606</out>
                        <file id="SecondScenePark.4.Take3.WAV 1">
                            <duration>607</duration>
                            <rate>
                                <timebase>24</timebase>
                                <ntsc>TRUE</ntsc>
                            </rate>
                            <name>1A-1236.WAV</name>
                            <pathurl>file:///Volumes/Jackson/footage/sound/day%202/11-22-22/1A-1236.WAV</pathurl>
                            <media>
                                <audio>
                                    <channelcount>4</channelcount>
                                </audio>
                            </media>
                        </file>
                        <sourcetrack>
                            <mediatype>audio</mediatype>
                            <trackindex>1</trackindex>
                        </sourcetrack>
                        <filter>
                            <enabled>TRUE</enabled>
                            <start>0</start>
                            <end>607</end>
                            <effect>
                                <name>Audio Levels</name>
                                <effectid>audiolevels</effectid>
                                <effecttype>audiolevels</effecttype>
                                <mediatype>audio</mediatype>
                                <effectcategory>audiolevels</effectcategory>
                                <parameter>
                                    <name>Level</name>
                                    <parameterid>level</parameterid>
                                    <value>1</value>
                                    <valuemin>1e-05</valuemin>
                                    <valuemax>31.6228</valuemax>
                                </parameter>
                            </effect>
                        </filter>
                        <filter>
                            <enabled>TRUE</enabled>
                            <start>0</start>
                            <end>607</end>
                            <effect>
                                <name>Audio Pan</name>
                                <effectid>audiopan</effectid>
                                <effecttype>audiopan</effecttype>
                                <mediatype>audio</mediatype>
                                <effectcategory>audiopan</effectcategory>
                                <parameter>
                                    <name>Pan</name>
                                    <parameterid>pan</parameterid>
                                    <value>0</value>
                                    <valuemin>-1</valuemin>
                                    <valuemax>1</valuemax>
                                </parameter>
                            </effect>
                        </filter>
                        <link>
                            <linkclipref>SecondScenePark.4.Take3.WAV 0</linkclipref>
                        </link>
                        <link>
                            <linkclipref>SecondScenePark.4.Take3.WAV 2</linkclipref>
                        </link>
                        <link>
                            <linkclipref>SecondScenePark.4.Take3.WAV 3</linkclipref>
                        </link>
                        <link>
                            <linkclipref>SecondScenePark.4.Take3.WAV 4</linkclipref>
                        </link>
                        <comments/>
                    </clipitem>
                    <clipitem id="SecondScenePark.4.Take4.WAV 0">
                        <name>SecondScenePark.4.Take4.WAV</name>
                        <duration>743</duration>
                        <rate>
                            <timebase>24</timebase>
                            <ntsc>TRUE</ntsc>
                        </rate>
                        <start>41021</start>
                        <end>41564</end>
                        <enabled>TRUE</enabled>
                        <in>23</in>
                        <out>565</out>
                        <file id="SecondScenePark.4.Take4.WAV 1">
                            <duration>743</duration>
                            <rate>
                                <timebase>24</timebase>
                                <ntsc>TRUE</ntsc>
                            </rate>
                            <name>1A-1237.WAV</name>
                            <pathurl>file:///Volumes/Jackson/footage/sound/day%202/11-22-22/1A-1237.WAV</pathurl>
                            <media>
                                <audio>
                                    <channelcount>4</channelcount>
                                </audio>
                            </media>
                        </file>
                        <sourcetrack>
                            <mediatype>audio</mediatype>
                            <trackindex>1</trackindex>
                        </sourcetrack>
                        <filter>
                            <enabled>TRUE</enabled>
                            <start>0</start>
                            <end>743</end>
                            <effect>
                                <name>Audio Levels</name>
                                <effectid>audiolevels</effectid>
                                <effecttype>audiolevels</effecttype>
                                <mediatype>audio</mediatype>
                                <effectcategory>audiolevels</effectcategory>
                                <parameter>
                                    <name>Level</name>
                                    <parameterid>level</parameterid>
                                    <value>1</value>
                                    <valuemin>1e-05</valuemin>
                                    <valuemax>31.6228</valuemax>
                                </parameter>
                            </effect>
                        </filter>
                        <filter>
                            <enabled>TRUE</enabled>
                            <start>0</start>
                            <end>743</end>
                            <effect>
                                <name>Audio Pan</name>
                                <effectid>audiopan</effectid>
                                <effecttype>audiopan</effecttype>
                                <mediatype>audio</mediatype>
                                <effectcategory>audiopan</effectcategory>
                                <parameter>
                                    <name>Pan</name>
                                    <parameterid>pan</parameterid>
                                    <value>0</value>
                                    <valuemin>-1</valuemin>
                                    <valuemax>1</valuemax>
                                </parameter>
                            </effect>
                        </filter>
                        <link>
                            <linkclipref>SecondScenePark.4.Take4.WAV 0</linkclipref>
                        </link>
                        <link>
                            <linkclipref>SecondScenePark.4.Take4.WAV 2</linkclipref>
                        </link>
                        <link>
                            <linkclipref>SecondScenePark.4.Take4.WAV 3</linkclipref>
                        </link>
                        <link>
                            <linkclipref>SecondScenePark.4.Take4.WAV 4</linkclipref>
                        </link>
                        <comments/>
                    </clipitem>
                    <clipitem id="SecondScenePark.4.1.Take1.WAV 0">
                        <name>SecondScenePark.4.1.Take1.WAV</name>
                        <duration>757</duration>
                        <rate>
                            <timebase>24</timebase>
                            <ntsc>TRUE</ntsc>
                        </rate>
                        <start>41591</start>
                        <end>42308</end>
                        <enabled>TRUE</enabled>
                        <in>0</in>
                        <out>717</out>
                        <file id="SecondScenePark.4.1.Take1.WAV 1">
                            <duration>757</duration>
                            <rate>
                                <timebase>24</timebase>
                                <ntsc>TRUE</ntsc>
                            </rate>
                            <name>1A-1231.WAV</name>
                            <pathurl>file:///Volumes/Jackson/footage/sound/day%202/11-22-22/1A-1231.WAV</pathurl>
                            <media>
                                <audio>
                                    <channelcount>4</channelcount>
                                </audio>
                            </media>
                        </file>
                        <sourcetrack>
                            <mediatype>audio</mediatype>
                            <trackindex>1</trackindex>
                        </sourcetrack>
                        <filter>
                            <enabled>TRUE</enabled>
                            <start>0</start>
                            <end>757</end>
                            <effect>
                                <name>Audio Levels</name>
                                <effectid>audiolevels</effectid>
                                <effecttype>audiolevels</effecttype>
                                <mediatype>audio</mediatype>
                                <effectcategory>audiolevels</effectcategory>
                                <parameter>
                                    <name>Level</name>
                                    <parameterid>level</parameterid>
                                    <value>1</value>
                                    <valuemin>1e-05</valuemin>
                                    <valuemax>31.6228</valuemax>
                                </parameter>
                            </effect>
                        </filter>
                        <filter>
                            <enabled>TRUE</enabled>
                            <start>0</start>
                            <end>757</end>
                            <effect>
                                <name>Audio Pan</name>
                                <effectid>audiopan</effectid>
                                <effecttype>audiopan</effecttype>
                                <mediatype>audio</mediatype>
                                <effectcategory>audiopan</effectcategory>
                                <parameter>
                                    <name>Pan</name>
                                    <parameterid>pan</parameterid>
                                    <value>0</value>
                                    <valuemin>-1</valuemin>
                                    <valuemax>1</valuemax>
                                </parameter>
                            </effect>
                        </filter>
                        <link>
                            <linkclipref>SecondScenePark.4.1.Take1.WAV 0</linkclipref>
                        </link>
                        <link>
                            <linkclipref>SecondScenePark.4.1.Take1.WAV 2</linkclipref>
                        </link>
                        <link>
                            <linkclipref>SecondScenePark.4.1.Take1.WAV 3</linkclipref>
                        </link>
                        <link>
                            <linkclipref>SecondScenePark.4.1.Take1.WAV 4</linkclipref>
                        </link>
                        <comments/>
                    </clipitem>
                    <clipitem id="SecondScenePark.4.1.Take2.WAV 0">
                        <name>SecondScenePark.4.1.Take2.WAV</name>
                        <duration>684</duration>
                        <rate>
                            <timebase>24</timebase>
                            <ntsc>TRUE</ntsc>
                        </rate>
                        <start>42308</start>
                        <end>42938</end>
                        <enabled>TRUE</enabled>
                        <in>54</in>
                        <out>683</out>
                        <file id="SecondScenePark.4.1.Take2.WAV 1">
                            <duration>684</duration>
                            <rate>
                                <timebase>24</timebase>
                                <ntsc>TRUE</ntsc>
                            </rate>
                            <name>1A-1232.WAV</name>
                            <pathurl>file:///Volumes/Jackson/footage/sound/day%202/11-22-22/1A-1232.WAV</pathurl>
                            <media>
                                <audio>
                                    <channelcount>4</channelcount>
                                </audio>
                            </media>
                        </file>
                        <sourcetrack>
                            <mediatype>audio</mediatype>
                            <trackindex>1</trackindex>
                        </sourcetrack>
                        <filter>
                            <enabled>TRUE</enabled>
                            <start>0</start>
                            <end>684</end>
                            <effect>
                                <name>Audio Levels</name>
                                <effectid>audiolevels</effectid>
                                <effecttype>audiolevels</effecttype>
                                <mediatype>audio</mediatype>
                                <effectcategory>audiolevels</effectcategory>
                                <parameter>
                                    <name>Level</name>
                                    <parameterid>level</parameterid>
                                    <value>1</value>
                                    <valuemin>1e-05</valuemin>
                                    <valuemax>31.6228</valuemax>
                                </parameter>
                            </effect>
                        </filter>
                        <filter>
                            <enabled>TRUE</enabled>
                            <start>0</start>
                            <end>684</end>
                            <effect>
                                <name>Audio Pan</name>
                                <effectid>audiopan</effectid>
                                <effecttype>audiopan</effecttype>
                                <mediatype>audio</mediatype>
                                <effectcategory>audiopan</effectcategory>
                                <parameter>
                                    <name>Pan</name>
                                    <parameterid>pan</parameterid>
                                    <value>0</value>
                                    <valuemin>-1</valuemin>
                                    <valuemax>1</valuemax>
                                </parameter>
                            </effect>
                        </filter>
                        <link>
                            <linkclipref>SecondScenePark.4.1.Take2.WAV 0</linkclipref>
                        </link>
                        <link>
                            <linkclipref>SecondScenePark.4.1.Take2.WAV 2</linkclipref>
                        </link>
                        <link>
                            <linkclipref>SecondScenePark.4.1.Take2.WAV 3</linkclipref>
                        </link>
                        <link>
                            <linkclipref>SecondScenePark.4.1.Take2.WAV 4</linkclipref>
                        </link>
                        <comments/>
                    </clipitem>
                    <clipitem id="SecondScenePark.5.Take1.WAV 0">
                        <name>SecondScenePark.5.Take1.WAV</name>
                        <duration>1020</duration>
                        <rate>
                            <timebase>24</timebase>
                            <ntsc>TRUE</ntsc>
                        </rate>
                        <start>42987</start>
                        <end>44007</end>
                        <enabled>TRUE</enabled>
                        <in>0</in>
                        <out>1020</out>
                        <file id="SecondScenePark.5.Take1.WAV 1">
                            <duration>1020</duration>
                            <rate>
                                <timebase>24</timebase>
                                <ntsc>TRUE</ntsc>
                            </rate>
                            <name>1A-1238.WAV</name>
                            <pathurl>file:///Volumes/Jackson/footage/sound/day%202/11-22-22/1A-1238.WAV</pathurl>
                            <media>
                                <audio>
                                    <channelcount>4</channelcount>
                                </audio>
                            </media>
                        </file>
                        <sourcetrack>
                            <mediatype>audio</mediatype>
                            <trackindex>1</trackindex>
                        </sourcetrack>
                        <filter>
                            <enabled>TRUE</enabled>
                            <start>0</start>
                            <end>1020</end>
                            <effect>
                                <name>Audio Levels</name>
                                <effectid>audiolevels</effectid>
                                <effecttype>audiolevels</effecttype>
                                <mediatype>audio</mediatype>
                                <effectcategory>audiolevels</effectcategory>
                                <parameter>
                                    <name>Level</name>
                                    <parameterid>level</parameterid>
                                    <value>1</value>
                                    <valuemin>1e-05</valuemin>
                                    <valuemax>31.6228</valuemax>
                                </parameter>
                            </effect>
                        </filter>
                        <filter>
                            <enabled>TRUE</enabled>
                            <start>0</start>
                            <end>1020</end>
                            <effect>
                                <name>Audio Pan</name>
                                <effectid>audiopan</effectid>
                                <effecttype>audiopan</effecttype>
                                <mediatype>audio</mediatype>
                                <effectcategory>audiopan</effectcategory>
                                <parameter>
                                    <name>Pan</name>
                                    <parameterid>pan</parameterid>
                                    <value>0</value>
                                    <valuemin>-1</valuemin>
                                    <valuemax>1</valuemax>
                                </parameter>
                            </effect>
                        </filter>
                        <link>
                            <linkclipref>SecondScenePark.5.Take1.WAV 0</linkclipref>
                        </link>
                        <link>
                            <linkclipref>SecondScenePark.5.Take1.WAV 2</linkclipref>
                        </link>
                        <link>
                            <linkclipref>SecondScenePark.5.Take1.WAV 3</linkclipref>
                        </link>
                        <link>
                            <linkclipref>SecondScenePark.5.Take1.WAV 4</linkclipref>
                        </link>
                        <comments/>
                    </clipitem>
                    <enabled>TRUE</enabled>
                    <locked>FALSE</locked>
                </track>
                <track>
                    <clipitem id="SecondScenePark.1.Apple.Take1.WAV 5">
                        <name>SecondScenePark.1.Apple.Take1.WAV</name>
                        <duration>970</duration>
                        <rate>
                            <timebase>24</timebase>
                            <ntsc>TRUE</ntsc>
                        </rate>
                        <start>3321</start>
                        <end>3892</end>
                        <enabled>TRUE</enabled>
                        <in>0</in>
                        <out>570</out>
                        <file id="SecondScenePark.1.Apple.Take1.WAV 1"/>
                        <sourcetrack>
                            <mediatype>audio</mediatype>
                            <trackindex>3</trackindex>
                        </sourcetrack>
                        <filter>
                            <enabled>TRUE</enabled>
                            <start>0</start>
                            <end>970</end>
                            <effect>
                                <name>Audio Levels</name>
                                <effectid>audiolevels</effectid>
                                <effecttype>audiolevels</effecttype>
                                <mediatype>audio</mediatype>
                                <effectcategory>audiolevels</effectcategory>
                                <parameter>
                                    <name>Level</name>
                                    <parameterid>level</parameterid>
                                    <value>1</value>
                                    <valuemin>1e-05</valuemin>
                                    <valuemax>31.6228</valuemax>
                                </parameter>
                            </effect>
                        </filter>
                        <filter>
                            <enabled>TRUE</enabled>
                            <start>0</start>
                            <end>970</end>
                            <effect>
                                <name>Audio Pan</name>
                                <effectid>audiopan</effectid>
                                <effecttype>audiopan</effecttype>
                                <mediatype>audio</mediatype>
                                <effectcategory>audiopan</effectcategory>
                                <parameter>
                                    <name>Pan</name>
                                    <parameterid>pan</parameterid>
                                    <value>0</value>
                                    <valuemin>-1</valuemin>
                                    <valuemax>1</valuemax>
                                </parameter>
                            </effect>
                        </filter>
                        <link>
                            <linkclipref>SecondScenePark.1.Apple.Take1.WAV 3</linkclipref>
                            <mediatype>audio</mediatype>
                        </link>
                        <link>
                            <linkclipref>SecondScenePark.1.Apple.Take1.WAV 0</linkclipref>
                            <mediatype>audio</mediatype>
                        </link>
                        <link>
                            <linkclipref>SecondScenePark.1.Apple.Take1.WAV 5</linkclipref>
                        </link>
                        <link>
                            <linkclipref>SecondScenePark.1.Apple.Take1.WAV 7</linkclipref>
                        </link>
                        <link>
                            <linkclipref>SecondScenePark.1.Apple.Take1.WAV 9</linkclipref>
                        </link>
                        <comments/>
                    </clipitem>
                    <clipitem id="SecondScenePark.1.Apple.Take1.WAV 6">
                        <name>SecondScenePark.1.Apple.Take1.WAV</name>
                        <duration>970</duration>
                        <rate>
                            <timebase>24</timebase>
                            <ntsc>TRUE</ntsc>
                        </rate>
                        <start>3892</start>
                        <end>4292</end>
                        <enabled>TRUE</enabled>
                        <in>570</in>
                        <out>970</out>
                        <file id="SecondScenePark.1.Apple.Take1.WAV 1"/>
                        <sourcetrack>
                            <mediatype>audio</mediatype>
                            <trackindex>3</trackindex>
                        </sourcetrack>
                        <filter>
                            <enabled>TRUE</enabled>
                            <start>0</start>
                            <end>970</end>
                            <effect>
                                <name>Audio Levels</name>
                                <effectid>audiolevels</effectid>
                                <effecttype>audiolevels</effecttype>
                                <mediatype>audio</mediatype>
                                <effectcategory>audiolevels</effectcategory>
                                <parameter>
                                    <name>Level</name>
                                    <parameterid>level</parameterid>
                                    <value>1</value>
                                    <valuemin>1e-05</valuemin>
                                    <valuemax>31.6228</valuemax>
                                </parameter>
                            </effect>
                        </filter>
                        <filter>
                            <enabled>TRUE</enabled>
                            <start>0</start>
                            <end>970</end>
                            <effect>
                                <name>Audio Pan</name>
                                <effectid>audiopan</effectid>
                                <effecttype>audiopan</effecttype>
                                <mediatype>audio</mediatype>
                                <effectcategory>audiopan</effectcategory>
                                <parameter>
                                    <name>Pan</name>
                                    <parameterid>pan</parameterid>
                                    <value>0</value>
                                    <valuemin>-1</valuemin>
                                    <valuemax>1</valuemax>
                                </parameter>
                            </effect>
                        </filter>
                        <link>
                            <linkclipref>SecondScenePark.1.Apple.Take1.WAV 4</linkclipref>
                            <mediatype>audio</mediatype>
                        </link>
                        <link>
                            <linkclipref>SecondScenePark.1.Apple.Take1.WAV 2</linkclipref>
                            <mediatype>audio</mediatype>
                        </link>
                        <link>
                            <linkclipref>SecondScenePark.1.Apple.Take1.WAV 6</linkclipref>
                        </link>
                        <link>
                            <linkclipref>SecondScenePark.1.Apple.Take1.WAV 8</linkclipref>
                        </link>
                        <link>
                            <linkclipref>SecondScenePark.1.Apple.Take1.WAV 10</linkclipref>
                        </link>
                        <comments/>
                    </clipitem>
                    <clipitem id="SecondScenePark.1.Take1.WAV 2">
                        <name>SecondScenePark.1.Take1.WAV</name>
                        <duration>1008</duration>
                        <rate>
                            <timebase>24</timebase>
                            <ntsc>TRUE</ntsc>
                        </rate>
                        <start>5040</start>
                        <end>5998</end>
                        <enabled>TRUE</enabled>
                        <in>0</in>
                        <out>957</out>
                        <file id="SecondScenePark.1.Take1.WAV 1"/>
                        <sourcetrack>
                            <mediatype>audio</mediatype>
                            <trackindex>2</trackindex>
                        </sourcetrack>
                        <filter>
                            <enabled>TRUE</enabled>
                            <start>0</start>
                            <end>1008</end>
                            <effect>
                                <name>Audio Levels</name>
                                <effectid>audiolevels</effectid>
                                <effecttype>audiolevels</effecttype>
                                <mediatype>audio</mediatype>
                                <effectcategory>audiolevels</effectcategory>
                                <parameter>
                                    <name>Level</name>
                                    <parameterid>level</parameterid>
                                    <value>1</value>
                                    <valuemin>1e-05</valuemin>
                                    <valuemax>31.6228</valuemax>
                                </parameter>
                            </effect>
                        </filter>
                        <filter>
                            <enabled>TRUE</enabled>
                            <start>0</start>
                            <end>1008</end>
                            <effect>
                                <name>Audio Pan</name>
                                <effectid>audiopan</effectid>
                                <effecttype>audiopan</effecttype>
                                <mediatype>audio</mediatype>
                                <effectcategory>audiopan</effectcategory>
                                <parameter>
                                    <name>Pan</name>
                                    <parameterid>pan</parameterid>
                                    <value>0</value>
                                    <valuemin>-1</valuemin>
                                    <valuemax>1</valuemax>
                                </parameter>
                            </effect>
                        </filter>
                        <link>
                            <linkclipref>SecondScenePark.1.Take1.WAV 0</linkclipref>
                            <mediatype>audio</mediatype>
                        </link>
                        <link>
                            <linkclipref>SecondScenePark.1.Take1.WAV 2</linkclipref>
                        </link>
                        <link>
                            <linkclipref>SecondScenePark.1.Take1.WAV 3</linkclipref>
                        </link>
                        <link>
                            <linkclipref>SecondScenePark.1.Take1.WAV 4</linkclipref>
                        </link>
                        <link>
                            <linkclipref>SecondScenePark.1.Take1.WAV 5</linkclipref>
                        </link>
                        <comments/>
                    </clipitem>
                    <clipitem id="SecondScenePark.1.Take3.WAV 2">
                        <name>SecondScenePark.1.Take3.WAV</name>
                        <duration>1089</duration>
                        <rate>
                            <timebase>24</timebase>
                            <ntsc>TRUE</ntsc>
                        </rate>
                        <start>5998</start>
                        <end>7087</end>
                        <enabled>TRUE</enabled>
                        <in>0</in>
                        <out>1088</out>
                        <file id="SecondScenePark.1.Take3.WAV 1"/>
                        <sourcetrack>
                            <mediatype>audio</mediatype>
                            <trackindex>2</trackindex>
                        </sourcetrack>
                        <filter>
                            <enabled>TRUE</enabled>
                            <start>0</start>
                            <end>1089</end>
                            <effect>
                                <name>Audio Levels</name>
                                <effectid>audiolevels</effectid>
                                <effecttype>audiolevels</effecttype>
                                <mediatype>audio</mediatype>
                                <effectcategory>audiolevels</effectcategory>
                                <parameter>
                                    <name>Level</name>
                                    <parameterid>level</parameterid>
                                    <value>1</value>
                                    <valuemin>1e-05</valuemin>
                                    <valuemax>31.6228</valuemax>
                                </parameter>
                            </effect>
                        </filter>
                        <filter>
                            <enabled>TRUE</enabled>
                            <start>0</start>
                            <end>1089</end>
                            <effect>
                                <name>Audio Pan</name>
                                <effectid>audiopan</effectid>
                                <effecttype>audiopan</effecttype>
                                <mediatype>audio</mediatype>
                                <effectcategory>audiopan</effectcategory>
                                <parameter>
                                    <name>Pan</name>
                                    <parameterid>pan</parameterid>
                                    <value>0</value>
                                    <valuemin>-1</valuemin>
                                    <valuemax>1</valuemax>
                                </parameter>
                            </effect>
                        </filter>
                        <link>
                            <linkclipref>SecondScenePark.1.Take3.WAV 0</linkclipref>
                            <mediatype>audio</mediatype>
                        </link>
                        <link>
                            <linkclipref>SecondScenePark.1.Take3.WAV 2</linkclipref>
                        </link>
                        <link>
                            <linkclipref>SecondScenePark.1.Take3.WAV 3</linkclipref>
                        </link>
                        <link>
                            <linkclipref>SecondScenePark.1.Take3.WAV 4</linkclipref>
                        </link>
                        <link>
                            <linkclipref>SecondScenePark.1.Take3.WAV 5</linkclipref>
                        </link>
                        <comments/>
                    </clipitem>
                    <clipitem id="SecondScenePark.1.Take2.WAV 2">
                        <name>SecondScenePark.1.Take2.WAV</name>
                        <duration>1118</duration>
                        <rate>
                            <timebase>24</timebase>
                            <ntsc>TRUE</ntsc>
                        </rate>
                        <start>7128</start>
                        <end>8246</end>
                        <enabled>TRUE</enabled>
                        <in>0</in>
                        <out>1117</out>
                        <file id="SecondScenePark.1.Take2.WAV 1"/>
                        <sourcetrack>
                            <mediatype>audio</mediatype>
                            <trackindex>2</trackindex>
                        </sourcetrack>
                        <filter>
                            <enabled>TRUE</enabled>
                            <start>0</start>
                            <end>1118</end>
                            <effect>
                                <name>Audio Levels</name>
                                <effectid>audiolevels</effectid>
                                <effecttype>audiolevels</effecttype>
                                <mediatype>audio</mediatype>
                                <effectcategory>audiolevels</effectcategory>
                                <parameter>
                                    <name>Level</name>
                                    <parameterid>level</parameterid>
                                    <value>1</value>
                                    <valuemin>1e-05</valuemin>
                                    <valuemax>31.6228</valuemax>
                                </parameter>
                            </effect>
                        </filter>
                        <filter>
                            <enabled>TRUE</enabled>
                            <start>0</start>
                            <end>1118</end>
                            <effect>
                                <name>Audio Pan</name>
                                <effectid>audiopan</effectid>
                                <effecttype>audiopan</effecttype>
                                <mediatype>audio</mediatype>
                                <effectcategory>audiopan</effectcategory>
                                <parameter>
                                    <name>Pan</name>
                                    <parameterid>pan</parameterid>
                                    <value>0</value>
                                    <valuemin>-1</valuemin>
                                    <valuemax>1</valuemax>
                                </parameter>
                            </effect>
                        </filter>
                        <link>
                            <linkclipref>SecondScenePark.1.Take2.WAV 0</linkclipref>
                            <mediatype>audio</mediatype>
                        </link>
                        <link>
                            <linkclipref>SecondScenePark.1.Take2.WAV 2</linkclipref>
                        </link>
                        <link>
                            <linkclipref>SecondScenePark.1.Take2.WAV 3</linkclipref>
                        </link>
                        <link>
                            <linkclipref>SecondScenePark.1.Take2.WAV 4</linkclipref>
                        </link>
                        <link>
                            <linkclipref>SecondScenePark.1.Take2.WAV 5</linkclipref>
                        </link>
                        <comments/>
                    </clipitem>
                    <clipitem id="SecondScenePark.2.Take2.WAV 2">
                        <name>SecondScenePark.2.Take2.WAV</name>
                        <duration>472</duration>
                        <rate>
                            <timebase>24</timebase>
                            <ntsc>TRUE</ntsc>
                        </rate>
                        <start>8275</start>
                        <end>8595</end>
                        <enabled>TRUE</enabled>
                        <in>150</in>
                        <out>470</out>
                        <file id="SecondScenePark.2.Take2.WAV 1"/>
                        <sourcetrack>
                            <mediatype>audio</mediatype>
                            <trackindex>2</trackindex>
                        </sourcetrack>
                        <filter>
                            <enabled>TRUE</enabled>
                            <start>0</start>
                            <end>472</end>
                            <effect>
                                <name>Audio Levels</name>
                                <effectid>audiolevels</effectid>
                                <effecttype>audiolevels</effecttype>
                                <mediatype>audio</mediatype>
                                <effectcategory>audiolevels</effectcategory>
                                <parameter>
                                    <name>Level</name>
                                    <parameterid>level</parameterid>
                                    <value>1</value>
                                    <valuemin>1e-05</valuemin>
                                    <valuemax>31.6228</valuemax>
                                </parameter>
                            </effect>
                        </filter>
                        <filter>
                            <enabled>TRUE</enabled>
                            <start>0</start>
                            <end>472</end>
                            <effect>
                                <name>Audio Pan</name>
                                <effectid>audiopan</effectid>
                                <effecttype>audiopan</effecttype>
                                <mediatype>audio</mediatype>
                                <effectcategory>audiopan</effectcategory>
                                <parameter>
                                    <name>Pan</name>
                                    <parameterid>pan</parameterid>
                                    <value>0</value>
                                    <valuemin>-1</valuemin>
                                    <valuemax>1</valuemax>
                                </parameter>
                            </effect>
                        </filter>
                        <link>
                            <linkclipref>SecondScenePark.2.Take2.WAV 0</linkclipref>
                            <mediatype>audio</mediatype>
                        </link>
                        <link>
                            <linkclipref>SecondScenePark.2.Take2.WAV 2</linkclipref>
                        </link>
                        <link>
                            <linkclipref>SecondScenePark.2.Take2.WAV 3</linkclipref>
                        </link>
                        <link>
                            <linkclipref>SecondScenePark.2.Take2.WAV 4</linkclipref>
                        </link>
                        <comments/>
                    </clipitem>
                    <clipitem id="SecondScenePark.2.Apple.Take1.WAV 2">
                        <name>SecondScenePark.2.Apple.Take1.WAV</name>
                        <duration>1796</duration>
                        <rate>
                            <timebase>24</timebase>
                            <ntsc>TRUE</ntsc>
                        </rate>
                        <start>8595</start>
                        <end>10293</end>
                        <enabled>TRUE</enabled>
                        <in>46</in>
                        <out>1743</out>
                        <file id="SecondScenePark.2.Apple.Take1.WAV 1"/>
                        <sourcetrack>
                            <mediatype>audio</mediatype>
                            <trackindex>2</trackindex>
                        </sourcetrack>
                        <filter>
                            <enabled>TRUE</enabled>
                            <start>0</start>
                            <end>1796</end>
                            <effect>
                                <name>Audio Levels</name>
                                <effectid>audiolevels</effectid>
                                <effecttype>audiolevels</effecttype>
                                <mediatype>audio</mediatype>
                                <effectcategory>audiolevels</effectcategory>
                                <parameter>
                                    <name>Level</name>
                                    <parameterid>level</parameterid>
                                    <value>1</value>
                                    <valuemin>1e-05</valuemin>
                                    <valuemax>31.6228</valuemax>
                                </parameter>
                            </effect>
                        </filter>
                        <filter>
                            <enabled>TRUE</enabled>
                            <start>0</start>
                            <end>1796</end>
                            <effect>
                                <name>Audio Pan</name>
                                <effectid>audiopan</effectid>
                                <effecttype>audiopan</effecttype>
                                <mediatype>audio</mediatype>
                                <effectcategory>audiopan</effectcategory>
                                <parameter>
                                    <name>Pan</name>
                                    <parameterid>pan</parameterid>
                                    <value>0</value>
                                    <valuemin>-1</valuemin>
                                    <valuemax>1</valuemax>
                                </parameter>
                            </effect>
                        </filter>
                        <link>
                            <linkclipref>SecondScenePark.2.Apple.Take1.WAV 0</linkclipref>
                            <mediatype>audio</mediatype>
                        </link>
                        <link>
                            <linkclipref>SecondScenePark.2.Apple.Take1.WAV 2</linkclipref>
                        </link>
                        <link>
                            <linkclipref>SecondScenePark.2.Apple.Take1.WAV 3</linkclipref>
                        </link>
                        <link>
                            <linkclipref>SecondScenePark.2.Apple.Take1.WAV 4</linkclipref>
                        </link>
                        <comments/>
                    </clipitem>
                    <clipitem id="SecondScenePark.2.Take1.WAV 2">
                        <name>SecondScenePark.2.Take1.WAV</name>
                        <duration>1029</duration>
                        <rate>
                            <timebase>24</timebase>
                            <ntsc>TRUE</ntsc>
                        </rate>
                        <start>10293</start>
                        <end>10749</end>
                        <enabled>TRUE</enabled>
                        <in>33</in>
                        <out>488</out>
                        <file id="SecondScenePark.2.Take1.WAV 1"/>
                        <sourcetrack>
                            <mediatype>audio</mediatype>
                            <trackindex>2</trackindex>
                        </sourcetrack>
                        <filter>
                            <enabled>TRUE</enabled>
                            <start>0</start>
                            <end>1029</end>
                            <effect>
                                <name>Audio Levels</name>
                                <effectid>audiolevels</effectid>
                                <effecttype>audiolevels</effecttype>
                                <mediatype>audio</mediatype>
                                <effectcategory>audiolevels</effectcategory>
                                <parameter>
                                    <name>Level</name>
                                    <parameterid>level</parameterid>
                                    <value>1</value>
                                    <valuemin>1e-05</valuemin>
                                    <valuemax>31.6228</valuemax>
                                </parameter>
                            </effect>
                        </filter>
                        <filter>
                            <enabled>TRUE</enabled>
                            <start>0</start>
                            <end>1029</end>
                            <effect>
                                <name>Audio Pan</name>
                                <effectid>audiopan</effectid>
                                <effecttype>audiopan</effecttype>
                                <mediatype>audio</mediatype>
                                <effectcategory>audiopan</effectcategory>
                                <parameter>
                                    <name>Pan</name>
                                    <parameterid>pan</parameterid>
                                    <value>0</value>
                                    <valuemin>-1</valuemin>
                                    <valuemax>1</valuemax>
                                </parameter>
                            </effect>
                        </filter>
                        <link>
                            <linkclipref>SecondScenePark.2.Take1.WAV 0</linkclipref>
                            <mediatype>audio</mediatype>
                        </link>
                        <link>
                            <linkclipref>SecondScenePark.2.Take1.WAV 2</linkclipref>
                        </link>
                        <link>
                            <linkclipref>SecondScenePark.2.Take1.WAV 3</linkclipref>
                        </link>
                        <link>
                            <linkclipref>SecondScenePark.2.Take1.WAV 4</linkclipref>
                        </link>
                        <comments/>
                    </clipitem>
                    <clipitem id="SecondScenePark.2.Take3.WAV 2">
                        <name>SecondScenePark.2.Take3.WAV</name>
                        <duration>892</duration>
                        <rate>
                            <timebase>24</timebase>
                            <ntsc>TRUE</ntsc>
                        </rate>
                        <start>10749</start>
                        <end>11590</end>
                        <enabled>TRUE</enabled>
                        <in>5</in>
                        <out>846</out>
                        <file id="SecondScenePark.2.Take3.WAV 1"/>
                        <sourcetrack>
                            <mediatype>audio</mediatype>
                            <trackindex>2</trackindex>
                        </sourcetrack>
                        <filter>
                            <enabled>TRUE</enabled>
                            <start>0</start>
                            <end>892</end>
                            <effect>
                                <name>Audio Levels</name>
                                <effectid>audiolevels</effectid>
                                <effecttype>audiolevels</effecttype>
                                <mediatype>audio</mediatype>
                                <effectcategory>audiolevels</effectcategory>
                                <parameter>
                                    <name>Level</name>
                                    <parameterid>level</parameterid>
                                    <value>1</value>
                                    <valuemin>1e-05</valuemin>
                                    <valuemax>31.6228</valuemax>
                                </parameter>
                            </effect>
                        </filter>
                        <filter>
                            <enabled>TRUE</enabled>
                            <start>0</start>
                            <end>892</end>
                            <effect>
                                <name>Audio Pan</name>
                                <effectid>audiopan</effectid>
                                <effecttype>audiopan</effecttype>
                                <mediatype>audio</mediatype>
                                <effectcategory>audiopan</effectcategory>
                                <parameter>
                                    <name>Pan</name>
                                    <parameterid>pan</parameterid>
                                    <value>0</value>
                                    <valuemin>-1</valuemin>
                                    <valuemax>1</valuemax>
                                </parameter>
                            </effect>
                        </filter>
                        <link>
                            <linkclipref>SecondScenePark.2.Take3.WAV 0</linkclipref>
                            <mediatype>audio</mediatype>
                        </link>
                        <link>
                            <linkclipref>SecondScenePark.2.Take3.WAV 2</linkclipref>
                        </link>
                        <link>
                            <linkclipref>SecondScenePark.2.Take3.WAV 3</linkclipref>
                        </link>
                        <link>
                            <linkclipref>SecondScenePark.2.Take3.WAV 4</linkclipref>
                        </link>
                        <comments/>
                    </clipitem>
                    <clipitem id="SecondScenePark.2.5.Take1.WAV 2">
                        <name>SecondScenePark.2.5.Take1.WAV</name>
                        <duration>1055</duration>
                        <rate>
                            <timebase>24</timebase>
                            <ntsc>TRUE</ntsc>
                        </rate>
                        <start>11590</start>
                        <end>12645</end>
                        <enabled>TRUE</enabled>
                        <in>0</in>
                        <out>1055</out>
                        <file id="SecondScenePark.2.5.Take1.WAV 1"/>
                        <sourcetrack>
                            <mediatype>audio</mediatype>
                            <trackindex>2</trackindex>
                        </sourcetrack>
                        <filter>
                            <enabled>TRUE</enabled>
                            <start>0</start>
                            <end>1055</end>
                            <effect>
                                <name>Audio Levels</name>
                                <effectid>audiolevels</effectid>
                                <effecttype>audiolevels</effecttype>
                                <mediatype>audio</mediatype>
                                <effectcategory>audiolevels</effectcategory>
                                <parameter>
                                    <name>Level</name>
                                    <parameterid>level</parameterid>
                                    <value>1</value>
                                    <valuemin>1e-05</valuemin>
                                    <valuemax>31.6228</valuemax>
                                </parameter>
                            </effect>
                        </filter>
                        <filter>
                            <enabled>TRUE</enabled>
                            <start>0</start>
                            <end>1055</end>
                            <effect>
                                <name>Audio Pan</name>
                                <effectid>audiopan</effectid>
                                <effecttype>audiopan</effecttype>
                                <mediatype>audio</mediatype>
                                <effectcategory>audiopan</effectcategory>
                                <parameter>
                                    <name>Pan</name>
                                    <parameterid>pan</parameterid>
                                    <value>0</value>
                                    <valuemin>-1</valuemin>
                                    <valuemax>1</valuemax>
                                </parameter>
                            </effect>
                        </filter>
                        <link>
                            <linkclipref>SecondScenePark.2.5.Take1.WAV 0</linkclipref>
                            <mediatype>audio</mediatype>
                        </link>
                        <link>
                            <linkclipref>SecondScenePark.2.5.Take1.WAV 2</linkclipref>
                        </link>
                        <link>
                            <linkclipref>SecondScenePark.2.5.Take1.WAV 3</linkclipref>
                        </link>
                        <link>
                            <linkclipref>SecondScenePark.2.5.Take1.WAV 4</linkclipref>
                        </link>
                        <comments/>
                    </clipitem>
                    <clipitem id="SecondScenePark.2.4.Take1.WAV 2">
                        <name>SecondScenePark.2.4.Take1.WAV</name>
                        <duration>2298</duration>
                        <rate>
                            <timebase>24</timebase>
                            <ntsc>TRUE</ntsc>
                        </rate>
                        <start>12645</start>
                        <end>14702</end>
                        <enabled>TRUE</enabled>
                        <in>106</in>
                        <out>2163</out>
                        <file id="SecondScenePark.2.4.Take1.WAV 1"/>
                        <sourcetrack>
                            <mediatype>audio</mediatype>
                            <trackindex>2</trackindex>
                        </sourcetrack>
                        <filter>
                            <enabled>TRUE</enabled>
                            <start>0</start>
                            <end>2298</end>
                            <effect>
                                <name>Audio Levels</name>
                                <effectid>audiolevels</effectid>
                                <effecttype>audiolevels</effecttype>
                                <mediatype>audio</mediatype>
                                <effectcategory>audiolevels</effectcategory>
                                <parameter>
                                    <name>Level</name>
                                    <parameterid>level</parameterid>
                                    <value>1</value>
                                    <valuemin>1e-05</valuemin>
                                    <valuemax>31.6228</valuemax>
                                </parameter>
                            </effect>
                        </filter>
                        <filter>
                            <enabled>TRUE</enabled>
                            <start>0</start>
                            <end>2298</end>
                            <effect>
                                <name>Audio Pan</name>
                                <effectid>audiopan</effectid>
                                <effecttype>audiopan</effecttype>
                                <mediatype>audio</mediatype>
                                <effectcategory>audiopan</effectcategory>
                                <parameter>
                                    <name>Pan</name>
                                    <parameterid>pan</parameterid>
                                    <value>0</value>
                                    <valuemin>-1</valuemin>
                                    <valuemax>1</valuemax>
                                </parameter>
                            </effect>
                        </filter>
                        <link>
                            <linkclipref>SecondScenePark.2.4.Take1.WAV 0</linkclipref>
                            <mediatype>audio</mediatype>
                        </link>
                        <link>
                            <linkclipref>SecondScenePark.2.4.Take1.WAV 2</linkclipref>
                        </link>
                        <link>
                            <linkclipref>SecondScenePark.2.4.Take1.WAV 3</linkclipref>
                        </link>
                        <link>
                            <linkclipref>SecondScenePark.2.4.Take1.WAV 4</linkclipref>
                        </link>
                        <comments/>
                    </clipitem>
                    <clipitem id="SecondScenePark.2.4.Take2.WAV 2">
                        <name>SecondScenePark.2.4.Take2.WAV</name>
                        <duration>1820</duration>
                        <rate>
                            <timebase>24</timebase>
                            <ntsc>TRUE</ntsc>
                        </rate>
                        <start>14702</start>
                        <end>16523</end>
                        <enabled>TRUE</enabled>
                        <in>0</in>
                        <out>1820</out>
                        <file id="SecondScenePark.2.4.Take2.WAV 1"/>
                        <sourcetrack>
                            <mediatype>audio</mediatype>
                            <trackindex>2</trackindex>
                        </sourcetrack>
                        <filter>
                            <enabled>TRUE</enabled>
                            <start>0</start>
                            <end>1820</end>
                            <effect>
                                <name>Audio Levels</name>
                                <effectid>audiolevels</effectid>
                                <effecttype>audiolevels</effecttype>
                                <mediatype>audio</mediatype>
                                <effectcategory>audiolevels</effectcategory>
                                <parameter>
                                    <name>Level</name>
                                    <parameterid>level</parameterid>
                                    <value>1</value>
                                    <valuemin>1e-05</valuemin>
                                    <valuemax>31.6228</valuemax>
                                </parameter>
                            </effect>
                        </filter>
                        <filter>
                            <enabled>TRUE</enabled>
                            <start>0</start>
                            <end>1820</end>
                            <effect>
                                <name>Audio Pan</name>
                                <effectid>audiopan</effectid>
                                <effecttype>audiopan</effecttype>
                                <mediatype>audio</mediatype>
                                <effectcategory>audiopan</effectcategory>
                                <parameter>
                                    <name>Pan</name>
                                    <parameterid>pan</parameterid>
                                    <value>0</value>
                                    <valuemin>-1</valuemin>
                                    <valuemax>1</valuemax>
                                </parameter>
                            </effect>
                        </filter>
                        <link>
                            <linkclipref>SecondScenePark.2.4.Take2.WAV 0</linkclipref>
                            <mediatype>audio</mediatype>
                        </link>
                        <link>
                            <linkclipref>SecondScenePark.2.4.Take2.WAV 2</linkclipref>
                        </link>
                        <link>
                            <linkclipref>SecondScenePark.2.4.Take2.WAV 3</linkclipref>
                        </link>
                        <link>
                            <linkclipref>SecondScenePark.2.4.Take2.WAV 4</linkclipref>
                        </link>
                        <comments/>
                    </clipitem>
                    <clipitem id="SecondScenePark.2.7.Take4.WAV 2">
                        <name>SecondScenePark.2.7.Take4.WAV</name>
                        <duration>891</duration>
                        <rate>
                            <timebase>24</timebase>
                            <ntsc>TRUE</ntsc>
                        </rate>
                        <start>16523</start>
                        <end>17386</end>
                        <enabled>TRUE</enabled>
                        <in>28</in>
                        <out>891</out>
                        <file id="SecondScenePark.2.7.Take4.WAV 1"/>
                        <sourcetrack>
                            <mediatype>audio</mediatype>
                            <trackindex>2</trackindex>
                        </sourcetrack>
                        <filter>
                            <enabled>TRUE</enabled>
                            <start>0</start>
                            <end>891</end>
                            <effect>
                                <name>Audio Levels</name>
                                <effectid>audiolevels</effectid>
                                <effecttype>audiolevels</effecttype>
                                <mediatype>audio</mediatype>
                                <effectcategory>audiolevels</effectcategory>
                                <parameter>
                                    <name>Level</name>
                                    <parameterid>level</parameterid>
                                    <value>1</value>
                                    <valuemin>1e-05</valuemin>
                                    <valuemax>31.6228</valuemax>
                                </parameter>
                            </effect>
                        </filter>
                        <filter>
                            <enabled>TRUE</enabled>
                            <start>0</start>
                            <end>891</end>
                            <effect>
                                <name>Audio Pan</name>
                                <effectid>audiopan</effectid>
                                <effecttype>audiopan</effecttype>
                                <mediatype>audio</mediatype>
                                <effectcategory>audiopan</effectcategory>
                                <parameter>
                                    <name>Pan</name>
                                    <parameterid>pan</parameterid>
                                    <value>0</value>
                                    <valuemin>-1</valuemin>
                                    <valuemax>1</valuemax>
                                </parameter>
                            </effect>
                        </filter>
                        <link>
                            <linkclipref>SecondScenePark.2.7.Take4.WAV 0</linkclipref>
                            <mediatype>audio</mediatype>
                        </link>
                        <link>
                            <linkclipref>SecondScenePark.2.7.Take4.WAV 2</linkclipref>
                        </link>
                        <link>
                            <linkclipref>SecondScenePark.2.7.Take4.WAV 3</linkclipref>
                        </link>
                        <link>
                            <linkclipref>SecondScenePark.2.7.Take4.WAV 4</linkclipref>
                        </link>
                        <comments/>
                    </clipitem>
                    <clipitem id="SecondScenePark.2.7.Take1.WAV 2">
                        <name>SecondScenePark.2.7.Take1.WAV</name>
                        <duration>935</duration>
                        <rate>
                            <timebase>24</timebase>
                            <ntsc>TRUE</ntsc>
                        </rate>
                        <start>17386</start>
                        <end>18157</end>
                        <enabled>TRUE</enabled>
                        <in>33</in>
                        <out>804</out>
                        <file id="SecondScenePark.2.7.Take1.WAV 1"/>
                        <sourcetrack>
                            <mediatype>audio</mediatype>
                            <trackindex>2</trackindex>
                        </sourcetrack>
                        <filter>
                            <enabled>TRUE</enabled>
                            <start>0</start>
                            <end>935</end>
                            <effect>
                                <name>Audio Levels</name>
                                <effectid>audiolevels</effectid>
                                <effecttype>audiolevels</effecttype>
                                <mediatype>audio</mediatype>
                                <effectcategory>audiolevels</effectcategory>
                                <parameter>
                                    <name>Level</name>
                                    <parameterid>level</parameterid>
                                    <value>1</value>
                                    <valuemin>1e-05</valuemin>
                                    <valuemax>31.6228</valuemax>
                                </parameter>
                            </effect>
                        </filter>
                        <filter>
                            <enabled>TRUE</enabled>
                            <start>0</start>
                            <end>935</end>
                            <effect>
                                <name>Audio Pan</name>
                                <effectid>audiopan</effectid>
                                <effecttype>audiopan</effecttype>
                                <mediatype>audio</mediatype>
                                <effectcategory>audiopan</effectcategory>
                                <parameter>
                                    <name>Pan</name>
                                    <parameterid>pan</parameterid>
                                    <value>0</value>
                                    <valuemin>-1</valuemin>
                                    <valuemax>1</valuemax>
                                </parameter>
                            </effect>
                        </filter>
                        <link>
                            <linkclipref>SecondScenePark.2.7.Take1.WAV 0</linkclipref>
                            <mediatype>audio</mediatype>
                        </link>
                        <link>
                            <linkclipref>SecondScenePark.2.7.Take1.WAV 2</linkclipref>
                        </link>
                        <link>
                            <linkclipref>SecondScenePark.2.7.Take1.WAV 3</linkclipref>
                        </link>
                        <link>
                            <linkclipref>SecondScenePark.2.7.Take1.WAV 4</linkclipref>
                        </link>
                        <comments/>
                    </clipitem>
                    <clipitem id="SecondScenePark.2.7.Take2.WAV 2">
                        <name>SecondScenePark.2.7.Take2.WAV</name>
                        <duration>1536</duration>
                        <rate>
                            <timebase>24</timebase>
                            <ntsc>TRUE</ntsc>
                        </rate>
                        <start>18157</start>
                        <end>18994</end>
                        <enabled>TRUE</enabled>
                        <in>627</in>
                        <out>1464</out>
                        <file id="SecondScenePark.2.7.Take2.WAV 1"/>
                        <sourcetrack>
                            <mediatype>audio</mediatype>
                            <trackindex>2</trackindex>
                        </sourcetrack>
                        <filter>
                            <enabled>TRUE</enabled>
                            <start>0</start>
                            <end>1536</end>
                            <effect>
                                <name>Audio Levels</name>
                                <effectid>audiolevels</effectid>
                                <effecttype>audiolevels</effecttype>
                                <mediatype>audio</mediatype>
                                <effectcategory>audiolevels</effectcategory>
                                <parameter>
                                    <name>Level</name>
                                    <parameterid>level</parameterid>
                                    <value>1</value>
                                    <valuemin>1e-05</valuemin>
                                    <valuemax>31.6228</valuemax>
                                </parameter>
                            </effect>
                        </filter>
                        <filter>
                            <enabled>TRUE</enabled>
                            <start>0</start>
                            <end>1536</end>
                            <effect>
                                <name>Audio Pan</name>
                                <effectid>audiopan</effectid>
                                <effecttype>audiopan</effecttype>
                                <mediatype>audio</mediatype>
                                <effectcategory>audiopan</effectcategory>
                                <parameter>
                                    <name>Pan</name>
                                    <parameterid>pan</parameterid>
                                    <value>0</value>
                                    <valuemin>-1</valuemin>
                                    <valuemax>1</valuemax>
                                </parameter>
                            </effect>
                        </filter>
                        <link>
                            <linkclipref>SecondScenePark.2.7.Take2.WAV 0</linkclipref>
                            <mediatype>audio</mediatype>
                        </link>
                        <link>
                            <linkclipref>SecondScenePark.2.7.Take2.WAV 2</linkclipref>
                        </link>
                        <link>
                            <linkclipref>SecondScenePark.2.7.Take2.WAV 3</linkclipref>
                        </link>
                        <link>
                            <linkclipref>SecondScenePark.2.7.Take2.WAV 4</linkclipref>
                        </link>
                        <comments/>
                    </clipitem>
                    <clipitem id="SecondScenePark.2.7.Take3.WAV 2">
                        <name>SecondScenePark.2.7.Take3.WAV</name>
                        <duration>1109</duration>
                        <rate>
                            <timebase>24</timebase>
                            <ntsc>TRUE</ntsc>
                        </rate>
                        <start>18994</start>
                        <end>20036</end>
                        <enabled>TRUE</enabled>
                        <in>44</in>
                        <out>1085</out>
                        <file id="SecondScenePark.2.7.Take3.WAV 1"/>
                        <sourcetrack>
                            <mediatype>audio</mediatype>
                            <trackindex>2</trackindex>
                        </sourcetrack>
                        <filter>
                            <enabled>TRUE</enabled>
                            <start>0</start>
                            <end>1109</end>
                            <effect>
                                <name>Audio Levels</name>
                                <effectid>audiolevels</effectid>
                                <effecttype>audiolevels</effecttype>
                                <mediatype>audio</mediatype>
                                <effectcategory>audiolevels</effectcategory>
                                <parameter>
                                    <name>Level</name>
                                    <parameterid>level</parameterid>
                                    <value>1</value>
                                    <valuemin>1e-05</valuemin>
                                    <valuemax>31.6228</valuemax>
                                </parameter>
                            </effect>
                        </filter>
                        <filter>
                            <enabled>TRUE</enabled>
                            <start>0</start>
                            <end>1109</end>
                            <effect>
                                <name>Audio Pan</name>
                                <effectid>audiopan</effectid>
                                <effecttype>audiopan</effecttype>
                                <mediatype>audio</mediatype>
                                <effectcategory>audiopan</effectcategory>
                                <parameter>
                                    <name>Pan</name>
                                    <parameterid>pan</parameterid>
                                    <value>0</value>
                                    <valuemin>-1</valuemin>
                                    <valuemax>1</valuemax>
                                </parameter>
                            </effect>
                        </filter>
                        <link>
                            <linkclipref>SecondScenePark.2.7.Take3.WAV 0</linkclipref>
                            <mediatype>audio</mediatype>
                        </link>
                        <link>
                            <linkclipref>SecondScenePark.2.7.Take3.WAV 2</linkclipref>
                        </link>
                        <link>
                            <linkclipref>SecondScenePark.2.7.Take3.WAV 3</linkclipref>
                        </link>
                        <link>
                            <linkclipref>SecondScenePark.2.7.Take3.WAV 4</linkclipref>
                        </link>
                        <comments/>
                    </clipitem>
                    <clipitem id="SecondScenePark.3.1.Take1.WAV 2">
                        <name>SecondScenePark.3.1.Take1.WAV</name>
                        <duration>1378</duration>
                        <rate>
                            <timebase>24</timebase>
                            <ntsc>TRUE</ntsc>
                        </rate>
                        <start>20036</start>
                        <end>21202</end>
                        <enabled>TRUE</enabled>
                        <in>63</in>
                        <out>1229</out>
                        <file id="SecondScenePark.3.1.Take1.WAV 1"/>
                        <sourcetrack>
                            <mediatype>audio</mediatype>
                            <trackindex>2</trackindex>
                        </sourcetrack>
                        <filter>
                            <enabled>TRUE</enabled>
                            <start>0</start>
                            <end>1378</end>
                            <effect>
                                <name>Audio Levels</name>
                                <effectid>audiolevels</effectid>
                                <effecttype>audiolevels</effecttype>
                                <mediatype>audio</mediatype>
                                <effectcategory>audiolevels</effectcategory>
                                <parameter>
                                    <name>Level</name>
                                    <parameterid>level</parameterid>
                                    <value>1</value>
                                    <valuemin>1e-05</valuemin>
                                    <valuemax>31.6228</valuemax>
                                </parameter>
                            </effect>
                        </filter>
                        <filter>
                            <enabled>TRUE</enabled>
                            <start>0</start>
                            <end>1378</end>
                            <effect>
                                <name>Audio Pan</name>
                                <effectid>audiopan</effectid>
                                <effecttype>audiopan</effecttype>
                                <mediatype>audio</mediatype>
                                <effectcategory>audiopan</effectcategory>
                                <parameter>
                                    <name>Pan</name>
                                    <parameterid>pan</parameterid>
                                    <value>0</value>
                                    <valuemin>-1</valuemin>
                                    <valuemax>1</valuemax>
                                </parameter>
                            </effect>
                        </filter>
                        <link>
                            <linkclipref>SecondScenePark.3.1.Take1.WAV 0</linkclipref>
                            <mediatype>audio</mediatype>
                        </link>
                        <link>
                            <linkclipref>SecondScenePark.3.1.Take1.WAV 2</linkclipref>
                        </link>
                        <link>
                            <linkclipref>SecondScenePark.3.1.Take1.WAV 3</linkclipref>
                        </link>
                        <link>
                            <linkclipref>SecondScenePark.3.1.Take1.WAV 4</linkclipref>
                        </link>
                        <link>
                            <linkclipref>SecondScenePark.3.1.Take1.WAV 5</linkclipref>
                        </link>
                        <comments/>
                    </clipitem>
                    <clipitem id="SecondScenePark.3.1.Take2.WAV 2">
                        <name>SecondScenePark.3.1.Take2.WAV</name>
                        <duration>1355</duration>
                        <rate>
                            <timebase>24</timebase>
                            <ntsc>TRUE</ntsc>
                        </rate>
                        <start>21202</start>
                        <end>22507</end>
                        <enabled>TRUE</enabled>
                        <in>0</in>
                        <out>1305</out>
                        <file id="SecondScenePark.3.1.Take2.WAV 1"/>
                        <sourcetrack>
                            <mediatype>audio</mediatype>
                            <trackindex>2</trackindex>
                        </sourcetrack>
                        <filter>
                            <enabled>TRUE</enabled>
                            <start>0</start>
                            <end>1355</end>
                            <effect>
                                <name>Audio Levels</name>
                                <effectid>audiolevels</effectid>
                                <effecttype>audiolevels</effecttype>
                                <mediatype>audio</mediatype>
                                <effectcategory>audiolevels</effectcategory>
                                <parameter>
                                    <name>Level</name>
                                    <parameterid>level</parameterid>
                                    <value>1</value>
                                    <valuemin>1e-05</valuemin>
                                    <valuemax>31.6228</valuemax>
                                </parameter>
                            </effect>
                        </filter>
                        <filter>
                            <enabled>TRUE</enabled>
                            <start>0</start>
                            <end>1355</end>
                            <effect>
                                <name>Audio Pan</name>
                                <effectid>audiopan</effectid>
                                <effecttype>audiopan</effecttype>
                                <mediatype>audio</mediatype>
                                <effectcategory>audiopan</effectcategory>
                                <parameter>
                                    <name>Pan</name>
                                    <parameterid>pan</parameterid>
                                    <value>0</value>
                                    <valuemin>-1</valuemin>
                                    <valuemax>1</valuemax>
                                </parameter>
                            </effect>
                        </filter>
                        <link>
                            <linkclipref>SecondScenePark.3.1.Take2.WAV 0</linkclipref>
                            <mediatype>audio</mediatype>
                        </link>
                        <link>
                            <linkclipref>SecondScenePark.3.1.Take2.WAV 2</linkclipref>
                        </link>
                        <link>
                            <linkclipref>SecondScenePark.3.1.Take2.WAV 3</linkclipref>
                        </link>
                        <link>
                            <linkclipref>SecondScenePark.3.1.Take2.WAV 4</linkclipref>
                        </link>
                        <link>
                            <linkclipref>SecondScenePark.3.1.Take2.WAV 5</linkclipref>
                        </link>
                        <comments/>
                    </clipitem>
                    <clipitem id="SecondScenePark.3.2.Banana.Take2.WAV 2">
                        <name>SecondScenePark.3.2.Banana.Take2.WAV</name>
                        <duration>2277</duration>
                        <rate>
                            <timebase>24</timebase>
                            <ntsc>TRUE</ntsc>
                        </rate>
                        <start>22507</start>
                        <end>23927</end>
                        <enabled>TRUE</enabled>
                        <in>856</in>
                        <out>2277</out>
                        <file id="SecondScenePark.3.2.Banana.Take2.WAV 1"/>
                        <sourcetrack>
                            <mediatype>audio</mediatype>
                            <trackindex>2</trackindex>
                        </sourcetrack>
                        <filter>
                            <enabled>TRUE</enabled>
                            <start>0</start>
                            <end>2277</end>
                            <effect>
                                <name>Audio Levels</name>
                                <effectid>audiolevels</effectid>
                                <effecttype>audiolevels</effecttype>
                                <mediatype>audio</mediatype>
                                <effectcategory>audiolevels</effectcategory>
                                <parameter>
                                    <name>Level</name>
                                    <parameterid>level</parameterid>
                                    <value>1</value>
                                    <valuemin>1e-05</valuemin>
                                    <valuemax>31.6228</valuemax>
                                </parameter>
                            </effect>
                        </filter>
                        <filter>
                            <enabled>TRUE</enabled>
                            <start>0</start>
                            <end>2277</end>
                            <effect>
                                <name>Audio Pan</name>
                                <effectid>audiopan</effectid>
                                <effecttype>audiopan</effecttype>
                                <mediatype>audio</mediatype>
                                <effectcategory>audiopan</effectcategory>
                                <parameter>
                                    <name>Pan</name>
                                    <parameterid>pan</parameterid>
                                    <value>0</value>
                                    <valuemin>-1</valuemin>
                                    <valuemax>1</valuemax>
                                </parameter>
                            </effect>
                        </filter>
                        <link>
                            <linkclipref>SecondScenePark.3.2.Banana.Take2.WAV 0</linkclipref>
                            <mediatype>audio</mediatype>
                        </link>
                        <link>
                            <linkclipref>SecondScenePark.3.2.Banana.Take2.WAV 2</linkclipref>
                        </link>
                        <link>
                            <linkclipref>SecondScenePark.3.2.Banana.Take2.WAV 3</linkclipref>
                        </link>
                        <link>
                            <linkclipref>SecondScenePark.3.2.Banana.Take2.WAV 4</linkclipref>
                        </link>
                        <link>
                            <linkclipref>SecondScenePark.3.2.Banana.Take2.WAV 5</linkclipref>
                        </link>
                        <comments/>
                    </clipitem>
                    <clipitem id="SecondScenePark.3.2.Take1.WAV 2">
                        <name>SecondScenePark.3.2.Take1.WAV</name>
                        <duration>1533</duration>
                        <rate>
                            <timebase>24</timebase>
                            <ntsc>TRUE</ntsc>
                        </rate>
                        <start>23979</start>
                        <end>25406</end>
                        <enabled>TRUE</enabled>
                        <in>0</in>
                        <out>1426</out>
                        <file id="SecondScenePark.3.2.Take1.WAV 1"/>
                        <sourcetrack>
                            <mediatype>audio</mediatype>
                            <trackindex>2</trackindex>
                        </sourcetrack>
                        <filter>
                            <enabled>TRUE</enabled>
                            <start>0</start>
                            <end>1533</end>
                            <effect>
                                <name>Audio Levels</name>
                                <effectid>audiolevels</effectid>
                                <effecttype>audiolevels</effecttype>
                                <mediatype>audio</mediatype>
                                <effectcategory>audiolevels</effectcategory>
                                <parameter>
                                    <name>Level</name>
                                    <parameterid>level</parameterid>
                                    <value>1</value>
                                    <valuemin>1e-05</valuemin>
                                    <valuemax>31.6228</valuemax>
                                </parameter>
                            </effect>
                        </filter>
                        <filter>
                            <enabled>TRUE</enabled>
                            <start>0</start>
                            <end>1533</end>
                            <effect>
                                <name>Audio Pan</name>
                                <effectid>audiopan</effectid>
                                <effecttype>audiopan</effecttype>
                                <mediatype>audio</mediatype>
                                <effectcategory>audiopan</effectcategory>
                                <parameter>
                                    <name>Pan</name>
                                    <parameterid>pan</parameterid>
                                    <value>0</value>
                                    <valuemin>-1</valuemin>
                                    <valuemax>1</valuemax>
                                </parameter>
                            </effect>
                        </filter>
                        <link>
                            <linkclipref>SecondScenePark.3.2.Take1.WAV 0</linkclipref>
                            <mediatype>audio</mediatype>
                        </link>
                        <link>
                            <linkclipref>SecondScenePark.3.2.Take1.WAV 2</linkclipref>
                        </link>
                        <link>
                            <linkclipref>SecondScenePark.3.2.Take1.WAV 3</linkclipref>
                        </link>
                        <link>
                            <linkclipref>SecondScenePark.3.2.Take1.WAV 4</linkclipref>
                        </link>
                        <link>
                            <linkclipref>SecondScenePark.3.2.Take1.WAV 5</linkclipref>
                        </link>
                        <comments/>
                    </clipitem>
                    <clipitem id="SecondScenePark.3.2.Take2.WAV 2">
                        <name>SecondScenePark.3.2.Take2.WAV</name>
                        <duration>1544</duration>
                        <rate>
                            <timebase>24</timebase>
                            <ntsc>TRUE</ntsc>
                        </rate>
                        <start>25406</start>
                        <end>26688</end>
                        <enabled>TRUE</enabled>
                        <in>204</in>
                        <out>1486</out>
                        <file id="SecondScenePark.3.2.Take2.WAV 1"/>
                        <sourcetrack>
                            <mediatype>audio</mediatype>
                            <trackindex>2</trackindex>
                        </sourcetrack>
                        <filter>
                            <enabled>TRUE</enabled>
                            <start>0</start>
                            <end>1544</end>
                            <effect>
                                <name>Audio Levels</name>
                                <effectid>audiolevels</effectid>
                                <effecttype>audiolevels</effecttype>
                                <mediatype>audio</mediatype>
                                <effectcategory>audiolevels</effectcategory>
                                <parameter>
                                    <name>Level</name>
                                    <parameterid>level</parameterid>
                                    <value>1</value>
                                    <valuemin>1e-05</valuemin>
                                    <valuemax>31.6228</valuemax>
                                </parameter>
                            </effect>
                        </filter>
                        <filter>
                            <enabled>TRUE</enabled>
                            <start>0</start>
                            <end>1544</end>
                            <effect>
                                <name>Audio Pan</name>
                                <effectid>audiopan</effectid>
                                <effecttype>audiopan</effecttype>
                                <mediatype>audio</mediatype>
                                <effectcategory>audiopan</effectcategory>
                                <parameter>
                                    <name>Pan</name>
                                    <parameterid>pan</parameterid>
                                    <value>0</value>
                                    <valuemin>-1</valuemin>
                                    <valuemax>1</valuemax>
                                </parameter>
                            </effect>
                        </filter>
                        <link>
                            <linkclipref>SecondScenePark.3.2.Take2.WAV 0</linkclipref>
                            <mediatype>audio</mediatype>
                        </link>
                        <link>
                            <linkclipref>SecondScenePark.3.2.Take2.WAV 2</linkclipref>
                        </link>
                        <link>
                            <linkclipref>SecondScenePark.3.2.Take2.WAV 3</linkclipref>
                        </link>
                        <link>
                            <linkclipref>SecondScenePark.3.2.Take2.WAV 4</linkclipref>
                        </link>
                        <link>
                            <linkclipref>SecondScenePark.3.2.Take2.WAV 5</linkclipref>
                        </link>
                        <comments/>
                    </clipitem>
                    <clipitem id="SecondScenePark.3.2.Take3.WAV 4">
                        <name>SecondScenePark.3.2.Take3.WAV</name>
                        <duration>1661</duration>
                        <rate>
                            <timebase>24</timebase>
                            <ntsc>TRUE</ntsc>
                        </rate>
                        <start>26688</start>
                        <end>28258</end>
                        <enabled>TRUE</enabled>
                        <in>0</in>
                        <out>1569</out>
                        <file id="SecondScenePark.3.2.Take3.WAV 1"/>
                        <sourcetrack>
                            <mediatype>audio</mediatype>
                            <trackindex>2</trackindex>
                        </sourcetrack>
                        <filter>
                            <enabled>TRUE</enabled>
                            <start>0</start>
                            <end>1661</end>
                            <effect>
                                <name>Audio Levels</name>
                                <effectid>audiolevels</effectid>
                                <effecttype>audiolevels</effecttype>
                                <mediatype>audio</mediatype>
                                <effectcategory>audiolevels</effectcategory>
                                <parameter>
                                    <name>Level</name>
                                    <parameterid>level</parameterid>
                                    <value>1</value>
                                    <valuemin>1e-05</valuemin>
                                    <valuemax>31.6228</valuemax>
                                </parameter>
                            </effect>
                        </filter>
                        <filter>
                            <enabled>TRUE</enabled>
                            <start>0</start>
                            <end>1661</end>
                            <effect>
                                <name>Audio Pan</name>
                                <effectid>audiopan</effectid>
                                <effecttype>audiopan</effecttype>
                                <mediatype>audio</mediatype>
                                <effectcategory>audiopan</effectcategory>
                                <parameter>
                                    <name>Pan</name>
                                    <parameterid>pan</parameterid>
                                    <value>0</value>
                                    <valuemin>-1</valuemin>
                                    <valuemax>1</valuemax>
                                </parameter>
                            </effect>
                        </filter>
                        <link>
                            <linkclipref>SecondScenePark.3.2.Take3.WAV 0</linkclipref>
                            <mediatype>audio</mediatype>
                        </link>
                        <link>
                            <linkclipref>SecondScenePark.3.2.Take3.WAV 4</linkclipref>
                        </link>
                        <link>
                            <linkclipref>SecondScenePark.3.2.Take3.WAV 6</linkclipref>
                        </link>
                        <link>
                            <linkclipref>SecondScenePark.3.2.Take3.WAV 8</linkclipref>
                        </link>
                        <link>
                            <linkclipref>SecondScenePark.3.2.Take3.WAV 10</linkclipref>
                        </link>
                        <comments/>
                    </clipitem>
                    <clipitem id="SecondScenePark.3.2.Banana.Take1.WAV 2">
                        <name>SecondScenePark.3.2.Banana.Take1.WAV</name>
                        <duration>1376</duration>
                        <rate>
                            <timebase>24</timebase>
                            <ntsc>TRUE</ntsc>
                        </rate>
                        <start>28258</start>
                        <end>29427</end>
                        <enabled>TRUE</enabled>
                        <in>102</in>
                        <out>1271</out>
                        <file id="SecondScenePark.3.2.Banana.Take1.WAV 1"/>
                        <sourcetrack>
                            <mediatype>audio</mediatype>
                            <trackindex>2</trackindex>
                        </sourcetrack>
                        <filter>
                            <enabled>TRUE</enabled>
                            <start>0</start>
                            <end>1376</end>
                            <effect>
                                <name>Audio Levels</name>
                                <effectid>audiolevels</effectid>
                                <effecttype>audiolevels</effecttype>
                                <mediatype>audio</mediatype>
                                <effectcategory>audiolevels</effectcategory>
                                <parameter>
                                    <name>Level</name>
                                    <parameterid>level</parameterid>
                                    <value>1</value>
                                    <valuemin>1e-05</valuemin>
                                    <valuemax>31.6228</valuemax>
                                </parameter>
                            </effect>
                        </filter>
                        <filter>
                            <enabled>TRUE</enabled>
                            <start>0</start>
                            <end>1376</end>
                            <effect>
                                <name>Audio Pan</name>
                                <effectid>audiopan</effectid>
                                <effecttype>audiopan</effecttype>
                                <mediatype>audio</mediatype>
                                <effectcategory>audiopan</effectcategory>
                                <parameter>
                                    <name>Pan</name>
                                    <parameterid>pan</parameterid>
                                    <value>0</value>
                                    <valuemin>-1</valuemin>
                                    <valuemax>1</valuemax>
                                </parameter>
                            </effect>
                        </filter>
                        <link>
                            <linkclipref>SecondScenePark.3.2.Banana.Take1.WAV 0</linkclipref>
                            <mediatype>audio</mediatype>
                        </link>
                        <link>
                            <linkclipref>SecondScenePark.3.2.Banana.Take1.WAV 2</linkclipref>
                        </link>
                        <link>
                            <linkclipref>SecondScenePark.3.2.Banana.Take1.WAV 3</linkclipref>
                        </link>
                        <link>
                            <linkclipref>SecondScenePark.3.2.Banana.Take1.WAV 4</linkclipref>
                        </link>
                        <link>
                            <linkclipref>SecondScenePark.3.2.Banana.Take1.WAV 5</linkclipref>
                        </link>
                        <comments/>
                    </clipitem>
                    <clipitem id="SecondScenePark.3.2.Take3.WAV 5">
                        <name>SecondScenePark.3.2.Take3.WAV</name>
                        <duration>900</duration>
                        <rate>
                            <timebase>24</timebase>
                            <ntsc>TRUE</ntsc>
                        </rate>
                        <start>29432</start>
                        <end>30227</end>
                        <enabled>TRUE</enabled>
                        <in>0</in>
                        <out>795</out>
                        <file id="SecondScenePark.3.2.Take3.WAV 3"/>
                        <sourcetrack>
                            <mediatype>audio</mediatype>
                            <trackindex>2</trackindex>
                        </sourcetrack>
                        <filter>
                            <enabled>TRUE</enabled>
                            <start>0</start>
                            <end>900</end>
                            <effect>
                                <name>Audio Levels</name>
                                <effectid>audiolevels</effectid>
                                <effecttype>audiolevels</effecttype>
                                <mediatype>audio</mediatype>
                                <effectcategory>audiolevels</effectcategory>
                                <parameter>
                                    <name>Level</name>
                                    <parameterid>level</parameterid>
                                    <value>1</value>
                                    <valuemin>1e-05</valuemin>
                                    <valuemax>31.6228</valuemax>
                                </parameter>
                            </effect>
                        </filter>
                        <filter>
                            <enabled>TRUE</enabled>
                            <start>0</start>
                            <end>900</end>
                            <effect>
                                <name>Audio Pan</name>
                                <effectid>audiopan</effectid>
                                <effecttype>audiopan</effecttype>
                                <mediatype>audio</mediatype>
                                <effectcategory>audiopan</effectcategory>
                                <parameter>
                                    <name>Pan</name>
                                    <parameterid>pan</parameterid>
                                    <value>0</value>
                                    <valuemin>-1</valuemin>
                                    <valuemax>1</valuemax>
                                </parameter>
                            </effect>
                        </filter>
                        <link>
                            <linkclipref>SecondScenePark.3.2.Take3.WAV 2</linkclipref>
                            <mediatype>audio</mediatype>
                        </link>
                        <link>
                            <linkclipref>SecondScenePark.3.2.Take3.WAV 5</linkclipref>
                        </link>
                        <link>
                            <linkclipref>SecondScenePark.3.2.Take3.WAV 7</linkclipref>
                        </link>
                        <link>
                            <linkclipref>SecondScenePark.3.2.Take3.WAV 9</linkclipref>
                        </link>
                        <link>
                            <linkclipref>SecondScenePark.3.2.Take3.WAV 11</linkclipref>
                        </link>
                        <comments/>
                    </clipitem>
                    <clipitem id="SecondScenePark.3.4.Take1.WAV 2">
                        <name>SecondScenePark.3.4.Take1.WAV</name>
                        <duration>1922</duration>
                        <rate>
                            <timebase>24</timebase>
                            <ntsc>TRUE</ntsc>
                        </rate>
                        <start>30227</start>
                        <end>31522</end>
                        <enabled>TRUE</enabled>
                        <in>205</in>
                        <out>1499</out>
                        <file id="SecondScenePark.3.4.Take1.WAV 1"/>
                        <sourcetrack>
                            <mediatype>audio</mediatype>
                            <trackindex>2</trackindex>
                        </sourcetrack>
                        <filter>
                            <enabled>TRUE</enabled>
                            <start>0</start>
                            <end>1922</end>
                            <effect>
                                <name>Audio Levels</name>
                                <effectid>audiolevels</effectid>
                                <effecttype>audiolevels</effecttype>
                                <mediatype>audio</mediatype>
                                <effectcategory>audiolevels</effectcategory>
                                <parameter>
                                    <name>Level</name>
                                    <parameterid>level</parameterid>
                                    <value>1</value>
                                    <valuemin>1e-05</valuemin>
                                    <valuemax>31.6228</valuemax>
                                </parameter>
                            </effect>
                        </filter>
                        <filter>
                            <enabled>TRUE</enabled>
                            <start>0</start>
                            <end>1922</end>
                            <effect>
                                <name>Audio Pan</name>
                                <effectid>audiopan</effectid>
                                <effecttype>audiopan</effecttype>
                                <mediatype>audio</mediatype>
                                <effectcategory>audiopan</effectcategory>
                                <parameter>
                                    <name>Pan</name>
                                    <parameterid>pan</parameterid>
                                    <value>0</value>
                                    <valuemin>-1</valuemin>
                                    <valuemax>1</valuemax>
                                </parameter>
                            </effect>
                        </filter>
                        <link>
                            <linkclipref>SecondScenePark.3.4.Take1.WAV 0</linkclipref>
                            <mediatype>audio</mediatype>
                        </link>
                        <link>
                            <linkclipref>SecondScenePark.3.4.Take1.WAV 2</linkclipref>
                        </link>
                        <link>
                            <linkclipref>SecondScenePark.3.4.Take1.WAV 3</linkclipref>
                        </link>
                        <link>
                            <linkclipref>SecondScenePark.3.4.Take1.WAV 4</linkclipref>
                        </link>
                        <link>
                            <linkclipref>SecondScenePark.3.4.Take1.WAV 5</linkclipref>
                        </link>
                        <comments/>
                    </clipitem>
                    <clipitem id="SecondScenePark.3.4.Take2.WAV 2">
                        <name>SecondScenePark.3.4.Take2.WAV</name>
                        <duration>2334</duration>
                        <rate>
                            <timebase>24</timebase>
                            <ntsc>TRUE</ntsc>
                        </rate>
                        <start>31522</start>
                        <end>33370</end>
                        <enabled>TRUE</enabled>
                        <in>142</in>
                        <out>1989</out>
                        <file id="SecondScenePark.3.4.Take2.WAV 1"/>
                        <sourcetrack>
                            <mediatype>audio</mediatype>
                            <trackindex>2</trackindex>
                        </sourcetrack>
                        <filter>
                            <enabled>TRUE</enabled>
                            <start>0</start>
                            <end>2334</end>
                            <effect>
                                <name>Audio Levels</name>
                                <effectid>audiolevels</effectid>
                                <effecttype>audiolevels</effecttype>
                                <mediatype>audio</mediatype>
                                <effectcategory>audiolevels</effectcategory>
                                <parameter>
                                    <name>Level</name>
                                    <parameterid>level</parameterid>
                                    <value>1</value>
                                    <valuemin>1e-05</valuemin>
                                    <valuemax>31.6228</valuemax>
                                </parameter>
                            </effect>
                        </filter>
                        <filter>
                            <enabled>TRUE</enabled>
                            <start>0</start>
                            <end>2334</end>
                            <effect>
                                <name>Audio Pan</name>
                                <effectid>audiopan</effectid>
                                <effecttype>audiopan</effecttype>
                                <mediatype>audio</mediatype>
                                <effectcategory>audiopan</effectcategory>
                                <parameter>
                                    <name>Pan</name>
                                    <parameterid>pan</parameterid>
                                    <value>0</value>
                                    <valuemin>-1</valuemin>
                                    <valuemax>1</valuemax>
                                </parameter>
                            </effect>
                        </filter>
                        <link>
                            <linkclipref>SecondScenePark.3.4.Take2.WAV 0</linkclipref>
                            <mediatype>audio</mediatype>
                        </link>
                        <link>
                            <linkclipref>SecondScenePark.3.4.Take2.WAV 2</linkclipref>
                        </link>
                        <link>
                            <linkclipref>SecondScenePark.3.4.Take2.WAV 3</linkclipref>
                        </link>
                        <link>
                            <linkclipref>SecondScenePark.3.4.Take2.WAV 4</linkclipref>
                        </link>
                        <link>
                            <linkclipref>SecondScenePark.3.4.Take2.WAV 5</linkclipref>
                        </link>
                        <comments/>
                    </clipitem>
                    <clipitem id="SecondScenePark.3.5.Apple.Take1.WAV 2">
                        <name>SecondScenePark.3.5.Apple.Take1.WAV</name>
                        <duration>885</duration>
                        <rate>
                            <timebase>24</timebase>
                            <ntsc>TRUE</ntsc>
                        </rate>
                        <start>33446</start>
                        <end>34224</end>
                        <enabled>TRUE</enabled>
                        <in>0</in>
                        <out>778</out>
                        <file id="SecondScenePark.3.5.Apple.Take1.WAV 1"/>
                        <sourcetrack>
                            <mediatype>audio</mediatype>
                            <trackindex>2</trackindex>
                        </sourcetrack>
                        <filter>
                            <enabled>TRUE</enabled>
                            <start>0</start>
                            <end>885</end>
                            <effect>
                                <name>Audio Levels</name>
                                <effectid>audiolevels</effectid>
                                <effecttype>audiolevels</effecttype>
                                <mediatype>audio</mediatype>
                                <effectcategory>audiolevels</effectcategory>
                                <parameter>
                                    <name>Level</name>
                                    <parameterid>level</parameterid>
                                    <value>1</value>
                                    <valuemin>1e-05</valuemin>
                                    <valuemax>31.6228</valuemax>
                                </parameter>
                            </effect>
                        </filter>
                        <filter>
                            <enabled>TRUE</enabled>
                            <start>0</start>
                            <end>885</end>
                            <effect>
                                <name>Audio Pan</name>
                                <effectid>audiopan</effectid>
                                <effecttype>audiopan</effecttype>
                                <mediatype>audio</mediatype>
                                <effectcategory>audiopan</effectcategory>
                                <parameter>
                                    <name>Pan</name>
                                    <parameterid>pan</parameterid>
                                    <value>0</value>
                                    <valuemin>-1</valuemin>
                                    <valuemax>1</valuemax>
                                </parameter>
                            </effect>
                        </filter>
                        <link>
                            <linkclipref>SecondScenePark.3.5.Apple.Take1.WAV 0</linkclipref>
                            <mediatype>audio</mediatype>
                        </link>
                        <link>
                            <linkclipref>SecondScenePark.3.5.Apple.Take1.WAV 2</linkclipref>
                        </link>
                        <link>
                            <linkclipref>SecondScenePark.3.5.Apple.Take1.WAV 3</linkclipref>
                        </link>
                        <link>
                            <linkclipref>SecondScenePark.3.5.Apple.Take1.WAV 4</linkclipref>
                        </link>
                        <link>
                            <linkclipref>SecondScenePark.3.5.Apple.Take1.WAV 5</linkclipref>
                        </link>
                        <comments/>
                    </clipitem>
                    <clipitem id="SecondScenePark.3.5.Banana.Take1.WAV 2">
                        <name>SecondScenePark.3.5.Banana.Take1.WAV</name>
                        <duration>1340</duration>
                        <rate>
                            <timebase>24</timebase>
                            <ntsc>TRUE</ntsc>
                        </rate>
                        <start>34224</start>
                        <end>35150</end>
                        <enabled>TRUE</enabled>
                        <in>414</in>
                        <out>1340</out>
                        <file id="SecondScenePark.3.5.Banana.Take1.WAV 1"/>
                        <sourcetrack>
                            <mediatype>audio</mediatype>
                            <trackindex>2</trackindex>
                        </sourcetrack>
                        <filter>
                            <enabled>TRUE</enabled>
                            <start>0</start>
                            <end>1340</end>
                            <effect>
                                <name>Audio Levels</name>
                                <effectid>audiolevels</effectid>
                                <effecttype>audiolevels</effecttype>
                                <mediatype>audio</mediatype>
                                <effectcategory>audiolevels</effectcategory>
                                <parameter>
                                    <name>Level</name>
                                    <parameterid>level</parameterid>
                                    <value>1</value>
                                    <valuemin>1e-05</valuemin>
                                    <valuemax>31.6228</valuemax>
                                </parameter>
                            </effect>
                        </filter>
                        <filter>
                            <enabled>TRUE</enabled>
                            <start>0</start>
                            <end>1340</end>
                            <effect>
                                <name>Audio Pan</name>
                                <effectid>audiopan</effectid>
                                <effecttype>audiopan</effecttype>
                                <mediatype>audio</mediatype>
                                <effectcategory>audiopan</effectcategory>
                                <parameter>
                                    <name>Pan</name>
                                    <parameterid>pan</parameterid>
                                    <value>0</value>
                                    <valuemin>-1</valuemin>
                                    <valuemax>1</valuemax>
                                </parameter>
                            </effect>
                        </filter>
                        <link>
                            <linkclipref>SecondScenePark.3.5.Banana.Take1.WAV 0</linkclipref>
                            <mediatype>audio</mediatype>
                        </link>
                        <link>
                            <linkclipref>SecondScenePark.3.5.Banana.Take1.WAV 2</linkclipref>
                        </link>
                        <link>
                            <linkclipref>SecondScenePark.3.5.Banana.Take1.WAV 3</linkclipref>
                        </link>
                        <link>
                            <linkclipref>SecondScenePark.3.5.Banana.Take1.WAV 4</linkclipref>
                        </link>
                        <link>
                            <linkclipref>SecondScenePark.3.5.Banana.Take1.WAV 5</linkclipref>
                        </link>
                        <comments/>
                    </clipitem>
                    <clipitem id="SecondScenePark.3.5.Take1.WAV 2">
                        <name>SecondScenePark.3.5.Take1.WAV</name>
                        <duration>1038</duration>
                        <rate>
                            <timebase>24</timebase>
                            <ntsc>TRUE</ntsc>
                        </rate>
                        <start>35158</start>
                        <end>36196</end>
                        <enabled>TRUE</enabled>
                        <in>0</in>
                        <out>1038</out>
                        <file id="SecondScenePark.3.5.Take1.WAV 1"/>
                        <sourcetrack>
                            <mediatype>audio</mediatype>
                            <trackindex>2</trackindex>
                        </sourcetrack>
                        <filter>
                            <enabled>TRUE</enabled>
                            <start>0</start>
                            <end>1038</end>
                            <effect>
                                <name>Audio Levels</name>
                                <effectid>audiolevels</effectid>
                                <effecttype>audiolevels</effecttype>
                                <mediatype>audio</mediatype>
                                <effectcategory>audiolevels</effectcategory>
                                <parameter>
                                    <name>Level</name>
                                    <parameterid>level</parameterid>
                                    <value>1</value>
                                    <valuemin>1e-05</valuemin>
                                    <valuemax>31.6228</valuemax>
                                </parameter>
                            </effect>
                        </filter>
                        <filter>
                            <enabled>TRUE</enabled>
                            <start>0</start>
                            <end>1038</end>
                            <effect>
                                <name>Audio Pan</name>
                                <effectid>audiopan</effectid>
                                <effecttype>audiopan</effecttype>
                                <mediatype>audio</mediatype>
                                <effectcategory>audiopan</effectcategory>
                                <parameter>
                                    <name>Pan</name>
                                    <parameterid>pan</parameterid>
                                    <value>0</value>
                                    <valuemin>-1</valuemin>
                                    <valuemax>1</valuemax>
                                </parameter>
                            </effect>
                        </filter>
                        <link>
                            <linkclipref>SecondScenePark.3.5.Take1.WAV 0</linkclipref>
                            <mediatype>audio</mediatype>
                        </link>
                        <link>
                            <linkclipref>SecondScenePark.3.5.Take1.WAV 2</linkclipref>
                        </link>
                        <link>
                            <linkclipref>SecondScenePark.3.5.Take1.WAV 3</linkclipref>
                        </link>
                        <link>
                            <linkclipref>SecondScenePark.3.5.Take1.WAV 4</linkclipref>
                        </link>
                        <link>
                            <linkclipref>SecondScenePark.3.5.Take1.WAV 5</linkclipref>
                        </link>
                        <comments/>
                    </clipitem>
                    <clipitem id="SecondScenePark.3.5.Take2.WAV 2">
                        <name>SecondScenePark.3.5.Take2.WAV</name>
                        <duration>781</duration>
                        <rate>
                            <timebase>24</timebase>
                            <ntsc>TRUE</ntsc>
                        </rate>
                        <start>36341</start>
                        <end>37122</end>
                        <enabled>TRUE</enabled>
                        <in>0</in>
                        <out>781</out>
                        <file id="SecondScenePark.3.5.Take2.WAV 1"/>
                        <sourcetrack>
                            <mediatype>audio</mediatype>
                            <trackindex>2</trackindex>
                        </sourcetrack>
                        <filter>
                            <enabled>TRUE</enabled>
                            <start>0</start>
                            <end>781</end>
                            <effect>
                                <name>Audio Levels</name>
                                <effectid>audiolevels</effectid>
                                <effecttype>audiolevels</effecttype>
                                <mediatype>audio</mediatype>
                                <effectcategory>audiolevels</effectcategory>
                                <parameter>
                                    <name>Level</name>
                                    <parameterid>level</parameterid>
                                    <value>1</value>
                                    <valuemin>1e-05</valuemin>
                                    <valuemax>31.6228</valuemax>
                                </parameter>
                            </effect>
                        </filter>
                        <filter>
                            <enabled>TRUE</enabled>
                            <start>0</start>
                            <end>781</end>
                            <effect>
                                <name>Audio Pan</name>
                                <effectid>audiopan</effectid>
                                <effecttype>audiopan</effecttype>
                                <mediatype>audio</mediatype>
                                <effectcategory>audiopan</effectcategory>
                                <parameter>
                                    <name>Pan</name>
                                    <parameterid>pan</parameterid>
                                    <value>0</value>
                                    <valuemin>-1</valuemin>
                                    <valuemax>1</valuemax>
                                </parameter>
                            </effect>
                        </filter>
                        <link>
                            <linkclipref>SecondScenePark.3.5.Take2.WAV 0</linkclipref>
                            <mediatype>audio</mediatype>
                        </link>
                        <link>
                            <linkclipref>SecondScenePark.3.5.Take2.WAV 2</linkclipref>
                        </link>
                        <link>
                            <linkclipref>SecondScenePark.3.5.Take2.WAV 3</linkclipref>
                        </link>
                        <link>
                            <linkclipref>SecondScenePark.3.5.Take2.WAV 4</linkclipref>
                        </link>
                        <link>
                            <linkclipref>SecondScenePark.3.5.Take2.WAV 5</linkclipref>
                        </link>
                        <comments/>
                    </clipitem>
                    <clipitem id="SecondScenePark.3.5.Caw.Take1.WAV 2">
                        <name>SecondScenePark.3.5.Caw.Take1.WAV</name>
                        <duration>717</duration>
                        <rate>
                            <timebase>24</timebase>
                            <ntsc>TRUE</ntsc>
                        </rate>
                        <start>37442</start>
                        <end>37840</end>
                        <enabled>TRUE</enabled>
                        <in>0</in>
                        <out>397</out>
                        <file id="SecondScenePark.3.5.Caw.Take1.WAV 1"/>
                        <sourcetrack>
                            <mediatype>audio</mediatype>
                            <trackindex>2</trackindex>
                        </sourcetrack>
                        <filter>
                            <enabled>TRUE</enabled>
                            <start>0</start>
                            <end>717</end>
                            <effect>
                                <name>Audio Levels</name>
                                <effectid>audiolevels</effectid>
                                <effecttype>audiolevels</effecttype>
                                <mediatype>audio</mediatype>
                                <effectcategory>audiolevels</effectcategory>
                                <parameter>
                                    <name>Level</name>
                                    <parameterid>level</parameterid>
                                    <value>1</value>
                                    <valuemin>1e-05</valuemin>
                                    <valuemax>31.6228</valuemax>
                                </parameter>
                            </effect>
                        </filter>
                        <filter>
                            <enabled>TRUE</enabled>
                            <start>0</start>
                            <end>717</end>
                            <effect>
                                <name>Audio Pan</name>
                                <effectid>audiopan</effectid>
                                <effecttype>audiopan</effecttype>
                                <mediatype>audio</mediatype>
                                <effectcategory>audiopan</effectcategory>
                                <parameter>
                                    <name>Pan</name>
                                    <parameterid>pan</parameterid>
                                    <value>0</value>
                                    <valuemin>-1</valuemin>
                                    <valuemax>1</valuemax>
                                </parameter>
                            </effect>
                        </filter>
                        <link>
                            <linkclipref>SecondScenePark.3.5.Caw.Take1.WAV 0</linkclipref>
                            <mediatype>audio</mediatype>
                        </link>
                        <link>
                            <linkclipref>SecondScenePark.3.5.Caw.Take1.WAV 2</linkclipref>
                        </link>
                        <link>
                            <linkclipref>SecondScenePark.3.5.Caw.Take1.WAV 3</linkclipref>
                        </link>
                        <link>
                            <linkclipref>SecondScenePark.3.5.Caw.Take1.WAV 4</linkclipref>
                        </link>
                        <comments/>
                    </clipitem>
                    <clipitem id="SecondScenePark.3.5.Caw.Take2.WAV 2">
                        <name>SecondScenePark.3.5.Caw.Take2.WAV</name>
                        <duration>582</duration>
                        <rate>
                            <timebase>24</timebase>
                            <ntsc>TRUE</ntsc>
                        </rate>
                        <start>37840</start>
                        <end>38422</end>
                        <enabled>TRUE</enabled>
                        <in>0</in>
                        <out>582</out>
                        <file id="SecondScenePark.3.5.Caw.Take2.WAV 1"/>
                        <sourcetrack>
                            <mediatype>audio</mediatype>
                            <trackindex>2</trackindex>
                        </sourcetrack>
                        <filter>
                            <enabled>TRUE</enabled>
                            <start>0</start>
                            <end>582</end>
                            <effect>
                                <name>Audio Levels</name>
                                <effectid>audiolevels</effectid>
                                <effecttype>audiolevels</effecttype>
                                <mediatype>audio</mediatype>
                                <effectcategory>audiolevels</effectcategory>
                                <parameter>
                                    <name>Level</name>
                                    <parameterid>level</parameterid>
                                    <value>1</value>
                                    <valuemin>1e-05</valuemin>
                                    <valuemax>31.6228</valuemax>
                                </parameter>
                            </effect>
                        </filter>
                        <filter>
                            <enabled>TRUE</enabled>
                            <start>0</start>
                            <end>582</end>
                            <effect>
                                <name>Audio Pan</name>
                                <effectid>audiopan</effectid>
                                <effecttype>audiopan</effecttype>
                                <mediatype>audio</mediatype>
                                <effectcategory>audiopan</effectcategory>
                                <parameter>
                                    <name>Pan</name>
                                    <parameterid>pan</parameterid>
                                    <value>0</value>
                                    <valuemin>-1</valuemin>
                                    <valuemax>1</valuemax>
                                </parameter>
                            </effect>
                        </filter>
                        <link>
                            <linkclipref>SecondScenePark.3.5.Caw.Take2.WAV 0</linkclipref>
                            <mediatype>audio</mediatype>
                        </link>
                        <link>
                            <linkclipref>SecondScenePark.3.5.Caw.Take2.WAV 2</linkclipref>
                        </link>
                        <link>
                            <linkclipref>SecondScenePark.3.5.Caw.Take2.WAV 3</linkclipref>
                        </link>
                        <link>
                            <linkclipref>SecondScenePark.3.5.Caw.Take2.WAV 4</linkclipref>
                        </link>
                        <comments/>
                    </clipitem>
                    <clipitem id="SecondScenePark.4.1.Take3.WAV 2">
                        <name>SecondScenePark.4.1.Take3.WAV</name>
                        <duration>371</duration>
                        <rate>
                            <timebase>24</timebase>
                            <ntsc>TRUE</ntsc>
                        </rate>
                        <start>38714</start>
                        <end>39085</end>
                        <enabled>TRUE</enabled>
                        <in>0</in>
                        <out>371</out>
                        <file id="SecondScenePark.4.1.Take3.WAV 1"/>
                        <sourcetrack>
                            <mediatype>audio</mediatype>
                            <trackindex>2</trackindex>
                        </sourcetrack>
                        <filter>
                            <enabled>TRUE</enabled>
                            <start>0</start>
                            <end>371</end>
                            <effect>
                                <name>Audio Levels</name>
                                <effectid>audiolevels</effectid>
                                <effecttype>audiolevels</effecttype>
                                <mediatype>audio</mediatype>
                                <effectcategory>audiolevels</effectcategory>
                                <parameter>
                                    <name>Level</name>
                                    <parameterid>level</parameterid>
                                    <value>1</value>
                                    <valuemin>1e-05</valuemin>
                                    <valuemax>31.6228</valuemax>
                                </parameter>
                            </effect>
                        </filter>
                        <filter>
                            <enabled>TRUE</enabled>
                            <start>0</start>
                            <end>371</end>
                            <effect>
                                <name>Audio Pan</name>
                                <effectid>audiopan</effectid>
                                <effecttype>audiopan</effecttype>
                                <mediatype>audio</mediatype>
                                <effectcategory>audiopan</effectcategory>
                                <parameter>
                                    <name>Pan</name>
                                    <parameterid>pan</parameterid>
                                    <value>0</value>
                                    <valuemin>-1</valuemin>
                                    <valuemax>1</valuemax>
                                </parameter>
                            </effect>
                        </filter>
                        <link>
                            <linkclipref>SecondScenePark.4.1.Take3.WAV 0</linkclipref>
                            <mediatype>audio</mediatype>
                        </link>
                        <link>
                            <linkclipref>SecondScenePark.4.1.Take3.WAV 2</linkclipref>
                        </link>
                        <link>
                            <linkclipref>SecondScenePark.4.1.Take3.WAV 3</linkclipref>
                        </link>
                        <link>
                            <linkclipref>SecondScenePark.4.1.Take3.WAV 4</linkclipref>
                        </link>
                        <comments/>
                    </clipitem>
                    <clipitem id="SecondScenePark.4.Take1.WAV 2">
                        <name>SecondScenePark.4.Take1.WAV</name>
                        <duration>1349</duration>
                        <rate>
                            <timebase>24</timebase>
                            <ntsc>TRUE</ntsc>
                        </rate>
                        <start>39101</start>
                        <end>39667</end>
                        <enabled>TRUE</enabled>
                        <in>0</in>
                        <out>566</out>
                        <file id="SecondScenePark.4.Take1.WAV 1"/>
                        <sourcetrack>
                            <mediatype>audio</mediatype>
                            <trackindex>2</trackindex>
                        </sourcetrack>
                        <filter>
                            <enabled>TRUE</enabled>
                            <start>0</start>
                            <end>1349</end>
                            <effect>
                                <name>Audio Levels</name>
                                <effectid>audiolevels</effectid>
                                <effecttype>audiolevels</effecttype>
                                <mediatype>audio</mediatype>
                                <effectcategory>audiolevels</effectcategory>
                                <parameter>
                                    <name>Level</name>
                                    <parameterid>level</parameterid>
                                    <value>1</value>
                                    <valuemin>1e-05</valuemin>
                                    <valuemax>31.6228</valuemax>
                                </parameter>
                            </effect>
                        </filter>
                        <filter>
                            <enabled>TRUE</enabled>
                            <start>0</start>
                            <end>1349</end>
                            <effect>
                                <name>Audio Pan</name>
                                <effectid>audiopan</effectid>
                                <effecttype>audiopan</effecttype>
                                <mediatype>audio</mediatype>
                                <effectcategory>audiopan</effectcategory>
                                <parameter>
                                    <name>Pan</name>
                                    <parameterid>pan</parameterid>
                                    <value>0</value>
                                    <valuemin>-1</valuemin>
                                    <valuemax>1</valuemax>
                                </parameter>
                            </effect>
                        </filter>
                        <link>
                            <linkclipref>SecondScenePark.4.Take1.WAV 0</linkclipref>
                            <mediatype>audio</mediatype>
                        </link>
                        <link>
                            <linkclipref>SecondScenePark.4.Take1.WAV 2</linkclipref>
                        </link>
                        <link>
                            <linkclipref>SecondScenePark.4.Take1.WAV 3</linkclipref>
                        </link>
                        <link>
                            <linkclipref>SecondScenePark.4.Take1.WAV 4</linkclipref>
                        </link>
                        <comments/>
                    </clipitem>
                    <clipitem id="SecondScenePark.4.Take2.WAV 2">
                        <name>SecondScenePark.4.Take2.WAV</name>
                        <duration>838</duration>
                        <rate>
                            <timebase>24</timebase>
                            <ntsc>TRUE</ntsc>
                        </rate>
                        <start>39667</start>
                        <end>40417</end>
                        <enabled>TRUE</enabled>
                        <in>63</in>
                        <out>812</out>
                        <file id="SecondScenePark.4.Take2.WAV 1"/>
                        <sourcetrack>
                            <mediatype>audio</mediatype>
                            <trackindex>2</trackindex>
                        </sourcetrack>
                        <filter>
                            <enabled>TRUE</enabled>
                            <start>0</start>
                            <end>838</end>
                            <effect>
                                <name>Audio Levels</name>
                                <effectid>audiolevels</effectid>
                                <effecttype>audiolevels</effecttype>
                                <mediatype>audio</mediatype>
                                <effectcategory>audiolevels</effectcategory>
                                <parameter>
                                    <name>Level</name>
                                    <parameterid>level</parameterid>
                                    <value>1</value>
                                    <valuemin>1e-05</valuemin>
                                    <valuemax>31.6228</valuemax>
                                </parameter>
                            </effect>
                        </filter>
                        <filter>
                            <enabled>TRUE</enabled>
                            <start>0</start>
                            <end>838</end>
                            <effect>
                                <name>Audio Pan</name>
                                <effectid>audiopan</effectid>
                                <effecttype>audiopan</effecttype>
                                <mediatype>audio</mediatype>
                                <effectcategory>audiopan</effectcategory>
                                <parameter>
                                    <name>Pan</name>
                                    <parameterid>pan</parameterid>
                                    <value>0</value>
                                    <valuemin>-1</valuemin>
                                    <valuemax>1</valuemax>
                                </parameter>
                            </effect>
                        </filter>
                        <link>
                            <linkclipref>SecondScenePark.4.Take2.WAV 0</linkclipref>
                            <mediatype>audio</mediatype>
                        </link>
                        <link>
                            <linkclipref>SecondScenePark.4.Take2.WAV 2</linkclipref>
                        </link>
                        <link>
                            <linkclipref>SecondScenePark.4.Take2.WAV 3</linkclipref>
                        </link>
                        <link>
                            <linkclipref>SecondScenePark.4.Take2.WAV 4</linkclipref>
                        </link>
                        <comments/>
                    </clipitem>
                    <clipitem id="SecondScenePark.4.Take3.WAV 2">
                        <name>SecondScenePark.4.Take3.WAV</name>
                        <duration>607</duration>
                        <rate>
                            <timebase>24</timebase>
                            <ntsc>TRUE</ntsc>
                        </rate>
                        <start>40417</start>
                        <end>41021</end>
                        <enabled>TRUE</enabled>
                        <in>1</in>
                        <out>606</out>
                        <file id="SecondScenePark.4.Take3.WAV 1"/>
                        <sourcetrack>
                            <mediatype>audio</mediatype>
                            <trackindex>2</trackindex>
                        </sourcetrack>
                        <filter>
                            <enabled>TRUE</enabled>
                            <start>0</start>
                            <end>607</end>
                            <effect>
                                <name>Audio Levels</name>
                                <effectid>audiolevels</effectid>
                                <effecttype>audiolevels</effecttype>
                                <mediatype>audio</mediatype>
                                <effectcategory>audiolevels</effectcategory>
                                <parameter>
                                    <name>Level</name>
                                    <parameterid>level</parameterid>
                                    <value>1</value>
                                    <valuemin>1e-05</valuemin>
                                    <valuemax>31.6228</valuemax>
                                </parameter>
                            </effect>
                        </filter>
                        <filter>
                            <enabled>TRUE</enabled>
                            <start>0</start>
                            <end>607</end>
                            <effect>
                                <name>Audio Pan</name>
                                <effectid>audiopan</effectid>
                                <effecttype>audiopan</effecttype>
                                <mediatype>audio</mediatype>
                                <effectcategory>audiopan</effectcategory>
                                <parameter>
                                    <name>Pan</name>
                                    <parameterid>pan</parameterid>
                                    <value>0</value>
                                    <valuemin>-1</valuemin>
                                    <valuemax>1</valuemax>
                                </parameter>
                            </effect>
                        </filter>
                        <link>
                            <linkclipref>SecondScenePark.4.Take3.WAV 0</linkclipref>
                            <mediatype>audio</mediatype>
                        </link>
                        <link>
                            <linkclipref>SecondScenePark.4.Take3.WAV 2</linkclipref>
                        </link>
                        <link>
                            <linkclipref>SecondScenePark.4.Take3.WAV 3</linkclipref>
                        </link>
                        <link>
                            <linkclipref>SecondScenePark.4.Take3.WAV 4</linkclipref>
                        </link>
                        <comments/>
                    </clipitem>
                    <clipitem id="SecondScenePark.4.Take4.WAV 2">
                        <name>SecondScenePark.4.Take4.WAV</name>
                        <duration>743</duration>
                        <rate>
                            <timebase>24</timebase>
                            <ntsc>TRUE</ntsc>
                        </rate>
                        <start>41021</start>
                        <end>41564</end>
                        <enabled>TRUE</enabled>
                        <in>23</in>
                        <out>565</out>
                        <file id="SecondScenePark.4.Take4.WAV 1"/>
                        <sourcetrack>
                            <mediatype>audio</mediatype>
                            <trackindex>2</trackindex>
                        </sourcetrack>
                        <filter>
                            <enabled>TRUE</enabled>
                            <start>0</start>
                            <end>743</end>
                            <effect>
                                <name>Audio Levels</name>
                                <effectid>audiolevels</effectid>
                                <effecttype>audiolevels</effecttype>
                                <mediatype>audio</mediatype>
                                <effectcategory>audiolevels</effectcategory>
                                <parameter>
                                    <name>Level</name>
                                    <parameterid>level</parameterid>
                                    <value>1</value>
                                    <valuemin>1e-05</valuemin>
                                    <valuemax>31.6228</valuemax>
                                </parameter>
                            </effect>
                        </filter>
                        <filter>
                            <enabled>TRUE</enabled>
                            <start>0</start>
                            <end>743</end>
                            <effect>
                                <name>Audio Pan</name>
                                <effectid>audiopan</effectid>
                                <effecttype>audiopan</effecttype>
                                <mediatype>audio</mediatype>
                                <effectcategory>audiopan</effectcategory>
                                <parameter>
                                    <name>Pan</name>
                                    <parameterid>pan</parameterid>
                                    <value>0</value>
                                    <valuemin>-1</valuemin>
                                    <valuemax>1</valuemax>
                                </parameter>
                            </effect>
                        </filter>
                        <link>
                            <linkclipref>SecondScenePark.4.Take4.WAV 0</linkclipref>
                            <mediatype>audio</mediatype>
                        </link>
                        <link>
                            <linkclipref>SecondScenePark.4.Take4.WAV 2</linkclipref>
                        </link>
                        <link>
                            <linkclipref>SecondScenePark.4.Take4.WAV 3</linkclipref>
                        </link>
                        <link>
                            <linkclipref>SecondScenePark.4.Take4.WAV 4</linkclipref>
                        </link>
                        <comments/>
                    </clipitem>
                    <clipitem id="SecondScenePark.4.1.Take1.WAV 2">
                        <name>SecondScenePark.4.1.Take1.WAV</name>
                        <duration>757</duration>
                        <rate>
                            <timebase>24</timebase>
                            <ntsc>TRUE</ntsc>
                        </rate>
                        <start>41591</start>
                        <end>42308</end>
                        <enabled>TRUE</enabled>
                        <in>0</in>
                        <out>717</out>
                        <file id="SecondScenePark.4.1.Take1.WAV 1"/>
                        <sourcetrack>
                            <mediatype>audio</mediatype>
                            <trackindex>2</trackindex>
                        </sourcetrack>
                        <filter>
                            <enabled>TRUE</enabled>
                            <start>0</start>
                            <end>757</end>
                            <effect>
                                <name>Audio Levels</name>
                                <effectid>audiolevels</effectid>
                                <effecttype>audiolevels</effecttype>
                                <mediatype>audio</mediatype>
                                <effectcategory>audiolevels</effectcategory>
                                <parameter>
                                    <name>Level</name>
                                    <parameterid>level</parameterid>
                                    <value>1</value>
                                    <valuemin>1e-05</valuemin>
                                    <valuemax>31.6228</valuemax>
                                </parameter>
                            </effect>
                        </filter>
                        <filter>
                            <enabled>TRUE</enabled>
                            <start>0</start>
                            <end>757</end>
                            <effect>
                                <name>Audio Pan</name>
                                <effectid>audiopan</effectid>
                                <effecttype>audiopan</effecttype>
                                <mediatype>audio</mediatype>
                                <effectcategory>audiopan</effectcategory>
                                <parameter>
                                    <name>Pan</name>
                                    <parameterid>pan</parameterid>
                                    <value>0</value>
                                    <valuemin>-1</valuemin>
                                    <valuemax>1</valuemax>
                                </parameter>
                            </effect>
                        </filter>
                        <link>
                            <linkclipref>SecondScenePark.4.1.Take1.WAV 0</linkclipref>
                            <mediatype>audio</mediatype>
                        </link>
                        <link>
                            <linkclipref>SecondScenePark.4.1.Take1.WAV 2</linkclipref>
                        </link>
                        <link>
                            <linkclipref>SecondScenePark.4.1.Take1.WAV 3</linkclipref>
                        </link>
                        <link>
                            <linkclipref>SecondScenePark.4.1.Take1.WAV 4</linkclipref>
                        </link>
                        <comments/>
                    </clipitem>
                    <clipitem id="SecondScenePark.4.1.Take2.WAV 2">
                        <name>SecondScenePark.4.1.Take2.WAV</name>
                        <duration>684</duration>
                        <rate>
                            <timebase>24</timebase>
                            <ntsc>TRUE</ntsc>
                        </rate>
                        <start>42308</start>
                        <end>42938</end>
                        <enabled>TRUE</enabled>
                        <in>54</in>
                        <out>683</out>
                        <file id="SecondScenePark.4.1.Take2.WAV 1"/>
                        <sourcetrack>
                            <mediatype>audio</mediatype>
                            <trackindex>2</trackindex>
                        </sourcetrack>
                        <filter>
                            <enabled>TRUE</enabled>
                            <start>0</start>
                            <end>684</end>
                            <effect>
                                <name>Audio Levels</name>
                                <effectid>audiolevels</effectid>
                                <effecttype>audiolevels</effecttype>
                                <mediatype>audio</mediatype>
                                <effectcategory>audiolevels</effectcategory>
                                <parameter>
                                    <name>Level</name>
                                    <parameterid>level</parameterid>
                                    <value>1</value>
                                    <valuemin>1e-05</valuemin>
                                    <valuemax>31.6228</valuemax>
                                </parameter>
                            </effect>
                        </filter>
                        <filter>
                            <enabled>TRUE</enabled>
                            <start>0</start>
                            <end>684</end>
                            <effect>
                                <name>Audio Pan</name>
                                <effectid>audiopan</effectid>
                                <effecttype>audiopan</effecttype>
                                <mediatype>audio</mediatype>
                                <effectcategory>audiopan</effectcategory>
                                <parameter>
                                    <name>Pan</name>
                                    <parameterid>pan</parameterid>
                                    <value>0</value>
                                    <valuemin>-1</valuemin>
                                    <valuemax>1</valuemax>
                                </parameter>
                            </effect>
                        </filter>
                        <link>
                            <linkclipref>SecondScenePark.4.1.Take2.WAV 0</linkclipref>
                            <mediatype>audio</mediatype>
                        </link>
                        <link>
                            <linkclipref>SecondScenePark.4.1.Take2.WAV 2</linkclipref>
                        </link>
                        <link>
                            <linkclipref>SecondScenePark.4.1.Take2.WAV 3</linkclipref>
                        </link>
                        <link>
                            <linkclipref>SecondScenePark.4.1.Take2.WAV 4</linkclipref>
                        </link>
                        <comments/>
                    </clipitem>
                    <clipitem id="SecondScenePark.5.Take1.WAV 2">
                        <name>SecondScenePark.5.Take1.WAV</name>
                        <duration>1020</duration>
                        <rate>
                            <timebase>24</timebase>
                            <ntsc>TRUE</ntsc>
                        </rate>
                        <start>42987</start>
                        <end>44007</end>
                        <enabled>TRUE</enabled>
                        <in>0</in>
                        <out>1020</out>
                        <file id="SecondScenePark.5.Take1.WAV 1"/>
                        <sourcetrack>
                            <mediatype>audio</mediatype>
                            <trackindex>2</trackindex>
                        </sourcetrack>
                        <filter>
                            <enabled>TRUE</enabled>
                            <start>0</start>
                            <end>1020</end>
                            <effect>
                                <name>Audio Levels</name>
                                <effectid>audiolevels</effectid>
                                <effecttype>audiolevels</effecttype>
                                <mediatype>audio</mediatype>
                                <effectcategory>audiolevels</effectcategory>
                                <parameter>
                                    <name>Level</name>
                                    <parameterid>level</parameterid>
                                    <value>1</value>
                                    <valuemin>1e-05</valuemin>
                                    <valuemax>31.6228</valuemax>
                                </parameter>
                            </effect>
                        </filter>
                        <filter>
                            <enabled>TRUE</enabled>
                            <start>0</start>
                            <end>1020</end>
                            <effect>
                                <name>Audio Pan</name>
                                <effectid>audiopan</effectid>
                                <effecttype>audiopan</effecttype>
                                <mediatype>audio</mediatype>
                                <effectcategory>audiopan</effectcategory>
                                <parameter>
                                    <name>Pan</name>
                                    <parameterid>pan</parameterid>
                                    <value>0</value>
                                    <valuemin>-1</valuemin>
                                    <valuemax>1</valuemax>
                                </parameter>
                            </effect>
                        </filter>
                        <link>
                            <linkclipref>SecondScenePark.5.Take1.WAV 0</linkclipref>
                            <mediatype>audio</mediatype>
                        </link>
                        <link>
                            <linkclipref>SecondScenePark.5.Take1.WAV 2</linkclipref>
                        </link>
                        <link>
                            <linkclipref>SecondScenePark.5.Take1.WAV 3</linkclipref>
                        </link>
                        <link>
                            <linkclipref>SecondScenePark.5.Take1.WAV 4</linkclipref>
                        </link>
                        <comments/>
                    </clipitem>
                    <enabled>TRUE</enabled>
                    <locked>FALSE</locked>
                </track>
                <track>
                    <clipitem id="SecondScenePark.1.Apple.Take1.WAV 7">
                        <name>SecondScenePark.1.Apple.Take1.WAV</name>
                        <duration>970</duration>
                        <rate>
                            <timebase>24</timebase>
                            <ntsc>TRUE</ntsc>
                        </rate>
                        <start>3321</start>
                        <end>3892</end>
                        <enabled>TRUE</enabled>
                        <in>0</in>
                        <out>570</out>
                        <file id="SecondScenePark.1.Apple.Take1.WAV 1"/>
                        <sourcetrack>
                            <mediatype>audio</mediatype>
                            <trackindex>4</trackindex>
                        </sourcetrack>
                        <filter>
                            <enabled>TRUE</enabled>
                            <start>0</start>
                            <end>970</end>
                            <effect>
                                <name>Audio Levels</name>
                                <effectid>audiolevels</effectid>
                                <effecttype>audiolevels</effecttype>
                                <mediatype>audio</mediatype>
                                <effectcategory>audiolevels</effectcategory>
                                <parameter>
                                    <name>Level</name>
                                    <parameterid>level</parameterid>
                                    <value>1</value>
                                    <valuemin>1e-05</valuemin>
                                    <valuemax>31.6228</valuemax>
                                </parameter>
                            </effect>
                        </filter>
                        <filter>
                            <enabled>TRUE</enabled>
                            <start>0</start>
                            <end>970</end>
                            <effect>
                                <name>Audio Pan</name>
                                <effectid>audiopan</effectid>
                                <effecttype>audiopan</effecttype>
                                <mediatype>audio</mediatype>
                                <effectcategory>audiopan</effectcategory>
                                <parameter>
                                    <name>Pan</name>
                                    <parameterid>pan</parameterid>
                                    <value>0</value>
                                    <valuemin>-1</valuemin>
                                    <valuemax>1</valuemax>
                                </parameter>
                            </effect>
                        </filter>
                        <link>
                            <linkclipref>SecondScenePark.1.Apple.Take1.WAV 5</linkclipref>
                            <mediatype>audio</mediatype>
                        </link>
                        <link>
                            <linkclipref>SecondScenePark.1.Apple.Take1.WAV 3</linkclipref>
                            <mediatype>audio</mediatype>
                        </link>
                        <link>
                            <linkclipref>SecondScenePark.1.Apple.Take1.WAV 0</linkclipref>
                            <mediatype>audio</mediatype>
                        </link>
                        <link>
                            <linkclipref>SecondScenePark.1.Apple.Take1.WAV 7</linkclipref>
                        </link>
                        <link>
                            <linkclipref>SecondScenePark.1.Apple.Take1.WAV 9</linkclipref>
                        </link>
                        <comments/>
                    </clipitem>
                    <clipitem id="SecondScenePark.1.Apple.Take1.WAV 8">
                        <name>SecondScenePark.1.Apple.Take1.WAV</name>
                        <duration>970</duration>
                        <rate>
                            <timebase>24</timebase>
                            <ntsc>TRUE</ntsc>
                        </rate>
                        <start>3892</start>
                        <end>4292</end>
                        <enabled>TRUE</enabled>
                        <in>570</in>
                        <out>970</out>
                        <file id="SecondScenePark.1.Apple.Take1.WAV 1"/>
                        <sourcetrack>
                            <mediatype>audio</mediatype>
                            <trackindex>4</trackindex>
                        </sourcetrack>
                        <filter>
                            <enabled>TRUE</enabled>
                            <start>0</start>
                            <end>970</end>
                            <effect>
                                <name>Audio Levels</name>
                                <effectid>audiolevels</effectid>
                                <effecttype>audiolevels</effecttype>
                                <mediatype>audio</mediatype>
                                <effectcategory>audiolevels</effectcategory>
                                <parameter>
                                    <name>Level</name>
                                    <parameterid>level</parameterid>
                                    <value>1</value>
                                    <valuemin>1e-05</valuemin>
                                    <valuemax>31.6228</valuemax>
                                </parameter>
                            </effect>
                        </filter>
                        <filter>
                            <enabled>TRUE</enabled>
                            <start>0</start>
                            <end>970</end>
                            <effect>
                                <name>Audio Pan</name>
                                <effectid>audiopan</effectid>
                                <effecttype>audiopan</effecttype>
                                <mediatype>audio</mediatype>
                                <effectcategory>audiopan</effectcategory>
                                <parameter>
                                    <name>Pan</name>
                                    <parameterid>pan</parameterid>
                                    <value>0</value>
                                    <valuemin>-1</valuemin>
                                    <valuemax>1</valuemax>
                                </parameter>
                            </effect>
                        </filter>
                        <link>
                            <linkclipref>SecondScenePark.1.Apple.Take1.WAV 4</linkclipref>
                            <mediatype>audio</mediatype>
                        </link>
                        <link>
                            <linkclipref>SecondScenePark.1.Apple.Take1.WAV 6</linkclipref>
                            <mediatype>audio</mediatype>
                        </link>
                        <link>
                            <linkclipref>SecondScenePark.1.Apple.Take1.WAV 2</linkclipref>
                            <mediatype>audio</mediatype>
                        </link>
                        <link>
                            <linkclipref>SecondScenePark.1.Apple.Take1.WAV 8</linkclipref>
                        </link>
                        <link>
                            <linkclipref>SecondScenePark.1.Apple.Take1.WAV 10</linkclipref>
                        </link>
                        <comments/>
                    </clipitem>
                    <clipitem id="SecondScenePark.1.Take1.WAV 3">
                        <name>SecondScenePark.1.Take1.WAV</name>
                        <duration>1008</duration>
                        <rate>
                            <timebase>24</timebase>
                            <ntsc>TRUE</ntsc>
                        </rate>
                        <start>5040</start>
                        <end>5998</end>
                        <enabled>TRUE</enabled>
                        <in>0</in>
                        <out>957</out>
                        <file id="SecondScenePark.1.Take1.WAV 1"/>
                        <sourcetrack>
                            <mediatype>audio</mediatype>
                            <trackindex>3</trackindex>
                        </sourcetrack>
                        <filter>
                            <enabled>TRUE</enabled>
                            <start>0</start>
                            <end>1008</end>
                            <effect>
                                <name>Audio Levels</name>
                                <effectid>audiolevels</effectid>
                                <effecttype>audiolevels</effecttype>
                                <mediatype>audio</mediatype>
                                <effectcategory>audiolevels</effectcategory>
                                <parameter>
                                    <name>Level</name>
                                    <parameterid>level</parameterid>
                                    <value>1</value>
                                    <valuemin>1e-05</valuemin>
                                    <valuemax>31.6228</valuemax>
                                </parameter>
                            </effect>
                        </filter>
                        <filter>
                            <enabled>TRUE</enabled>
                            <start>0</start>
                            <end>1008</end>
                            <effect>
                                <name>Audio Pan</name>
                                <effectid>audiopan</effectid>
                                <effecttype>audiopan</effecttype>
                                <mediatype>audio</mediatype>
                                <effectcategory>audiopan</effectcategory>
                                <parameter>
                                    <name>Pan</name>
                                    <parameterid>pan</parameterid>
                                    <value>0</value>
                                    <valuemin>-1</valuemin>
                                    <valuemax>1</valuemax>
                                </parameter>
                            </effect>
                        </filter>
                        <link>
                            <linkclipref>SecondScenePark.1.Take1.WAV 2</linkclipref>
                            <mediatype>audio</mediatype>
                        </link>
                        <link>
                            <linkclipref>SecondScenePark.1.Take1.WAV 0</linkclipref>
                            <mediatype>audio</mediatype>
                        </link>
                        <link>
                            <linkclipref>SecondScenePark.1.Take1.WAV 3</linkclipref>
                        </link>
                        <link>
                            <linkclipref>SecondScenePark.1.Take1.WAV 4</linkclipref>
                        </link>
                        <link>
                            <linkclipref>SecondScenePark.1.Take1.WAV 5</linkclipref>
                        </link>
                        <comments/>
                    </clipitem>
                    <clipitem id="SecondScenePark.1.Take3.WAV 3">
                        <name>SecondScenePark.1.Take3.WAV</name>
                        <duration>1089</duration>
                        <rate>
                            <timebase>24</timebase>
                            <ntsc>TRUE</ntsc>
                        </rate>
                        <start>5998</start>
                        <end>7087</end>
                        <enabled>TRUE</enabled>
                        <in>0</in>
                        <out>1088</out>
                        <file id="SecondScenePark.1.Take3.WAV 1"/>
                        <sourcetrack>
                            <mediatype>audio</mediatype>
                            <trackindex>3</trackindex>
                        </sourcetrack>
                        <filter>
                            <enabled>TRUE</enabled>
                            <start>0</start>
                            <end>1089</end>
                            <effect>
                                <name>Audio Levels</name>
                                <effectid>audiolevels</effectid>
                                <effecttype>audiolevels</effecttype>
                                <mediatype>audio</mediatype>
                                <effectcategory>audiolevels</effectcategory>
                                <parameter>
                                    <name>Level</name>
                                    <parameterid>level</parameterid>
                                    <value>1</value>
                                    <valuemin>1e-05</valuemin>
                                    <valuemax>31.6228</valuemax>
                                </parameter>
                            </effect>
                        </filter>
                        <filter>
                            <enabled>TRUE</enabled>
                            <start>0</start>
                            <end>1089</end>
                            <effect>
                                <name>Audio Pan</name>
                                <effectid>audiopan</effectid>
                                <effecttype>audiopan</effecttype>
                                <mediatype>audio</mediatype>
                                <effectcategory>audiopan</effectcategory>
                                <parameter>
                                    <name>Pan</name>
                                    <parameterid>pan</parameterid>
                                    <value>0</value>
                                    <valuemin>-1</valuemin>
                                    <valuemax>1</valuemax>
                                </parameter>
                            </effect>
                        </filter>
                        <link>
                            <linkclipref>SecondScenePark.1.Take3.WAV 2</linkclipref>
                            <mediatype>audio</mediatype>
                        </link>
                        <link>
                            <linkclipref>SecondScenePark.1.Take3.WAV 0</linkclipref>
                            <mediatype>audio</mediatype>
                        </link>
                        <link>
                            <linkclipref>SecondScenePark.1.Take3.WAV 3</linkclipref>
                        </link>
                        <link>
                            <linkclipref>SecondScenePark.1.Take3.WAV 4</linkclipref>
                        </link>
                        <link>
                            <linkclipref>SecondScenePark.1.Take3.WAV 5</linkclipref>
                        </link>
                        <comments/>
                    </clipitem>
                    <clipitem id="SecondScenePark.1.Take2.WAV 3">
                        <name>SecondScenePark.1.Take2.WAV</name>
                        <duration>1118</duration>
                        <rate>
                            <timebase>24</timebase>
                            <ntsc>TRUE</ntsc>
                        </rate>
                        <start>7128</start>
                        <end>8246</end>
                        <enabled>TRUE</enabled>
                        <in>0</in>
                        <out>1117</out>
                        <file id="SecondScenePark.1.Take2.WAV 1"/>
                        <sourcetrack>
                            <mediatype>audio</mediatype>
                            <trackindex>3</trackindex>
                        </sourcetrack>
                        <filter>
                            <enabled>TRUE</enabled>
                            <start>0</start>
                            <end>1118</end>
                            <effect>
                                <name>Audio Levels</name>
                                <effectid>audiolevels</effectid>
                                <effecttype>audiolevels</effecttype>
                                <mediatype>audio</mediatype>
                                <effectcategory>audiolevels</effectcategory>
                                <parameter>
                                    <name>Level</name>
                                    <parameterid>level</parameterid>
                                    <value>1</value>
                                    <valuemin>1e-05</valuemin>
                                    <valuemax>31.6228</valuemax>
                                </parameter>
                            </effect>
                        </filter>
                        <filter>
                            <enabled>TRUE</enabled>
                            <start>0</start>
                            <end>1118</end>
                            <effect>
                                <name>Audio Pan</name>
                                <effectid>audiopan</effectid>
                                <effecttype>audiopan</effecttype>
                                <mediatype>audio</mediatype>
                                <effectcategory>audiopan</effectcategory>
                                <parameter>
                                    <name>Pan</name>
                                    <parameterid>pan</parameterid>
                                    <value>0</value>
                                    <valuemin>-1</valuemin>
                                    <valuemax>1</valuemax>
                                </parameter>
                            </effect>
                        </filter>
                        <link>
                            <linkclipref>SecondScenePark.1.Take2.WAV 2</linkclipref>
                            <mediatype>audio</mediatype>
                        </link>
                        <link>
                            <linkclipref>SecondScenePark.1.Take2.WAV 0</linkclipref>
                            <mediatype>audio</mediatype>
                        </link>
                        <link>
                            <linkclipref>SecondScenePark.1.Take2.WAV 3</linkclipref>
                        </link>
                        <link>
                            <linkclipref>SecondScenePark.1.Take2.WAV 4</linkclipref>
                        </link>
                        <link>
                            <linkclipref>SecondScenePark.1.Take2.WAV 5</linkclipref>
                        </link>
                        <comments/>
                    </clipitem>
                    <clipitem id="SecondScenePark.2.Take2.WAV 3">
                        <name>SecondScenePark.2.Take2.WAV</name>
                        <duration>472</duration>
                        <rate>
                            <timebase>24</timebase>
                            <ntsc>TRUE</ntsc>
                        </rate>
                        <start>8275</start>
                        <end>8595</end>
                        <enabled>TRUE</enabled>
                        <in>150</in>
                        <out>470</out>
                        <file id="SecondScenePark.2.Take2.WAV 1"/>
                        <sourcetrack>
                            <mediatype>audio</mediatype>
                            <trackindex>3</trackindex>
                        </sourcetrack>
                        <filter>
                            <enabled>TRUE</enabled>
                            <start>0</start>
                            <end>472</end>
                            <effect>
                                <name>Audio Levels</name>
                                <effectid>audiolevels</effectid>
                                <effecttype>audiolevels</effecttype>
                                <mediatype>audio</mediatype>
                                <effectcategory>audiolevels</effectcategory>
                                <parameter>
                                    <name>Level</name>
                                    <parameterid>level</parameterid>
                                    <value>1</value>
                                    <valuemin>1e-05</valuemin>
                                    <valuemax>31.6228</valuemax>
                                </parameter>
                            </effect>
                        </filter>
                        <filter>
                            <enabled>TRUE</enabled>
                            <start>0</start>
                            <end>472</end>
                            <effect>
                                <name>Audio Pan</name>
                                <effectid>audiopan</effectid>
                                <effecttype>audiopan</effecttype>
                                <mediatype>audio</mediatype>
                                <effectcategory>audiopan</effectcategory>
                                <parameter>
                                    <name>Pan</name>
                                    <parameterid>pan</parameterid>
                                    <value>0</value>
                                    <valuemin>-1</valuemin>
                                    <valuemax>1</valuemax>
                                </parameter>
                            </effect>
                        </filter>
                        <link>
                            <linkclipref>SecondScenePark.2.Take2.WAV 2</linkclipref>
                            <mediatype>audio</mediatype>
                        </link>
                        <link>
                            <linkclipref>SecondScenePark.2.Take2.WAV 0</linkclipref>
                            <mediatype>audio</mediatype>
                        </link>
                        <link>
                            <linkclipref>SecondScenePark.2.Take2.WAV 3</linkclipref>
                        </link>
                        <link>
                            <linkclipref>SecondScenePark.2.Take2.WAV 4</linkclipref>
                        </link>
                        <comments/>
                    </clipitem>
                    <clipitem id="SecondScenePark.2.Apple.Take1.WAV 3">
                        <name>SecondScenePark.2.Apple.Take1.WAV</name>
                        <duration>1796</duration>
                        <rate>
                            <timebase>24</timebase>
                            <ntsc>TRUE</ntsc>
                        </rate>
                        <start>8595</start>
                        <end>10293</end>
                        <enabled>TRUE</enabled>
                        <in>46</in>
                        <out>1743</out>
                        <file id="SecondScenePark.2.Apple.Take1.WAV 1"/>
                        <sourcetrack>
                            <mediatype>audio</mediatype>
                            <trackindex>3</trackindex>
                        </sourcetrack>
                        <filter>
                            <enabled>TRUE</enabled>
                            <start>0</start>
                            <end>1796</end>
                            <effect>
                                <name>Audio Levels</name>
                                <effectid>audiolevels</effectid>
                                <effecttype>audiolevels</effecttype>
                                <mediatype>audio</mediatype>
                                <effectcategory>audiolevels</effectcategory>
                                <parameter>
                                    <name>Level</name>
                                    <parameterid>level</parameterid>
                                    <value>1</value>
                                    <valuemin>1e-05</valuemin>
                                    <valuemax>31.6228</valuemax>
                                </parameter>
                            </effect>
                        </filter>
                        <filter>
                            <enabled>TRUE</enabled>
                            <start>0</start>
                            <end>1796</end>
                            <effect>
                                <name>Audio Pan</name>
                                <effectid>audiopan</effectid>
                                <effecttype>audiopan</effecttype>
                                <mediatype>audio</mediatype>
                                <effectcategory>audiopan</effectcategory>
                                <parameter>
                                    <name>Pan</name>
                                    <parameterid>pan</parameterid>
                                    <value>0</value>
                                    <valuemin>-1</valuemin>
                                    <valuemax>1</valuemax>
                                </parameter>
                            </effect>
                        </filter>
                        <link>
                            <linkclipref>SecondScenePark.2.Apple.Take1.WAV 2</linkclipref>
                            <mediatype>audio</mediatype>
                        </link>
                        <link>
                            <linkclipref>SecondScenePark.2.Apple.Take1.WAV 0</linkclipref>
                            <mediatype>audio</mediatype>
                        </link>
                        <link>
                            <linkclipref>SecondScenePark.2.Apple.Take1.WAV 3</linkclipref>
                        </link>
                        <link>
                            <linkclipref>SecondScenePark.2.Apple.Take1.WAV 4</linkclipref>
                        </link>
                        <comments/>
                    </clipitem>
                    <clipitem id="SecondScenePark.2.Take1.WAV 3">
                        <name>SecondScenePark.2.Take1.WAV</name>
                        <duration>1029</duration>
                        <rate>
                            <timebase>24</timebase>
                            <ntsc>TRUE</ntsc>
                        </rate>
                        <start>10293</start>
                        <end>10749</end>
                        <enabled>TRUE</enabled>
                        <in>33</in>
                        <out>488</out>
                        <file id="SecondScenePark.2.Take1.WAV 1"/>
                        <sourcetrack>
                            <mediatype>audio</mediatype>
                            <trackindex>3</trackindex>
                        </sourcetrack>
                        <filter>
                            <enabled>TRUE</enabled>
                            <start>0</start>
                            <end>1029</end>
                            <effect>
                                <name>Audio Levels</name>
                                <effectid>audiolevels</effectid>
                                <effecttype>audiolevels</effecttype>
                                <mediatype>audio</mediatype>
                                <effectcategory>audiolevels</effectcategory>
                                <parameter>
                                    <name>Level</name>
                                    <parameterid>level</parameterid>
                                    <value>1</value>
                                    <valuemin>1e-05</valuemin>
                                    <valuemax>31.6228</valuemax>
                                </parameter>
                            </effect>
                        </filter>
                        <filter>
                            <enabled>TRUE</enabled>
                            <start>0</start>
                            <end>1029</end>
                            <effect>
                                <name>Audio Pan</name>
                                <effectid>audiopan</effectid>
                                <effecttype>audiopan</effecttype>
                                <mediatype>audio</mediatype>
                                <effectcategory>audiopan</effectcategory>
                                <parameter>
                                    <name>Pan</name>
                                    <parameterid>pan</parameterid>
                                    <value>0</value>
                                    <valuemin>-1</valuemin>
                                    <valuemax>1</valuemax>
                                </parameter>
                            </effect>
                        </filter>
                        <link>
                            <linkclipref>SecondScenePark.2.Take1.WAV 2</linkclipref>
                            <mediatype>audio</mediatype>
                        </link>
                        <link>
                            <linkclipref>SecondScenePark.2.Take1.WAV 0</linkclipref>
                            <mediatype>audio</mediatype>
                        </link>
                        <link>
                            <linkclipref>SecondScenePark.2.Take1.WAV 3</linkclipref>
                        </link>
                        <link>
                            <linkclipref>SecondScenePark.2.Take1.WAV 4</linkclipref>
                        </link>
                        <comments/>
                    </clipitem>
                    <clipitem id="SecondScenePark.2.Take3.WAV 3">
                        <name>SecondScenePark.2.Take3.WAV</name>
                        <duration>892</duration>
                        <rate>
                            <timebase>24</timebase>
                            <ntsc>TRUE</ntsc>
                        </rate>
                        <start>10749</start>
                        <end>11590</end>
                        <enabled>TRUE</enabled>
                        <in>5</in>
                        <out>846</out>
                        <file id="SecondScenePark.2.Take3.WAV 1"/>
                        <sourcetrack>
                            <mediatype>audio</mediatype>
                            <trackindex>3</trackindex>
                        </sourcetrack>
                        <filter>
                            <enabled>TRUE</enabled>
                            <start>0</start>
                            <end>892</end>
                            <effect>
                                <name>Audio Levels</name>
                                <effectid>audiolevels</effectid>
                                <effecttype>audiolevels</effecttype>
                                <mediatype>audio</mediatype>
                                <effectcategory>audiolevels</effectcategory>
                                <parameter>
                                    <name>Level</name>
                                    <parameterid>level</parameterid>
                                    <value>1</value>
                                    <valuemin>1e-05</valuemin>
                                    <valuemax>31.6228</valuemax>
                                </parameter>
                            </effect>
                        </filter>
                        <filter>
                            <enabled>TRUE</enabled>
                            <start>0</start>
                            <end>892</end>
                            <effect>
                                <name>Audio Pan</name>
                                <effectid>audiopan</effectid>
                                <effecttype>audiopan</effecttype>
                                <mediatype>audio</mediatype>
                                <effectcategory>audiopan</effectcategory>
                                <parameter>
                                    <name>Pan</name>
                                    <parameterid>pan</parameterid>
                                    <value>0</value>
                                    <valuemin>-1</valuemin>
                                    <valuemax>1</valuemax>
                                </parameter>
                            </effect>
                        </filter>
                        <link>
                            <linkclipref>SecondScenePark.2.Take3.WAV 2</linkclipref>
                            <mediatype>audio</mediatype>
                        </link>
                        <link>
                            <linkclipref>SecondScenePark.2.Take3.WAV 0</linkclipref>
                            <mediatype>audio</mediatype>
                        </link>
                        <link>
                            <linkclipref>SecondScenePark.2.Take3.WAV 3</linkclipref>
                        </link>
                        <link>
                            <linkclipref>SecondScenePark.2.Take3.WAV 4</linkclipref>
                        </link>
                        <comments/>
                    </clipitem>
                    <clipitem id="SecondScenePark.2.5.Take1.WAV 3">
                        <name>SecondScenePark.2.5.Take1.WAV</name>
                        <duration>1055</duration>
                        <rate>
                            <timebase>24</timebase>
                            <ntsc>TRUE</ntsc>
                        </rate>
                        <start>11590</start>
                        <end>12645</end>
                        <enabled>TRUE</enabled>
                        <in>0</in>
                        <out>1055</out>
                        <file id="SecondScenePark.2.5.Take1.WAV 1"/>
                        <sourcetrack>
                            <mediatype>audio</mediatype>
                            <trackindex>3</trackindex>
                        </sourcetrack>
                        <filter>
                            <enabled>TRUE</enabled>
                            <start>0</start>
                            <end>1055</end>
                            <effect>
                                <name>Audio Levels</name>
                                <effectid>audiolevels</effectid>
                                <effecttype>audiolevels</effecttype>
                                <mediatype>audio</mediatype>
                                <effectcategory>audiolevels</effectcategory>
                                <parameter>
                                    <name>Level</name>
                                    <parameterid>level</parameterid>
                                    <value>1</value>
                                    <valuemin>1e-05</valuemin>
                                    <valuemax>31.6228</valuemax>
                                </parameter>
                            </effect>
                        </filter>
                        <filter>
                            <enabled>TRUE</enabled>
                            <start>0</start>
                            <end>1055</end>
                            <effect>
                                <name>Audio Pan</name>
                                <effectid>audiopan</effectid>
                                <effecttype>audiopan</effecttype>
                                <mediatype>audio</mediatype>
                                <effectcategory>audiopan</effectcategory>
                                <parameter>
                                    <name>Pan</name>
                                    <parameterid>pan</parameterid>
                                    <value>0</value>
                                    <valuemin>-1</valuemin>
                                    <valuemax>1</valuemax>
                                </parameter>
                            </effect>
                        </filter>
                        <link>
                            <linkclipref>SecondScenePark.2.5.Take1.WAV 2</linkclipref>
                            <mediatype>audio</mediatype>
                        </link>
                        <link>
                            <linkclipref>SecondScenePark.2.5.Take1.WAV 0</linkclipref>
                            <mediatype>audio</mediatype>
                        </link>
                        <link>
                            <linkclipref>SecondScenePark.2.5.Take1.WAV 3</linkclipref>
                        </link>
                        <link>
                            <linkclipref>SecondScenePark.2.5.Take1.WAV 4</linkclipref>
                        </link>
                        <comments/>
                    </clipitem>
                    <clipitem id="SecondScenePark.2.4.Take1.WAV 3">
                        <name>SecondScenePark.2.4.Take1.WAV</name>
                        <duration>2298</duration>
                        <rate>
                            <timebase>24</timebase>
                            <ntsc>TRUE</ntsc>
                        </rate>
                        <start>12645</start>
                        <end>14702</end>
                        <enabled>TRUE</enabled>
                        <in>106</in>
                        <out>2163</out>
                        <file id="SecondScenePark.2.4.Take1.WAV 1"/>
                        <sourcetrack>
                            <mediatype>audio</mediatype>
                            <trackindex>3</trackindex>
                        </sourcetrack>
                        <filter>
                            <enabled>TRUE</enabled>
                            <start>0</start>
                            <end>2298</end>
                            <effect>
                                <name>Audio Levels</name>
                                <effectid>audiolevels</effectid>
                                <effecttype>audiolevels</effecttype>
                                <mediatype>audio</mediatype>
                                <effectcategory>audiolevels</effectcategory>
                                <parameter>
                                    <name>Level</name>
                                    <parameterid>level</parameterid>
                                    <value>1</value>
                                    <valuemin>1e-05</valuemin>
                                    <valuemax>31.6228</valuemax>
                                </parameter>
                            </effect>
                        </filter>
                        <filter>
                            <enabled>TRUE</enabled>
                            <start>0</start>
                            <end>2298</end>
                            <effect>
                                <name>Audio Pan</name>
                                <effectid>audiopan</effectid>
                                <effecttype>audiopan</effecttype>
                                <mediatype>audio</mediatype>
                                <effectcategory>audiopan</effectcategory>
                                <parameter>
                                    <name>Pan</name>
                                    <parameterid>pan</parameterid>
                                    <value>0</value>
                                    <valuemin>-1</valuemin>
                                    <valuemax>1</valuemax>
                                </parameter>
                            </effect>
                        </filter>
                        <link>
                            <linkclipref>SecondScenePark.2.4.Take1.WAV 2</linkclipref>
                            <mediatype>audio</mediatype>
                        </link>
                        <link>
                            <linkclipref>SecondScenePark.2.4.Take1.WAV 0</linkclipref>
                            <mediatype>audio</mediatype>
                        </link>
                        <link>
                            <linkclipref>SecondScenePark.2.4.Take1.WAV 3</linkclipref>
                        </link>
                        <link>
                            <linkclipref>SecondScenePark.2.4.Take1.WAV 4</linkclipref>
                        </link>
                        <comments/>
                    </clipitem>
                    <clipitem id="SecondScenePark.2.4.Take2.WAV 3">
                        <name>SecondScenePark.2.4.Take2.WAV</name>
                        <duration>1820</duration>
                        <rate>
                            <timebase>24</timebase>
                            <ntsc>TRUE</ntsc>
                        </rate>
                        <start>14702</start>
                        <end>16523</end>
                        <enabled>TRUE</enabled>
                        <in>0</in>
                        <out>1820</out>
                        <file id="SecondScenePark.2.4.Take2.WAV 1"/>
                        <sourcetrack>
                            <mediatype>audio</mediatype>
                            <trackindex>3</trackindex>
                        </sourcetrack>
                        <filter>
                            <enabled>TRUE</enabled>
                            <start>0</start>
                            <end>1820</end>
                            <effect>
                                <name>Audio Levels</name>
                                <effectid>audiolevels</effectid>
                                <effecttype>audiolevels</effecttype>
                                <mediatype>audio</mediatype>
                                <effectcategory>audiolevels</effectcategory>
                                <parameter>
                                    <name>Level</name>
                                    <parameterid>level</parameterid>
                                    <value>1</value>
                                    <valuemin>1e-05</valuemin>
                                    <valuemax>31.6228</valuemax>
                                </parameter>
                            </effect>
                        </filter>
                        <filter>
                            <enabled>TRUE</enabled>
                            <start>0</start>
                            <end>1820</end>
                            <effect>
                                <name>Audio Pan</name>
                                <effectid>audiopan</effectid>
                                <effecttype>audiopan</effecttype>
                                <mediatype>audio</mediatype>
                                <effectcategory>audiopan</effectcategory>
                                <parameter>
                                    <name>Pan</name>
                                    <parameterid>pan</parameterid>
                                    <value>0</value>
                                    <valuemin>-1</valuemin>
                                    <valuemax>1</valuemax>
                                </parameter>
                            </effect>
                        </filter>
                        <link>
                            <linkclipref>SecondScenePark.2.4.Take2.WAV 2</linkclipref>
                            <mediatype>audio</mediatype>
                        </link>
                        <link>
                            <linkclipref>SecondScenePark.2.4.Take2.WAV 0</linkclipref>
                            <mediatype>audio</mediatype>
                        </link>
                        <link>
                            <linkclipref>SecondScenePark.2.4.Take2.WAV 3</linkclipref>
                        </link>
                        <link>
                            <linkclipref>SecondScenePark.2.4.Take2.WAV 4</linkclipref>
                        </link>
                        <comments/>
                    </clipitem>
                    <clipitem id="SecondScenePark.2.7.Take4.WAV 3">
                        <name>SecondScenePark.2.7.Take4.WAV</name>
                        <duration>891</duration>
                        <rate>
                            <timebase>24</timebase>
                            <ntsc>TRUE</ntsc>
                        </rate>
                        <start>16523</start>
                        <end>17386</end>
                        <enabled>TRUE</enabled>
                        <in>28</in>
                        <out>891</out>
                        <file id="SecondScenePark.2.7.Take4.WAV 1"/>
                        <sourcetrack>
                            <mediatype>audio</mediatype>
                            <trackindex>3</trackindex>
                        </sourcetrack>
                        <filter>
                            <enabled>TRUE</enabled>
                            <start>0</start>
                            <end>891</end>
                            <effect>
                                <name>Audio Levels</name>
                                <effectid>audiolevels</effectid>
                                <effecttype>audiolevels</effecttype>
                                <mediatype>audio</mediatype>
                                <effectcategory>audiolevels</effectcategory>
                                <parameter>
                                    <name>Level</name>
                                    <parameterid>level</parameterid>
                                    <value>1</value>
                                    <valuemin>1e-05</valuemin>
                                    <valuemax>31.6228</valuemax>
                                </parameter>
                            </effect>
                        </filter>
                        <filter>
                            <enabled>TRUE</enabled>
                            <start>0</start>
                            <end>891</end>
                            <effect>
                                <name>Audio Pan</name>
                                <effectid>audiopan</effectid>
                                <effecttype>audiopan</effecttype>
                                <mediatype>audio</mediatype>
                                <effectcategory>audiopan</effectcategory>
                                <parameter>
                                    <name>Pan</name>
                                    <parameterid>pan</parameterid>
                                    <value>0</value>
                                    <valuemin>-1</valuemin>
                                    <valuemax>1</valuemax>
                                </parameter>
                            </effect>
                        </filter>
                        <link>
                            <linkclipref>SecondScenePark.2.7.Take4.WAV 2</linkclipref>
                            <mediatype>audio</mediatype>
                        </link>
                        <link>
                            <linkclipref>SecondScenePark.2.7.Take4.WAV 0</linkclipref>
                            <mediatype>audio</mediatype>
                        </link>
                        <link>
                            <linkclipref>SecondScenePark.2.7.Take4.WAV 3</linkclipref>
                        </link>
                        <link>
                            <linkclipref>SecondScenePark.2.7.Take4.WAV 4</linkclipref>
                        </link>
                        <comments/>
                    </clipitem>
                    <clipitem id="SecondScenePark.2.7.Take1.WAV 3">
                        <name>SecondScenePark.2.7.Take1.WAV</name>
                        <duration>935</duration>
                        <rate>
                            <timebase>24</timebase>
                            <ntsc>TRUE</ntsc>
                        </rate>
                        <start>17386</start>
                        <end>18157</end>
                        <enabled>TRUE</enabled>
                        <in>33</in>
                        <out>804</out>
                        <file id="SecondScenePark.2.7.Take1.WAV 1"/>
                        <sourcetrack>
                            <mediatype>audio</mediatype>
                            <trackindex>3</trackindex>
                        </sourcetrack>
                        <filter>
                            <enabled>TRUE</enabled>
                            <start>0</start>
                            <end>935</end>
                            <effect>
                                <name>Audio Levels</name>
                                <effectid>audiolevels</effectid>
                                <effecttype>audiolevels</effecttype>
                                <mediatype>audio</mediatype>
                                <effectcategory>audiolevels</effectcategory>
                                <parameter>
                                    <name>Level</name>
                                    <parameterid>level</parameterid>
                                    <value>1</value>
                                    <valuemin>1e-05</valuemin>
                                    <valuemax>31.6228</valuemax>
                                </parameter>
                            </effect>
                        </filter>
                        <filter>
                            <enabled>TRUE</enabled>
                            <start>0</start>
                            <end>935</end>
                            <effect>
                                <name>Audio Pan</name>
                                <effectid>audiopan</effectid>
                                <effecttype>audiopan</effecttype>
                                <mediatype>audio</mediatype>
                                <effectcategory>audiopan</effectcategory>
                                <parameter>
                                    <name>Pan</name>
                                    <parameterid>pan</parameterid>
                                    <value>0</value>
                                    <valuemin>-1</valuemin>
                                    <valuemax>1</valuemax>
                                </parameter>
                            </effect>
                        </filter>
                        <link>
                            <linkclipref>SecondScenePark.2.7.Take1.WAV 2</linkclipref>
                            <mediatype>audio</mediatype>
                        </link>
                        <link>
                            <linkclipref>SecondScenePark.2.7.Take1.WAV 0</linkclipref>
                            <mediatype>audio</mediatype>
                        </link>
                        <link>
                            <linkclipref>SecondScenePark.2.7.Take1.WAV 3</linkclipref>
                        </link>
                        <link>
                            <linkclipref>SecondScenePark.2.7.Take1.WAV 4</linkclipref>
                        </link>
                        <comments/>
                    </clipitem>
                    <clipitem id="SecondScenePark.2.7.Take2.WAV 3">
                        <name>SecondScenePark.2.7.Take2.WAV</name>
                        <duration>1536</duration>
                        <rate>
                            <timebase>24</timebase>
                            <ntsc>TRUE</ntsc>
                        </rate>
                        <start>18157</start>
                        <end>18994</end>
                        <enabled>TRUE</enabled>
                        <in>627</in>
                        <out>1464</out>
                        <file id="SecondScenePark.2.7.Take2.WAV 1"/>
                        <sourcetrack>
                            <mediatype>audio</mediatype>
                            <trackindex>3</trackindex>
                        </sourcetrack>
                        <filter>
                            <enabled>TRUE</enabled>
                            <start>0</start>
                            <end>1536</end>
                            <effect>
                                <name>Audio Levels</name>
                                <effectid>audiolevels</effectid>
                                <effecttype>audiolevels</effecttype>
                                <mediatype>audio</mediatype>
                                <effectcategory>audiolevels</effectcategory>
                                <parameter>
                                    <name>Level</name>
                                    <parameterid>level</parameterid>
                                    <value>1</value>
                                    <valuemin>1e-05</valuemin>
                                    <valuemax>31.6228</valuemax>
                                </parameter>
                            </effect>
                        </filter>
                        <filter>
                            <enabled>TRUE</enabled>
                            <start>0</start>
                            <end>1536</end>
                            <effect>
                                <name>Audio Pan</name>
                                <effectid>audiopan</effectid>
                                <effecttype>audiopan</effecttype>
                                <mediatype>audio</mediatype>
                                <effectcategory>audiopan</effectcategory>
                                <parameter>
                                    <name>Pan</name>
                                    <parameterid>pan</parameterid>
                                    <value>0</value>
                                    <valuemin>-1</valuemin>
                                    <valuemax>1</valuemax>
                                </parameter>
                            </effect>
                        </filter>
                        <link>
                            <linkclipref>SecondScenePark.2.7.Take2.WAV 2</linkclipref>
                            <mediatype>audio</mediatype>
                        </link>
                        <link>
                            <linkclipref>SecondScenePark.2.7.Take2.WAV 0</linkclipref>
                            <mediatype>audio</mediatype>
                        </link>
                        <link>
                            <linkclipref>SecondScenePark.2.7.Take2.WAV 3</linkclipref>
                        </link>
                        <link>
                            <linkclipref>SecondScenePark.2.7.Take2.WAV 4</linkclipref>
                        </link>
                        <comments/>
                    </clipitem>
                    <clipitem id="SecondScenePark.2.7.Take3.WAV 3">
                        <name>SecondScenePark.2.7.Take3.WAV</name>
                        <duration>1109</duration>
                        <rate>
                            <timebase>24</timebase>
                            <ntsc>TRUE</ntsc>
                        </rate>
                        <start>18994</start>
                        <end>20036</end>
                        <enabled>TRUE</enabled>
                        <in>44</in>
                        <out>1085</out>
                        <file id="SecondScenePark.2.7.Take3.WAV 1"/>
                        <sourcetrack>
                            <mediatype>audio</mediatype>
                            <trackindex>3</trackindex>
                        </sourcetrack>
                        <filter>
                            <enabled>TRUE</enabled>
                            <start>0</start>
                            <end>1109</end>
                            <effect>
                                <name>Audio Levels</name>
                                <effectid>audiolevels</effectid>
                                <effecttype>audiolevels</effecttype>
                                <mediatype>audio</mediatype>
                                <effectcategory>audiolevels</effectcategory>
                                <parameter>
                                    <name>Level</name>
                                    <parameterid>level</parameterid>
                                    <value>1</value>
                                    <valuemin>1e-05</valuemin>
                                    <valuemax>31.6228</valuemax>
                                </parameter>
                            </effect>
                        </filter>
                        <filter>
                            <enabled>TRUE</enabled>
                            <start>0</start>
                            <end>1109</end>
                            <effect>
                                <name>Audio Pan</name>
                                <effectid>audiopan</effectid>
                                <effecttype>audiopan</effecttype>
                                <mediatype>audio</mediatype>
                                <effectcategory>audiopan</effectcategory>
                                <parameter>
                                    <name>Pan</name>
                                    <parameterid>pan</parameterid>
                                    <value>0</value>
                                    <valuemin>-1</valuemin>
                                    <valuemax>1</valuemax>
                                </parameter>
                            </effect>
                        </filter>
                        <link>
                            <linkclipref>SecondScenePark.2.7.Take3.WAV 2</linkclipref>
                            <mediatype>audio</mediatype>
                        </link>
                        <link>
                            <linkclipref>SecondScenePark.2.7.Take3.WAV 0</linkclipref>
                            <mediatype>audio</mediatype>
                        </link>
                        <link>
                            <linkclipref>SecondScenePark.2.7.Take3.WAV 3</linkclipref>
                        </link>
                        <link>
                            <linkclipref>SecondScenePark.2.7.Take3.WAV 4</linkclipref>
                        </link>
                        <comments/>
                    </clipitem>
                    <clipitem id="SecondScenePark.3.1.Take1.WAV 3">
                        <name>SecondScenePark.3.1.Take1.WAV</name>
                        <duration>1378</duration>
                        <rate>
                            <timebase>24</timebase>
                            <ntsc>TRUE</ntsc>
                        </rate>
                        <start>20036</start>
                        <end>21202</end>
                        <enabled>TRUE</enabled>
                        <in>63</in>
                        <out>1229</out>
                        <file id="SecondScenePark.3.1.Take1.WAV 1"/>
                        <sourcetrack>
                            <mediatype>audio</mediatype>
                            <trackindex>3</trackindex>
                        </sourcetrack>
                        <filter>
                            <enabled>TRUE</enabled>
                            <start>0</start>
                            <end>1378</end>
                            <effect>
                                <name>Audio Levels</name>
                                <effectid>audiolevels</effectid>
                                <effecttype>audiolevels</effecttype>
                                <mediatype>audio</mediatype>
                                <effectcategory>audiolevels</effectcategory>
                                <parameter>
                                    <name>Level</name>
                                    <parameterid>level</parameterid>
                                    <value>1</value>
                                    <valuemin>1e-05</valuemin>
                                    <valuemax>31.6228</valuemax>
                                </parameter>
                            </effect>
                        </filter>
                        <filter>
                            <enabled>TRUE</enabled>
                            <start>0</start>
                            <end>1378</end>
                            <effect>
                                <name>Audio Pan</name>
                                <effectid>audiopan</effectid>
                                <effecttype>audiopan</effecttype>
                                <mediatype>audio</mediatype>
                                <effectcategory>audiopan</effectcategory>
                                <parameter>
                                    <name>Pan</name>
                                    <parameterid>pan</parameterid>
                                    <value>0</value>
                                    <valuemin>-1</valuemin>
                                    <valuemax>1</valuemax>
                                </parameter>
                            </effect>
                        </filter>
                        <link>
                            <linkclipref>SecondScenePark.3.1.Take1.WAV 2</linkclipref>
                            <mediatype>audio</mediatype>
                        </link>
                        <link>
                            <linkclipref>SecondScenePark.3.1.Take1.WAV 0</linkclipref>
                            <mediatype>audio</mediatype>
                        </link>
                        <link>
                            <linkclipref>SecondScenePark.3.1.Take1.WAV 3</linkclipref>
                        </link>
                        <link>
                            <linkclipref>SecondScenePark.3.1.Take1.WAV 4</linkclipref>
                        </link>
                        <link>
                            <linkclipref>SecondScenePark.3.1.Take1.WAV 5</linkclipref>
                        </link>
                        <comments/>
                    </clipitem>
                    <clipitem id="SecondScenePark.3.1.Take2.WAV 3">
                        <name>SecondScenePark.3.1.Take2.WAV</name>
                        <duration>1355</duration>
                        <rate>
                            <timebase>24</timebase>
                            <ntsc>TRUE</ntsc>
                        </rate>
                        <start>21202</start>
                        <end>22507</end>
                        <enabled>TRUE</enabled>
                        <in>0</in>
                        <out>1305</out>
                        <file id="SecondScenePark.3.1.Take2.WAV 1"/>
                        <sourcetrack>
                            <mediatype>audio</mediatype>
                            <trackindex>3</trackindex>
                        </sourcetrack>
                        <filter>
                            <enabled>TRUE</enabled>
                            <start>0</start>
                            <end>1355</end>
                            <effect>
                                <name>Audio Levels</name>
                                <effectid>audiolevels</effectid>
                                <effecttype>audiolevels</effecttype>
                                <mediatype>audio</mediatype>
                                <effectcategory>audiolevels</effectcategory>
                                <parameter>
                                    <name>Level</name>
                                    <parameterid>level</parameterid>
                                    <value>1</value>
                                    <valuemin>1e-05</valuemin>
                                    <valuemax>31.6228</valuemax>
                                </parameter>
                            </effect>
                        </filter>
                        <filter>
                            <enabled>TRUE</enabled>
                            <start>0</start>
                            <end>1355</end>
                            <effect>
                                <name>Audio Pan</name>
                                <effectid>audiopan</effectid>
                                <effecttype>audiopan</effecttype>
                                <mediatype>audio</mediatype>
                                <effectcategory>audiopan</effectcategory>
                                <parameter>
                                    <name>Pan</name>
                                    <parameterid>pan</parameterid>
                                    <value>0</value>
                                    <valuemin>-1</valuemin>
                                    <valuemax>1</valuemax>
                                </parameter>
                            </effect>
                        </filter>
                        <link>
                            <linkclipref>SecondScenePark.3.1.Take2.WAV 2</linkclipref>
                            <mediatype>audio</mediatype>
                        </link>
                        <link>
                            <linkclipref>SecondScenePark.3.1.Take2.WAV 0</linkclipref>
                            <mediatype>audio</mediatype>
                        </link>
                        <link>
                            <linkclipref>SecondScenePark.3.1.Take2.WAV 3</linkclipref>
                        </link>
                        <link>
                            <linkclipref>SecondScenePark.3.1.Take2.WAV 4</linkclipref>
                        </link>
                        <link>
                            <linkclipref>SecondScenePark.3.1.Take2.WAV 5</linkclipref>
                        </link>
                        <comments/>
                    </clipitem>
                    <clipitem id="SecondScenePark.3.2.Banana.Take2.WAV 3">
                        <name>SecondScenePark.3.2.Banana.Take2.WAV</name>
                        <duration>2277</duration>
                        <rate>
                            <timebase>24</timebase>
                            <ntsc>TRUE</ntsc>
                        </rate>
                        <start>22507</start>
                        <end>23927</end>
                        <enabled>TRUE</enabled>
                        <in>856</in>
                        <out>2277</out>
                        <file id="SecondScenePark.3.2.Banana.Take2.WAV 1"/>
                        <sourcetrack>
                            <mediatype>audio</mediatype>
                            <trackindex>3</trackindex>
                        </sourcetrack>
                        <filter>
                            <enabled>TRUE</enabled>
                            <start>0</start>
                            <end>2277</end>
                            <effect>
                                <name>Audio Levels</name>
                                <effectid>audiolevels</effectid>
                                <effecttype>audiolevels</effecttype>
                                <mediatype>audio</mediatype>
                                <effectcategory>audiolevels</effectcategory>
                                <parameter>
                                    <name>Level</name>
                                    <parameterid>level</parameterid>
                                    <value>1</value>
                                    <valuemin>1e-05</valuemin>
                                    <valuemax>31.6228</valuemax>
                                </parameter>
                            </effect>
                        </filter>
                        <filter>
                            <enabled>TRUE</enabled>
                            <start>0</start>
                            <end>2277</end>
                            <effect>
                                <name>Audio Pan</name>
                                <effectid>audiopan</effectid>
                                <effecttype>audiopan</effecttype>
                                <mediatype>audio</mediatype>
                                <effectcategory>audiopan</effectcategory>
                                <parameter>
                                    <name>Pan</name>
                                    <parameterid>pan</parameterid>
                                    <value>0</value>
                                    <valuemin>-1</valuemin>
                                    <valuemax>1</valuemax>
                                </parameter>
                            </effect>
                        </filter>
                        <link>
                            <linkclipref>SecondScenePark.3.2.Banana.Take2.WAV 2</linkclipref>
                            <mediatype>audio</mediatype>
                        </link>
                        <link>
                            <linkclipref>SecondScenePark.3.2.Banana.Take2.WAV 0</linkclipref>
                            <mediatype>audio</mediatype>
                        </link>
                        <link>
                            <linkclipref>SecondScenePark.3.2.Banana.Take2.WAV 3</linkclipref>
                        </link>
                        <link>
                            <linkclipref>SecondScenePark.3.2.Banana.Take2.WAV 4</linkclipref>
                        </link>
                        <link>
                            <linkclipref>SecondScenePark.3.2.Banana.Take2.WAV 5</linkclipref>
                        </link>
                        <comments/>
                    </clipitem>
                    <clipitem id="SecondScenePark.3.2.Take1.WAV 3">
                        <name>SecondScenePark.3.2.Take1.WAV</name>
                        <duration>1533</duration>
                        <rate>
                            <timebase>24</timebase>
                            <ntsc>TRUE</ntsc>
                        </rate>
                        <start>23979</start>
                        <end>25406</end>
                        <enabled>TRUE</enabled>
                        <in>0</in>
                        <out>1426</out>
                        <file id="SecondScenePark.3.2.Take1.WAV 1"/>
                        <sourcetrack>
                            <mediatype>audio</mediatype>
                            <trackindex>3</trackindex>
                        </sourcetrack>
                        <filter>
                            <enabled>TRUE</enabled>
                            <start>0</start>
                            <end>1533</end>
                            <effect>
                                <name>Audio Levels</name>
                                <effectid>audiolevels</effectid>
                                <effecttype>audiolevels</effecttype>
                                <mediatype>audio</mediatype>
                                <effectcategory>audiolevels</effectcategory>
                                <parameter>
                                    <name>Level</name>
                                    <parameterid>level</parameterid>
                                    <value>1</value>
                                    <valuemin>1e-05</valuemin>
                                    <valuemax>31.6228</valuemax>
                                </parameter>
                            </effect>
                        </filter>
                        <filter>
                            <enabled>TRUE</enabled>
                            <start>0</start>
                            <end>1533</end>
                            <effect>
                                <name>Audio Pan</name>
                                <effectid>audiopan</effectid>
                                <effecttype>audiopan</effecttype>
                                <mediatype>audio</mediatype>
                                <effectcategory>audiopan</effectcategory>
                                <parameter>
                                    <name>Pan</name>
                                    <parameterid>pan</parameterid>
                                    <value>0</value>
                                    <valuemin>-1</valuemin>
                                    <valuemax>1</valuemax>
                                </parameter>
                            </effect>
                        </filter>
                        <link>
                            <linkclipref>SecondScenePark.3.2.Take1.WAV 2</linkclipref>
                            <mediatype>audio</mediatype>
                        </link>
                        <link>
                            <linkclipref>SecondScenePark.3.2.Take1.WAV 0</linkclipref>
                            <mediatype>audio</mediatype>
                        </link>
                        <link>
                            <linkclipref>SecondScenePark.3.2.Take1.WAV 3</linkclipref>
                        </link>
                        <link>
                            <linkclipref>SecondScenePark.3.2.Take1.WAV 4</linkclipref>
                        </link>
                        <link>
                            <linkclipref>SecondScenePark.3.2.Take1.WAV 5</linkclipref>
                        </link>
                        <comments/>
                    </clipitem>
                    <clipitem id="SecondScenePark.3.2.Take2.WAV 3">
                        <name>SecondScenePark.3.2.Take2.WAV</name>
                        <duration>1544</duration>
                        <rate>
                            <timebase>24</timebase>
                            <ntsc>TRUE</ntsc>
                        </rate>
                        <start>25406</start>
                        <end>26688</end>
                        <enabled>TRUE</enabled>
                        <in>204</in>
                        <out>1486</out>
                        <file id="SecondScenePark.3.2.Take2.WAV 1"/>
                        <sourcetrack>
                            <mediatype>audio</mediatype>
                            <trackindex>3</trackindex>
                        </sourcetrack>
                        <filter>
                            <enabled>TRUE</enabled>
                            <start>0</start>
                            <end>1544</end>
                            <effect>
                                <name>Audio Levels</name>
                                <effectid>audiolevels</effectid>
                                <effecttype>audiolevels</effecttype>
                                <mediatype>audio</mediatype>
                                <effectcategory>audiolevels</effectcategory>
                                <parameter>
                                    <name>Level</name>
                                    <parameterid>level</parameterid>
                                    <value>1</value>
                                    <valuemin>1e-05</valuemin>
                                    <valuemax>31.6228</valuemax>
                                </parameter>
                            </effect>
                        </filter>
                        <filter>
                            <enabled>TRUE</enabled>
                            <start>0</start>
                            <end>1544</end>
                            <effect>
                                <name>Audio Pan</name>
                                <effectid>audiopan</effectid>
                                <effecttype>audiopan</effecttype>
                                <mediatype>audio</mediatype>
                                <effectcategory>audiopan</effectcategory>
                                <parameter>
                                    <name>Pan</name>
                                    <parameterid>pan</parameterid>
                                    <value>0</value>
                                    <valuemin>-1</valuemin>
                                    <valuemax>1</valuemax>
                                </parameter>
                            </effect>
                        </filter>
                        <link>
                            <linkclipref>SecondScenePark.3.2.Take2.WAV 2</linkclipref>
                            <mediatype>audio</mediatype>
                        </link>
                        <link>
                            <linkclipref>SecondScenePark.3.2.Take2.WAV 0</linkclipref>
                            <mediatype>audio</mediatype>
                        </link>
                        <link>
                            <linkclipref>SecondScenePark.3.2.Take2.WAV 3</linkclipref>
                        </link>
                        <link>
                            <linkclipref>SecondScenePark.3.2.Take2.WAV 4</linkclipref>
                        </link>
                        <link>
                            <linkclipref>SecondScenePark.3.2.Take2.WAV 5</linkclipref>
                        </link>
                        <comments/>
                    </clipitem>
                    <clipitem id="SecondScenePark.3.2.Take3.WAV 6">
                        <name>SecondScenePark.3.2.Take3.WAV</name>
                        <duration>1661</duration>
                        <rate>
                            <timebase>24</timebase>
                            <ntsc>TRUE</ntsc>
                        </rate>
                        <start>26688</start>
                        <end>28258</end>
                        <enabled>TRUE</enabled>
                        <in>0</in>
                        <out>1569</out>
                        <file id="SecondScenePark.3.2.Take3.WAV 1"/>
                        <sourcetrack>
                            <mediatype>audio</mediatype>
                            <trackindex>3</trackindex>
                        </sourcetrack>
                        <filter>
                            <enabled>TRUE</enabled>
                            <start>0</start>
                            <end>1661</end>
                            <effect>
                                <name>Audio Levels</name>
                                <effectid>audiolevels</effectid>
                                <effecttype>audiolevels</effecttype>
                                <mediatype>audio</mediatype>
                                <effectcategory>audiolevels</effectcategory>
                                <parameter>
                                    <name>Level</name>
                                    <parameterid>level</parameterid>
                                    <value>1</value>
                                    <valuemin>1e-05</valuemin>
                                    <valuemax>31.6228</valuemax>
                                </parameter>
                            </effect>
                        </filter>
                        <filter>
                            <enabled>TRUE</enabled>
                            <start>0</start>
                            <end>1661</end>
                            <effect>
                                <name>Audio Pan</name>
                                <effectid>audiopan</effectid>
                                <effecttype>audiopan</effecttype>
                                <mediatype>audio</mediatype>
                                <effectcategory>audiopan</effectcategory>
                                <parameter>
                                    <name>Pan</name>
                                    <parameterid>pan</parameterid>
                                    <value>0</value>
                                    <valuemin>-1</valuemin>
                                    <valuemax>1</valuemax>
                                </parameter>
                            </effect>
                        </filter>
                        <link>
                            <linkclipref>SecondScenePark.3.2.Take3.WAV 0</linkclipref>
                            <mediatype>audio</mediatype>
                        </link>
                        <link>
                            <linkclipref>SecondScenePark.3.2.Take3.WAV 4</linkclipref>
                            <mediatype>audio</mediatype>
                        </link>
                        <link>
                            <linkclipref>SecondScenePark.3.2.Take3.WAV 6</linkclipref>
                        </link>
                        <link>
                            <linkclipref>SecondScenePark.3.2.Take3.WAV 8</linkclipref>
                        </link>
                        <link>
                            <linkclipref>SecondScenePark.3.2.Take3.WAV 10</linkclipref>
                        </link>
                        <comments/>
                    </clipitem>
                    <clipitem id="SecondScenePark.3.2.Banana.Take1.WAV 3">
                        <name>SecondScenePark.3.2.Banana.Take1.WAV</name>
                        <duration>1376</duration>
                        <rate>
                            <timebase>24</timebase>
                            <ntsc>TRUE</ntsc>
                        </rate>
                        <start>28258</start>
                        <end>29427</end>
                        <enabled>TRUE</enabled>
                        <in>102</in>
                        <out>1271</out>
                        <file id="SecondScenePark.3.2.Banana.Take1.WAV 1"/>
                        <sourcetrack>
                            <mediatype>audio</mediatype>
                            <trackindex>3</trackindex>
                        </sourcetrack>
                        <filter>
                            <enabled>TRUE</enabled>
                            <start>0</start>
                            <end>1376</end>
                            <effect>
                                <name>Audio Levels</name>
                                <effectid>audiolevels</effectid>
                                <effecttype>audiolevels</effecttype>
                                <mediatype>audio</mediatype>
                                <effectcategory>audiolevels</effectcategory>
                                <parameter>
                                    <name>Level</name>
                                    <parameterid>level</parameterid>
                                    <value>1</value>
                                    <valuemin>1e-05</valuemin>
                                    <valuemax>31.6228</valuemax>
                                </parameter>
                            </effect>
                        </filter>
                        <filter>
                            <enabled>TRUE</enabled>
                            <start>0</start>
                            <end>1376</end>
                            <effect>
                                <name>Audio Pan</name>
                                <effectid>audiopan</effectid>
                                <effecttype>audiopan</effecttype>
                                <mediatype>audio</mediatype>
                                <effectcategory>audiopan</effectcategory>
                                <parameter>
                                    <name>Pan</name>
                                    <parameterid>pan</parameterid>
                                    <value>0</value>
                                    <valuemin>-1</valuemin>
                                    <valuemax>1</valuemax>
                                </parameter>
                            </effect>
                        </filter>
                        <link>
                            <linkclipref>SecondScenePark.3.2.Banana.Take1.WAV 0</linkclipref>
                            <mediatype>audio</mediatype>
                        </link>
                        <link>
                            <linkclipref>SecondScenePark.3.2.Banana.Take1.WAV 2</linkclipref>
                            <mediatype>audio</mediatype>
                        </link>
                        <link>
                            <linkclipref>SecondScenePark.3.2.Banana.Take1.WAV 3</linkclipref>
                        </link>
                        <link>
                            <linkclipref>SecondScenePark.3.2.Banana.Take1.WAV 4</linkclipref>
                        </link>
                        <link>
                            <linkclipref>SecondScenePark.3.2.Banana.Take1.WAV 5</linkclipref>
                        </link>
                        <comments/>
                    </clipitem>
                    <clipitem id="SecondScenePark.3.2.Take3.WAV 7">
                        <name>SecondScenePark.3.2.Take3.WAV</name>
                        <duration>900</duration>
                        <rate>
                            <timebase>24</timebase>
                            <ntsc>TRUE</ntsc>
                        </rate>
                        <start>29432</start>
                        <end>30227</end>
                        <enabled>TRUE</enabled>
                        <in>0</in>
                        <out>795</out>
                        <file id="SecondScenePark.3.2.Take3.WAV 3"/>
                        <sourcetrack>
                            <mediatype>audio</mediatype>
                            <trackindex>3</trackindex>
                        </sourcetrack>
                        <filter>
                            <enabled>TRUE</enabled>
                            <start>0</start>
                            <end>900</end>
                            <effect>
                                <name>Audio Levels</name>
                                <effectid>audiolevels</effectid>
                                <effecttype>audiolevels</effecttype>
                                <mediatype>audio</mediatype>
                                <effectcategory>audiolevels</effectcategory>
                                <parameter>
                                    <name>Level</name>
                                    <parameterid>level</parameterid>
                                    <value>1</value>
                                    <valuemin>1e-05</valuemin>
                                    <valuemax>31.6228</valuemax>
                                </parameter>
                            </effect>
                        </filter>
                        <filter>
                            <enabled>TRUE</enabled>
                            <start>0</start>
                            <end>900</end>
                            <effect>
                                <name>Audio Pan</name>
                                <effectid>audiopan</effectid>
                                <effecttype>audiopan</effecttype>
                                <mediatype>audio</mediatype>
                                <effectcategory>audiopan</effectcategory>
                                <parameter>
                                    <name>Pan</name>
                                    <parameterid>pan</parameterid>
                                    <value>0</value>
                                    <valuemin>-1</valuemin>
                                    <valuemax>1</valuemax>
                                </parameter>
                            </effect>
                        </filter>
                        <link>
                            <linkclipref>SecondScenePark.3.2.Take3.WAV 2</linkclipref>
                            <mediatype>audio</mediatype>
                        </link>
                        <link>
                            <linkclipref>SecondScenePark.3.2.Take3.WAV 5</linkclipref>
                            <mediatype>audio</mediatype>
                        </link>
                        <link>
                            <linkclipref>SecondScenePark.3.2.Take3.WAV 7</linkclipref>
                        </link>
                        <link>
                            <linkclipref>SecondScenePark.3.2.Take3.WAV 9</linkclipref>
                        </link>
                        <link>
                            <linkclipref>SecondScenePark.3.2.Take3.WAV 11</linkclipref>
                        </link>
                        <comments/>
                    </clipitem>
                    <clipitem id="SecondScenePark.3.4.Take1.WAV 3">
                        <name>SecondScenePark.3.4.Take1.WAV</name>
                        <duration>1922</duration>
                        <rate>
                            <timebase>24</timebase>
                            <ntsc>TRUE</ntsc>
                        </rate>
                        <start>30227</start>
                        <end>31522</end>
                        <enabled>TRUE</enabled>
                        <in>205</in>
                        <out>1499</out>
                        <file id="SecondScenePark.3.4.Take1.WAV 1"/>
                        <sourcetrack>
                            <mediatype>audio</mediatype>
                            <trackindex>3</trackindex>
                        </sourcetrack>
                        <filter>
                            <enabled>TRUE</enabled>
                            <start>0</start>
                            <end>1922</end>
                            <effect>
                                <name>Audio Levels</name>
                                <effectid>audiolevels</effectid>
                                <effecttype>audiolevels</effecttype>
                                <mediatype>audio</mediatype>
                                <effectcategory>audiolevels</effectcategory>
                                <parameter>
                                    <name>Level</name>
                                    <parameterid>level</parameterid>
                                    <value>1</value>
                                    <valuemin>1e-05</valuemin>
                                    <valuemax>31.6228</valuemax>
                                </parameter>
                            </effect>
                        </filter>
                        <filter>
                            <enabled>TRUE</enabled>
                            <start>0</start>
                            <end>1922</end>
                            <effect>
                                <name>Audio Pan</name>
                                <effectid>audiopan</effectid>
                                <effecttype>audiopan</effecttype>
                                <mediatype>audio</mediatype>
                                <effectcategory>audiopan</effectcategory>
                                <parameter>
                                    <name>Pan</name>
                                    <parameterid>pan</parameterid>
                                    <value>0</value>
                                    <valuemin>-1</valuemin>
                                    <valuemax>1</valuemax>
                                </parameter>
                            </effect>
                        </filter>
                        <link>
                            <linkclipref>SecondScenePark.3.4.Take1.WAV 2</linkclipref>
                            <mediatype>audio</mediatype>
                        </link>
                        <link>
                            <linkclipref>SecondScenePark.3.4.Take1.WAV 0</linkclipref>
                            <mediatype>audio</mediatype>
                        </link>
                        <link>
                            <linkclipref>SecondScenePark.3.4.Take1.WAV 3</linkclipref>
                        </link>
                        <link>
                            <linkclipref>SecondScenePark.3.4.Take1.WAV 4</linkclipref>
                        </link>
                        <link>
                            <linkclipref>SecondScenePark.3.4.Take1.WAV 5</linkclipref>
                        </link>
                        <comments/>
                    </clipitem>
                    <clipitem id="SecondScenePark.3.4.Take2.WAV 3">
                        <name>SecondScenePark.3.4.Take2.WAV</name>
                        <duration>2334</duration>
                        <rate>
                            <timebase>24</timebase>
                            <ntsc>TRUE</ntsc>
                        </rate>
                        <start>31522</start>
                        <end>33370</end>
                        <enabled>TRUE</enabled>
                        <in>142</in>
                        <out>1989</out>
                        <file id="SecondScenePark.3.4.Take2.WAV 1"/>
                        <sourcetrack>
                            <mediatype>audio</mediatype>
                            <trackindex>3</trackindex>
                        </sourcetrack>
                        <filter>
                            <enabled>TRUE</enabled>
                            <start>0</start>
                            <end>2334</end>
                            <effect>
                                <name>Audio Levels</name>
                                <effectid>audiolevels</effectid>
                                <effecttype>audiolevels</effecttype>
                                <mediatype>audio</mediatype>
                                <effectcategory>audiolevels</effectcategory>
                                <parameter>
                                    <name>Level</name>
                                    <parameterid>level</parameterid>
                                    <value>1</value>
                                    <valuemin>1e-05</valuemin>
                                    <valuemax>31.6228</valuemax>
                                </parameter>
                            </effect>
                        </filter>
                        <filter>
                            <enabled>TRUE</enabled>
                            <start>0</start>
                            <end>2334</end>
                            <effect>
                                <name>Audio Pan</name>
                                <effectid>audiopan</effectid>
                                <effecttype>audiopan</effecttype>
                                <mediatype>audio</mediatype>
                                <effectcategory>audiopan</effectcategory>
                                <parameter>
                                    <name>Pan</name>
                                    <parameterid>pan</parameterid>
                                    <value>0</value>
                                    <valuemin>-1</valuemin>
                                    <valuemax>1</valuemax>
                                </parameter>
                            </effect>
                        </filter>
                        <link>
                            <linkclipref>SecondScenePark.3.4.Take2.WAV 2</linkclipref>
                            <mediatype>audio</mediatype>
                        </link>
                        <link>
                            <linkclipref>SecondScenePark.3.4.Take2.WAV 0</linkclipref>
                            <mediatype>audio</mediatype>
                        </link>
                        <link>
                            <linkclipref>SecondScenePark.3.4.Take2.WAV 3</linkclipref>
                        </link>
                        <link>
                            <linkclipref>SecondScenePark.3.4.Take2.WAV 4</linkclipref>
                        </link>
                        <link>
                            <linkclipref>SecondScenePark.3.4.Take2.WAV 5</linkclipref>
                        </link>
                        <comments/>
                    </clipitem>
                    <clipitem id="SecondScenePark.3.5.Apple.Take1.WAV 3">
                        <name>SecondScenePark.3.5.Apple.Take1.WAV</name>
                        <duration>885</duration>
                        <rate>
                            <timebase>24</timebase>
                            <ntsc>TRUE</ntsc>
                        </rate>
                        <start>33446</start>
                        <end>34224</end>
                        <enabled>TRUE</enabled>
                        <in>0</in>
                        <out>778</out>
                        <file id="SecondScenePark.3.5.Apple.Take1.WAV 1"/>
                        <sourcetrack>
                            <mediatype>audio</mediatype>
                            <trackindex>3</trackindex>
                        </sourcetrack>
                        <filter>
                            <enabled>TRUE</enabled>
                            <start>0</start>
                            <end>885</end>
                            <effect>
                                <name>Audio Levels</name>
                                <effectid>audiolevels</effectid>
                                <effecttype>audiolevels</effecttype>
                                <mediatype>audio</mediatype>
                                <effectcategory>audiolevels</effectcategory>
                                <parameter>
                                    <name>Level</name>
                                    <parameterid>level</parameterid>
                                    <value>1</value>
                                    <valuemin>1e-05</valuemin>
                                    <valuemax>31.6228</valuemax>
                                </parameter>
                            </effect>
                        </filter>
                        <filter>
                            <enabled>TRUE</enabled>
                            <start>0</start>
                            <end>885</end>
                            <effect>
                                <name>Audio Pan</name>
                                <effectid>audiopan</effectid>
                                <effecttype>audiopan</effecttype>
                                <mediatype>audio</mediatype>
                                <effectcategory>audiopan</effectcategory>
                                <parameter>
                                    <name>Pan</name>
                                    <parameterid>pan</parameterid>
                                    <value>0</value>
                                    <valuemin>-1</valuemin>
                                    <valuemax>1</valuemax>
                                </parameter>
                            </effect>
                        </filter>
                        <link>
                            <linkclipref>SecondScenePark.3.5.Apple.Take1.WAV 2</linkclipref>
                            <mediatype>audio</mediatype>
                        </link>
                        <link>
                            <linkclipref>SecondScenePark.3.5.Apple.Take1.WAV 0</linkclipref>
                            <mediatype>audio</mediatype>
                        </link>
                        <link>
                            <linkclipref>SecondScenePark.3.5.Apple.Take1.WAV 3</linkclipref>
                        </link>
                        <link>
                            <linkclipref>SecondScenePark.3.5.Apple.Take1.WAV 4</linkclipref>
                        </link>
                        <link>
                            <linkclipref>SecondScenePark.3.5.Apple.Take1.WAV 5</linkclipref>
                        </link>
                        <comments/>
                    </clipitem>
                    <clipitem id="SecondScenePark.3.5.Banana.Take1.WAV 3">
                        <name>SecondScenePark.3.5.Banana.Take1.WAV</name>
                        <duration>1340</duration>
                        <rate>
                            <timebase>24</timebase>
                            <ntsc>TRUE</ntsc>
                        </rate>
                        <start>34224</start>
                        <end>35150</end>
                        <enabled>TRUE</enabled>
                        <in>414</in>
                        <out>1340</out>
                        <file id="SecondScenePark.3.5.Banana.Take1.WAV 1"/>
                        <sourcetrack>
                            <mediatype>audio</mediatype>
                            <trackindex>3</trackindex>
                        </sourcetrack>
                        <filter>
                            <enabled>TRUE</enabled>
                            <start>0</start>
                            <end>1340</end>
                            <effect>
                                <name>Audio Levels</name>
                                <effectid>audiolevels</effectid>
                                <effecttype>audiolevels</effecttype>
                                <mediatype>audio</mediatype>
                                <effectcategory>audiolevels</effectcategory>
                                <parameter>
                                    <name>Level</name>
                                    <parameterid>level</parameterid>
                                    <value>1</value>
                                    <valuemin>1e-05</valuemin>
                                    <valuemax>31.6228</valuemax>
                                </parameter>
                            </effect>
                        </filter>
                        <filter>
                            <enabled>TRUE</enabled>
                            <start>0</start>
                            <end>1340</end>
                            <effect>
                                <name>Audio Pan</name>
                                <effectid>audiopan</effectid>
                                <effecttype>audiopan</effecttype>
                                <mediatype>audio</mediatype>
                                <effectcategory>audiopan</effectcategory>
                                <parameter>
                                    <name>Pan</name>
                                    <parameterid>pan</parameterid>
                                    <value>0</value>
                                    <valuemin>-1</valuemin>
                                    <valuemax>1</valuemax>
                                </parameter>
                            </effect>
                        </filter>
                        <link>
                            <linkclipref>SecondScenePark.3.5.Banana.Take1.WAV 2</linkclipref>
                            <mediatype>audio</mediatype>
                        </link>
                        <link>
                            <linkclipref>SecondScenePark.3.5.Banana.Take1.WAV 0</linkclipref>
                            <mediatype>audio</mediatype>
                        </link>
                        <link>
                            <linkclipref>SecondScenePark.3.5.Banana.Take1.WAV 3</linkclipref>
                        </link>
                        <link>
                            <linkclipref>SecondScenePark.3.5.Banana.Take1.WAV 4</linkclipref>
                        </link>
                        <link>
                            <linkclipref>SecondScenePark.3.5.Banana.Take1.WAV 5</linkclipref>
                        </link>
                        <comments/>
                    </clipitem>
                    <clipitem id="SecondScenePark.3.5.Take1.WAV 3">
                        <name>SecondScenePark.3.5.Take1.WAV</name>
                        <duration>1038</duration>
                        <rate>
                            <timebase>24</timebase>
                            <ntsc>TRUE</ntsc>
                        </rate>
                        <start>35158</start>
                        <end>36196</end>
                        <enabled>TRUE</enabled>
                        <in>0</in>
                        <out>1038</out>
                        <file id="SecondScenePark.3.5.Take1.WAV 1"/>
                        <sourcetrack>
                            <mediatype>audio</mediatype>
                            <trackindex>3</trackindex>
                        </sourcetrack>
                        <filter>
                            <enabled>TRUE</enabled>
                            <start>0</start>
                            <end>1038</end>
                            <effect>
                                <name>Audio Levels</name>
                                <effectid>audiolevels</effectid>
                                <effecttype>audiolevels</effecttype>
                                <mediatype>audio</mediatype>
                                <effectcategory>audiolevels</effectcategory>
                                <parameter>
                                    <name>Level</name>
                                    <parameterid>level</parameterid>
                                    <value>1</value>
                                    <valuemin>1e-05</valuemin>
                                    <valuemax>31.6228</valuemax>
                                </parameter>
                            </effect>
                        </filter>
                        <filter>
                            <enabled>TRUE</enabled>
                            <start>0</start>
                            <end>1038</end>
                            <effect>
                                <name>Audio Pan</name>
                                <effectid>audiopan</effectid>
                                <effecttype>audiopan</effecttype>
                                <mediatype>audio</mediatype>
                                <effectcategory>audiopan</effectcategory>
                                <parameter>
                                    <name>Pan</name>
                                    <parameterid>pan</parameterid>
                                    <value>0</value>
                                    <valuemin>-1</valuemin>
                                    <valuemax>1</valuemax>
                                </parameter>
                            </effect>
                        </filter>
                        <link>
                            <linkclipref>SecondScenePark.3.5.Take1.WAV 0</linkclipref>
                            <mediatype>audio</mediatype>
                        </link>
                        <link>
                            <linkclipref>SecondScenePark.3.5.Take1.WAV 2</linkclipref>
                            <mediatype>audio</mediatype>
                        </link>
                        <link>
                            <linkclipref>SecondScenePark.3.5.Take1.WAV 3</linkclipref>
                        </link>
                        <link>
                            <linkclipref>SecondScenePark.3.5.Take1.WAV 4</linkclipref>
                        </link>
                        <link>
                            <linkclipref>SecondScenePark.3.5.Take1.WAV 5</linkclipref>
                        </link>
                        <comments/>
                    </clipitem>
                    <clipitem id="SecondScenePark.3.5.Take2.WAV 3">
                        <name>SecondScenePark.3.5.Take2.WAV</name>
                        <duration>781</duration>
                        <rate>
                            <timebase>24</timebase>
                            <ntsc>TRUE</ntsc>
                        </rate>
                        <start>36341</start>
                        <end>37122</end>
                        <enabled>TRUE</enabled>
                        <in>0</in>
                        <out>781</out>
                        <file id="SecondScenePark.3.5.Take2.WAV 1"/>
                        <sourcetrack>
                            <mediatype>audio</mediatype>
                            <trackindex>3</trackindex>
                        </sourcetrack>
                        <filter>
                            <enabled>TRUE</enabled>
                            <start>0</start>
                            <end>781</end>
                            <effect>
                                <name>Audio Levels</name>
                                <effectid>audiolevels</effectid>
                                <effecttype>audiolevels</effecttype>
                                <mediatype>audio</mediatype>
                                <effectcategory>audiolevels</effectcategory>
                                <parameter>
                                    <name>Level</name>
                                    <parameterid>level</parameterid>
                                    <value>1</value>
                                    <valuemin>1e-05</valuemin>
                                    <valuemax>31.6228</valuemax>
                                </parameter>
                            </effect>
                        </filter>
                        <filter>
                            <enabled>TRUE</enabled>
                            <start>0</start>
                            <end>781</end>
                            <effect>
                                <name>Audio Pan</name>
                                <effectid>audiopan</effectid>
                                <effecttype>audiopan</effecttype>
                                <mediatype>audio</mediatype>
                                <effectcategory>audiopan</effectcategory>
                                <parameter>
                                    <name>Pan</name>
                                    <parameterid>pan</parameterid>
                                    <value>0</value>
                                    <valuemin>-1</valuemin>
                                    <valuemax>1</valuemax>
                                </parameter>
                            </effect>
                        </filter>
                        <link>
                            <linkclipref>SecondScenePark.3.5.Take2.WAV 2</linkclipref>
                            <mediatype>audio</mediatype>
                        </link>
                        <link>
                            <linkclipref>SecondScenePark.3.5.Take2.WAV 0</linkclipref>
                            <mediatype>audio</mediatype>
                        </link>
                        <link>
                            <linkclipref>SecondScenePark.3.5.Take2.WAV 3</linkclipref>
                        </link>
                        <link>
                            <linkclipref>SecondScenePark.3.5.Take2.WAV 4</linkclipref>
                        </link>
                        <link>
                            <linkclipref>SecondScenePark.3.5.Take2.WAV 5</linkclipref>
                        </link>
                        <comments/>
                    </clipitem>
                    <clipitem id="SecondScenePark.3.5.Caw.Take1.WAV 3">
                        <name>SecondScenePark.3.5.Caw.Take1.WAV</name>
                        <duration>717</duration>
                        <rate>
                            <timebase>24</timebase>
                            <ntsc>TRUE</ntsc>
                        </rate>
                        <start>37442</start>
                        <end>37840</end>
                        <enabled>TRUE</enabled>
                        <in>0</in>
                        <out>397</out>
                        <file id="SecondScenePark.3.5.Caw.Take1.WAV 1"/>
                        <sourcetrack>
                            <mediatype>audio</mediatype>
                            <trackindex>3</trackindex>
                        </sourcetrack>
                        <filter>
                            <enabled>TRUE</enabled>
                            <start>0</start>
                            <end>717</end>
                            <effect>
                                <name>Audio Levels</name>
                                <effectid>audiolevels</effectid>
                                <effecttype>audiolevels</effecttype>
                                <mediatype>audio</mediatype>
                                <effectcategory>audiolevels</effectcategory>
                                <parameter>
                                    <name>Level</name>
                                    <parameterid>level</parameterid>
                                    <value>1</value>
                                    <valuemin>1e-05</valuemin>
                                    <valuemax>31.6228</valuemax>
                                </parameter>
                            </effect>
                        </filter>
                        <filter>
                            <enabled>TRUE</enabled>
                            <start>0</start>
                            <end>717</end>
                            <effect>
                                <name>Audio Pan</name>
                                <effectid>audiopan</effectid>
                                <effecttype>audiopan</effecttype>
                                <mediatype>audio</mediatype>
                                <effectcategory>audiopan</effectcategory>
                                <parameter>
                                    <name>Pan</name>
                                    <parameterid>pan</parameterid>
                                    <value>0</value>
                                    <valuemin>-1</valuemin>
                                    <valuemax>1</valuemax>
                                </parameter>
                            </effect>
                        </filter>
                        <link>
                            <linkclipref>SecondScenePark.3.5.Caw.Take1.WAV 0</linkclipref>
                            <mediatype>audio</mediatype>
                        </link>
                        <link>
                            <linkclipref>SecondScenePark.3.5.Caw.Take1.WAV 2</linkclipref>
                            <mediatype>audio</mediatype>
                        </link>
                        <link>
                            <linkclipref>SecondScenePark.3.5.Caw.Take1.WAV 3</linkclipref>
                        </link>
                        <link>
                            <linkclipref>SecondScenePark.3.5.Caw.Take1.WAV 4</linkclipref>
                        </link>
                        <comments/>
                    </clipitem>
                    <clipitem id="SecondScenePark.3.5.Caw.Take2.WAV 3">
                        <name>SecondScenePark.3.5.Caw.Take2.WAV</name>
                        <duration>582</duration>
                        <rate>
                            <timebase>24</timebase>
                            <ntsc>TRUE</ntsc>
                        </rate>
                        <start>37840</start>
                        <end>38422</end>
                        <enabled>TRUE</enabled>
                        <in>0</in>
                        <out>582</out>
                        <file id="SecondScenePark.3.5.Caw.Take2.WAV 1"/>
                        <sourcetrack>
                            <mediatype>audio</mediatype>
                            <trackindex>3</trackindex>
                        </sourcetrack>
                        <filter>
                            <enabled>TRUE</enabled>
                            <start>0</start>
                            <end>582</end>
                            <effect>
                                <name>Audio Levels</name>
                                <effectid>audiolevels</effectid>
                                <effecttype>audiolevels</effecttype>
                                <mediatype>audio</mediatype>
                                <effectcategory>audiolevels</effectcategory>
                                <parameter>
                                    <name>Level</name>
                                    <parameterid>level</parameterid>
                                    <value>1</value>
                                    <valuemin>1e-05</valuemin>
                                    <valuemax>31.6228</valuemax>
                                </parameter>
                            </effect>
                        </filter>
                        <filter>
                            <enabled>TRUE</enabled>
                            <start>0</start>
                            <end>582</end>
                            <effect>
                                <name>Audio Pan</name>
                                <effectid>audiopan</effectid>
                                <effecttype>audiopan</effecttype>
                                <mediatype>audio</mediatype>
                                <effectcategory>audiopan</effectcategory>
                                <parameter>
                                    <name>Pan</name>
                                    <parameterid>pan</parameterid>
                                    <value>0</value>
                                    <valuemin>-1</valuemin>
                                    <valuemax>1</valuemax>
                                </parameter>
                            </effect>
                        </filter>
                        <link>
                            <linkclipref>SecondScenePark.3.5.Caw.Take2.WAV 2</linkclipref>
                            <mediatype>audio</mediatype>
                        </link>
                        <link>
                            <linkclipref>SecondScenePark.3.5.Caw.Take2.WAV 0</linkclipref>
                            <mediatype>audio</mediatype>
                        </link>
                        <link>
                            <linkclipref>SecondScenePark.3.5.Caw.Take2.WAV 3</linkclipref>
                        </link>
                        <link>
                            <linkclipref>SecondScenePark.3.5.Caw.Take2.WAV 4</linkclipref>
                        </link>
                        <comments/>
                    </clipitem>
                    <clipitem id="SecondScenePark.4.1.Take3.WAV 3">
                        <name>SecondScenePark.4.1.Take3.WAV</name>
                        <duration>371</duration>
                        <rate>
                            <timebase>24</timebase>
                            <ntsc>TRUE</ntsc>
                        </rate>
                        <start>38714</start>
                        <end>39085</end>
                        <enabled>TRUE</enabled>
                        <in>0</in>
                        <out>371</out>
                        <file id="SecondScenePark.4.1.Take3.WAV 1"/>
                        <sourcetrack>
                            <mediatype>audio</mediatype>
                            <trackindex>3</trackindex>
                        </sourcetrack>
                        <filter>
                            <enabled>TRUE</enabled>
                            <start>0</start>
                            <end>371</end>
                            <effect>
                                <name>Audio Levels</name>
                                <effectid>audiolevels</effectid>
                                <effecttype>audiolevels</effecttype>
                                <mediatype>audio</mediatype>
                                <effectcategory>audiolevels</effectcategory>
                                <parameter>
                                    <name>Level</name>
                                    <parameterid>level</parameterid>
                                    <value>1</value>
                                    <valuemin>1e-05</valuemin>
                                    <valuemax>31.6228</valuemax>
                                </parameter>
                            </effect>
                        </filter>
                        <filter>
                            <enabled>TRUE</enabled>
                            <start>0</start>
                            <end>371</end>
                            <effect>
                                <name>Audio Pan</name>
                                <effectid>audiopan</effectid>
                                <effecttype>audiopan</effecttype>
                                <mediatype>audio</mediatype>
                                <effectcategory>audiopan</effectcategory>
                                <parameter>
                                    <name>Pan</name>
                                    <parameterid>pan</parameterid>
                                    <value>0</value>
                                    <valuemin>-1</valuemin>
                                    <valuemax>1</valuemax>
                                </parameter>
                            </effect>
                        </filter>
                        <link>
                            <linkclipref>SecondScenePark.4.1.Take3.WAV 2</linkclipref>
                            <mediatype>audio</mediatype>
                        </link>
                        <link>
                            <linkclipref>SecondScenePark.4.1.Take3.WAV 0</linkclipref>
                            <mediatype>audio</mediatype>
                        </link>
                        <link>
                            <linkclipref>SecondScenePark.4.1.Take3.WAV 3</linkclipref>
                        </link>
                        <link>
                            <linkclipref>SecondScenePark.4.1.Take3.WAV 4</linkclipref>
                        </link>
                        <comments/>
                    </clipitem>
                    <clipitem id="SecondScenePark.4.Take1.WAV 3">
                        <name>SecondScenePark.4.Take1.WAV</name>
                        <duration>1349</duration>
                        <rate>
                            <timebase>24</timebase>
                            <ntsc>TRUE</ntsc>
                        </rate>
                        <start>39101</start>
                        <end>39667</end>
                        <enabled>TRUE</enabled>
                        <in>0</in>
                        <out>566</out>
                        <file id="SecondScenePark.4.Take1.WAV 1"/>
                        <sourcetrack>
                            <mediatype>audio</mediatype>
                            <trackindex>3</trackindex>
                        </sourcetrack>
                        <filter>
                            <enabled>TRUE</enabled>
                            <start>0</start>
                            <end>1349</end>
                            <effect>
                                <name>Audio Levels</name>
                                <effectid>audiolevels</effectid>
                                <effecttype>audiolevels</effecttype>
                                <mediatype>audio</mediatype>
                                <effectcategory>audiolevels</effectcategory>
                                <parameter>
                                    <name>Level</name>
                                    <parameterid>level</parameterid>
                                    <value>1</value>
                                    <valuemin>1e-05</valuemin>
                                    <valuemax>31.6228</valuemax>
                                </parameter>
                            </effect>
                        </filter>
                        <filter>
                            <enabled>TRUE</enabled>
                            <start>0</start>
                            <end>1349</end>
                            <effect>
                                <name>Audio Pan</name>
                                <effectid>audiopan</effectid>
                                <effecttype>audiopan</effecttype>
                                <mediatype>audio</mediatype>
                                <effectcategory>audiopan</effectcategory>
                                <parameter>
                                    <name>Pan</name>
                                    <parameterid>pan</parameterid>
                                    <value>0</value>
                                    <valuemin>-1</valuemin>
                                    <valuemax>1</valuemax>
                                </parameter>
                            </effect>
                        </filter>
                        <link>
                            <linkclipref>SecondScenePark.4.Take1.WAV 2</linkclipref>
                            <mediatype>audio</mediatype>
                        </link>
                        <link>
                            <linkclipref>SecondScenePark.4.Take1.WAV 0</linkclipref>
                            <mediatype>audio</mediatype>
                        </link>
                        <link>
                            <linkclipref>SecondScenePark.4.Take1.WAV 3</linkclipref>
                        </link>
                        <link>
                            <linkclipref>SecondScenePark.4.Take1.WAV 4</linkclipref>
                        </link>
                        <comments/>
                    </clipitem>
                    <clipitem id="SecondScenePark.4.Take2.WAV 3">
                        <name>SecondScenePark.4.Take2.WAV</name>
                        <duration>838</duration>
                        <rate>
                            <timebase>24</timebase>
                            <ntsc>TRUE</ntsc>
                        </rate>
                        <start>39667</start>
                        <end>40417</end>
                        <enabled>TRUE</enabled>
                        <in>63</in>
                        <out>812</out>
                        <file id="SecondScenePark.4.Take2.WAV 1"/>
                        <sourcetrack>
                            <mediatype>audio</mediatype>
                            <trackindex>3</trackindex>
                        </sourcetrack>
                        <filter>
                            <enabled>TRUE</enabled>
                            <start>0</start>
                            <end>838</end>
                            <effect>
                                <name>Audio Levels</name>
                                <effectid>audiolevels</effectid>
                                <effecttype>audiolevels</effecttype>
                                <mediatype>audio</mediatype>
                                <effectcategory>audiolevels</effectcategory>
                                <parameter>
                                    <name>Level</name>
                                    <parameterid>level</parameterid>
                                    <value>1</value>
                                    <valuemin>1e-05</valuemin>
                                    <valuemax>31.6228</valuemax>
                                </parameter>
                            </effect>
                        </filter>
                        <filter>
                            <enabled>TRUE</enabled>
                            <start>0</start>
                            <end>838</end>
                            <effect>
                                <name>Audio Pan</name>
                                <effectid>audiopan</effectid>
                                <effecttype>audiopan</effecttype>
                                <mediatype>audio</mediatype>
                                <effectcategory>audiopan</effectcategory>
                                <parameter>
                                    <name>Pan</name>
                                    <parameterid>pan</parameterid>
                                    <value>0</value>
                                    <valuemin>-1</valuemin>
                                    <valuemax>1</valuemax>
                                </parameter>
                            </effect>
                        </filter>
                        <link>
                            <linkclipref>SecondScenePark.4.Take2.WAV 2</linkclipref>
                            <mediatype>audio</mediatype>
                        </link>
                        <link>
                            <linkclipref>SecondScenePark.4.Take2.WAV 0</linkclipref>
                            <mediatype>audio</mediatype>
                        </link>
                        <link>
                            <linkclipref>SecondScenePark.4.Take2.WAV 3</linkclipref>
                        </link>
                        <link>
                            <linkclipref>SecondScenePark.4.Take2.WAV 4</linkclipref>
                        </link>
                        <comments/>
                    </clipitem>
                    <clipitem id="SecondScenePark.4.Take3.WAV 3">
                        <name>SecondScenePark.4.Take3.WAV</name>
                        <duration>607</duration>
                        <rate>
                            <timebase>24</timebase>
                            <ntsc>TRUE</ntsc>
                        </rate>
                        <start>40417</start>
                        <end>41021</end>
                        <enabled>TRUE</enabled>
                        <in>1</in>
                        <out>606</out>
                        <file id="SecondScenePark.4.Take3.WAV 1"/>
                        <sourcetrack>
                            <mediatype>audio</mediatype>
                            <trackindex>3</trackindex>
                        </sourcetrack>
                        <filter>
                            <enabled>TRUE</enabled>
                            <start>0</start>
                            <end>607</end>
                            <effect>
                                <name>Audio Levels</name>
                                <effectid>audiolevels</effectid>
                                <effecttype>audiolevels</effecttype>
                                <mediatype>audio</mediatype>
                                <effectcategory>audiolevels</effectcategory>
                                <parameter>
                                    <name>Level</name>
                                    <parameterid>level</parameterid>
                                    <value>1</value>
                                    <valuemin>1e-05</valuemin>
                                    <valuemax>31.6228</valuemax>
                                </parameter>
                            </effect>
                        </filter>
                        <filter>
                            <enabled>TRUE</enabled>
                            <start>0</start>
                            <end>607</end>
                            <effect>
                                <name>Audio Pan</name>
                                <effectid>audiopan</effectid>
                                <effecttype>audiopan</effecttype>
                                <mediatype>audio</mediatype>
                                <effectcategory>audiopan</effectcategory>
                                <parameter>
                                    <name>Pan</name>
                                    <parameterid>pan</parameterid>
                                    <value>0</value>
                                    <valuemin>-1</valuemin>
                                    <valuemax>1</valuemax>
                                </parameter>
                            </effect>
                        </filter>
                        <link>
                            <linkclipref>SecondScenePark.4.Take3.WAV 0</linkclipref>
                            <mediatype>audio</mediatype>
                        </link>
                        <link>
                            <linkclipref>SecondScenePark.4.Take3.WAV 2</linkclipref>
                            <mediatype>audio</mediatype>
                        </link>
                        <link>
                            <linkclipref>SecondScenePark.4.Take3.WAV 3</linkclipref>
                        </link>
                        <link>
                            <linkclipref>SecondScenePark.4.Take3.WAV 4</linkclipref>
                        </link>
                        <comments/>
                    </clipitem>
                    <clipitem id="SecondScenePark.4.Take4.WAV 3">
                        <name>SecondScenePark.4.Take4.WAV</name>
                        <duration>743</duration>
                        <rate>
                            <timebase>24</timebase>
                            <ntsc>TRUE</ntsc>
                        </rate>
                        <start>41021</start>
                        <end>41564</end>
                        <enabled>TRUE</enabled>
                        <in>23</in>
                        <out>565</out>
                        <file id="SecondScenePark.4.Take4.WAV 1"/>
                        <sourcetrack>
                            <mediatype>audio</mediatype>
                            <trackindex>3</trackindex>
                        </sourcetrack>
                        <filter>
                            <enabled>TRUE</enabled>
                            <start>0</start>
                            <end>743</end>
                            <effect>
                                <name>Audio Levels</name>
                                <effectid>audiolevels</effectid>
                                <effecttype>audiolevels</effecttype>
                                <mediatype>audio</mediatype>
                                <effectcategory>audiolevels</effectcategory>
                                <parameter>
                                    <name>Level</name>
                                    <parameterid>level</parameterid>
                                    <value>1</value>
                                    <valuemin>1e-05</valuemin>
                                    <valuemax>31.6228</valuemax>
                                </parameter>
                            </effect>
                        </filter>
                        <filter>
                            <enabled>TRUE</enabled>
                            <start>0</start>
                            <end>743</end>
                            <effect>
                                <name>Audio Pan</name>
                                <effectid>audiopan</effectid>
                                <effecttype>audiopan</effecttype>
                                <mediatype>audio</mediatype>
                                <effectcategory>audiopan</effectcategory>
                                <parameter>
                                    <name>Pan</name>
                                    <parameterid>pan</parameterid>
                                    <value>0</value>
                                    <valuemin>-1</valuemin>
                                    <valuemax>1</valuemax>
                                </parameter>
                            </effect>
                        </filter>
                        <link>
                            <linkclipref>SecondScenePark.4.Take4.WAV 0</linkclipref>
                            <mediatype>audio</mediatype>
                        </link>
                        <link>
                            <linkclipref>SecondScenePark.4.Take4.WAV 2</linkclipref>
                            <mediatype>audio</mediatype>
                        </link>
                        <link>
                            <linkclipref>SecondScenePark.4.Take4.WAV 3</linkclipref>
                        </link>
                        <link>
                            <linkclipref>SecondScenePark.4.Take4.WAV 4</linkclipref>
                        </link>
                        <comments/>
                    </clipitem>
                    <clipitem id="SecondScenePark.4.1.Take1.WAV 3">
                        <name>SecondScenePark.4.1.Take1.WAV</name>
                        <duration>757</duration>
                        <rate>
                            <timebase>24</timebase>
                            <ntsc>TRUE</ntsc>
                        </rate>
                        <start>41591</start>
                        <end>42308</end>
                        <enabled>TRUE</enabled>
                        <in>0</in>
                        <out>717</out>
                        <file id="SecondScenePark.4.1.Take1.WAV 1"/>
                        <sourcetrack>
                            <mediatype>audio</mediatype>
                            <trackindex>3</trackindex>
                        </sourcetrack>
                        <filter>
                            <enabled>TRUE</enabled>
                            <start>0</start>
                            <end>757</end>
                            <effect>
                                <name>Audio Levels</name>
                                <effectid>audiolevels</effectid>
                                <effecttype>audiolevels</effecttype>
                                <mediatype>audio</mediatype>
                                <effectcategory>audiolevels</effectcategory>
                                <parameter>
                                    <name>Level</name>
                                    <parameterid>level</parameterid>
                                    <value>1</value>
                                    <valuemin>1e-05</valuemin>
                                    <valuemax>31.6228</valuemax>
                                </parameter>
                            </effect>
                        </filter>
                        <filter>
                            <enabled>TRUE</enabled>
                            <start>0</start>
                            <end>757</end>
                            <effect>
                                <name>Audio Pan</name>
                                <effectid>audiopan</effectid>
                                <effecttype>audiopan</effecttype>
                                <mediatype>audio</mediatype>
                                <effectcategory>audiopan</effectcategory>
                                <parameter>
                                    <name>Pan</name>
                                    <parameterid>pan</parameterid>
                                    <value>0</value>
                                    <valuemin>-1</valuemin>
                                    <valuemax>1</valuemax>
                                </parameter>
                            </effect>
                        </filter>
                        <link>
                            <linkclipref>SecondScenePark.4.1.Take1.WAV 2</linkclipref>
                            <mediatype>audio</mediatype>
                        </link>
                        <link>
                            <linkclipref>SecondScenePark.4.1.Take1.WAV 0</linkclipref>
                            <mediatype>audio</mediatype>
                        </link>
                        <link>
                            <linkclipref>SecondScenePark.4.1.Take1.WAV 3</linkclipref>
                        </link>
                        <link>
                            <linkclipref>SecondScenePark.4.1.Take1.WAV 4</linkclipref>
                        </link>
                        <comments/>
                    </clipitem>
                    <clipitem id="SecondScenePark.4.1.Take2.WAV 3">
                        <name>SecondScenePark.4.1.Take2.WAV</name>
                        <duration>684</duration>
                        <rate>
                            <timebase>24</timebase>
                            <ntsc>TRUE</ntsc>
                        </rate>
                        <start>42308</start>
                        <end>42938</end>
                        <enabled>TRUE</enabled>
                        <in>54</in>
                        <out>683</out>
                        <file id="SecondScenePark.4.1.Take2.WAV 1"/>
                        <sourcetrack>
                            <mediatype>audio</mediatype>
                            <trackindex>3</trackindex>
                        </sourcetrack>
                        <filter>
                            <enabled>TRUE</enabled>
                            <start>0</start>
                            <end>684</end>
                            <effect>
                                <name>Audio Levels</name>
                                <effectid>audiolevels</effectid>
                                <effecttype>audiolevels</effecttype>
                                <mediatype>audio</mediatype>
                                <effectcategory>audiolevels</effectcategory>
                                <parameter>
                                    <name>Level</name>
                                    <parameterid>level</parameterid>
                                    <value>1</value>
                                    <valuemin>1e-05</valuemin>
                                    <valuemax>31.6228</valuemax>
                                </parameter>
                            </effect>
                        </filter>
                        <filter>
                            <enabled>TRUE</enabled>
                            <start>0</start>
                            <end>684</end>
                            <effect>
                                <name>Audio Pan</name>
                                <effectid>audiopan</effectid>
                                <effecttype>audiopan</effecttype>
                                <mediatype>audio</mediatype>
                                <effectcategory>audiopan</effectcategory>
                                <parameter>
                                    <name>Pan</name>
                                    <parameterid>pan</parameterid>
                                    <value>0</value>
                                    <valuemin>-1</valuemin>
                                    <valuemax>1</valuemax>
                                </parameter>
                            </effect>
                        </filter>
                        <link>
                            <linkclipref>SecondScenePark.4.1.Take2.WAV 2</linkclipref>
                            <mediatype>audio</mediatype>
                        </link>
                        <link>
                            <linkclipref>SecondScenePark.4.1.Take2.WAV 0</linkclipref>
                            <mediatype>audio</mediatype>
                        </link>
                        <link>
                            <linkclipref>SecondScenePark.4.1.Take2.WAV 3</linkclipref>
                        </link>
                        <link>
                            <linkclipref>SecondScenePark.4.1.Take2.WAV 4</linkclipref>
                        </link>
                        <comments/>
                    </clipitem>
                    <clipitem id="SecondScenePark.5.Take1.WAV 3">
                        <name>SecondScenePark.5.Take1.WAV</name>
                        <duration>1020</duration>
                        <rate>
                            <timebase>24</timebase>
                            <ntsc>TRUE</ntsc>
                        </rate>
                        <start>42987</start>
                        <end>44007</end>
                        <enabled>TRUE</enabled>
                        <in>0</in>
                        <out>1020</out>
                        <file id="SecondScenePark.5.Take1.WAV 1"/>
                        <sourcetrack>
                            <mediatype>audio</mediatype>
                            <trackindex>3</trackindex>
                        </sourcetrack>
                        <filter>
                            <enabled>TRUE</enabled>
                            <start>0</start>
                            <end>1020</end>
                            <effect>
                                <name>Audio Levels</name>
                                <effectid>audiolevels</effectid>
                                <effecttype>audiolevels</effecttype>
                                <mediatype>audio</mediatype>
                                <effectcategory>audiolevels</effectcategory>
                                <parameter>
                                    <name>Level</name>
                                    <parameterid>level</parameterid>
                                    <value>1</value>
                                    <valuemin>1e-05</valuemin>
                                    <valuemax>31.6228</valuemax>
                                </parameter>
                            </effect>
                        </filter>
                        <filter>
                            <enabled>TRUE</enabled>
                            <start>0</start>
                            <end>1020</end>
                            <effect>
                                <name>Audio Pan</name>
                                <effectid>audiopan</effectid>
                                <effecttype>audiopan</effecttype>
                                <mediatype>audio</mediatype>
                                <effectcategory>audiopan</effectcategory>
                                <parameter>
                                    <name>Pan</name>
                                    <parameterid>pan</parameterid>
                                    <value>0</value>
                                    <valuemin>-1</valuemin>
                                    <valuemax>1</valuemax>
                                </parameter>
                            </effect>
                        </filter>
                        <link>
                            <linkclipref>SecondScenePark.5.Take1.WAV 2</linkclipref>
                            <mediatype>audio</mediatype>
                        </link>
                        <link>
                            <linkclipref>SecondScenePark.5.Take1.WAV 0</linkclipref>
                            <mediatype>audio</mediatype>
                        </link>
                        <link>
                            <linkclipref>SecondScenePark.5.Take1.WAV 3</linkclipref>
                        </link>
                        <link>
                            <linkclipref>SecondScenePark.5.Take1.WAV 4</linkclipref>
                        </link>
                        <comments/>
                    </clipitem>
                    <enabled>TRUE</enabled>
                    <locked>FALSE</locked>
                </track>
                <track>
                    <clipitem id="SecondScenePark.1.Apple.Take1.WAV 9">
                        <name>SecondScenePark.1.Apple.Take1.WAV</name>
                        <duration>970</duration>
                        <rate>
                            <timebase>24</timebase>
                            <ntsc>TRUE</ntsc>
                        </rate>
                        <start>3321</start>
                        <end>3892</end>
                        <enabled>TRUE</enabled>
                        <in>0</in>
                        <out>570</out>
                        <file id="SecondScenePark.1.Apple.Take1.WAV 1"/>
                        <sourcetrack>
                            <mediatype>audio</mediatype>
                            <trackindex>5</trackindex>
                        </sourcetrack>
                        <filter>
                            <enabled>TRUE</enabled>
                            <start>0</start>
                            <end>970</end>
                            <effect>
                                <name>Audio Levels</name>
                                <effectid>audiolevels</effectid>
                                <effecttype>audiolevels</effecttype>
                                <mediatype>audio</mediatype>
                                <effectcategory>audiolevels</effectcategory>
                                <parameter>
                                    <name>Level</name>
                                    <parameterid>level</parameterid>
                                    <value>1</value>
                                    <valuemin>1e-05</valuemin>
                                    <valuemax>31.6228</valuemax>
                                </parameter>
                            </effect>
                        </filter>
                        <filter>
                            <enabled>TRUE</enabled>
                            <start>0</start>
                            <end>970</end>
                            <effect>
                                <name>Audio Pan</name>
                                <effectid>audiopan</effectid>
                                <effecttype>audiopan</effecttype>
                                <mediatype>audio</mediatype>
                                <effectcategory>audiopan</effectcategory>
                                <parameter>
                                    <name>Pan</name>
                                    <parameterid>pan</parameterid>
                                    <value>0</value>
                                    <valuemin>-1</valuemin>
                                    <valuemax>1</valuemax>
                                </parameter>
                            </effect>
                        </filter>
                        <link>
                            <linkclipref>SecondScenePark.1.Apple.Take1.WAV 7</linkclipref>
                            <mediatype>audio</mediatype>
                        </link>
                        <link>
                            <linkclipref>SecondScenePark.1.Apple.Take1.WAV 5</linkclipref>
                            <mediatype>audio</mediatype>
                        </link>
                        <link>
                            <linkclipref>SecondScenePark.1.Apple.Take1.WAV 3</linkclipref>
                            <mediatype>audio</mediatype>
                        </link>
                        <link>
                            <linkclipref>SecondScenePark.1.Apple.Take1.WAV 0</linkclipref>
                            <mediatype>audio</mediatype>
                        </link>
                        <link>
                            <linkclipref>SecondScenePark.1.Apple.Take1.WAV 9</linkclipref>
                        </link>
                        <comments/>
                    </clipitem>
                    <clipitem id="SecondScenePark.1.Apple.Take1.WAV 10">
                        <name>SecondScenePark.1.Apple.Take1.WAV</name>
                        <duration>970</duration>
                        <rate>
                            <timebase>24</timebase>
                            <ntsc>TRUE</ntsc>
                        </rate>
                        <start>3892</start>
                        <end>4292</end>
                        <enabled>TRUE</enabled>
                        <in>570</in>
                        <out>970</out>
                        <file id="SecondScenePark.1.Apple.Take1.WAV 1"/>
                        <sourcetrack>
                            <mediatype>audio</mediatype>
                            <trackindex>5</trackindex>
                        </sourcetrack>
                        <filter>
                            <enabled>TRUE</enabled>
                            <start>0</start>
                            <end>970</end>
                            <effect>
                                <name>Audio Levels</name>
                                <effectid>audiolevels</effectid>
                                <effecttype>audiolevels</effecttype>
                                <mediatype>audio</mediatype>
                                <effectcategory>audiolevels</effectcategory>
                                <parameter>
                                    <name>Level</name>
                                    <parameterid>level</parameterid>
                                    <value>1</value>
                                    <valuemin>1e-05</valuemin>
                                    <valuemax>31.6228</valuemax>
                                </parameter>
                            </effect>
                        </filter>
                        <filter>
                            <enabled>TRUE</enabled>
                            <start>0</start>
                            <end>970</end>
                            <effect>
                                <name>Audio Pan</name>
                                <effectid>audiopan</effectid>
                                <effecttype>audiopan</effecttype>
                                <mediatype>audio</mediatype>
                                <effectcategory>audiopan</effectcategory>
                                <parameter>
                                    <name>Pan</name>
                                    <parameterid>pan</parameterid>
                                    <value>0</value>
                                    <valuemin>-1</valuemin>
                                    <valuemax>1</valuemax>
                                </parameter>
                            </effect>
                        </filter>
                        <link>
                            <linkclipref>SecondScenePark.1.Apple.Take1.WAV 4</linkclipref>
                            <mediatype>audio</mediatype>
                        </link>
                        <link>
                            <linkclipref>SecondScenePark.1.Apple.Take1.WAV 8</linkclipref>
                            <mediatype>audio</mediatype>
                        </link>
                        <link>
                            <linkclipref>SecondScenePark.1.Apple.Take1.WAV 6</linkclipref>
                            <mediatype>audio</mediatype>
                        </link>
                        <link>
                            <linkclipref>SecondScenePark.1.Apple.Take1.WAV 2</linkclipref>
                            <mediatype>audio</mediatype>
                        </link>
                        <link>
                            <linkclipref>SecondScenePark.1.Apple.Take1.WAV 10</linkclipref>
                        </link>
                        <comments/>
                    </clipitem>
                    <clipitem id="SecondScenePark.1.Take1.WAV 4">
                        <name>SecondScenePark.1.Take1.WAV</name>
                        <duration>1008</duration>
                        <rate>
                            <timebase>24</timebase>
                            <ntsc>TRUE</ntsc>
                        </rate>
                        <start>5040</start>
                        <end>5998</end>
                        <enabled>TRUE</enabled>
                        <in>0</in>
                        <out>957</out>
                        <file id="SecondScenePark.1.Take1.WAV 1"/>
                        <sourcetrack>
                            <mediatype>audio</mediatype>
                            <trackindex>4</trackindex>
                        </sourcetrack>
                        <filter>
                            <enabled>TRUE</enabled>
                            <start>0</start>
                            <end>1008</end>
                            <effect>
                                <name>Audio Levels</name>
                                <effectid>audiolevels</effectid>
                                <effecttype>audiolevels</effecttype>
                                <mediatype>audio</mediatype>
                                <effectcategory>audiolevels</effectcategory>
                                <parameter>
                                    <name>Level</name>
                                    <parameterid>level</parameterid>
                                    <value>1</value>
                                    <valuemin>1e-05</valuemin>
                                    <valuemax>31.6228</valuemax>
                                </parameter>
                            </effect>
                        </filter>
                        <filter>
                            <enabled>TRUE</enabled>
                            <start>0</start>
                            <end>1008</end>
                            <effect>
                                <name>Audio Pan</name>
                                <effectid>audiopan</effectid>
                                <effecttype>audiopan</effecttype>
                                <mediatype>audio</mediatype>
                                <effectcategory>audiopan</effectcategory>
                                <parameter>
                                    <name>Pan</name>
                                    <parameterid>pan</parameterid>
                                    <value>0</value>
                                    <valuemin>-1</valuemin>
                                    <valuemax>1</valuemax>
                                </parameter>
                            </effect>
                        </filter>
                        <link>
                            <linkclipref>SecondScenePark.1.Take1.WAV 3</linkclipref>
                            <mediatype>audio</mediatype>
                        </link>
                        <link>
                            <linkclipref>SecondScenePark.1.Take1.WAV 2</linkclipref>
                            <mediatype>audio</mediatype>
                        </link>
                        <link>
                            <linkclipref>SecondScenePark.1.Take1.WAV 0</linkclipref>
                            <mediatype>audio</mediatype>
                        </link>
                        <link>
                            <linkclipref>SecondScenePark.1.Take1.WAV 4</linkclipref>
                        </link>
                        <link>
                            <linkclipref>SecondScenePark.1.Take1.WAV 5</linkclipref>
                        </link>
                        <comments/>
                    </clipitem>
                    <clipitem id="SecondScenePark.1.Take3.WAV 4">
                        <name>SecondScenePark.1.Take3.WAV</name>
                        <duration>1089</duration>
                        <rate>
                            <timebase>24</timebase>
                            <ntsc>TRUE</ntsc>
                        </rate>
                        <start>5998</start>
                        <end>7087</end>
                        <enabled>TRUE</enabled>
                        <in>0</in>
                        <out>1088</out>
                        <file id="SecondScenePark.1.Take3.WAV 1"/>
                        <sourcetrack>
                            <mediatype>audio</mediatype>
                            <trackindex>4</trackindex>
                        </sourcetrack>
                        <filter>
                            <enabled>TRUE</enabled>
                            <start>0</start>
                            <end>1089</end>
                            <effect>
                                <name>Audio Levels</name>
                                <effectid>audiolevels</effectid>
                                <effecttype>audiolevels</effecttype>
                                <mediatype>audio</mediatype>
                                <effectcategory>audiolevels</effectcategory>
                                <parameter>
                                    <name>Level</name>
                                    <parameterid>level</parameterid>
                                    <value>1</value>
                                    <valuemin>1e-05</valuemin>
                                    <valuemax>31.6228</valuemax>
                                </parameter>
                            </effect>
                        </filter>
                        <filter>
                            <enabled>TRUE</enabled>
                            <start>0</start>
                            <end>1089</end>
                            <effect>
                                <name>Audio Pan</name>
                                <effectid>audiopan</effectid>
                                <effecttype>audiopan</effecttype>
                                <mediatype>audio</mediatype>
                                <effectcategory>audiopan</effectcategory>
                                <parameter>
                                    <name>Pan</name>
                                    <parameterid>pan</parameterid>
                                    <value>0</value>
                                    <valuemin>-1</valuemin>
                                    <valuemax>1</valuemax>
                                </parameter>
                            </effect>
                        </filter>
                        <link>
                            <linkclipref>SecondScenePark.1.Take3.WAV 3</linkclipref>
                            <mediatype>audio</mediatype>
                        </link>
                        <link>
                            <linkclipref>SecondScenePark.1.Take3.WAV 2</linkclipref>
                            <mediatype>audio</mediatype>
                        </link>
                        <link>
                            <linkclipref>SecondScenePark.1.Take3.WAV 0</linkclipref>
                            <mediatype>audio</mediatype>
                        </link>
                        <link>
                            <linkclipref>SecondScenePark.1.Take3.WAV 4</linkclipref>
                        </link>
                        <link>
                            <linkclipref>SecondScenePark.1.Take3.WAV 5</linkclipref>
                        </link>
                        <comments/>
                    </clipitem>
                    <clipitem id="SecondScenePark.1.Take2.WAV 4">
                        <name>SecondScenePark.1.Take2.WAV</name>
                        <duration>1118</duration>
                        <rate>
                            <timebase>24</timebase>
                            <ntsc>TRUE</ntsc>
                        </rate>
                        <start>7128</start>
                        <end>8246</end>
                        <enabled>TRUE</enabled>
                        <in>0</in>
                        <out>1117</out>
                        <file id="SecondScenePark.1.Take2.WAV 1"/>
                        <sourcetrack>
                            <mediatype>audio</mediatype>
                            <trackindex>4</trackindex>
                        </sourcetrack>
                        <filter>
                            <enabled>TRUE</enabled>
                            <start>0</start>
                            <end>1118</end>
                            <effect>
                                <name>Audio Levels</name>
                                <effectid>audiolevels</effectid>
                                <effecttype>audiolevels</effecttype>
                                <mediatype>audio</mediatype>
                                <effectcategory>audiolevels</effectcategory>
                                <parameter>
                                    <name>Level</name>
                                    <parameterid>level</parameterid>
                                    <value>1</value>
                                    <valuemin>1e-05</valuemin>
                                    <valuemax>31.6228</valuemax>
                                </parameter>
                            </effect>
                        </filter>
                        <filter>
                            <enabled>TRUE</enabled>
                            <start>0</start>
                            <end>1118</end>
                            <effect>
                                <name>Audio Pan</name>
                                <effectid>audiopan</effectid>
                                <effecttype>audiopan</effecttype>
                                <mediatype>audio</mediatype>
                                <effectcategory>audiopan</effectcategory>
                                <parameter>
                                    <name>Pan</name>
                                    <parameterid>pan</parameterid>
                                    <value>0</value>
                                    <valuemin>-1</valuemin>
                                    <valuemax>1</valuemax>
                                </parameter>
                            </effect>
                        </filter>
                        <link>
                            <linkclipref>SecondScenePark.1.Take2.WAV 3</linkclipref>
                            <mediatype>audio</mediatype>
                        </link>
                        <link>
                            <linkclipref>SecondScenePark.1.Take2.WAV 2</linkclipref>
                            <mediatype>audio</mediatype>
                        </link>
                        <link>
                            <linkclipref>SecondScenePark.1.Take2.WAV 0</linkclipref>
                            <mediatype>audio</mediatype>
                        </link>
                        <link>
                            <linkclipref>SecondScenePark.1.Take2.WAV 4</linkclipref>
                        </link>
                        <link>
                            <linkclipref>SecondScenePark.1.Take2.WAV 5</linkclipref>
                        </link>
                        <comments/>
                    </clipitem>
                    <clipitem id="SecondScenePark.2.Take2.WAV 4">
                        <name>SecondScenePark.2.Take2.WAV</name>
                        <duration>472</duration>
                        <rate>
                            <timebase>24</timebase>
                            <ntsc>TRUE</ntsc>
                        </rate>
                        <start>8275</start>
                        <end>8595</end>
                        <enabled>TRUE</enabled>
                        <in>150</in>
                        <out>470</out>
                        <file id="SecondScenePark.2.Take2.WAV 1"/>
                        <sourcetrack>
                            <mediatype>audio</mediatype>
                            <trackindex>4</trackindex>
                        </sourcetrack>
                        <filter>
                            <enabled>TRUE</enabled>
                            <start>0</start>
                            <end>472</end>
                            <effect>
                                <name>Audio Levels</name>
                                <effectid>audiolevels</effectid>
                                <effecttype>audiolevels</effecttype>
                                <mediatype>audio</mediatype>
                                <effectcategory>audiolevels</effectcategory>
                                <parameter>
                                    <name>Level</name>
                                    <parameterid>level</parameterid>
                                    <value>1</value>
                                    <valuemin>1e-05</valuemin>
                                    <valuemax>31.6228</valuemax>
                                </parameter>
                            </effect>
                        </filter>
                        <filter>
                            <enabled>TRUE</enabled>
                            <start>0</start>
                            <end>472</end>
                            <effect>
                                <name>Audio Pan</name>
                                <effectid>audiopan</effectid>
                                <effecttype>audiopan</effecttype>
                                <mediatype>audio</mediatype>
                                <effectcategory>audiopan</effectcategory>
                                <parameter>
                                    <name>Pan</name>
                                    <parameterid>pan</parameterid>
                                    <value>0</value>
                                    <valuemin>-1</valuemin>
                                    <valuemax>1</valuemax>
                                </parameter>
                            </effect>
                        </filter>
                        <link>
                            <linkclipref>SecondScenePark.2.Take2.WAV 3</linkclipref>
                            <mediatype>audio</mediatype>
                        </link>
                        <link>
                            <linkclipref>SecondScenePark.2.Take2.WAV 2</linkclipref>
                            <mediatype>audio</mediatype>
                        </link>
                        <link>
                            <linkclipref>SecondScenePark.2.Take2.WAV 0</linkclipref>
                            <mediatype>audio</mediatype>
                        </link>
                        <link>
                            <linkclipref>SecondScenePark.2.Take2.WAV 4</linkclipref>
                        </link>
                        <comments/>
                    </clipitem>
                    <clipitem id="SecondScenePark.2.Apple.Take1.WAV 4">
                        <name>SecondScenePark.2.Apple.Take1.WAV</name>
                        <duration>1796</duration>
                        <rate>
                            <timebase>24</timebase>
                            <ntsc>TRUE</ntsc>
                        </rate>
                        <start>8595</start>
                        <end>10293</end>
                        <enabled>TRUE</enabled>
                        <in>46</in>
                        <out>1743</out>
                        <file id="SecondScenePark.2.Apple.Take1.WAV 1"/>
                        <sourcetrack>
                            <mediatype>audio</mediatype>
                            <trackindex>4</trackindex>
                        </sourcetrack>
                        <filter>
                            <enabled>TRUE</enabled>
                            <start>0</start>
                            <end>1796</end>
                            <effect>
                                <name>Audio Levels</name>
                                <effectid>audiolevels</effectid>
                                <effecttype>audiolevels</effecttype>
                                <mediatype>audio</mediatype>
                                <effectcategory>audiolevels</effectcategory>
                                <parameter>
                                    <name>Level</name>
                                    <parameterid>level</parameterid>
                                    <value>1</value>
                                    <valuemin>1e-05</valuemin>
                                    <valuemax>31.6228</valuemax>
                                </parameter>
                            </effect>
                        </filter>
                        <filter>
                            <enabled>TRUE</enabled>
                            <start>0</start>
                            <end>1796</end>
                            <effect>
                                <name>Audio Pan</name>
                                <effectid>audiopan</effectid>
                                <effecttype>audiopan</effecttype>
                                <mediatype>audio</mediatype>
                                <effectcategory>audiopan</effectcategory>
                                <parameter>
                                    <name>Pan</name>
                                    <parameterid>pan</parameterid>
                                    <value>0</value>
                                    <valuemin>-1</valuemin>
                                    <valuemax>1</valuemax>
                                </parameter>
                            </effect>
                        </filter>
                        <link>
                            <linkclipref>SecondScenePark.2.Apple.Take1.WAV 3</linkclipref>
                            <mediatype>audio</mediatype>
                        </link>
                        <link>
                            <linkclipref>SecondScenePark.2.Apple.Take1.WAV 2</linkclipref>
                            <mediatype>audio</mediatype>
                        </link>
                        <link>
                            <linkclipref>SecondScenePark.2.Apple.Take1.WAV 0</linkclipref>
                            <mediatype>audio</mediatype>
                        </link>
                        <link>
                            <linkclipref>SecondScenePark.2.Apple.Take1.WAV 4</linkclipref>
                        </link>
                        <comments/>
                    </clipitem>
                    <clipitem id="SecondScenePark.2.Take1.WAV 4">
                        <name>SecondScenePark.2.Take1.WAV</name>
                        <duration>1029</duration>
                        <rate>
                            <timebase>24</timebase>
                            <ntsc>TRUE</ntsc>
                        </rate>
                        <start>10293</start>
                        <end>10749</end>
                        <enabled>TRUE</enabled>
                        <in>33</in>
                        <out>488</out>
                        <file id="SecondScenePark.2.Take1.WAV 1"/>
                        <sourcetrack>
                            <mediatype>audio</mediatype>
                            <trackindex>4</trackindex>
                        </sourcetrack>
                        <filter>
                            <enabled>TRUE</enabled>
                            <start>0</start>
                            <end>1029</end>
                            <effect>
                                <name>Audio Levels</name>
                                <effectid>audiolevels</effectid>
                                <effecttype>audiolevels</effecttype>
                                <mediatype>audio</mediatype>
                                <effectcategory>audiolevels</effectcategory>
                                <parameter>
                                    <name>Level</name>
                                    <parameterid>level</parameterid>
                                    <value>1</value>
                                    <valuemin>1e-05</valuemin>
                                    <valuemax>31.6228</valuemax>
                                </parameter>
                            </effect>
                        </filter>
                        <filter>
                            <enabled>TRUE</enabled>
                            <start>0</start>
                            <end>1029</end>
                            <effect>
                                <name>Audio Pan</name>
                                <effectid>audiopan</effectid>
                                <effecttype>audiopan</effecttype>
                                <mediatype>audio</mediatype>
                                <effectcategory>audiopan</effectcategory>
                                <parameter>
                                    <name>Pan</name>
                                    <parameterid>pan</parameterid>
                                    <value>0</value>
                                    <valuemin>-1</valuemin>
                                    <valuemax>1</valuemax>
                                </parameter>
                            </effect>
                        </filter>
                        <link>
                            <linkclipref>SecondScenePark.2.Take1.WAV 3</linkclipref>
                            <mediatype>audio</mediatype>
                        </link>
                        <link>
                            <linkclipref>SecondScenePark.2.Take1.WAV 2</linkclipref>
                            <mediatype>audio</mediatype>
                        </link>
                        <link>
                            <linkclipref>SecondScenePark.2.Take1.WAV 0</linkclipref>
                            <mediatype>audio</mediatype>
                        </link>
                        <link>
                            <linkclipref>SecondScenePark.2.Take1.WAV 4</linkclipref>
                        </link>
                        <comments/>
                    </clipitem>
                    <clipitem id="SecondScenePark.2.Take3.WAV 4">
                        <name>SecondScenePark.2.Take3.WAV</name>
                        <duration>892</duration>
                        <rate>
                            <timebase>24</timebase>
                            <ntsc>TRUE</ntsc>
                        </rate>
                        <start>10749</start>
                        <end>11590</end>
                        <enabled>TRUE</enabled>
                        <in>5</in>
                        <out>846</out>
                        <file id="SecondScenePark.2.Take3.WAV 1"/>
                        <sourcetrack>
                            <mediatype>audio</mediatype>
                            <trackindex>4</trackindex>
                        </sourcetrack>
                        <filter>
                            <enabled>TRUE</enabled>
                            <start>0</start>
                            <end>892</end>
                            <effect>
                                <name>Audio Levels</name>
                                <effectid>audiolevels</effectid>
                                <effecttype>audiolevels</effecttype>
                                <mediatype>audio</mediatype>
                                <effectcategory>audiolevels</effectcategory>
                                <parameter>
                                    <name>Level</name>
                                    <parameterid>level</parameterid>
                                    <value>1</value>
                                    <valuemin>1e-05</valuemin>
                                    <valuemax>31.6228</valuemax>
                                </parameter>
                            </effect>
                        </filter>
                        <filter>
                            <enabled>TRUE</enabled>
                            <start>0</start>
                            <end>892</end>
                            <effect>
                                <name>Audio Pan</name>
                                <effectid>audiopan</effectid>
                                <effecttype>audiopan</effecttype>
                                <mediatype>audio</mediatype>
                                <effectcategory>audiopan</effectcategory>
                                <parameter>
                                    <name>Pan</name>
                                    <parameterid>pan</parameterid>
                                    <value>0</value>
                                    <valuemin>-1</valuemin>
                                    <valuemax>1</valuemax>
                                </parameter>
                            </effect>
                        </filter>
                        <link>
                            <linkclipref>SecondScenePark.2.Take3.WAV 3</linkclipref>
                            <mediatype>audio</mediatype>
                        </link>
                        <link>
                            <linkclipref>SecondScenePark.2.Take3.WAV 2</linkclipref>
                            <mediatype>audio</mediatype>
                        </link>
                        <link>
                            <linkclipref>SecondScenePark.2.Take3.WAV 0</linkclipref>
                            <mediatype>audio</mediatype>
                        </link>
                        <link>
                            <linkclipref>SecondScenePark.2.Take3.WAV 4</linkclipref>
                        </link>
                        <comments/>
                    </clipitem>
                    <clipitem id="SecondScenePark.2.5.Take1.WAV 4">
                        <name>SecondScenePark.2.5.Take1.WAV</name>
                        <duration>1055</duration>
                        <rate>
                            <timebase>24</timebase>
                            <ntsc>TRUE</ntsc>
                        </rate>
                        <start>11590</start>
                        <end>12645</end>
                        <enabled>TRUE</enabled>
                        <in>0</in>
                        <out>1055</out>
                        <file id="SecondScenePark.2.5.Take1.WAV 1"/>
                        <sourcetrack>
                            <mediatype>audio</mediatype>
                            <trackindex>4</trackindex>
                        </sourcetrack>
                        <filter>
                            <enabled>TRUE</enabled>
                            <start>0</start>
                            <end>1055</end>
                            <effect>
                                <name>Audio Levels</name>
                                <effectid>audiolevels</effectid>
                                <effecttype>audiolevels</effecttype>
                                <mediatype>audio</mediatype>
                                <effectcategory>audiolevels</effectcategory>
                                <parameter>
                                    <name>Level</name>
                                    <parameterid>level</parameterid>
                                    <value>1</value>
                                    <valuemin>1e-05</valuemin>
                                    <valuemax>31.6228</valuemax>
                                </parameter>
                            </effect>
                        </filter>
                        <filter>
                            <enabled>TRUE</enabled>
                            <start>0</start>
                            <end>1055</end>
                            <effect>
                                <name>Audio Pan</name>
                                <effectid>audiopan</effectid>
                                <effecttype>audiopan</effecttype>
                                <mediatype>audio</mediatype>
                                <effectcategory>audiopan</effectcategory>
                                <parameter>
                                    <name>Pan</name>
                                    <parameterid>pan</parameterid>
                                    <value>0</value>
                                    <valuemin>-1</valuemin>
                                    <valuemax>1</valuemax>
                                </parameter>
                            </effect>
                        </filter>
                        <link>
                            <linkclipref>SecondScenePark.2.5.Take1.WAV 3</linkclipref>
                            <mediatype>audio</mediatype>
                        </link>
                        <link>
                            <linkclipref>SecondScenePark.2.5.Take1.WAV 2</linkclipref>
                            <mediatype>audio</mediatype>
                        </link>
                        <link>
                            <linkclipref>SecondScenePark.2.5.Take1.WAV 0</linkclipref>
                            <mediatype>audio</mediatype>
                        </link>
                        <link>
                            <linkclipref>SecondScenePark.2.5.Take1.WAV 4</linkclipref>
                        </link>
                        <comments/>
                    </clipitem>
                    <clipitem id="SecondScenePark.2.4.Take1.WAV 4">
                        <name>SecondScenePark.2.4.Take1.WAV</name>
                        <duration>2298</duration>
                        <rate>
                            <timebase>24</timebase>
                            <ntsc>TRUE</ntsc>
                        </rate>
                        <start>12645</start>
                        <end>14702</end>
                        <enabled>TRUE</enabled>
                        <in>106</in>
                        <out>2163</out>
                        <file id="SecondScenePark.2.4.Take1.WAV 1"/>
                        <sourcetrack>
                            <mediatype>audio</mediatype>
                            <trackindex>4</trackindex>
                        </sourcetrack>
                        <filter>
                            <enabled>TRUE</enabled>
                            <start>0</start>
                            <end>2298</end>
                            <effect>
                                <name>Audio Levels</name>
                                <effectid>audiolevels</effectid>
                                <effecttype>audiolevels</effecttype>
                                <mediatype>audio</mediatype>
                                <effectcategory>audiolevels</effectcategory>
                                <parameter>
                                    <name>Level</name>
                                    <parameterid>level</parameterid>
                                    <value>1</value>
                                    <valuemin>1e-05</valuemin>
                                    <valuemax>31.6228</valuemax>
                                </parameter>
                            </effect>
                        </filter>
                        <filter>
                            <enabled>TRUE</enabled>
                            <start>0</start>
                            <end>2298</end>
                            <effect>
                                <name>Audio Pan</name>
                                <effectid>audiopan</effectid>
                                <effecttype>audiopan</effecttype>
                                <mediatype>audio</mediatype>
                                <effectcategory>audiopan</effectcategory>
                                <parameter>
                                    <name>Pan</name>
                                    <parameterid>pan</parameterid>
                                    <value>0</value>
                                    <valuemin>-1</valuemin>
                                    <valuemax>1</valuemax>
                                </parameter>
                            </effect>
                        </filter>
                        <link>
                            <linkclipref>SecondScenePark.2.4.Take1.WAV 3</linkclipref>
                            <mediatype>audio</mediatype>
                        </link>
                        <link>
                            <linkclipref>SecondScenePark.2.4.Take1.WAV 2</linkclipref>
                            <mediatype>audio</mediatype>
                        </link>
                        <link>
                            <linkclipref>SecondScenePark.2.4.Take1.WAV 0</linkclipref>
                            <mediatype>audio</mediatype>
                        </link>
                        <link>
                            <linkclipref>SecondScenePark.2.4.Take1.WAV 4</linkclipref>
                        </link>
                        <comments/>
                    </clipitem>
                    <clipitem id="SecondScenePark.2.4.Take2.WAV 4">
                        <name>SecondScenePark.2.4.Take2.WAV</name>
                        <duration>1820</duration>
                        <rate>
                            <timebase>24</timebase>
                            <ntsc>TRUE</ntsc>
                        </rate>
                        <start>14702</start>
                        <end>16523</end>
                        <enabled>TRUE</enabled>
                        <in>0</in>
                        <out>1820</out>
                        <file id="SecondScenePark.2.4.Take2.WAV 1"/>
                        <sourcetrack>
                            <mediatype>audio</mediatype>
                            <trackindex>4</trackindex>
                        </sourcetrack>
                        <filter>
                            <enabled>TRUE</enabled>
                            <start>0</start>
                            <end>1820</end>
                            <effect>
                                <name>Audio Levels</name>
                                <effectid>audiolevels</effectid>
                                <effecttype>audiolevels</effecttype>
                                <mediatype>audio</mediatype>
                                <effectcategory>audiolevels</effectcategory>
                                <parameter>
                                    <name>Level</name>
                                    <parameterid>level</parameterid>
                                    <value>1</value>
                                    <valuemin>1e-05</valuemin>
                                    <valuemax>31.6228</valuemax>
                                </parameter>
                            </effect>
                        </filter>
                        <filter>
                            <enabled>TRUE</enabled>
                            <start>0</start>
                            <end>1820</end>
                            <effect>
                                <name>Audio Pan</name>
                                <effectid>audiopan</effectid>
                                <effecttype>audiopan</effecttype>
                                <mediatype>audio</mediatype>
                                <effectcategory>audiopan</effectcategory>
                                <parameter>
                                    <name>Pan</name>
                                    <parameterid>pan</parameterid>
                                    <value>0</value>
                                    <valuemin>-1</valuemin>
                                    <valuemax>1</valuemax>
                                </parameter>
                            </effect>
                        </filter>
                        <link>
                            <linkclipref>SecondScenePark.2.4.Take2.WAV 3</linkclipref>
                            <mediatype>audio</mediatype>
                        </link>
                        <link>
                            <linkclipref>SecondScenePark.2.4.Take2.WAV 2</linkclipref>
                            <mediatype>audio</mediatype>
                        </link>
                        <link>
                            <linkclipref>SecondScenePark.2.4.Take2.WAV 0</linkclipref>
                            <mediatype>audio</mediatype>
                        </link>
                        <link>
                            <linkclipref>SecondScenePark.2.4.Take2.WAV 4</linkclipref>
                        </link>
                        <comments/>
                    </clipitem>
                    <clipitem id="SecondScenePark.2.7.Take4.WAV 4">
                        <name>SecondScenePark.2.7.Take4.WAV</name>
                        <duration>891</duration>
                        <rate>
                            <timebase>24</timebase>
                            <ntsc>TRUE</ntsc>
                        </rate>
                        <start>16523</start>
                        <end>17386</end>
                        <enabled>TRUE</enabled>
                        <in>28</in>
                        <out>891</out>
                        <file id="SecondScenePark.2.7.Take4.WAV 1"/>
                        <sourcetrack>
                            <mediatype>audio</mediatype>
                            <trackindex>4</trackindex>
                        </sourcetrack>
                        <filter>
                            <enabled>TRUE</enabled>
                            <start>0</start>
                            <end>891</end>
                            <effect>
                                <name>Audio Levels</name>
                                <effectid>audiolevels</effectid>
                                <effecttype>audiolevels</effecttype>
                                <mediatype>audio</mediatype>
                                <effectcategory>audiolevels</effectcategory>
                                <parameter>
                                    <name>Level</name>
                                    <parameterid>level</parameterid>
                                    <value>1</value>
                                    <valuemin>1e-05</valuemin>
                                    <valuemax>31.6228</valuemax>
                                </parameter>
                            </effect>
                        </filter>
                        <filter>
                            <enabled>TRUE</enabled>
                            <start>0</start>
                            <end>891</end>
                            <effect>
                                <name>Audio Pan</name>
                                <effectid>audiopan</effectid>
                                <effecttype>audiopan</effecttype>
                                <mediatype>audio</mediatype>
                                <effectcategory>audiopan</effectcategory>
                                <parameter>
                                    <name>Pan</name>
                                    <parameterid>pan</parameterid>
                                    <value>0</value>
                                    <valuemin>-1</valuemin>
                                    <valuemax>1</valuemax>
                                </parameter>
                            </effect>
                        </filter>
                        <link>
                            <linkclipref>SecondScenePark.2.7.Take4.WAV 3</linkclipref>
                            <mediatype>audio</mediatype>
                        </link>
                        <link>
                            <linkclipref>SecondScenePark.2.7.Take4.WAV 2</linkclipref>
                            <mediatype>audio</mediatype>
                        </link>
                        <link>
                            <linkclipref>SecondScenePark.2.7.Take4.WAV 0</linkclipref>
                            <mediatype>audio</mediatype>
                        </link>
                        <link>
                            <linkclipref>SecondScenePark.2.7.Take4.WAV 4</linkclipref>
                        </link>
                        <comments/>
                    </clipitem>
                    <clipitem id="SecondScenePark.2.7.Take1.WAV 4">
                        <name>SecondScenePark.2.7.Take1.WAV</name>
                        <duration>935</duration>
                        <rate>
                            <timebase>24</timebase>
                            <ntsc>TRUE</ntsc>
                        </rate>
                        <start>17386</start>
                        <end>18157</end>
                        <enabled>TRUE</enabled>
                        <in>33</in>
                        <out>804</out>
                        <file id="SecondScenePark.2.7.Take1.WAV 1"/>
                        <sourcetrack>
                            <mediatype>audio</mediatype>
                            <trackindex>4</trackindex>
                        </sourcetrack>
                        <filter>
                            <enabled>TRUE</enabled>
                            <start>0</start>
                            <end>935</end>
                            <effect>
                                <name>Audio Levels</name>
                                <effectid>audiolevels</effectid>
                                <effecttype>audiolevels</effecttype>
                                <mediatype>audio</mediatype>
                                <effectcategory>audiolevels</effectcategory>
                                <parameter>
                                    <name>Level</name>
                                    <parameterid>level</parameterid>
                                    <value>1</value>
                                    <valuemin>1e-05</valuemin>
                                    <valuemax>31.6228</valuemax>
                                </parameter>
                            </effect>
                        </filter>
                        <filter>
                            <enabled>TRUE</enabled>
                            <start>0</start>
                            <end>935</end>
                            <effect>
                                <name>Audio Pan</name>
                                <effectid>audiopan</effectid>
                                <effecttype>audiopan</effecttype>
                                <mediatype>audio</mediatype>
                                <effectcategory>audiopan</effectcategory>
                                <parameter>
                                    <name>Pan</name>
                                    <parameterid>pan</parameterid>
                                    <value>0</value>
                                    <valuemin>-1</valuemin>
                                    <valuemax>1</valuemax>
                                </parameter>
                            </effect>
                        </filter>
                        <link>
                            <linkclipref>SecondScenePark.2.7.Take1.WAV 3</linkclipref>
                            <mediatype>audio</mediatype>
                        </link>
                        <link>
                            <linkclipref>SecondScenePark.2.7.Take1.WAV 2</linkclipref>
                            <mediatype>audio</mediatype>
                        </link>
                        <link>
                            <linkclipref>SecondScenePark.2.7.Take1.WAV 0</linkclipref>
                            <mediatype>audio</mediatype>
                        </link>
                        <link>
                            <linkclipref>SecondScenePark.2.7.Take1.WAV 4</linkclipref>
                        </link>
                        <comments/>
                    </clipitem>
                    <clipitem id="SecondScenePark.2.7.Take2.WAV 4">
                        <name>SecondScenePark.2.7.Take2.WAV</name>
                        <duration>1536</duration>
                        <rate>
                            <timebase>24</timebase>
                            <ntsc>TRUE</ntsc>
                        </rate>
                        <start>18157</start>
                        <end>18994</end>
                        <enabled>TRUE</enabled>
                        <in>627</in>
                        <out>1464</out>
                        <file id="SecondScenePark.2.7.Take2.WAV 1"/>
                        <sourcetrack>
                            <mediatype>audio</mediatype>
                            <trackindex>4</trackindex>
                        </sourcetrack>
                        <filter>
                            <enabled>TRUE</enabled>
                            <start>0</start>
                            <end>1536</end>
                            <effect>
                                <name>Audio Levels</name>
                                <effectid>audiolevels</effectid>
                                <effecttype>audiolevels</effecttype>
                                <mediatype>audio</mediatype>
                                <effectcategory>audiolevels</effectcategory>
                                <parameter>
                                    <name>Level</name>
                                    <parameterid>level</parameterid>
                                    <value>1</value>
                                    <valuemin>1e-05</valuemin>
                                    <valuemax>31.6228</valuemax>
                                </parameter>
                            </effect>
                        </filter>
                        <filter>
                            <enabled>TRUE</enabled>
                            <start>0</start>
                            <end>1536</end>
                            <effect>
                                <name>Audio Pan</name>
                                <effectid>audiopan</effectid>
                                <effecttype>audiopan</effecttype>
                                <mediatype>audio</mediatype>
                                <effectcategory>audiopan</effectcategory>
                                <parameter>
                                    <name>Pan</name>
                                    <parameterid>pan</parameterid>
                                    <value>0</value>
                                    <valuemin>-1</valuemin>
                                    <valuemax>1</valuemax>
                                </parameter>
                            </effect>
                        </filter>
                        <link>
                            <linkclipref>SecondScenePark.2.7.Take2.WAV 3</linkclipref>
                            <mediatype>audio</mediatype>
                        </link>
                        <link>
                            <linkclipref>SecondScenePark.2.7.Take2.WAV 2</linkclipref>
                            <mediatype>audio</mediatype>
                        </link>
                        <link>
                            <linkclipref>SecondScenePark.2.7.Take2.WAV 0</linkclipref>
                            <mediatype>audio</mediatype>
                        </link>
                        <link>
                            <linkclipref>SecondScenePark.2.7.Take2.WAV 4</linkclipref>
                        </link>
                        <comments/>
                    </clipitem>
                    <clipitem id="SecondScenePark.2.7.Take3.WAV 4">
                        <name>SecondScenePark.2.7.Take3.WAV</name>
                        <duration>1109</duration>
                        <rate>
                            <timebase>24</timebase>
                            <ntsc>TRUE</ntsc>
                        </rate>
                        <start>18994</start>
                        <end>20036</end>
                        <enabled>TRUE</enabled>
                        <in>44</in>
                        <out>1085</out>
                        <file id="SecondScenePark.2.7.Take3.WAV 1"/>
                        <sourcetrack>
                            <mediatype>audio</mediatype>
                            <trackindex>4</trackindex>
                        </sourcetrack>
                        <filter>
                            <enabled>TRUE</enabled>
                            <start>0</start>
                            <end>1109</end>
                            <effect>
                                <name>Audio Levels</name>
                                <effectid>audiolevels</effectid>
                                <effecttype>audiolevels</effecttype>
                                <mediatype>audio</mediatype>
                                <effectcategory>audiolevels</effectcategory>
                                <parameter>
                                    <name>Level</name>
                                    <parameterid>level</parameterid>
                                    <value>1</value>
                                    <valuemin>1e-05</valuemin>
                                    <valuemax>31.6228</valuemax>
                                </parameter>
                            </effect>
                        </filter>
                        <filter>
                            <enabled>TRUE</enabled>
                            <start>0</start>
                            <end>1109</end>
                            <effect>
                                <name>Audio Pan</name>
                                <effectid>audiopan</effectid>
                                <effecttype>audiopan</effecttype>
                                <mediatype>audio</mediatype>
                                <effectcategory>audiopan</effectcategory>
                                <parameter>
                                    <name>Pan</name>
                                    <parameterid>pan</parameterid>
                                    <value>0</value>
                                    <valuemin>-1</valuemin>
                                    <valuemax>1</valuemax>
                                </parameter>
                            </effect>
                        </filter>
                        <link>
                            <linkclipref>SecondScenePark.2.7.Take3.WAV 3</linkclipref>
                            <mediatype>audio</mediatype>
                        </link>
                        <link>
                            <linkclipref>SecondScenePark.2.7.Take3.WAV 2</linkclipref>
                            <mediatype>audio</mediatype>
                        </link>
                        <link>
                            <linkclipref>SecondScenePark.2.7.Take3.WAV 0</linkclipref>
                            <mediatype>audio</mediatype>
                        </link>
                        <link>
                            <linkclipref>SecondScenePark.2.7.Take3.WAV 4</linkclipref>
                        </link>
                        <comments/>
                    </clipitem>
                    <clipitem id="SecondScenePark.3.1.Take1.WAV 4">
                        <name>SecondScenePark.3.1.Take1.WAV</name>
                        <duration>1378</duration>
                        <rate>
                            <timebase>24</timebase>
                            <ntsc>TRUE</ntsc>
                        </rate>
                        <start>20036</start>
                        <end>21202</end>
                        <enabled>TRUE</enabled>
                        <in>63</in>
                        <out>1229</out>
                        <file id="SecondScenePark.3.1.Take1.WAV 1"/>
                        <sourcetrack>
                            <mediatype>audio</mediatype>
                            <trackindex>4</trackindex>
                        </sourcetrack>
                        <filter>
                            <enabled>TRUE</enabled>
                            <start>0</start>
                            <end>1378</end>
                            <effect>
                                <name>Audio Levels</name>
                                <effectid>audiolevels</effectid>
                                <effecttype>audiolevels</effecttype>
                                <mediatype>audio</mediatype>
                                <effectcategory>audiolevels</effectcategory>
                                <parameter>
                                    <name>Level</name>
                                    <parameterid>level</parameterid>
                                    <value>1</value>
                                    <valuemin>1e-05</valuemin>
                                    <valuemax>31.6228</valuemax>
                                </parameter>
                            </effect>
                        </filter>
                        <filter>
                            <enabled>TRUE</enabled>
                            <start>0</start>
                            <end>1378</end>
                            <effect>
                                <name>Audio Pan</name>
                                <effectid>audiopan</effectid>
                                <effecttype>audiopan</effecttype>
                                <mediatype>audio</mediatype>
                                <effectcategory>audiopan</effectcategory>
                                <parameter>
                                    <name>Pan</name>
                                    <parameterid>pan</parameterid>
                                    <value>0</value>
                                    <valuemin>-1</valuemin>
                                    <valuemax>1</valuemax>
                                </parameter>
                            </effect>
                        </filter>
                        <link>
                            <linkclipref>SecondScenePark.3.1.Take1.WAV 3</linkclipref>
                            <mediatype>audio</mediatype>
                        </link>
                        <link>
                            <linkclipref>SecondScenePark.3.1.Take1.WAV 2</linkclipref>
                            <mediatype>audio</mediatype>
                        </link>
                        <link>
                            <linkclipref>SecondScenePark.3.1.Take1.WAV 0</linkclipref>
                            <mediatype>audio</mediatype>
                        </link>
                        <link>
                            <linkclipref>SecondScenePark.3.1.Take1.WAV 4</linkclipref>
                        </link>
                        <link>
                            <linkclipref>SecondScenePark.3.1.Take1.WAV 5</linkclipref>
                        </link>
                        <comments/>
                    </clipitem>
                    <clipitem id="SecondScenePark.3.1.Take2.WAV 4">
                        <name>SecondScenePark.3.1.Take2.WAV</name>
                        <duration>1355</duration>
                        <rate>
                            <timebase>24</timebase>
                            <ntsc>TRUE</ntsc>
                        </rate>
                        <start>21202</start>
                        <end>22507</end>
                        <enabled>TRUE</enabled>
                        <in>0</in>
                        <out>1305</out>
                        <file id="SecondScenePark.3.1.Take2.WAV 1"/>
                        <sourcetrack>
                            <mediatype>audio</mediatype>
                            <trackindex>4</trackindex>
                        </sourcetrack>
                        <filter>
                            <enabled>TRUE</enabled>
                            <start>0</start>
                            <end>1355</end>
                            <effect>
                                <name>Audio Levels</name>
                                <effectid>audiolevels</effectid>
                                <effecttype>audiolevels</effecttype>
                                <mediatype>audio</mediatype>
                                <effectcategory>audiolevels</effectcategory>
                                <parameter>
                                    <name>Level</name>
                                    <parameterid>level</parameterid>
                                    <value>1</value>
                                    <valuemin>1e-05</valuemin>
                                    <valuemax>31.6228</valuemax>
                                </parameter>
                            </effect>
                        </filter>
                        <filter>
                            <enabled>TRUE</enabled>
                            <start>0</start>
                            <end>1355</end>
                            <effect>
                                <name>Audio Pan</name>
                                <effectid>audiopan</effectid>
                                <effecttype>audiopan</effecttype>
                                <mediatype>audio</mediatype>
                                <effectcategory>audiopan</effectcategory>
                                <parameter>
                                    <name>Pan</name>
                                    <parameterid>pan</parameterid>
                                    <value>0</value>
                                    <valuemin>-1</valuemin>
                                    <valuemax>1</valuemax>
                                </parameter>
                            </effect>
                        </filter>
                        <link>
                            <linkclipref>SecondScenePark.3.1.Take2.WAV 3</linkclipref>
                            <mediatype>audio</mediatype>
                        </link>
                        <link>
                            <linkclipref>SecondScenePark.3.1.Take2.WAV 2</linkclipref>
                            <mediatype>audio</mediatype>
                        </link>
                        <link>
                            <linkclipref>SecondScenePark.3.1.Take2.WAV 0</linkclipref>
                            <mediatype>audio</mediatype>
                        </link>
                        <link>
                            <linkclipref>SecondScenePark.3.1.Take2.WAV 4</linkclipref>
                        </link>
                        <link>
                            <linkclipref>SecondScenePark.3.1.Take2.WAV 5</linkclipref>
                        </link>
                        <comments/>
                    </clipitem>
                    <clipitem id="SecondScenePark.3.2.Banana.Take2.WAV 4">
                        <name>SecondScenePark.3.2.Banana.Take2.WAV</name>
                        <duration>2277</duration>
                        <rate>
                            <timebase>24</timebase>
                            <ntsc>TRUE</ntsc>
                        </rate>
                        <start>22507</start>
                        <end>23927</end>
                        <enabled>TRUE</enabled>
                        <in>856</in>
                        <out>2277</out>
                        <file id="SecondScenePark.3.2.Banana.Take2.WAV 1"/>
                        <sourcetrack>
                            <mediatype>audio</mediatype>
                            <trackindex>4</trackindex>
                        </sourcetrack>
                        <filter>
                            <enabled>TRUE</enabled>
                            <start>0</start>
                            <end>2277</end>
                            <effect>
                                <name>Audio Levels</name>
                                <effectid>audiolevels</effectid>
                                <effecttype>audiolevels</effecttype>
                                <mediatype>audio</mediatype>
                                <effectcategory>audiolevels</effectcategory>
                                <parameter>
                                    <name>Level</name>
                                    <parameterid>level</parameterid>
                                    <value>1</value>
                                    <valuemin>1e-05</valuemin>
                                    <valuemax>31.6228</valuemax>
                                </parameter>
                            </effect>
                        </filter>
                        <filter>
                            <enabled>TRUE</enabled>
                            <start>0</start>
                            <end>2277</end>
                            <effect>
                                <name>Audio Pan</name>
                                <effectid>audiopan</effectid>
                                <effecttype>audiopan</effecttype>
                                <mediatype>audio</mediatype>
                                <effectcategory>audiopan</effectcategory>
                                <parameter>
                                    <name>Pan</name>
                                    <parameterid>pan</parameterid>
                                    <value>0</value>
                                    <valuemin>-1</valuemin>
                                    <valuemax>1</valuemax>
                                </parameter>
                            </effect>
                        </filter>
                        <link>
                            <linkclipref>SecondScenePark.3.2.Banana.Take2.WAV 3</linkclipref>
                            <mediatype>audio</mediatype>
                        </link>
                        <link>
                            <linkclipref>SecondScenePark.3.2.Banana.Take2.WAV 2</linkclipref>
                            <mediatype>audio</mediatype>
                        </link>
                        <link>
                            <linkclipref>SecondScenePark.3.2.Banana.Take2.WAV 0</linkclipref>
                            <mediatype>audio</mediatype>
                        </link>
                        <link>
                            <linkclipref>SecondScenePark.3.2.Banana.Take2.WAV 4</linkclipref>
                        </link>
                        <link>
                            <linkclipref>SecondScenePark.3.2.Banana.Take2.WAV 5</linkclipref>
                        </link>
                        <comments/>
                    </clipitem>
                    <clipitem id="SecondScenePark.3.2.Take1.WAV 4">
                        <name>SecondScenePark.3.2.Take1.WAV</name>
                        <duration>1533</duration>
                        <rate>
                            <timebase>24</timebase>
                            <ntsc>TRUE</ntsc>
                        </rate>
                        <start>23979</start>
                        <end>25406</end>
                        <enabled>TRUE</enabled>
                        <in>0</in>
                        <out>1426</out>
                        <file id="SecondScenePark.3.2.Take1.WAV 1"/>
                        <sourcetrack>
                            <mediatype>audio</mediatype>
                            <trackindex>4</trackindex>
                        </sourcetrack>
                        <filter>
                            <enabled>TRUE</enabled>
                            <start>0</start>
                            <end>1533</end>
                            <effect>
                                <name>Audio Levels</name>
                                <effectid>audiolevels</effectid>
                                <effecttype>audiolevels</effecttype>
                                <mediatype>audio</mediatype>
                                <effectcategory>audiolevels</effectcategory>
                                <parameter>
                                    <name>Level</name>
                                    <parameterid>level</parameterid>
                                    <value>1</value>
                                    <valuemin>1e-05</valuemin>
                                    <valuemax>31.6228</valuemax>
                                </parameter>
                            </effect>
                        </filter>
                        <filter>
                            <enabled>TRUE</enabled>
                            <start>0</start>
                            <end>1533</end>
                            <effect>
                                <name>Audio Pan</name>
                                <effectid>audiopan</effectid>
                                <effecttype>audiopan</effecttype>
                                <mediatype>audio</mediatype>
                                <effectcategory>audiopan</effectcategory>
                                <parameter>
                                    <name>Pan</name>
                                    <parameterid>pan</parameterid>
                                    <value>0</value>
                                    <valuemin>-1</valuemin>
                                    <valuemax>1</valuemax>
                                </parameter>
                            </effect>
                        </filter>
                        <link>
                            <linkclipref>SecondScenePark.3.2.Take1.WAV 3</linkclipref>
                            <mediatype>audio</mediatype>
                        </link>
                        <link>
                            <linkclipref>SecondScenePark.3.2.Take1.WAV 2</linkclipref>
                            <mediatype>audio</mediatype>
                        </link>
                        <link>
                            <linkclipref>SecondScenePark.3.2.Take1.WAV 0</linkclipref>
                            <mediatype>audio</mediatype>
                        </link>
                        <link>
                            <linkclipref>SecondScenePark.3.2.Take1.WAV 4</linkclipref>
                        </link>
                        <link>
                            <linkclipref>SecondScenePark.3.2.Take1.WAV 5</linkclipref>
                        </link>
                        <comments/>
                    </clipitem>
                    <clipitem id="SecondScenePark.3.2.Take2.WAV 4">
                        <name>SecondScenePark.3.2.Take2.WAV</name>
                        <duration>1544</duration>
                        <rate>
                            <timebase>24</timebase>
                            <ntsc>TRUE</ntsc>
                        </rate>
                        <start>25406</start>
                        <end>26688</end>
                        <enabled>TRUE</enabled>
                        <in>204</in>
                        <out>1486</out>
                        <file id="SecondScenePark.3.2.Take2.WAV 1"/>
                        <sourcetrack>
                            <mediatype>audio</mediatype>
                            <trackindex>4</trackindex>
                        </sourcetrack>
                        <filter>
                            <enabled>TRUE</enabled>
                            <start>0</start>
                            <end>1544</end>
                            <effect>
                                <name>Audio Levels</name>
                                <effectid>audiolevels</effectid>
                                <effecttype>audiolevels</effecttype>
                                <mediatype>audio</mediatype>
                                <effectcategory>audiolevels</effectcategory>
                                <parameter>
                                    <name>Level</name>
                                    <parameterid>level</parameterid>
                                    <value>1</value>
                                    <valuemin>1e-05</valuemin>
                                    <valuemax>31.6228</valuemax>
                                </parameter>
                            </effect>
                        </filter>
                        <filter>
                            <enabled>TRUE</enabled>
                            <start>0</start>
                            <end>1544</end>
                            <effect>
                                <name>Audio Pan</name>
                                <effectid>audiopan</effectid>
                                <effecttype>audiopan</effecttype>
                                <mediatype>audio</mediatype>
                                <effectcategory>audiopan</effectcategory>
                                <parameter>
                                    <name>Pan</name>
                                    <parameterid>pan</parameterid>
                                    <value>0</value>
                                    <valuemin>-1</valuemin>
                                    <valuemax>1</valuemax>
                                </parameter>
                            </effect>
                        </filter>
                        <link>
                            <linkclipref>SecondScenePark.3.2.Take2.WAV 3</linkclipref>
                            <mediatype>audio</mediatype>
                        </link>
                        <link>
                            <linkclipref>SecondScenePark.3.2.Take2.WAV 2</linkclipref>
                            <mediatype>audio</mediatype>
                        </link>
                        <link>
                            <linkclipref>SecondScenePark.3.2.Take2.WAV 0</linkclipref>
                            <mediatype>audio</mediatype>
                        </link>
                        <link>
                            <linkclipref>SecondScenePark.3.2.Take2.WAV 4</linkclipref>
                        </link>
                        <link>
                            <linkclipref>SecondScenePark.3.2.Take2.WAV 5</linkclipref>
                        </link>
                        <comments/>
                    </clipitem>
                    <clipitem id="SecondScenePark.3.2.Take3.WAV 8">
                        <name>SecondScenePark.3.2.Take3.WAV</name>
                        <duration>1661</duration>
                        <rate>
                            <timebase>24</timebase>
                            <ntsc>TRUE</ntsc>
                        </rate>
                        <start>26688</start>
                        <end>28258</end>
                        <enabled>TRUE</enabled>
                        <in>0</in>
                        <out>1569</out>
                        <file id="SecondScenePark.3.2.Take3.WAV 1"/>
                        <sourcetrack>
                            <mediatype>audio</mediatype>
                            <trackindex>4</trackindex>
                        </sourcetrack>
                        <filter>
                            <enabled>TRUE</enabled>
                            <start>0</start>
                            <end>1661</end>
                            <effect>
                                <name>Audio Levels</name>
                                <effectid>audiolevels</effectid>
                                <effecttype>audiolevels</effecttype>
                                <mediatype>audio</mediatype>
                                <effectcategory>audiolevels</effectcategory>
                                <parameter>
                                    <name>Level</name>
                                    <parameterid>level</parameterid>
                                    <value>1</value>
                                    <valuemin>1e-05</valuemin>
                                    <valuemax>31.6228</valuemax>
                                </parameter>
                            </effect>
                        </filter>
                        <filter>
                            <enabled>TRUE</enabled>
                            <start>0</start>
                            <end>1661</end>
                            <effect>
                                <name>Audio Pan</name>
                                <effectid>audiopan</effectid>
                                <effecttype>audiopan</effecttype>
                                <mediatype>audio</mediatype>
                                <effectcategory>audiopan</effectcategory>
                                <parameter>
                                    <name>Pan</name>
                                    <parameterid>pan</parameterid>
                                    <value>0</value>
                                    <valuemin>-1</valuemin>
                                    <valuemax>1</valuemax>
                                </parameter>
                            </effect>
                        </filter>
                        <link>
                            <linkclipref>SecondScenePark.3.2.Take3.WAV 0</linkclipref>
                            <mediatype>audio</mediatype>
                        </link>
                        <link>
                            <linkclipref>SecondScenePark.3.2.Take3.WAV 6</linkclipref>
                            <mediatype>audio</mediatype>
                        </link>
                        <link>
                            <linkclipref>SecondScenePark.3.2.Take3.WAV 4</linkclipref>
                            <mediatype>audio</mediatype>
                        </link>
                        <link>
                            <linkclipref>SecondScenePark.3.2.Take3.WAV 8</linkclipref>
                        </link>
                        <link>
                            <linkclipref>SecondScenePark.3.2.Take3.WAV 10</linkclipref>
                        </link>
                        <comments/>
                    </clipitem>
                    <clipitem id="SecondScenePark.3.2.Banana.Take1.WAV 4">
                        <name>SecondScenePark.3.2.Banana.Take1.WAV</name>
                        <duration>1376</duration>
                        <rate>
                            <timebase>24</timebase>
                            <ntsc>TRUE</ntsc>
                        </rate>
                        <start>28258</start>
                        <end>29427</end>
                        <enabled>TRUE</enabled>
                        <in>102</in>
                        <out>1271</out>
                        <file id="SecondScenePark.3.2.Banana.Take1.WAV 1"/>
                        <sourcetrack>
                            <mediatype>audio</mediatype>
                            <trackindex>4</trackindex>
                        </sourcetrack>
                        <filter>
                            <enabled>TRUE</enabled>
                            <start>0</start>
                            <end>1376</end>
                            <effect>
                                <name>Audio Levels</name>
                                <effectid>audiolevels</effectid>
                                <effecttype>audiolevels</effecttype>
                                <mediatype>audio</mediatype>
                                <effectcategory>audiolevels</effectcategory>
                                <parameter>
                                    <name>Level</name>
                                    <parameterid>level</parameterid>
                                    <value>1</value>
                                    <valuemin>1e-05</valuemin>
                                    <valuemax>31.6228</valuemax>
                                </parameter>
                            </effect>
                        </filter>
                        <filter>
                            <enabled>TRUE</enabled>
                            <start>0</start>
                            <end>1376</end>
                            <effect>
                                <name>Audio Pan</name>
                                <effectid>audiopan</effectid>
                                <effecttype>audiopan</effecttype>
                                <mediatype>audio</mediatype>
                                <effectcategory>audiopan</effectcategory>
                                <parameter>
                                    <name>Pan</name>
                                    <parameterid>pan</parameterid>
                                    <value>0</value>
                                    <valuemin>-1</valuemin>
                                    <valuemax>1</valuemax>
                                </parameter>
                            </effect>
                        </filter>
                        <link>
                            <linkclipref>SecondScenePark.3.2.Banana.Take1.WAV 0</linkclipref>
                            <mediatype>audio</mediatype>
                        </link>
                        <link>
                            <linkclipref>SecondScenePark.3.2.Banana.Take1.WAV 3</linkclipref>
                            <mediatype>audio</mediatype>
                        </link>
                        <link>
                            <linkclipref>SecondScenePark.3.2.Banana.Take1.WAV 2</linkclipref>
                            <mediatype>audio</mediatype>
                        </link>
                        <link>
                            <linkclipref>SecondScenePark.3.2.Banana.Take1.WAV 4</linkclipref>
                        </link>
                        <link>
                            <linkclipref>SecondScenePark.3.2.Banana.Take1.WAV 5</linkclipref>
                        </link>
                        <comments/>
                    </clipitem>
                    <clipitem id="SecondScenePark.3.2.Take3.WAV 9">
                        <name>SecondScenePark.3.2.Take3.WAV</name>
                        <duration>900</duration>
                        <rate>
                            <timebase>24</timebase>
                            <ntsc>TRUE</ntsc>
                        </rate>
                        <start>29432</start>
                        <end>30227</end>
                        <enabled>TRUE</enabled>
                        <in>0</in>
                        <out>795</out>
                        <file id="SecondScenePark.3.2.Take3.WAV 3"/>
                        <sourcetrack>
                            <mediatype>audio</mediatype>
                            <trackindex>4</trackindex>
                        </sourcetrack>
                        <filter>
                            <enabled>TRUE</enabled>
                            <start>0</start>
                            <end>900</end>
                            <effect>
                                <name>Audio Levels</name>
                                <effectid>audiolevels</effectid>
                                <effecttype>audiolevels</effecttype>
                                <mediatype>audio</mediatype>
                                <effectcategory>audiolevels</effectcategory>
                                <parameter>
                                    <name>Level</name>
                                    <parameterid>level</parameterid>
                                    <value>1</value>
                                    <valuemin>1e-05</valuemin>
                                    <valuemax>31.6228</valuemax>
                                </parameter>
                            </effect>
                        </filter>
                        <filter>
                            <enabled>TRUE</enabled>
                            <start>0</start>
                            <end>900</end>
                            <effect>
                                <name>Audio Pan</name>
                                <effectid>audiopan</effectid>
                                <effecttype>audiopan</effecttype>
                                <mediatype>audio</mediatype>
                                <effectcategory>audiopan</effectcategory>
                                <parameter>
                                    <name>Pan</name>
                                    <parameterid>pan</parameterid>
                                    <value>0</value>
                                    <valuemin>-1</valuemin>
                                    <valuemax>1</valuemax>
                                </parameter>
                            </effect>
                        </filter>
                        <link>
                            <linkclipref>SecondScenePark.3.2.Take3.WAV 2</linkclipref>
                            <mediatype>audio</mediatype>
                        </link>
                        <link>
                            <linkclipref>SecondScenePark.3.2.Take3.WAV 7</linkclipref>
                            <mediatype>audio</mediatype>
                        </link>
                        <link>
                            <linkclipref>SecondScenePark.3.2.Take3.WAV 5</linkclipref>
                            <mediatype>audio</mediatype>
                        </link>
                        <link>
                            <linkclipref>SecondScenePark.3.2.Take3.WAV 9</linkclipref>
                        </link>
                        <link>
                            <linkclipref>SecondScenePark.3.2.Take3.WAV 11</linkclipref>
                        </link>
                        <comments/>
                    </clipitem>
                    <clipitem id="SecondScenePark.3.4.Take1.WAV 4">
                        <name>SecondScenePark.3.4.Take1.WAV</name>
                        <duration>1922</duration>
                        <rate>
                            <timebase>24</timebase>
                            <ntsc>TRUE</ntsc>
                        </rate>
                        <start>30227</start>
                        <end>31522</end>
                        <enabled>TRUE</enabled>
                        <in>205</in>
                        <out>1499</out>
                        <file id="SecondScenePark.3.4.Take1.WAV 1"/>
                        <sourcetrack>
                            <mediatype>audio</mediatype>
                            <trackindex>4</trackindex>
                        </sourcetrack>
                        <filter>
                            <enabled>TRUE</enabled>
                            <start>0</start>
                            <end>1922</end>
                            <effect>
                                <name>Audio Levels</name>
                                <effectid>audiolevels</effectid>
                                <effecttype>audiolevels</effecttype>
                                <mediatype>audio</mediatype>
                                <effectcategory>audiolevels</effectcategory>
                                <parameter>
                                    <name>Level</name>
                                    <parameterid>level</parameterid>
                                    <value>1</value>
                                    <valuemin>1e-05</valuemin>
                                    <valuemax>31.6228</valuemax>
                                </parameter>
                            </effect>
                        </filter>
                        <filter>
                            <enabled>TRUE</enabled>
                            <start>0</start>
                            <end>1922</end>
                            <effect>
                                <name>Audio Pan</name>
                                <effectid>audiopan</effectid>
                                <effecttype>audiopan</effecttype>
                                <mediatype>audio</mediatype>
                                <effectcategory>audiopan</effectcategory>
                                <parameter>
                                    <name>Pan</name>
                                    <parameterid>pan</parameterid>
                                    <value>0</value>
                                    <valuemin>-1</valuemin>
                                    <valuemax>1</valuemax>
                                </parameter>
                            </effect>
                        </filter>
                        <link>
                            <linkclipref>SecondScenePark.3.4.Take1.WAV 3</linkclipref>
                            <mediatype>audio</mediatype>
                        </link>
                        <link>
                            <linkclipref>SecondScenePark.3.4.Take1.WAV 2</linkclipref>
                            <mediatype>audio</mediatype>
                        </link>
                        <link>
                            <linkclipref>SecondScenePark.3.4.Take1.WAV 0</linkclipref>
                            <mediatype>audio</mediatype>
                        </link>
                        <link>
                            <linkclipref>SecondScenePark.3.4.Take1.WAV 4</linkclipref>
                        </link>
                        <link>
                            <linkclipref>SecondScenePark.3.4.Take1.WAV 5</linkclipref>
                        </link>
                        <comments/>
                    </clipitem>
                    <clipitem id="SecondScenePark.3.4.Take2.WAV 4">
                        <name>SecondScenePark.3.4.Take2.WAV</name>
                        <duration>2334</duration>
                        <rate>
                            <timebase>24</timebase>
                            <ntsc>TRUE</ntsc>
                        </rate>
                        <start>31522</start>
                        <end>33370</end>
                        <enabled>TRUE</enabled>
                        <in>142</in>
                        <out>1989</out>
                        <file id="SecondScenePark.3.4.Take2.WAV 1"/>
                        <sourcetrack>
                            <mediatype>audio</mediatype>
                            <trackindex>4</trackindex>
                        </sourcetrack>
                        <filter>
                            <enabled>TRUE</enabled>
                            <start>0</start>
                            <end>2334</end>
                            <effect>
                                <name>Audio Levels</name>
                                <effectid>audiolevels</effectid>
                                <effecttype>audiolevels</effecttype>
                                <mediatype>audio</mediatype>
                                <effectcategory>audiolevels</effectcategory>
                                <parameter>
                                    <name>Level</name>
                                    <parameterid>level</parameterid>
                                    <value>1</value>
                                    <valuemin>1e-05</valuemin>
                                    <valuemax>31.6228</valuemax>
                                </parameter>
                            </effect>
                        </filter>
                        <filter>
                            <enabled>TRUE</enabled>
                            <start>0</start>
                            <end>2334</end>
                            <effect>
                                <name>Audio Pan</name>
                                <effectid>audiopan</effectid>
                                <effecttype>audiopan</effecttype>
                                <mediatype>audio</mediatype>
                                <effectcategory>audiopan</effectcategory>
                                <parameter>
                                    <name>Pan</name>
                                    <parameterid>pan</parameterid>
                                    <value>0</value>
                                    <valuemin>-1</valuemin>
                                    <valuemax>1</valuemax>
                                </parameter>
                            </effect>
                        </filter>
                        <link>
                            <linkclipref>SecondScenePark.3.4.Take2.WAV 3</linkclipref>
                            <mediatype>audio</mediatype>
                        </link>
                        <link>
                            <linkclipref>SecondScenePark.3.4.Take2.WAV 2</linkclipref>
                            <mediatype>audio</mediatype>
                        </link>
                        <link>
                            <linkclipref>SecondScenePark.3.4.Take2.WAV 0</linkclipref>
                            <mediatype>audio</mediatype>
                        </link>
                        <link>
                            <linkclipref>SecondScenePark.3.4.Take2.WAV 4</linkclipref>
                        </link>
                        <link>
                            <linkclipref>SecondScenePark.3.4.Take2.WAV 5</linkclipref>
                        </link>
                        <comments/>
                    </clipitem>
                    <clipitem id="SecondScenePark.3.5.Apple.Take1.WAV 4">
                        <name>SecondScenePark.3.5.Apple.Take1.WAV</name>
                        <duration>885</duration>
                        <rate>
                            <timebase>24</timebase>
                            <ntsc>TRUE</ntsc>
                        </rate>
                        <start>33446</start>
                        <end>34224</end>
                        <enabled>TRUE</enabled>
                        <in>0</in>
                        <out>778</out>
                        <file id="SecondScenePark.3.5.Apple.Take1.WAV 1"/>
                        <sourcetrack>
                            <mediatype>audio</mediatype>
                            <trackindex>4</trackindex>
                        </sourcetrack>
                        <filter>
                            <enabled>TRUE</enabled>
                            <start>0</start>
                            <end>885</end>
                            <effect>
                                <name>Audio Levels</name>
                                <effectid>audiolevels</effectid>
                                <effecttype>audiolevels</effecttype>
                                <mediatype>audio</mediatype>
                                <effectcategory>audiolevels</effectcategory>
                                <parameter>
                                    <name>Level</name>
                                    <parameterid>level</parameterid>
                                    <value>1</value>
                                    <valuemin>1e-05</valuemin>
                                    <valuemax>31.6228</valuemax>
                                </parameter>
                            </effect>
                        </filter>
                        <filter>
                            <enabled>TRUE</enabled>
                            <start>0</start>
                            <end>885</end>
                            <effect>
                                <name>Audio Pan</name>
                                <effectid>audiopan</effectid>
                                <effecttype>audiopan</effecttype>
                                <mediatype>audio</mediatype>
                                <effectcategory>audiopan</effectcategory>
                                <parameter>
                                    <name>Pan</name>
                                    <parameterid>pan</parameterid>
                                    <value>0</value>
                                    <valuemin>-1</valuemin>
                                    <valuemax>1</valuemax>
                                </parameter>
                            </effect>
                        </filter>
                        <link>
                            <linkclipref>SecondScenePark.3.5.Apple.Take1.WAV 3</linkclipref>
                            <mediatype>audio</mediatype>
                        </link>
                        <link>
                            <linkclipref>SecondScenePark.3.5.Apple.Take1.WAV 2</linkclipref>
                            <mediatype>audio</mediatype>
                        </link>
                        <link>
                            <linkclipref>SecondScenePark.3.5.Apple.Take1.WAV 0</linkclipref>
                            <mediatype>audio</mediatype>
                        </link>
                        <link>
                            <linkclipref>SecondScenePark.3.5.Apple.Take1.WAV 4</linkclipref>
                        </link>
                        <link>
                            <linkclipref>SecondScenePark.3.5.Apple.Take1.WAV 5</linkclipref>
                        </link>
                        <comments/>
                    </clipitem>
                    <clipitem id="SecondScenePark.3.5.Banana.Take1.WAV 4">
                        <name>SecondScenePark.3.5.Banana.Take1.WAV</name>
                        <duration>1340</duration>
                        <rate>
                            <timebase>24</timebase>
                            <ntsc>TRUE</ntsc>
                        </rate>
                        <start>34224</start>
                        <end>35150</end>
                        <enabled>TRUE</enabled>
                        <in>414</in>
                        <out>1340</out>
                        <file id="SecondScenePark.3.5.Banana.Take1.WAV 1"/>
                        <sourcetrack>
                            <mediatype>audio</mediatype>
                            <trackindex>4</trackindex>
                        </sourcetrack>
                        <filter>
                            <enabled>TRUE</enabled>
                            <start>0</start>
                            <end>1340</end>
                            <effect>
                                <name>Audio Levels</name>
                                <effectid>audiolevels</effectid>
                                <effecttype>audiolevels</effecttype>
                                <mediatype>audio</mediatype>
                                <effectcategory>audiolevels</effectcategory>
                                <parameter>
                                    <name>Level</name>
                                    <parameterid>level</parameterid>
                                    <value>1</value>
                                    <valuemin>1e-05</valuemin>
                                    <valuemax>31.6228</valuemax>
                                </parameter>
                            </effect>
                        </filter>
                        <filter>
                            <enabled>TRUE</enabled>
                            <start>0</start>
                            <end>1340</end>
                            <effect>
                                <name>Audio Pan</name>
                                <effectid>audiopan</effectid>
                                <effecttype>audiopan</effecttype>
                                <mediatype>audio</mediatype>
                                <effectcategory>audiopan</effectcategory>
                                <parameter>
                                    <name>Pan</name>
                                    <parameterid>pan</parameterid>
                                    <value>0</value>
                                    <valuemin>-1</valuemin>
                                    <valuemax>1</valuemax>
                                </parameter>
                            </effect>
                        </filter>
                        <link>
                            <linkclipref>SecondScenePark.3.5.Banana.Take1.WAV 3</linkclipref>
                            <mediatype>audio</mediatype>
                        </link>
                        <link>
                            <linkclipref>SecondScenePark.3.5.Banana.Take1.WAV 2</linkclipref>
                            <mediatype>audio</mediatype>
                        </link>
                        <link>
                            <linkclipref>SecondScenePark.3.5.Banana.Take1.WAV 0</linkclipref>
                            <mediatype>audio</mediatype>
                        </link>
                        <link>
                            <linkclipref>SecondScenePark.3.5.Banana.Take1.WAV 4</linkclipref>
                        </link>
                        <link>
                            <linkclipref>SecondScenePark.3.5.Banana.Take1.WAV 5</linkclipref>
                        </link>
                        <comments/>
                    </clipitem>
                    <clipitem id="SecondScenePark.3.5.Take1.WAV 4">
                        <name>SecondScenePark.3.5.Take1.WAV</name>
                        <duration>1038</duration>
                        <rate>
                            <timebase>24</timebase>
                            <ntsc>TRUE</ntsc>
                        </rate>
                        <start>35158</start>
                        <end>36196</end>
                        <enabled>TRUE</enabled>
                        <in>0</in>
                        <out>1038</out>
                        <file id="SecondScenePark.3.5.Take1.WAV 1"/>
                        <sourcetrack>
                            <mediatype>audio</mediatype>
                            <trackindex>4</trackindex>
                        </sourcetrack>
                        <filter>
                            <enabled>TRUE</enabled>
                            <start>0</start>
                            <end>1038</end>
                            <effect>
                                <name>Audio Levels</name>
                                <effectid>audiolevels</effectid>
                                <effecttype>audiolevels</effecttype>
                                <mediatype>audio</mediatype>
                                <effectcategory>audiolevels</effectcategory>
                                <parameter>
                                    <name>Level</name>
                                    <parameterid>level</parameterid>
                                    <value>1</value>
                                    <valuemin>1e-05</valuemin>
                                    <valuemax>31.6228</valuemax>
                                </parameter>
                            </effect>
                        </filter>
                        <filter>
                            <enabled>TRUE</enabled>
                            <start>0</start>
                            <end>1038</end>
                            <effect>
                                <name>Audio Pan</name>
                                <effectid>audiopan</effectid>
                                <effecttype>audiopan</effecttype>
                                <mediatype>audio</mediatype>
                                <effectcategory>audiopan</effectcategory>
                                <parameter>
                                    <name>Pan</name>
                                    <parameterid>pan</parameterid>
                                    <value>0</value>
                                    <valuemin>-1</valuemin>
                                    <valuemax>1</valuemax>
                                </parameter>
                            </effect>
                        </filter>
                        <link>
                            <linkclipref>SecondScenePark.3.5.Take1.WAV 0</linkclipref>
                            <mediatype>audio</mediatype>
                        </link>
                        <link>
                            <linkclipref>SecondScenePark.3.5.Take1.WAV 3</linkclipref>
                            <mediatype>audio</mediatype>
                        </link>
                        <link>
                            <linkclipref>SecondScenePark.3.5.Take1.WAV 2</linkclipref>
                            <mediatype>audio</mediatype>
                        </link>
                        <link>
                            <linkclipref>SecondScenePark.3.5.Take1.WAV 4</linkclipref>
                        </link>
                        <link>
                            <linkclipref>SecondScenePark.3.5.Take1.WAV 5</linkclipref>
                        </link>
                        <comments/>
                    </clipitem>
                    <clipitem id="SecondScenePark.3.5.Take2.WAV 4">
                        <name>SecondScenePark.3.5.Take2.WAV</name>
                        <duration>781</duration>
                        <rate>
                            <timebase>24</timebase>
                            <ntsc>TRUE</ntsc>
                        </rate>
                        <start>36341</start>
                        <end>37122</end>
                        <enabled>TRUE</enabled>
                        <in>0</in>
                        <out>781</out>
                        <file id="SecondScenePark.3.5.Take2.WAV 1"/>
                        <sourcetrack>
                            <mediatype>audio</mediatype>
                            <trackindex>4</trackindex>
                        </sourcetrack>
                        <filter>
                            <enabled>TRUE</enabled>
                            <start>0</start>
                            <end>781</end>
                            <effect>
                                <name>Audio Levels</name>
                                <effectid>audiolevels</effectid>
                                <effecttype>audiolevels</effecttype>
                                <mediatype>audio</mediatype>
                                <effectcategory>audiolevels</effectcategory>
                                <parameter>
                                    <name>Level</name>
                                    <parameterid>level</parameterid>
                                    <value>1</value>
                                    <valuemin>1e-05</valuemin>
                                    <valuemax>31.6228</valuemax>
                                </parameter>
                            </effect>
                        </filter>
                        <filter>
                            <enabled>TRUE</enabled>
                            <start>0</start>
                            <end>781</end>
                            <effect>
                                <name>Audio Pan</name>
                                <effectid>audiopan</effectid>
                                <effecttype>audiopan</effecttype>
                                <mediatype>audio</mediatype>
                                <effectcategory>audiopan</effectcategory>
                                <parameter>
                                    <name>Pan</name>
                                    <parameterid>pan</parameterid>
                                    <value>0</value>
                                    <valuemin>-1</valuemin>
                                    <valuemax>1</valuemax>
                                </parameter>
                            </effect>
                        </filter>
                        <link>
                            <linkclipref>SecondScenePark.3.5.Take2.WAV 3</linkclipref>
                            <mediatype>audio</mediatype>
                        </link>
                        <link>
                            <linkclipref>SecondScenePark.3.5.Take2.WAV 2</linkclipref>
                            <mediatype>audio</mediatype>
                        </link>
                        <link>
                            <linkclipref>SecondScenePark.3.5.Take2.WAV 0</linkclipref>
                            <mediatype>audio</mediatype>
                        </link>
                        <link>
                            <linkclipref>SecondScenePark.3.5.Take2.WAV 4</linkclipref>
                        </link>
                        <link>
                            <linkclipref>SecondScenePark.3.5.Take2.WAV 5</linkclipref>
                        </link>
                        <comments/>
                    </clipitem>
                    <clipitem id="SecondScenePark.3.5.Caw.Take1.WAV 4">
                        <name>SecondScenePark.3.5.Caw.Take1.WAV</name>
                        <duration>717</duration>
                        <rate>
                            <timebase>24</timebase>
                            <ntsc>TRUE</ntsc>
                        </rate>
                        <start>37442</start>
                        <end>37840</end>
                        <enabled>TRUE</enabled>
                        <in>0</in>
                        <out>397</out>
                        <file id="SecondScenePark.3.5.Caw.Take1.WAV 1"/>
                        <sourcetrack>
                            <mediatype>audio</mediatype>
                            <trackindex>4</trackindex>
                        </sourcetrack>
                        <filter>
                            <enabled>TRUE</enabled>
                            <start>0</start>
                            <end>717</end>
                            <effect>
                                <name>Audio Levels</name>
                                <effectid>audiolevels</effectid>
                                <effecttype>audiolevels</effecttype>
                                <mediatype>audio</mediatype>
                                <effectcategory>audiolevels</effectcategory>
                                <parameter>
                                    <name>Level</name>
                                    <parameterid>level</parameterid>
                                    <value>1</value>
                                    <valuemin>1e-05</valuemin>
                                    <valuemax>31.6228</valuemax>
                                </parameter>
                            </effect>
                        </filter>
                        <filter>
                            <enabled>TRUE</enabled>
                            <start>0</start>
                            <end>717</end>
                            <effect>
                                <name>Audio Pan</name>
                                <effectid>audiopan</effectid>
                                <effecttype>audiopan</effecttype>
                                <mediatype>audio</mediatype>
                                <effectcategory>audiopan</effectcategory>
                                <parameter>
                                    <name>Pan</name>
                                    <parameterid>pan</parameterid>
                                    <value>0</value>
                                    <valuemin>-1</valuemin>
                                    <valuemax>1</valuemax>
                                </parameter>
                            </effect>
                        </filter>
                        <link>
                            <linkclipref>SecondScenePark.3.5.Caw.Take1.WAV 0</linkclipref>
                            <mediatype>audio</mediatype>
                        </link>
                        <link>
                            <linkclipref>SecondScenePark.3.5.Caw.Take1.WAV 3</linkclipref>
                            <mediatype>audio</mediatype>
                        </link>
                        <link>
                            <linkclipref>SecondScenePark.3.5.Caw.Take1.WAV 2</linkclipref>
                            <mediatype>audio</mediatype>
                        </link>
                        <link>
                            <linkclipref>SecondScenePark.3.5.Caw.Take1.WAV 4</linkclipref>
                        </link>
                        <comments/>
                    </clipitem>
                    <clipitem id="SecondScenePark.3.5.Caw.Take2.WAV 4">
                        <name>SecondScenePark.3.5.Caw.Take2.WAV</name>
                        <duration>582</duration>
                        <rate>
                            <timebase>24</timebase>
                            <ntsc>TRUE</ntsc>
                        </rate>
                        <start>37840</start>
                        <end>38422</end>
                        <enabled>TRUE</enabled>
                        <in>0</in>
                        <out>582</out>
                        <file id="SecondScenePark.3.5.Caw.Take2.WAV 1"/>
                        <sourcetrack>
                            <mediatype>audio</mediatype>
                            <trackindex>4</trackindex>
                        </sourcetrack>
                        <filter>
                            <enabled>TRUE</enabled>
                            <start>0</start>
                            <end>582</end>
                            <effect>
                                <name>Audio Levels</name>
                                <effectid>audiolevels</effectid>
                                <effecttype>audiolevels</effecttype>
                                <mediatype>audio</mediatype>
                                <effectcategory>audiolevels</effectcategory>
                                <parameter>
                                    <name>Level</name>
                                    <parameterid>level</parameterid>
                                    <value>1</value>
                                    <valuemin>1e-05</valuemin>
                                    <valuemax>31.6228</valuemax>
                                </parameter>
                            </effect>
                        </filter>
                        <filter>
                            <enabled>TRUE</enabled>
                            <start>0</start>
                            <end>582</end>
                            <effect>
                                <name>Audio Pan</name>
                                <effectid>audiopan</effectid>
                                <effecttype>audiopan</effecttype>
                                <mediatype>audio</mediatype>
                                <effectcategory>audiopan</effectcategory>
                                <parameter>
                                    <name>Pan</name>
                                    <parameterid>pan</parameterid>
                                    <value>0</value>
                                    <valuemin>-1</valuemin>
                                    <valuemax>1</valuemax>
                                </parameter>
                            </effect>
                        </filter>
                        <link>
                            <linkclipref>SecondScenePark.3.5.Caw.Take2.WAV 3</linkclipref>
                            <mediatype>audio</mediatype>
                        </link>
                        <link>
                            <linkclipref>SecondScenePark.3.5.Caw.Take2.WAV 2</linkclipref>
                            <mediatype>audio</mediatype>
                        </link>
                        <link>
                            <linkclipref>SecondScenePark.3.5.Caw.Take2.WAV 0</linkclipref>
                            <mediatype>audio</mediatype>
                        </link>
                        <link>
                            <linkclipref>SecondScenePark.3.5.Caw.Take2.WAV 4</linkclipref>
                        </link>
                        <comments/>
                    </clipitem>
                    <clipitem id="SecondScenePark.4.1.Take3.WAV 4">
                        <name>SecondScenePark.4.1.Take3.WAV</name>
                        <duration>371</duration>
                        <rate>
                            <timebase>24</timebase>
                            <ntsc>TRUE</ntsc>
                        </rate>
                        <start>38714</start>
                        <end>39085</end>
                        <enabled>TRUE</enabled>
                        <in>0</in>
                        <out>371</out>
                        <file id="SecondScenePark.4.1.Take3.WAV 1"/>
                        <sourcetrack>
                            <mediatype>audio</mediatype>
                            <trackindex>4</trackindex>
                        </sourcetrack>
                        <filter>
                            <enabled>TRUE</enabled>
                            <start>0</start>
                            <end>371</end>
                            <effect>
                                <name>Audio Levels</name>
                                <effectid>audiolevels</effectid>
                                <effecttype>audiolevels</effecttype>
                                <mediatype>audio</mediatype>
                                <effectcategory>audiolevels</effectcategory>
                                <parameter>
                                    <name>Level</name>
                                    <parameterid>level</parameterid>
                                    <value>1</value>
                                    <valuemin>1e-05</valuemin>
                                    <valuemax>31.6228</valuemax>
                                </parameter>
                            </effect>
                        </filter>
                        <filter>
                            <enabled>TRUE</enabled>
                            <start>0</start>
                            <end>371</end>
                            <effect>
                                <name>Audio Pan</name>
                                <effectid>audiopan</effectid>
                                <effecttype>audiopan</effecttype>
                                <mediatype>audio</mediatype>
                                <effectcategory>audiopan</effectcategory>
                                <parameter>
                                    <name>Pan</name>
                                    <parameterid>pan</parameterid>
                                    <value>0</value>
                                    <valuemin>-1</valuemin>
                                    <valuemax>1</valuemax>
                                </parameter>
                            </effect>
                        </filter>
                        <link>
                            <linkclipref>SecondScenePark.4.1.Take3.WAV 3</linkclipref>
                            <mediatype>audio</mediatype>
                        </link>
                        <link>
                            <linkclipref>SecondScenePark.4.1.Take3.WAV 2</linkclipref>
                            <mediatype>audio</mediatype>
                        </link>
                        <link>
                            <linkclipref>SecondScenePark.4.1.Take3.WAV 0</linkclipref>
                            <mediatype>audio</mediatype>
                        </link>
                        <link>
                            <linkclipref>SecondScenePark.4.1.Take3.WAV 4</linkclipref>
                        </link>
                        <comments/>
                    </clipitem>
                    <clipitem id="SecondScenePark.4.Take1.WAV 4">
                        <name>SecondScenePark.4.Take1.WAV</name>
                        <duration>1349</duration>
                        <rate>
                            <timebase>24</timebase>
                            <ntsc>TRUE</ntsc>
                        </rate>
                        <start>39101</start>
                        <end>39667</end>
                        <enabled>TRUE</enabled>
                        <in>0</in>
                        <out>566</out>
                        <file id="SecondScenePark.4.Take1.WAV 1"/>
                        <sourcetrack>
                            <mediatype>audio</mediatype>
                            <trackindex>4</trackindex>
                        </sourcetrack>
                        <filter>
                            <enabled>TRUE</enabled>
                            <start>0</start>
                            <end>1349</end>
                            <effect>
                                <name>Audio Levels</name>
                                <effectid>audiolevels</effectid>
                                <effecttype>audiolevels</effecttype>
                                <mediatype>audio</mediatype>
                                <effectcategory>audiolevels</effectcategory>
                                <parameter>
                                    <name>Level</name>
                                    <parameterid>level</parameterid>
                                    <value>1</value>
                                    <valuemin>1e-05</valuemin>
                                    <valuemax>31.6228</valuemax>
                                </parameter>
                            </effect>
                        </filter>
                        <filter>
                            <enabled>TRUE</enabled>
                            <start>0</start>
                            <end>1349</end>
                            <effect>
                                <name>Audio Pan</name>
                                <effectid>audiopan</effectid>
                                <effecttype>audiopan</effecttype>
                                <mediatype>audio</mediatype>
                                <effectcategory>audiopan</effectcategory>
                                <parameter>
                                    <name>Pan</name>
                                    <parameterid>pan</parameterid>
                                    <value>0</value>
                                    <valuemin>-1</valuemin>
                                    <valuemax>1</valuemax>
                                </parameter>
                            </effect>
                        </filter>
                        <link>
                            <linkclipref>SecondScenePark.4.Take1.WAV 3</linkclipref>
                            <mediatype>audio</mediatype>
                        </link>
                        <link>
                            <linkclipref>SecondScenePark.4.Take1.WAV 2</linkclipref>
                            <mediatype>audio</mediatype>
                        </link>
                        <link>
                            <linkclipref>SecondScenePark.4.Take1.WAV 0</linkclipref>
                            <mediatype>audio</mediatype>
                        </link>
                        <link>
                            <linkclipref>SecondScenePark.4.Take1.WAV 4</linkclipref>
                        </link>
                        <comments/>
                    </clipitem>
                    <clipitem id="SecondScenePark.4.Take2.WAV 4">
                        <name>SecondScenePark.4.Take2.WAV</name>
                        <duration>838</duration>
                        <rate>
                            <timebase>24</timebase>
                            <ntsc>TRUE</ntsc>
                        </rate>
                        <start>39667</start>
                        <end>40417</end>
                        <enabled>TRUE</enabled>
                        <in>63</in>
                        <out>812</out>
                        <file id="SecondScenePark.4.Take2.WAV 1"/>
                        <sourcetrack>
                            <mediatype>audio</mediatype>
                            <trackindex>4</trackindex>
                        </sourcetrack>
                        <filter>
                            <enabled>TRUE</enabled>
                            <start>0</start>
                            <end>838</end>
                            <effect>
                                <name>Audio Levels</name>
                                <effectid>audiolevels</effectid>
                                <effecttype>audiolevels</effecttype>
                                <mediatype>audio</mediatype>
                                <effectcategory>audiolevels</effectcategory>
                                <parameter>
                                    <name>Level</name>
                                    <parameterid>level</parameterid>
                                    <value>1</value>
                                    <valuemin>1e-05</valuemin>
                                    <valuemax>31.6228</valuemax>
                                </parameter>
                            </effect>
                        </filter>
                        <filter>
                            <enabled>TRUE</enabled>
                            <start>0</start>
                            <end>838</end>
                            <effect>
                                <name>Audio Pan</name>
                                <effectid>audiopan</effectid>
                                <effecttype>audiopan</effecttype>
                                <mediatype>audio</mediatype>
                                <effectcategory>audiopan</effectcategory>
                                <parameter>
                                    <name>Pan</name>
                                    <parameterid>pan</parameterid>
                                    <value>0</value>
                                    <valuemin>-1</valuemin>
                                    <valuemax>1</valuemax>
                                </parameter>
                            </effect>
                        </filter>
                        <link>
                            <linkclipref>SecondScenePark.4.Take2.WAV 3</linkclipref>
                            <mediatype>audio</mediatype>
                        </link>
                        <link>
                            <linkclipref>SecondScenePark.4.Take2.WAV 2</linkclipref>
                            <mediatype>audio</mediatype>
                        </link>
                        <link>
                            <linkclipref>SecondScenePark.4.Take2.WAV 0</linkclipref>
                            <mediatype>audio</mediatype>
                        </link>
                        <link>
                            <linkclipref>SecondScenePark.4.Take2.WAV 4</linkclipref>
                        </link>
                        <comments/>
                    </clipitem>
                    <clipitem id="SecondScenePark.4.Take3.WAV 4">
                        <name>SecondScenePark.4.Take3.WAV</name>
                        <duration>607</duration>
                        <rate>
                            <timebase>24</timebase>
                            <ntsc>TRUE</ntsc>
                        </rate>
                        <start>40417</start>
                        <end>41021</end>
                        <enabled>TRUE</enabled>
                        <in>1</in>
                        <out>606</out>
                        <file id="SecondScenePark.4.Take3.WAV 1"/>
                        <sourcetrack>
                            <mediatype>audio</mediatype>
                            <trackindex>4</trackindex>
                        </sourcetrack>
                        <filter>
                            <enabled>TRUE</enabled>
                            <start>0</start>
                            <end>607</end>
                            <effect>
                                <name>Audio Levels</name>
                                <effectid>audiolevels</effectid>
                                <effecttype>audiolevels</effecttype>
                                <mediatype>audio</mediatype>
                                <effectcategory>audiolevels</effectcategory>
                                <parameter>
                                    <name>Level</name>
                                    <parameterid>level</parameterid>
                                    <value>1</value>
                                    <valuemin>1e-05</valuemin>
                                    <valuemax>31.6228</valuemax>
                                </parameter>
                            </effect>
                        </filter>
                        <filter>
                            <enabled>TRUE</enabled>
                            <start>0</start>
                            <end>607</end>
                            <effect>
                                <name>Audio Pan</name>
                                <effectid>audiopan</effectid>
                                <effecttype>audiopan</effecttype>
                                <mediatype>audio</mediatype>
                                <effectcategory>audiopan</effectcategory>
                                <parameter>
                                    <name>Pan</name>
                                    <parameterid>pan</parameterid>
                                    <value>0</value>
                                    <valuemin>-1</valuemin>
                                    <valuemax>1</valuemax>
                                </parameter>
                            </effect>
                        </filter>
                        <link>
                            <linkclipref>SecondScenePark.4.Take3.WAV 0</linkclipref>
                            <mediatype>audio</mediatype>
                        </link>
                        <link>
                            <linkclipref>SecondScenePark.4.Take3.WAV 3</linkclipref>
                            <mediatype>audio</mediatype>
                        </link>
                        <link>
                            <linkclipref>SecondScenePark.4.Take3.WAV 2</linkclipref>
                            <mediatype>audio</mediatype>
                        </link>
                        <link>
                            <linkclipref>SecondScenePark.4.Take3.WAV 4</linkclipref>
                        </link>
                        <comments/>
                    </clipitem>
                    <clipitem id="SecondScenePark.4.Take4.WAV 4">
                        <name>SecondScenePark.4.Take4.WAV</name>
                        <duration>743</duration>
                        <rate>
                            <timebase>24</timebase>
                            <ntsc>TRUE</ntsc>
                        </rate>
                        <start>41021</start>
                        <end>41564</end>
                        <enabled>TRUE</enabled>
                        <in>23</in>
                        <out>565</out>
                        <file id="SecondScenePark.4.Take4.WAV 1"/>
                        <sourcetrack>
                            <mediatype>audio</mediatype>
                            <trackindex>4</trackindex>
                        </sourcetrack>
                        <filter>
                            <enabled>TRUE</enabled>
                            <start>0</start>
                            <end>743</end>
                            <effect>
                                <name>Audio Levels</name>
                                <effectid>audiolevels</effectid>
                                <effecttype>audiolevels</effecttype>
                                <mediatype>audio</mediatype>
                                <effectcategory>audiolevels</effectcategory>
                                <parameter>
                                    <name>Level</name>
                                    <parameterid>level</parameterid>
                                    <value>1</value>
                                    <valuemin>1e-05</valuemin>
                                    <valuemax>31.6228</valuemax>
                                </parameter>
                            </effect>
                        </filter>
                        <filter>
                            <enabled>TRUE</enabled>
                            <start>0</start>
                            <end>743</end>
                            <effect>
                                <name>Audio Pan</name>
                                <effectid>audiopan</effectid>
                                <effecttype>audiopan</effecttype>
                                <mediatype>audio</mediatype>
                                <effectcategory>audiopan</effectcategory>
                                <parameter>
                                    <name>Pan</name>
                                    <parameterid>pan</parameterid>
                                    <value>0</value>
                                    <valuemin>-1</valuemin>
                                    <valuemax>1</valuemax>
                                </parameter>
                            </effect>
                        </filter>
                        <link>
                            <linkclipref>SecondScenePark.4.Take4.WAV 0</linkclipref>
                            <mediatype>audio</mediatype>
                        </link>
                        <link>
                            <linkclipref>SecondScenePark.4.Take4.WAV 3</linkclipref>
                            <mediatype>audio</mediatype>
                        </link>
                        <link>
                            <linkclipref>SecondScenePark.4.Take4.WAV 2</linkclipref>
                            <mediatype>audio</mediatype>
                        </link>
                        <link>
                            <linkclipref>SecondScenePark.4.Take4.WAV 4</linkclipref>
                        </link>
                        <comments/>
                    </clipitem>
                    <clipitem id="SecondScenePark.4.1.Take1.WAV 4">
                        <name>SecondScenePark.4.1.Take1.WAV</name>
                        <duration>757</duration>
                        <rate>
                            <timebase>24</timebase>
                            <ntsc>TRUE</ntsc>
                        </rate>
                        <start>41591</start>
                        <end>42308</end>
                        <enabled>TRUE</enabled>
                        <in>0</in>
                        <out>717</out>
                        <file id="SecondScenePark.4.1.Take1.WAV 1"/>
                        <sourcetrack>
                            <mediatype>audio</mediatype>
                            <trackindex>4</trackindex>
                        </sourcetrack>
                        <filter>
                            <enabled>TRUE</enabled>
                            <start>0</start>
                            <end>757</end>
                            <effect>
                                <name>Audio Levels</name>
                                <effectid>audiolevels</effectid>
                                <effecttype>audiolevels</effecttype>
                                <mediatype>audio</mediatype>
                                <effectcategory>audiolevels</effectcategory>
                                <parameter>
                                    <name>Level</name>
                                    <parameterid>level</parameterid>
                                    <value>1</value>
                                    <valuemin>1e-05</valuemin>
                                    <valuemax>31.6228</valuemax>
                                </parameter>
                            </effect>
                        </filter>
                        <filter>
                            <enabled>TRUE</enabled>
                            <start>0</start>
                            <end>757</end>
                            <effect>
                                <name>Audio Pan</name>
                                <effectid>audiopan</effectid>
                                <effecttype>audiopan</effecttype>
                                <mediatype>audio</mediatype>
                                <effectcategory>audiopan</effectcategory>
                                <parameter>
                                    <name>Pan</name>
                                    <parameterid>pan</parameterid>
                                    <value>0</value>
                                    <valuemin>-1</valuemin>
                                    <valuemax>1</valuemax>
                                </parameter>
                            </effect>
                        </filter>
                        <link>
                            <linkclipref>SecondScenePark.4.1.Take1.WAV 3</linkclipref>
                            <mediatype>audio</mediatype>
                        </link>
                        <link>
                            <linkclipref>SecondScenePark.4.1.Take1.WAV 2</linkclipref>
                            <mediatype>audio</mediatype>
                        </link>
                        <link>
                            <linkclipref>SecondScenePark.4.1.Take1.WAV 0</linkclipref>
                            <mediatype>audio</mediatype>
                        </link>
                        <link>
                            <linkclipref>SecondScenePark.4.1.Take1.WAV 4</linkclipref>
                        </link>
                        <comments/>
                    </clipitem>
                    <clipitem id="SecondScenePark.4.1.Take2.WAV 4">
                        <name>SecondScenePark.4.1.Take2.WAV</name>
                        <duration>684</duration>
                        <rate>
                            <timebase>24</timebase>
                            <ntsc>TRUE</ntsc>
                        </rate>
                        <start>42308</start>
                        <end>42938</end>
                        <enabled>TRUE</enabled>
                        <in>54</in>
                        <out>683</out>
                        <file id="SecondScenePark.4.1.Take2.WAV 1"/>
                        <sourcetrack>
                            <mediatype>audio</mediatype>
                            <trackindex>4</trackindex>
                        </sourcetrack>
                        <filter>
                            <enabled>TRUE</enabled>
                            <start>0</start>
                            <end>684</end>
                            <effect>
                                <name>Audio Levels</name>
                                <effectid>audiolevels</effectid>
                                <effecttype>audiolevels</effecttype>
                                <mediatype>audio</mediatype>
                                <effectcategory>audiolevels</effectcategory>
                                <parameter>
                                    <name>Level</name>
                                    <parameterid>level</parameterid>
                                    <value>1</value>
                                    <valuemin>1e-05</valuemin>
                                    <valuemax>31.6228</valuemax>
                                </parameter>
                            </effect>
                        </filter>
                        <filter>
                            <enabled>TRUE</enabled>
                            <start>0</start>
                            <end>684</end>
                            <effect>
                                <name>Audio Pan</name>
                                <effectid>audiopan</effectid>
                                <effecttype>audiopan</effecttype>
                                <mediatype>audio</mediatype>
                                <effectcategory>audiopan</effectcategory>
                                <parameter>
                                    <name>Pan</name>
                                    <parameterid>pan</parameterid>
                                    <value>0</value>
                                    <valuemin>-1</valuemin>
                                    <valuemax>1</valuemax>
                                </parameter>
                            </effect>
                        </filter>
                        <link>
                            <linkclipref>SecondScenePark.4.1.Take2.WAV 3</linkclipref>
                            <mediatype>audio</mediatype>
                        </link>
                        <link>
                            <linkclipref>SecondScenePark.4.1.Take2.WAV 2</linkclipref>
                            <mediatype>audio</mediatype>
                        </link>
                        <link>
                            <linkclipref>SecondScenePark.4.1.Take2.WAV 0</linkclipref>
                            <mediatype>audio</mediatype>
                        </link>
                        <link>
                            <linkclipref>SecondScenePark.4.1.Take2.WAV 4</linkclipref>
                        </link>
                        <comments/>
                    </clipitem>
                    <clipitem id="SecondScenePark.5.Take1.WAV 4">
                        <name>SecondScenePark.5.Take1.WAV</name>
                        <duration>1020</duration>
                        <rate>
                            <timebase>24</timebase>
                            <ntsc>TRUE</ntsc>
                        </rate>
                        <start>42987</start>
                        <end>44007</end>
                        <enabled>TRUE</enabled>
                        <in>0</in>
                        <out>1020</out>
                        <file id="SecondScenePark.5.Take1.WAV 1"/>
                        <sourcetrack>
                            <mediatype>audio</mediatype>
                            <trackindex>4</trackindex>
                        </sourcetrack>
                        <filter>
                            <enabled>TRUE</enabled>
                            <start>0</start>
                            <end>1020</end>
                            <effect>
                                <name>Audio Levels</name>
                                <effectid>audiolevels</effectid>
                                <effecttype>audiolevels</effecttype>
                                <mediatype>audio</mediatype>
                                <effectcategory>audiolevels</effectcategory>
                                <parameter>
                                    <name>Level</name>
                                    <parameterid>level</parameterid>
                                    <value>1</value>
                                    <valuemin>1e-05</valuemin>
                                    <valuemax>31.6228</valuemax>
                                </parameter>
                            </effect>
                        </filter>
                        <filter>
                            <enabled>TRUE</enabled>
                            <start>0</start>
                            <end>1020</end>
                            <effect>
                                <name>Audio Pan</name>
                                <effectid>audiopan</effectid>
                                <effecttype>audiopan</effecttype>
                                <mediatype>audio</mediatype>
                                <effectcategory>audiopan</effectcategory>
                                <parameter>
                                    <name>Pan</name>
                                    <parameterid>pan</parameterid>
                                    <value>0</value>
                                    <valuemin>-1</valuemin>
                                    <valuemax>1</valuemax>
                                </parameter>
                            </effect>
                        </filter>
                        <link>
                            <linkclipref>SecondScenePark.5.Take1.WAV 3</linkclipref>
                            <mediatype>audio</mediatype>
                        </link>
                        <link>
                            <linkclipref>SecondScenePark.5.Take1.WAV 2</linkclipref>
                            <mediatype>audio</mediatype>
                        </link>
                        <link>
                            <linkclipref>SecondScenePark.5.Take1.WAV 0</linkclipref>
                            <mediatype>audio</mediatype>
                        </link>
                        <link>
                            <linkclipref>SecondScenePark.5.Take1.WAV 4</linkclipref>
                        </link>
                        <comments/>
                    </clipitem>
                    <enabled>TRUE</enabled>
                    <locked>FALSE</locked>
                </track>
                <track>
                    <clipitem id="SecondScenePark.1.Take1.WAV 5">
                        <name>SecondScenePark.1.Take1.WAV</name>
                        <duration>1008</duration>
                        <rate>
                            <timebase>24</timebase>
                            <ntsc>TRUE</ntsc>
                        </rate>
                        <start>5040</start>
                        <end>5998</end>
                        <enabled>TRUE</enabled>
                        <in>0</in>
                        <out>957</out>
                        <file id="SecondScenePark.1.Take1.WAV 1"/>
                        <sourcetrack>
                            <mediatype>audio</mediatype>
                            <trackindex>5</trackindex>
                        </sourcetrack>
                        <filter>
                            <enabled>TRUE</enabled>
                            <start>0</start>
                            <end>1008</end>
                            <effect>
                                <name>Audio Levels</name>
                                <effectid>audiolevels</effectid>
                                <effecttype>audiolevels</effecttype>
                                <mediatype>audio</mediatype>
                                <effectcategory>audiolevels</effectcategory>
                                <parameter>
                                    <name>Level</name>
                                    <parameterid>level</parameterid>
                                    <value>1</value>
                                    <valuemin>1e-05</valuemin>
                                    <valuemax>31.6228</valuemax>
                                </parameter>
                            </effect>
                        </filter>
                        <filter>
                            <enabled>TRUE</enabled>
                            <start>0</start>
                            <end>1008</end>
                            <effect>
                                <name>Audio Pan</name>
                                <effectid>audiopan</effectid>
                                <effecttype>audiopan</effecttype>
                                <mediatype>audio</mediatype>
                                <effectcategory>audiopan</effectcategory>
                                <parameter>
                                    <name>Pan</name>
                                    <parameterid>pan</parameterid>
                                    <value>0</value>
                                    <valuemin>-1</valuemin>
                                    <valuemax>1</valuemax>
                                </parameter>
                            </effect>
                        </filter>
                        <link>
                            <linkclipref>SecondScenePark.1.Take1.WAV 4</linkclipref>
                            <mediatype>audio</mediatype>
                        </link>
                        <link>
                            <linkclipref>SecondScenePark.1.Take1.WAV 3</linkclipref>
                            <mediatype>audio</mediatype>
                        </link>
                        <link>
                            <linkclipref>SecondScenePark.1.Take1.WAV 2</linkclipref>
                            <mediatype>audio</mediatype>
                        </link>
                        <link>
                            <linkclipref>SecondScenePark.1.Take1.WAV 0</linkclipref>
                            <mediatype>audio</mediatype>
                        </link>
                        <link>
                            <linkclipref>SecondScenePark.1.Take1.WAV 5</linkclipref>
                        </link>
                        <comments/>
                    </clipitem>
                    <clipitem id="SecondScenePark.1.Take3.WAV 5">
                        <name>SecondScenePark.1.Take3.WAV</name>
                        <duration>1089</duration>
                        <rate>
                            <timebase>24</timebase>
                            <ntsc>TRUE</ntsc>
                        </rate>
                        <start>5998</start>
                        <end>7087</end>
                        <enabled>TRUE</enabled>
                        <in>0</in>
                        <out>1088</out>
                        <file id="SecondScenePark.1.Take3.WAV 1"/>
                        <sourcetrack>
                            <mediatype>audio</mediatype>
                            <trackindex>5</trackindex>
                        </sourcetrack>
                        <filter>
                            <enabled>TRUE</enabled>
                            <start>0</start>
                            <end>1089</end>
                            <effect>
                                <name>Audio Levels</name>
                                <effectid>audiolevels</effectid>
                                <effecttype>audiolevels</effecttype>
                                <mediatype>audio</mediatype>
                                <effectcategory>audiolevels</effectcategory>
                                <parameter>
                                    <name>Level</name>
                                    <parameterid>level</parameterid>
                                    <value>1</value>
                                    <valuemin>1e-05</valuemin>
                                    <valuemax>31.6228</valuemax>
                                </parameter>
                            </effect>
                        </filter>
                        <filter>
                            <enabled>TRUE</enabled>
                            <start>0</start>
                            <end>1089</end>
                            <effect>
                                <name>Audio Pan</name>
                                <effectid>audiopan</effectid>
                                <effecttype>audiopan</effecttype>
                                <mediatype>audio</mediatype>
                                <effectcategory>audiopan</effectcategory>
                                <parameter>
                                    <name>Pan</name>
                                    <parameterid>pan</parameterid>
                                    <value>0</value>
                                    <valuemin>-1</valuemin>
                                    <valuemax>1</valuemax>
                                </parameter>
                            </effect>
                        </filter>
                        <link>
                            <linkclipref>SecondScenePark.1.Take3.WAV 4</linkclipref>
                            <mediatype>audio</mediatype>
                        </link>
                        <link>
                            <linkclipref>SecondScenePark.1.Take3.WAV 3</linkclipref>
                            <mediatype>audio</mediatype>
                        </link>
                        <link>
                            <linkclipref>SecondScenePark.1.Take3.WAV 2</linkclipref>
                            <mediatype>audio</mediatype>
                        </link>
                        <link>
                            <linkclipref>SecondScenePark.1.Take3.WAV 0</linkclipref>
                            <mediatype>audio</mediatype>
                        </link>
                        <link>
                            <linkclipref>SecondScenePark.1.Take3.WAV 5</linkclipref>
                        </link>
                        <comments/>
                    </clipitem>
                    <clipitem id="SecondScenePark.1.Take2.WAV 5">
                        <name>SecondScenePark.1.Take2.WAV</name>
                        <duration>1118</duration>
                        <rate>
                            <timebase>24</timebase>
                            <ntsc>TRUE</ntsc>
                        </rate>
                        <start>7128</start>
                        <end>8247</end>
                        <enabled>TRUE</enabled>
                        <in>0</in>
                        <out>1118</out>
                        <file id="SecondScenePark.1.Take2.WAV 1"/>
                        <sourcetrack>
                            <mediatype>audio</mediatype>
                            <trackindex>5</trackindex>
                        </sourcetrack>
                        <filter>
                            <enabled>TRUE</enabled>
                            <start>0</start>
                            <end>1118</end>
                            <effect>
                                <name>Audio Levels</name>
                                <effectid>audiolevels</effectid>
                                <effecttype>audiolevels</effecttype>
                                <mediatype>audio</mediatype>
                                <effectcategory>audiolevels</effectcategory>
                                <parameter>
                                    <name>Level</name>
                                    <parameterid>level</parameterid>
                                    <value>1</value>
                                    <valuemin>1e-05</valuemin>
                                    <valuemax>31.6228</valuemax>
                                </parameter>
                            </effect>
                        </filter>
                        <filter>
                            <enabled>TRUE</enabled>
                            <start>0</start>
                            <end>1118</end>
                            <effect>
                                <name>Audio Pan</name>
                                <effectid>audiopan</effectid>
                                <effecttype>audiopan</effecttype>
                                <mediatype>audio</mediatype>
                                <effectcategory>audiopan</effectcategory>
                                <parameter>
                                    <name>Pan</name>
                                    <parameterid>pan</parameterid>
                                    <value>0</value>
                                    <valuemin>-1</valuemin>
                                    <valuemax>1</valuemax>
                                </parameter>
                            </effect>
                        </filter>
                        <link>
                            <linkclipref>SecondScenePark.1.Take2.WAV 4</linkclipref>
                            <mediatype>audio</mediatype>
                        </link>
                        <link>
                            <linkclipref>SecondScenePark.1.Take2.WAV 3</linkclipref>
                            <mediatype>audio</mediatype>
                        </link>
                        <link>
                            <linkclipref>SecondScenePark.1.Take2.WAV 2</linkclipref>
                            <mediatype>audio</mediatype>
                        </link>
                        <link>
                            <linkclipref>SecondScenePark.1.Take2.WAV 0</linkclipref>
                            <mediatype>audio</mediatype>
                        </link>
                        <link>
                            <linkclipref>SecondScenePark.1.Take2.WAV 5</linkclipref>
                        </link>
                        <comments/>
                    </clipitem>
                    <clipitem id="SecondScenePark.3.1.Take1.WAV 5">
                        <name>SecondScenePark.3.1.Take1.WAV</name>
                        <duration>1378</duration>
                        <rate>
                            <timebase>24</timebase>
                            <ntsc>TRUE</ntsc>
                        </rate>
                        <start>19973</start>
                        <end>21202</end>
                        <enabled>TRUE</enabled>
                        <in>0</in>
                        <out>1229</out>
                        <file id="SecondScenePark.3.1.Take1.WAV 1"/>
                        <sourcetrack>
                            <mediatype>audio</mediatype>
                            <trackindex>5</trackindex>
                        </sourcetrack>
                        <filter>
                            <enabled>TRUE</enabled>
                            <start>0</start>
                            <end>1378</end>
                            <effect>
                                <name>Audio Levels</name>
                                <effectid>audiolevels</effectid>
                                <effecttype>audiolevels</effecttype>
                                <mediatype>audio</mediatype>
                                <effectcategory>audiolevels</effectcategory>
                                <parameter>
                                    <name>Level</name>
                                    <parameterid>level</parameterid>
                                    <value>1</value>
                                    <valuemin>1e-05</valuemin>
                                    <valuemax>31.6228</valuemax>
                                </parameter>
                            </effect>
                        </filter>
                        <filter>
                            <enabled>TRUE</enabled>
                            <start>0</start>
                            <end>1378</end>
                            <effect>
                                <name>Audio Pan</name>
                                <effectid>audiopan</effectid>
                                <effecttype>audiopan</effecttype>
                                <mediatype>audio</mediatype>
                                <effectcategory>audiopan</effectcategory>
                                <parameter>
                                    <name>Pan</name>
                                    <parameterid>pan</parameterid>
                                    <value>0</value>
                                    <valuemin>-1</valuemin>
                                    <valuemax>1</valuemax>
                                </parameter>
                            </effect>
                        </filter>
                        <link>
                            <linkclipref>SecondScenePark.3.1.Take1.WAV 4</linkclipref>
                            <mediatype>audio</mediatype>
                        </link>
                        <link>
                            <linkclipref>SecondScenePark.3.1.Take1.WAV 3</linkclipref>
                            <mediatype>audio</mediatype>
                        </link>
                        <link>
                            <linkclipref>SecondScenePark.3.1.Take1.WAV 2</linkclipref>
                            <mediatype>audio</mediatype>
                        </link>
                        <link>
                            <linkclipref>SecondScenePark.3.1.Take1.WAV 0</linkclipref>
                            <mediatype>audio</mediatype>
                        </link>
                        <link>
                            <linkclipref>SecondScenePark.3.1.Take1.WAV 5</linkclipref>
                        </link>
                        <comments/>
                    </clipitem>
                    <clipitem id="SecondScenePark.3.1.Take2.WAV 5">
                        <name>SecondScenePark.3.1.Take2.WAV</name>
                        <duration>1355</duration>
                        <rate>
                            <timebase>24</timebase>
                            <ntsc>TRUE</ntsc>
                        </rate>
                        <start>21202</start>
                        <end>22507</end>
                        <enabled>TRUE</enabled>
                        <in>0</in>
                        <out>1305</out>
                        <file id="SecondScenePark.3.1.Take2.WAV 1"/>
                        <sourcetrack>
                            <mediatype>audio</mediatype>
                            <trackindex>5</trackindex>
                        </sourcetrack>
                        <filter>
                            <enabled>TRUE</enabled>
                            <start>0</start>
                            <end>1355</end>
                            <effect>
                                <name>Audio Levels</name>
                                <effectid>audiolevels</effectid>
                                <effecttype>audiolevels</effecttype>
                                <mediatype>audio</mediatype>
                                <effectcategory>audiolevels</effectcategory>
                                <parameter>
                                    <name>Level</name>
                                    <parameterid>level</parameterid>
                                    <value>1</value>
                                    <valuemin>1e-05</valuemin>
                                    <valuemax>31.6228</valuemax>
                                </parameter>
                            </effect>
                        </filter>
                        <filter>
                            <enabled>TRUE</enabled>
                            <start>0</start>
                            <end>1355</end>
                            <effect>
                                <name>Audio Pan</name>
                                <effectid>audiopan</effectid>
                                <effecttype>audiopan</effecttype>
                                <mediatype>audio</mediatype>
                                <effectcategory>audiopan</effectcategory>
                                <parameter>
                                    <name>Pan</name>
                                    <parameterid>pan</parameterid>
                                    <value>0</value>
                                    <valuemin>-1</valuemin>
                                    <valuemax>1</valuemax>
                                </parameter>
                            </effect>
                        </filter>
                        <link>
                            <linkclipref>SecondScenePark.3.1.Take2.WAV 4</linkclipref>
                            <mediatype>audio</mediatype>
                        </link>
                        <link>
                            <linkclipref>SecondScenePark.3.1.Take2.WAV 3</linkclipref>
                            <mediatype>audio</mediatype>
                        </link>
                        <link>
                            <linkclipref>SecondScenePark.3.1.Take2.WAV 2</linkclipref>
                            <mediatype>audio</mediatype>
                        </link>
                        <link>
                            <linkclipref>SecondScenePark.3.1.Take2.WAV 0</linkclipref>
                            <mediatype>audio</mediatype>
                        </link>
                        <link>
                            <linkclipref>SecondScenePark.3.1.Take2.WAV 5</linkclipref>
                        </link>
                        <comments/>
                    </clipitem>
                    <clipitem id="SecondScenePark.3.2.Banana.Take2.WAV 5">
                        <name>SecondScenePark.3.2.Banana.Take2.WAV</name>
                        <duration>2277</duration>
                        <rate>
                            <timebase>24</timebase>
                            <ntsc>TRUE</ntsc>
                        </rate>
                        <start>22507</start>
                        <end>23927</end>
                        <enabled>TRUE</enabled>
                        <in>856</in>
                        <out>2277</out>
                        <file id="SecondScenePark.3.2.Banana.Take2.WAV 1"/>
                        <sourcetrack>
                            <mediatype>audio</mediatype>
                            <trackindex>5</trackindex>
                        </sourcetrack>
                        <filter>
                            <enabled>TRUE</enabled>
                            <start>0</start>
                            <end>2277</end>
                            <effect>
                                <name>Audio Levels</name>
                                <effectid>audiolevels</effectid>
                                <effecttype>audiolevels</effecttype>
                                <mediatype>audio</mediatype>
                                <effectcategory>audiolevels</effectcategory>
                                <parameter>
                                    <name>Level</name>
                                    <parameterid>level</parameterid>
                                    <value>1</value>
                                    <valuemin>1e-05</valuemin>
                                    <valuemax>31.6228</valuemax>
                                </parameter>
                            </effect>
                        </filter>
                        <filter>
                            <enabled>TRUE</enabled>
                            <start>0</start>
                            <end>2277</end>
                            <effect>
                                <name>Audio Pan</name>
                                <effectid>audiopan</effectid>
                                <effecttype>audiopan</effecttype>
                                <mediatype>audio</mediatype>
                                <effectcategory>audiopan</effectcategory>
                                <parameter>
                                    <name>Pan</name>
                                    <parameterid>pan</parameterid>
                                    <value>0</value>
                                    <valuemin>-1</valuemin>
                                    <valuemax>1</valuemax>
                                </parameter>
                            </effect>
                        </filter>
                        <link>
                            <linkclipref>SecondScenePark.3.2.Banana.Take2.WAV 4</linkclipref>
                            <mediatype>audio</mediatype>
                        </link>
                        <link>
                            <linkclipref>SecondScenePark.3.2.Banana.Take2.WAV 3</linkclipref>
                            <mediatype>audio</mediatype>
                        </link>
                        <link>
                            <linkclipref>SecondScenePark.3.2.Banana.Take2.WAV 2</linkclipref>
                            <mediatype>audio</mediatype>
                        </link>
                        <link>
                            <linkclipref>SecondScenePark.3.2.Banana.Take2.WAV 0</linkclipref>
                            <mediatype>audio</mediatype>
                        </link>
                        <link>
                            <linkclipref>SecondScenePark.3.2.Banana.Take2.WAV 5</linkclipref>
                        </link>
                        <comments/>
                    </clipitem>
                    <clipitem id="SecondScenePark.3.2.Take1.WAV 5">
                        <name>SecondScenePark.3.2.Take1.WAV</name>
                        <duration>1533</duration>
                        <rate>
                            <timebase>24</timebase>
                            <ntsc>TRUE</ntsc>
                        </rate>
                        <start>23979</start>
                        <end>25406</end>
                        <enabled>TRUE</enabled>
                        <in>0</in>
                        <out>1426</out>
                        <file id="SecondScenePark.3.2.Take1.WAV 1"/>
                        <sourcetrack>
                            <mediatype>audio</mediatype>
                            <trackindex>5</trackindex>
                        </sourcetrack>
                        <filter>
                            <enabled>TRUE</enabled>
                            <start>0</start>
                            <end>1533</end>
                            <effect>
                                <name>Audio Levels</name>
                                <effectid>audiolevels</effectid>
                                <effecttype>audiolevels</effecttype>
                                <mediatype>audio</mediatype>
                                <effectcategory>audiolevels</effectcategory>
                                <parameter>
                                    <name>Level</name>
                                    <parameterid>level</parameterid>
                                    <value>1</value>
                                    <valuemin>1e-05</valuemin>
                                    <valuemax>31.6228</valuemax>
                                </parameter>
                            </effect>
                        </filter>
                        <filter>
                            <enabled>TRUE</enabled>
                            <start>0</start>
                            <end>1533</end>
                            <effect>
                                <name>Audio Pan</name>
                                <effectid>audiopan</effectid>
                                <effecttype>audiopan</effecttype>
                                <mediatype>audio</mediatype>
                                <effectcategory>audiopan</effectcategory>
                                <parameter>
                                    <name>Pan</name>
                                    <parameterid>pan</parameterid>
                                    <value>0</value>
                                    <valuemin>-1</valuemin>
                                    <valuemax>1</valuemax>
                                </parameter>
                            </effect>
                        </filter>
                        <link>
                            <linkclipref>SecondScenePark.3.2.Take1.WAV 4</linkclipref>
                            <mediatype>audio</mediatype>
                        </link>
                        <link>
                            <linkclipref>SecondScenePark.3.2.Take1.WAV 3</linkclipref>
                            <mediatype>audio</mediatype>
                        </link>
                        <link>
                            <linkclipref>SecondScenePark.3.2.Take1.WAV 2</linkclipref>
                            <mediatype>audio</mediatype>
                        </link>
                        <link>
                            <linkclipref>SecondScenePark.3.2.Take1.WAV 0</linkclipref>
                            <mediatype>audio</mediatype>
                        </link>
                        <link>
                            <linkclipref>SecondScenePark.3.2.Take1.WAV 5</linkclipref>
                        </link>
                        <comments/>
                    </clipitem>
                    <clipitem id="SecondScenePark.3.2.Take2.WAV 5">
                        <name>SecondScenePark.3.2.Take2.WAV</name>
                        <duration>1544</duration>
                        <rate>
                            <timebase>24</timebase>
                            <ntsc>TRUE</ntsc>
                        </rate>
                        <start>25406</start>
                        <end>26688</end>
                        <enabled>TRUE</enabled>
                        <in>204</in>
                        <out>1486</out>
                        <file id="SecondScenePark.3.2.Take2.WAV 1"/>
                        <sourcetrack>
                            <mediatype>audio</mediatype>
                            <trackindex>5</trackindex>
                        </sourcetrack>
                        <filter>
                            <enabled>TRUE</enabled>
                            <start>0</start>
                            <end>1544</end>
                            <effect>
                                <name>Audio Levels</name>
                                <effectid>audiolevels</effectid>
                                <effecttype>audiolevels</effecttype>
                                <mediatype>audio</mediatype>
                                <effectcategory>audiolevels</effectcategory>
                                <parameter>
                                    <name>Level</name>
                                    <parameterid>level</parameterid>
                                    <value>1</value>
                                    <valuemin>1e-05</valuemin>
                                    <valuemax>31.6228</valuemax>
                                </parameter>
                            </effect>
                        </filter>
                        <filter>
                            <enabled>TRUE</enabled>
                            <start>0</start>
                            <end>1544</end>
                            <effect>
                                <name>Audio Pan</name>
                                <effectid>audiopan</effectid>
                                <effecttype>audiopan</effecttype>
                                <mediatype>audio</mediatype>
                                <effectcategory>audiopan</effectcategory>
                                <parameter>
                                    <name>Pan</name>
                                    <parameterid>pan</parameterid>
                                    <value>0</value>
                                    <valuemin>-1</valuemin>
                                    <valuemax>1</valuemax>
                                </parameter>
                            </effect>
                        </filter>
                        <link>
                            <linkclipref>SecondScenePark.3.2.Take2.WAV 4</linkclipref>
                            <mediatype>audio</mediatype>
                        </link>
                        <link>
                            <linkclipref>SecondScenePark.3.2.Take2.WAV 3</linkclipref>
                            <mediatype>audio</mediatype>
                        </link>
                        <link>
                            <linkclipref>SecondScenePark.3.2.Take2.WAV 2</linkclipref>
                            <mediatype>audio</mediatype>
                        </link>
                        <link>
                            <linkclipref>SecondScenePark.3.2.Take2.WAV 0</linkclipref>
                            <mediatype>audio</mediatype>
                        </link>
                        <link>
                            <linkclipref>SecondScenePark.3.2.Take2.WAV 5</linkclipref>
                        </link>
                        <comments/>
                    </clipitem>
                    <clipitem id="SecondScenePark.3.2.Take3.WAV 10">
                        <name>SecondScenePark.3.2.Take3.WAV</name>
                        <duration>1661</duration>
                        <rate>
                            <timebase>24</timebase>
                            <ntsc>TRUE</ntsc>
                        </rate>
                        <start>26688</start>
                        <end>28258</end>
                        <enabled>TRUE</enabled>
                        <in>0</in>
                        <out>1569</out>
                        <file id="SecondScenePark.3.2.Take3.WAV 1"/>
                        <sourcetrack>
                            <mediatype>audio</mediatype>
                            <trackindex>5</trackindex>
                        </sourcetrack>
                        <filter>
                            <enabled>TRUE</enabled>
                            <start>0</start>
                            <end>1661</end>
                            <effect>
                                <name>Audio Levels</name>
                                <effectid>audiolevels</effectid>
                                <effecttype>audiolevels</effecttype>
                                <mediatype>audio</mediatype>
                                <effectcategory>audiolevels</effectcategory>
                                <parameter>
                                    <name>Level</name>
                                    <parameterid>level</parameterid>
                                    <value>1</value>
                                    <valuemin>1e-05</valuemin>
                                    <valuemax>31.6228</valuemax>
                                </parameter>
                            </effect>
                        </filter>
                        <filter>
                            <enabled>TRUE</enabled>
                            <start>0</start>
                            <end>1661</end>
                            <effect>
                                <name>Audio Pan</name>
                                <effectid>audiopan</effectid>
                                <effecttype>audiopan</effecttype>
                                <mediatype>audio</mediatype>
                                <effectcategory>audiopan</effectcategory>
                                <parameter>
                                    <name>Pan</name>
                                    <parameterid>pan</parameterid>
                                    <value>0</value>
                                    <valuemin>-1</valuemin>
                                    <valuemax>1</valuemax>
                                </parameter>
                            </effect>
                        </filter>
                        <link>
                            <linkclipref>SecondScenePark.3.2.Take3.WAV 0</linkclipref>
                            <mediatype>audio</mediatype>
                        </link>
                        <link>
                            <linkclipref>SecondScenePark.3.2.Take3.WAV 8</linkclipref>
                            <mediatype>audio</mediatype>
                        </link>
                        <link>
                            <linkclipref>SecondScenePark.3.2.Take3.WAV 6</linkclipref>
                            <mediatype>audio</mediatype>
                        </link>
                        <link>
                            <linkclipref>SecondScenePark.3.2.Take3.WAV 4</linkclipref>
                            <mediatype>audio</mediatype>
                        </link>
                        <link>
                            <linkclipref>SecondScenePark.3.2.Take3.WAV 10</linkclipref>
                        </link>
                        <comments/>
                    </clipitem>
                    <clipitem id="SecondScenePark.3.2.Banana.Take1.WAV 5">
                        <name>SecondScenePark.3.2.Banana.Take1.WAV</name>
                        <duration>1376</duration>
                        <rate>
                            <timebase>24</timebase>
                            <ntsc>TRUE</ntsc>
                        </rate>
                        <start>28258</start>
                        <end>29427</end>
                        <enabled>TRUE</enabled>
                        <in>102</in>
                        <out>1271</out>
                        <file id="SecondScenePark.3.2.Banana.Take1.WAV 1"/>
                        <sourcetrack>
                            <mediatype>audio</mediatype>
                            <trackindex>5</trackindex>
                        </sourcetrack>
                        <filter>
                            <enabled>TRUE</enabled>
                            <start>0</start>
                            <end>1376</end>
                            <effect>
                                <name>Audio Levels</name>
                                <effectid>audiolevels</effectid>
                                <effecttype>audiolevels</effecttype>
                                <mediatype>audio</mediatype>
                                <effectcategory>audiolevels</effectcategory>
                                <parameter>
                                    <name>Level</name>
                                    <parameterid>level</parameterid>
                                    <value>1</value>
                                    <valuemin>1e-05</valuemin>
                                    <valuemax>31.6228</valuemax>
                                </parameter>
                            </effect>
                        </filter>
                        <filter>
                            <enabled>TRUE</enabled>
                            <start>0</start>
                            <end>1376</end>
                            <effect>
                                <name>Audio Pan</name>
                                <effectid>audiopan</effectid>
                                <effecttype>audiopan</effecttype>
                                <mediatype>audio</mediatype>
                                <effectcategory>audiopan</effectcategory>
                                <parameter>
                                    <name>Pan</name>
                                    <parameterid>pan</parameterid>
                                    <value>0</value>
                                    <valuemin>-1</valuemin>
                                    <valuemax>1</valuemax>
                                </parameter>
                            </effect>
                        </filter>
                        <link>
                            <linkclipref>SecondScenePark.3.2.Banana.Take1.WAV 0</linkclipref>
                            <mediatype>audio</mediatype>
                        </link>
                        <link>
                            <linkclipref>SecondScenePark.3.2.Banana.Take1.WAV 4</linkclipref>
                            <mediatype>audio</mediatype>
                        </link>
                        <link>
                            <linkclipref>SecondScenePark.3.2.Banana.Take1.WAV 3</linkclipref>
                            <mediatype>audio</mediatype>
                        </link>
                        <link>
                            <linkclipref>SecondScenePark.3.2.Banana.Take1.WAV 2</linkclipref>
                            <mediatype>audio</mediatype>
                        </link>
                        <link>
                            <linkclipref>SecondScenePark.3.2.Banana.Take1.WAV 5</linkclipref>
                        </link>
                        <comments/>
                    </clipitem>
                    <clipitem id="SecondScenePark.3.2.Take3.WAV 11">
                        <name>SecondScenePark.3.2.Take3.WAV</name>
                        <duration>900</duration>
                        <rate>
                            <timebase>24</timebase>
                            <ntsc>TRUE</ntsc>
                        </rate>
                        <start>29432</start>
                        <end>30227</end>
                        <enabled>TRUE</enabled>
                        <in>0</in>
                        <out>795</out>
                        <file id="SecondScenePark.3.2.Take3.WAV 3"/>
                        <sourcetrack>
                            <mediatype>audio</mediatype>
                            <trackindex>5</trackindex>
                        </sourcetrack>
                        <filter>
                            <enabled>TRUE</enabled>
                            <start>0</start>
                            <end>900</end>
                            <effect>
                                <name>Audio Levels</name>
                                <effectid>audiolevels</effectid>
                                <effecttype>audiolevels</effecttype>
                                <mediatype>audio</mediatype>
                                <effectcategory>audiolevels</effectcategory>
                                <parameter>
                                    <name>Level</name>
                                    <parameterid>level</parameterid>
                                    <value>1</value>
                                    <valuemin>1e-05</valuemin>
                                    <valuemax>31.6228</valuemax>
                                </parameter>
                            </effect>
                        </filter>
                        <filter>
                            <enabled>TRUE</enabled>
                            <start>0</start>
                            <end>900</end>
                            <effect>
                                <name>Audio Pan</name>
                                <effectid>audiopan</effectid>
                                <effecttype>audiopan</effecttype>
                                <mediatype>audio</mediatype>
                                <effectcategory>audiopan</effectcategory>
                                <parameter>
                                    <name>Pan</name>
                                    <parameterid>pan</parameterid>
                                    <value>0</value>
                                    <valuemin>-1</valuemin>
                                    <valuemax>1</valuemax>
                                </parameter>
                            </effect>
                        </filter>
                        <link>
                            <linkclipref>SecondScenePark.3.2.Take3.WAV 2</linkclipref>
                            <mediatype>audio</mediatype>
                        </link>
                        <link>
                            <linkclipref>SecondScenePark.3.2.Take3.WAV 9</linkclipref>
                            <mediatype>audio</mediatype>
                        </link>
                        <link>
                            <linkclipref>SecondScenePark.3.2.Take3.WAV 7</linkclipref>
                            <mediatype>audio</mediatype>
                        </link>
                        <link>
                            <linkclipref>SecondScenePark.3.2.Take3.WAV 5</linkclipref>
                            <mediatype>audio</mediatype>
                        </link>
                        <link>
                            <linkclipref>SecondScenePark.3.2.Take3.WAV 11</linkclipref>
                        </link>
                        <comments/>
                    </clipitem>
                    <clipitem id="SecondScenePark.3.4.Take1.WAV 5">
                        <name>SecondScenePark.3.4.Take1.WAV</name>
                        <duration>1922</duration>
                        <rate>
                            <timebase>24</timebase>
                            <ntsc>TRUE</ntsc>
                        </rate>
                        <start>30227</start>
                        <end>31522</end>
                        <enabled>TRUE</enabled>
                        <in>205</in>
                        <out>1499</out>
                        <file id="SecondScenePark.3.4.Take1.WAV 1"/>
                        <sourcetrack>
                            <mediatype>audio</mediatype>
                            <trackindex>5</trackindex>
                        </sourcetrack>
                        <filter>
                            <enabled>TRUE</enabled>
                            <start>0</start>
                            <end>1922</end>
                            <effect>
                                <name>Audio Levels</name>
                                <effectid>audiolevels</effectid>
                                <effecttype>audiolevels</effecttype>
                                <mediatype>audio</mediatype>
                                <effectcategory>audiolevels</effectcategory>
                                <parameter>
                                    <name>Level</name>
                                    <parameterid>level</parameterid>
                                    <value>1</value>
                                    <valuemin>1e-05</valuemin>
                                    <valuemax>31.6228</valuemax>
                                </parameter>
                            </effect>
                        </filter>
                        <filter>
                            <enabled>TRUE</enabled>
                            <start>0</start>
                            <end>1922</end>
                            <effect>
                                <name>Audio Pan</name>
                                <effectid>audiopan</effectid>
                                <effecttype>audiopan</effecttype>
                                <mediatype>audio</mediatype>
                                <effectcategory>audiopan</effectcategory>
                                <parameter>
                                    <name>Pan</name>
                                    <parameterid>pan</parameterid>
                                    <value>0</value>
                                    <valuemin>-1</valuemin>
                                    <valuemax>1</valuemax>
                                </parameter>
                            </effect>
                        </filter>
                        <link>
                            <linkclipref>SecondScenePark.3.4.Take1.WAV 4</linkclipref>
                            <mediatype>audio</mediatype>
                        </link>
                        <link>
                            <linkclipref>SecondScenePark.3.4.Take1.WAV 3</linkclipref>
                            <mediatype>audio</mediatype>
                        </link>
                        <link>
                            <linkclipref>SecondScenePark.3.4.Take1.WAV 2</linkclipref>
                            <mediatype>audio</mediatype>
                        </link>
                        <link>
                            <linkclipref>SecondScenePark.3.4.Take1.WAV 0</linkclipref>
                            <mediatype>audio</mediatype>
                        </link>
                        <link>
                            <linkclipref>SecondScenePark.3.4.Take1.WAV 5</linkclipref>
                        </link>
                        <comments/>
                    </clipitem>
                    <clipitem id="SecondScenePark.3.4.Take2.WAV 5">
                        <name>SecondScenePark.3.4.Take2.WAV</name>
                        <duration>2334</duration>
                        <rate>
                            <timebase>24</timebase>
                            <ntsc>TRUE</ntsc>
                        </rate>
                        <start>31522</start>
                        <end>33370</end>
                        <enabled>TRUE</enabled>
                        <in>142</in>
                        <out>1989</out>
                        <file id="SecondScenePark.3.4.Take2.WAV 1"/>
                        <sourcetrack>
                            <mediatype>audio</mediatype>
                            <trackindex>5</trackindex>
                        </sourcetrack>
                        <filter>
                            <enabled>TRUE</enabled>
                            <start>0</start>
                            <end>2334</end>
                            <effect>
                                <name>Audio Levels</name>
                                <effectid>audiolevels</effectid>
                                <effecttype>audiolevels</effecttype>
                                <mediatype>audio</mediatype>
                                <effectcategory>audiolevels</effectcategory>
                                <parameter>
                                    <name>Level</name>
                                    <parameterid>level</parameterid>
                                    <value>1</value>
                                    <valuemin>1e-05</valuemin>
                                    <valuemax>31.6228</valuemax>
                                </parameter>
                            </effect>
                        </filter>
                        <filter>
                            <enabled>TRUE</enabled>
                            <start>0</start>
                            <end>2334</end>
                            <effect>
                                <name>Audio Pan</name>
                                <effectid>audiopan</effectid>
                                <effecttype>audiopan</effecttype>
                                <mediatype>audio</mediatype>
                                <effectcategory>audiopan</effectcategory>
                                <parameter>
                                    <name>Pan</name>
                                    <parameterid>pan</parameterid>
                                    <value>0</value>
                                    <valuemin>-1</valuemin>
                                    <valuemax>1</valuemax>
                                </parameter>
                            </effect>
                        </filter>
                        <link>
                            <linkclipref>SecondScenePark.3.4.Take2.WAV 4</linkclipref>
                            <mediatype>audio</mediatype>
                        </link>
                        <link>
                            <linkclipref>SecondScenePark.3.4.Take2.WAV 3</linkclipref>
                            <mediatype>audio</mediatype>
                        </link>
                        <link>
                            <linkclipref>SecondScenePark.3.4.Take2.WAV 2</linkclipref>
                            <mediatype>audio</mediatype>
                        </link>
                        <link>
                            <linkclipref>SecondScenePark.3.4.Take2.WAV 0</linkclipref>
                            <mediatype>audio</mediatype>
                        </link>
                        <link>
                            <linkclipref>SecondScenePark.3.4.Take2.WAV 5</linkclipref>
                        </link>
                        <comments/>
                    </clipitem>
                    <clipitem id="SecondScenePark.3.5.Apple.Take1.WAV 5">
                        <name>SecondScenePark.3.5.Apple.Take1.WAV</name>
                        <duration>885</duration>
                        <rate>
                            <timebase>24</timebase>
                            <ntsc>TRUE</ntsc>
                        </rate>
                        <start>33446</start>
                        <end>34224</end>
                        <enabled>TRUE</enabled>
                        <in>0</in>
                        <out>778</out>
                        <file id="SecondScenePark.3.5.Apple.Take1.WAV 1"/>
                        <sourcetrack>
                            <mediatype>audio</mediatype>
                            <trackindex>5</trackindex>
                        </sourcetrack>
                        <filter>
                            <enabled>TRUE</enabled>
                            <start>0</start>
                            <end>885</end>
                            <effect>
                                <name>Audio Levels</name>
                                <effectid>audiolevels</effectid>
                                <effecttype>audiolevels</effecttype>
                                <mediatype>audio</mediatype>
                                <effectcategory>audiolevels</effectcategory>
                                <parameter>
                                    <name>Level</name>
                                    <parameterid>level</parameterid>
                                    <value>1</value>
                                    <valuemin>1e-05</valuemin>
                                    <valuemax>31.6228</valuemax>
                                </parameter>
                            </effect>
                        </filter>
                        <filter>
                            <enabled>TRUE</enabled>
                            <start>0</start>
                            <end>885</end>
                            <effect>
                                <name>Audio Pan</name>
                                <effectid>audiopan</effectid>
                                <effecttype>audiopan</effecttype>
                                <mediatype>audio</mediatype>
                                <effectcategory>audiopan</effectcategory>
                                <parameter>
                                    <name>Pan</name>
                                    <parameterid>pan</parameterid>
                                    <value>0</value>
                                    <valuemin>-1</valuemin>
                                    <valuemax>1</valuemax>
                                </parameter>
                            </effect>
                        </filter>
                        <link>
                            <linkclipref>SecondScenePark.3.5.Apple.Take1.WAV 4</linkclipref>
                            <mediatype>audio</mediatype>
                        </link>
                        <link>
                            <linkclipref>SecondScenePark.3.5.Apple.Take1.WAV 3</linkclipref>
                            <mediatype>audio</mediatype>
                        </link>
                        <link>
                            <linkclipref>SecondScenePark.3.5.Apple.Take1.WAV 2</linkclipref>
                            <mediatype>audio</mediatype>
                        </link>
                        <link>
                            <linkclipref>SecondScenePark.3.5.Apple.Take1.WAV 0</linkclipref>
                            <mediatype>audio</mediatype>
                        </link>
                        <link>
                            <linkclipref>SecondScenePark.3.5.Apple.Take1.WAV 5</linkclipref>
                        </link>
                        <comments/>
                    </clipitem>
                    <clipitem id="SecondScenePark.3.5.Banana.Take1.WAV 5">
                        <name>SecondScenePark.3.5.Banana.Take1.WAV</name>
                        <duration>1340</duration>
                        <rate>
                            <timebase>24</timebase>
                            <ntsc>TRUE</ntsc>
                        </rate>
                        <start>34224</start>
                        <end>35150</end>
                        <enabled>TRUE</enabled>
                        <in>414</in>
                        <out>1340</out>
                        <file id="SecondScenePark.3.5.Banana.Take1.WAV 1"/>
                        <sourcetrack>
                            <mediatype>audio</mediatype>
                            <trackindex>5</trackindex>
                        </sourcetrack>
                        <filter>
                            <enabled>TRUE</enabled>
                            <start>0</start>
                            <end>1340</end>
                            <effect>
                                <name>Audio Levels</name>
                                <effectid>audiolevels</effectid>
                                <effecttype>audiolevels</effecttype>
                                <mediatype>audio</mediatype>
                                <effectcategory>audiolevels</effectcategory>
                                <parameter>
                                    <name>Level</name>
                                    <parameterid>level</parameterid>
                                    <value>1</value>
                                    <valuemin>1e-05</valuemin>
                                    <valuemax>31.6228</valuemax>
                                </parameter>
                            </effect>
                        </filter>
                        <filter>
                            <enabled>TRUE</enabled>
                            <start>0</start>
                            <end>1340</end>
                            <effect>
                                <name>Audio Pan</name>
                                <effectid>audiopan</effectid>
                                <effecttype>audiopan</effecttype>
                                <mediatype>audio</mediatype>
                                <effectcategory>audiopan</effectcategory>
                                <parameter>
                                    <name>Pan</name>
                                    <parameterid>pan</parameterid>
                                    <value>0</value>
                                    <valuemin>-1</valuemin>
                                    <valuemax>1</valuemax>
                                </parameter>
                            </effect>
                        </filter>
                        <link>
                            <linkclipref>SecondScenePark.3.5.Banana.Take1.WAV 4</linkclipref>
                            <mediatype>audio</mediatype>
                        </link>
                        <link>
                            <linkclipref>SecondScenePark.3.5.Banana.Take1.WAV 3</linkclipref>
                            <mediatype>audio</mediatype>
                        </link>
                        <link>
                            <linkclipref>SecondScenePark.3.5.Banana.Take1.WAV 2</linkclipref>
                            <mediatype>audio</mediatype>
                        </link>
                        <link>
                            <linkclipref>SecondScenePark.3.5.Banana.Take1.WAV 0</linkclipref>
                            <mediatype>audio</mediatype>
                        </link>
                        <link>
                            <linkclipref>SecondScenePark.3.5.Banana.Take1.WAV 5</linkclipref>
                        </link>
                        <comments/>
                    </clipitem>
                    <clipitem id="SecondScenePark.3.5.Take1.WAV 5">
                        <name>SecondScenePark.3.5.Take1.WAV</name>
                        <duration>1038</duration>
                        <rate>
                            <timebase>24</timebase>
                            <ntsc>TRUE</ntsc>
                        </rate>
                        <start>35158</start>
                        <end>36196</end>
                        <enabled>TRUE</enabled>
                        <in>0</in>
                        <out>1038</out>
                        <file id="SecondScenePark.3.5.Take1.WAV 1"/>
                        <sourcetrack>
                            <mediatype>audio</mediatype>
                            <trackindex>5</trackindex>
                        </sourcetrack>
                        <filter>
                            <enabled>TRUE</enabled>
                            <start>0</start>
                            <end>1038</end>
                            <effect>
                                <name>Audio Levels</name>
                                <effectid>audiolevels</effectid>
                                <effecttype>audiolevels</effecttype>
                                <mediatype>audio</mediatype>
                                <effectcategory>audiolevels</effectcategory>
                                <parameter>
                                    <name>Level</name>
                                    <parameterid>level</parameterid>
                                    <value>1</value>
                                    <valuemin>1e-05</valuemin>
                                    <valuemax>31.6228</valuemax>
                                </parameter>
                            </effect>
                        </filter>
                        <filter>
                            <enabled>TRUE</enabled>
                            <start>0</start>
                            <end>1038</end>
                            <effect>
                                <name>Audio Pan</name>
                                <effectid>audiopan</effectid>
                                <effecttype>audiopan</effecttype>
                                <mediatype>audio</mediatype>
                                <effectcategory>audiopan</effectcategory>
                                <parameter>
                                    <name>Pan</name>
                                    <parameterid>pan</parameterid>
                                    <value>0</value>
                                    <valuemin>-1</valuemin>
                                    <valuemax>1</valuemax>
                                </parameter>
                            </effect>
                        </filter>
                        <link>
                            <linkclipref>SecondScenePark.3.5.Take1.WAV 0</linkclipref>
                            <mediatype>audio</mediatype>
                        </link>
                        <link>
                            <linkclipref>SecondScenePark.3.5.Take1.WAV 4</linkclipref>
                            <mediatype>audio</mediatype>
                        </link>
                        <link>
                            <linkclipref>SecondScenePark.3.5.Take1.WAV 3</linkclipref>
                            <mediatype>audio</mediatype>
                        </link>
                        <link>
                            <linkclipref>SecondScenePark.3.5.Take1.WAV 2</linkclipref>
                            <mediatype>audio</mediatype>
                        </link>
                        <link>
                            <linkclipref>SecondScenePark.3.5.Take1.WAV 5</linkclipref>
                        </link>
                        <comments/>
                    </clipitem>
                    <clipitem id="SecondScenePark.3.5.Take2.WAV 5">
                        <name>SecondScenePark.3.5.Take2.WAV</name>
                        <duration>781</duration>
                        <rate>
                            <timebase>24</timebase>
                            <ntsc>TRUE</ntsc>
                        </rate>
                        <start>36341</start>
                        <end>37122</end>
                        <enabled>TRUE</enabled>
                        <in>0</in>
                        <out>781</out>
                        <file id="SecondScenePark.3.5.Take2.WAV 1"/>
                        <sourcetrack>
                            <mediatype>audio</mediatype>
                            <trackindex>5</trackindex>
                        </sourcetrack>
                        <filter>
                            <enabled>TRUE</enabled>
                            <start>0</start>
                            <end>781</end>
                            <effect>
                                <name>Audio Levels</name>
                                <effectid>audiolevels</effectid>
                                <effecttype>audiolevels</effecttype>
                                <mediatype>audio</mediatype>
                                <effectcategory>audiolevels</effectcategory>
                                <parameter>
                                    <name>Level</name>
                                    <parameterid>level</parameterid>
                                    <value>1</value>
                                    <valuemin>1e-05</valuemin>
                                    <valuemax>31.6228</valuemax>
                                </parameter>
                            </effect>
                        </filter>
                        <filter>
                            <enabled>TRUE</enabled>
                            <start>0</start>
                            <end>781</end>
                            <effect>
                                <name>Audio Pan</name>
                                <effectid>audiopan</effectid>
                                <effecttype>audiopan</effecttype>
                                <mediatype>audio</mediatype>
                                <effectcategory>audiopan</effectcategory>
                                <parameter>
                                    <name>Pan</name>
                                    <parameterid>pan</parameterid>
                                    <value>0</value>
                                    <valuemin>-1</valuemin>
                                    <valuemax>1</valuemax>
                                </parameter>
                            </effect>
                        </filter>
                        <link>
                            <linkclipref>SecondScenePark.3.5.Take2.WAV 4</linkclipref>
                            <mediatype>audio</mediatype>
                        </link>
                        <link>
                            <linkclipref>SecondScenePark.3.5.Take2.WAV 3</linkclipref>
                            <mediatype>audio</mediatype>
                        </link>
                        <link>
                            <linkclipref>SecondScenePark.3.5.Take2.WAV 2</linkclipref>
                            <mediatype>audio</mediatype>
                        </link>
                        <link>
                            <linkclipref>SecondScenePark.3.5.Take2.WAV 0</linkclipref>
                            <mediatype>audio</mediatype>
                        </link>
                        <link>
                            <linkclipref>SecondScenePark.3.5.Take2.WAV 5</linkclipref>
                        </link>
                        <comments/>
                    </clipitem>
                    <enabled>TRUE</enabled>
                    <locked>FALSE</locked>
                </track>
                <track>
                    <clipitem id="SecondScenePark.3.4.TractorSounds.WAV 0">
                        <name>SecondScenePark.3.4.TractorSounds.WAV</name>
                        <duration>661</duration>
                        <rate>
                            <timebase>24</timebase>
                            <ntsc>TRUE</ntsc>
                        </rate>
                        <start>31768</start>
                        <end>32429</end>
                        <enabled>TRUE</enabled>
                        <in>0</in>
                        <out>661</out>
                        <file id="SecondScenePark.3.4.TractorSounds.WAV 1">
                            <duration>661</duration>
                            <rate>
                                <timebase>24</timebase>
                                <ntsc>TRUE</ntsc>
                            </rate>
                            <name>1A-1221.WAV</name>
                            <pathurl>file:///Volumes/Jackson/footage/sound/day%202/11-22-22/1A-1221.WAV</pathurl>
                            <media>
                                <audio>
                                    <channelcount>5</channelcount>
                                </audio>
                            </media>
                        </file>
                        <sourcetrack>
                            <mediatype>audio</mediatype>
                            <trackindex>1</trackindex>
                        </sourcetrack>
                        <filter>
                            <enabled>TRUE</enabled>
                            <start>0</start>
                            <end>661</end>
                            <effect>
                                <name>Audio Levels</name>
                                <effectid>audiolevels</effectid>
                                <effecttype>audiolevels</effecttype>
                                <mediatype>audio</mediatype>
                                <effectcategory>audiolevels</effectcategory>
                                <parameter>
                                    <name>Level</name>
                                    <parameterid>level</parameterid>
                                    <value>1</value>
                                    <valuemin>1e-05</valuemin>
                                    <valuemax>31.6228</valuemax>
                                </parameter>
                            </effect>
                        </filter>
                        <filter>
                            <enabled>TRUE</enabled>
                            <start>0</start>
                            <end>661</end>
                            <effect>
                                <name>Audio Pan</name>
                                <effectid>audiopan</effectid>
                                <effecttype>audiopan</effecttype>
                                <mediatype>audio</mediatype>
                                <effectcategory>audiopan</effectcategory>
                                <parameter>
                                    <name>Pan</name>
                                    <parameterid>pan</parameterid>
                                    <value>0</value>
                                    <valuemin>-1</valuemin>
                                    <valuemax>1</valuemax>
                                </parameter>
                            </effect>
                        </filter>
                        <link>
                            <linkclipref>SecondScenePark.3.4.TractorSounds.WAV 0</linkclipref>
                        </link>
                        <link>
                            <linkclipref>SecondScenePark.3.4.TractorSounds.WAV 2</linkclipref>
                        </link>
                        <link>
                            <linkclipref>SecondScenePark.3.4.TractorSounds.WAV 3</linkclipref>
                        </link>
                        <link>
                            <linkclipref>SecondScenePark.3.4.TractorSounds.WAV 4</linkclipref>
                        </link>
                        <link>
                            <linkclipref>SecondScenePark.3.4.TractorSounds.WAV 5</linkclipref>
                        </link>
                        <comments/>
                    </clipitem>
                    <enabled>TRUE</enabled>
                    <locked>FALSE</locked>
                </track>
                <track>
                    <clipitem id="SecondScenePark.3.4.TractorSounds.WAV 2">
                        <name>SecondScenePark.3.4.TractorSounds.WAV</name>
                        <duration>661</duration>
                        <rate>
                            <timebase>24</timebase>
                            <ntsc>TRUE</ntsc>
                        </rate>
                        <start>31768</start>
                        <end>32429</end>
                        <enabled>TRUE</enabled>
                        <in>0</in>
                        <out>661</out>
                        <file id="SecondScenePark.3.4.TractorSounds.WAV 1"/>
                        <sourcetrack>
                            <mediatype>audio</mediatype>
                            <trackindex>2</trackindex>
                        </sourcetrack>
                        <filter>
                            <enabled>TRUE</enabled>
                            <start>0</start>
                            <end>661</end>
                            <effect>
                                <name>Audio Levels</name>
                                <effectid>audiolevels</effectid>
                                <effecttype>audiolevels</effecttype>
                                <mediatype>audio</mediatype>
                                <effectcategory>audiolevels</effectcategory>
                                <parameter>
                                    <name>Level</name>
                                    <parameterid>level</parameterid>
                                    <value>1</value>
                                    <valuemin>1e-05</valuemin>
                                    <valuemax>31.6228</valuemax>
                                </parameter>
                            </effect>
                        </filter>
                        <filter>
                            <enabled>TRUE</enabled>
                            <start>0</start>
                            <end>661</end>
                            <effect>
                                <name>Audio Pan</name>
                                <effectid>audiopan</effectid>
                                <effecttype>audiopan</effecttype>
                                <mediatype>audio</mediatype>
                                <effectcategory>audiopan</effectcategory>
                                <parameter>
                                    <name>Pan</name>
                                    <parameterid>pan</parameterid>
                                    <value>0</value>
                                    <valuemin>-1</valuemin>
                                    <valuemax>1</valuemax>
                                </parameter>
                            </effect>
                        </filter>
                        <link>
                            <linkclipref>SecondScenePark.3.4.TractorSounds.WAV 0</linkclipref>
                            <mediatype>audio</mediatype>
                        </link>
                        <link>
                            <linkclipref>SecondScenePark.3.4.TractorSounds.WAV 2</linkclipref>
                        </link>
                        <link>
                            <linkclipref>SecondScenePark.3.4.TractorSounds.WAV 3</linkclipref>
                        </link>
                        <link>
                            <linkclipref>SecondScenePark.3.4.TractorSounds.WAV 4</linkclipref>
                        </link>
                        <link>
                            <linkclipref>SecondScenePark.3.4.TractorSounds.WAV 5</linkclipref>
                        </link>
                        <comments/>
                    </clipitem>
                    <enabled>TRUE</enabled>
                    <locked>FALSE</locked>
                </track>
                <track>
                    <clipitem id="SecondScenePark.3.4.TractorSounds.WAV 3">
                        <name>SecondScenePark.3.4.TractorSounds.WAV</name>
                        <duration>661</duration>
                        <rate>
                            <timebase>24</timebase>
                            <ntsc>TRUE</ntsc>
                        </rate>
                        <start>31768</start>
                        <end>32429</end>
                        <enabled>TRUE</enabled>
                        <in>0</in>
                        <out>661</out>
                        <file id="SecondScenePark.3.4.TractorSounds.WAV 1"/>
                        <sourcetrack>
                            <mediatype>audio</mediatype>
                            <trackindex>3</trackindex>
                        </sourcetrack>
                        <filter>
                            <enabled>TRUE</enabled>
                            <start>0</start>
                            <end>661</end>
                            <effect>
                                <name>Audio Levels</name>
                                <effectid>audiolevels</effectid>
                                <effecttype>audiolevels</effecttype>
                                <mediatype>audio</mediatype>
                                <effectcategory>audiolevels</effectcategory>
                                <parameter>
                                    <name>Level</name>
                                    <parameterid>level</parameterid>
                                    <value>1</value>
                                    <valuemin>1e-05</valuemin>
                                    <valuemax>31.6228</valuemax>
                                </parameter>
                            </effect>
                        </filter>
                        <filter>
                            <enabled>TRUE</enabled>
                            <start>0</start>
                            <end>661</end>
                            <effect>
                                <name>Audio Pan</name>
                                <effectid>audiopan</effectid>
                                <effecttype>audiopan</effecttype>
                                <mediatype>audio</mediatype>
                                <effectcategory>audiopan</effectcategory>
                                <parameter>
                                    <name>Pan</name>
                                    <parameterid>pan</parameterid>
                                    <value>0</value>
                                    <valuemin>-1</valuemin>
                                    <valuemax>1</valuemax>
                                </parameter>
                            </effect>
                        </filter>
                        <link>
                            <linkclipref>SecondScenePark.3.4.TractorSounds.WAV 0</linkclipref>
                            <mediatype>audio</mediatype>
                        </link>
                        <link>
                            <linkclipref>SecondScenePark.3.4.TractorSounds.WAV 2</linkclipref>
                            <mediatype>audio</mediatype>
                        </link>
                        <link>
                            <linkclipref>SecondScenePark.3.4.TractorSounds.WAV 3</linkclipref>
                        </link>
                        <link>
                            <linkclipref>SecondScenePark.3.4.TractorSounds.WAV 4</linkclipref>
                        </link>
                        <link>
                            <linkclipref>SecondScenePark.3.4.TractorSounds.WAV 5</linkclipref>
                        </link>
                        <comments/>
                    </clipitem>
                    <enabled>TRUE</enabled>
                    <locked>FALSE</locked>
                </track>
                <track>
                    <clipitem id="SecondScenePark.3.4.TractorSounds.WAV 4">
                        <name>SecondScenePark.3.4.TractorSounds.WAV</name>
                        <duration>661</duration>
                        <rate>
                            <timebase>24</timebase>
                            <ntsc>TRUE</ntsc>
                        </rate>
                        <start>31768</start>
                        <end>32429</end>
                        <enabled>TRUE</enabled>
                        <in>0</in>
                        <out>661</out>
                        <file id="SecondScenePark.3.4.TractorSounds.WAV 1"/>
                        <sourcetrack>
                            <mediatype>audio</mediatype>
                            <trackindex>4</trackindex>
                        </sourcetrack>
                        <filter>
                            <enabled>TRUE</enabled>
                            <start>0</start>
                            <end>661</end>
                            <effect>
                                <name>Audio Levels</name>
                                <effectid>audiolevels</effectid>
                                <effecttype>audiolevels</effecttype>
                                <mediatype>audio</mediatype>
                                <effectcategory>audiolevels</effectcategory>
                                <parameter>
                                    <name>Level</name>
                                    <parameterid>level</parameterid>
                                    <value>1</value>
                                    <valuemin>1e-05</valuemin>
                                    <valuemax>31.6228</valuemax>
                                </parameter>
                            </effect>
                        </filter>
                        <filter>
                            <enabled>TRUE</enabled>
                            <start>0</start>
                            <end>661</end>
                            <effect>
                                <name>Audio Pan</name>
                                <effectid>audiopan</effectid>
                                <effecttype>audiopan</effecttype>
                                <mediatype>audio</mediatype>
                                <effectcategory>audiopan</effectcategory>
                                <parameter>
                                    <name>Pan</name>
                                    <parameterid>pan</parameterid>
                                    <value>0</value>
                                    <valuemin>-1</valuemin>
                                    <valuemax>1</valuemax>
                                </parameter>
                            </effect>
                        </filter>
                        <link>
                            <linkclipref>SecondScenePark.3.4.TractorSounds.WAV 0</linkclipref>
                            <mediatype>audio</mediatype>
                        </link>
                        <link>
                            <linkclipref>SecondScenePark.3.4.TractorSounds.WAV 3</linkclipref>
                            <mediatype>audio</mediatype>
                        </link>
                        <link>
                            <linkclipref>SecondScenePark.3.4.TractorSounds.WAV 2</linkclipref>
                            <mediatype>audio</mediatype>
                        </link>
                        <link>
                            <linkclipref>SecondScenePark.3.4.TractorSounds.WAV 4</linkclipref>
                        </link>
                        <link>
                            <linkclipref>SecondScenePark.3.4.TractorSounds.WAV 5</linkclipref>
                        </link>
                        <comments/>
                    </clipitem>
                    <enabled>TRUE</enabled>
                    <locked>FALSE</locked>
                </track>
                <track>
                    <clipitem id="SecondScenePark.3.4.TractorSounds.WAV 5">
                        <name>SecondScenePark.3.4.TractorSounds.WAV</name>
                        <duration>661</duration>
                        <rate>
                            <timebase>24</timebase>
                            <ntsc>TRUE</ntsc>
                        </rate>
                        <start>31768</start>
                        <end>32429</end>
                        <enabled>TRUE</enabled>
                        <in>0</in>
                        <out>661</out>
                        <file id="SecondScenePark.3.4.TractorSounds.WAV 1"/>
                        <sourcetrack>
                            <mediatype>audio</mediatype>
                            <trackindex>5</trackindex>
                        </sourcetrack>
                        <filter>
                            <enabled>TRUE</enabled>
                            <start>0</start>
                            <end>661</end>
                            <effect>
                                <name>Audio Levels</name>
                                <effectid>audiolevels</effectid>
                                <effecttype>audiolevels</effecttype>
                                <mediatype>audio</mediatype>
                                <effectcategory>audiolevels</effectcategory>
                                <parameter>
                                    <name>Level</name>
                                    <parameterid>level</parameterid>
                                    <value>1</value>
                                    <valuemin>1e-05</valuemin>
                                    <valuemax>31.6228</valuemax>
                                </parameter>
                            </effect>
                        </filter>
                        <filter>
                            <enabled>TRUE</enabled>
                            <start>0</start>
                            <end>661</end>
                            <effect>
                                <name>Audio Pan</name>
                                <effectid>audiopan</effectid>
                                <effecttype>audiopan</effecttype>
                                <mediatype>audio</mediatype>
                                <effectcategory>audiopan</effectcategory>
                                <parameter>
                                    <name>Pan</name>
                                    <parameterid>pan</parameterid>
                                    <value>0</value>
                                    <valuemin>-1</valuemin>
                                    <valuemax>1</valuemax>
                                </parameter>
                            </effect>
                        </filter>
                        <link>
                            <linkclipref>SecondScenePark.3.4.TractorSounds.WAV 0</linkclipref>
                            <mediatype>audio</mediatype>
                        </link>
                        <link>
                            <linkclipref>SecondScenePark.3.4.TractorSounds.WAV 4</linkclipref>
                            <mediatype>audio</mediatype>
                        </link>
                        <link>
                            <linkclipref>SecondScenePark.3.4.TractorSounds.WAV 3</linkclipref>
                            <mediatype>audio</mediatype>
                        </link>
                        <link>
                            <linkclipref>SecondScenePark.3.4.TractorSounds.WAV 2</linkclipref>
                            <mediatype>audio</mediatype>
                        </link>
                        <link>
                            <linkclipref>SecondScenePark.3.4.TractorSounds.WAV 5</linkclipref>
                        </link>
                        <comments/>
                    </clipitem>
                    <enabled>TRUE</enabled>
                    <locked>FALSE</locked>
                </track>
            </audio>
        </media>
    </sequence>
</xmeml>
